<?xml version='1.0' encoding='utf-8'?><svg xmlns="http://www.w3.org/2000/svg" xmlns:xlink="http://www.w3.org/1999/xlink" id="Append-Icon" x="0" y="0" baseProfile="tiny" overflow="visible" version="1.2" viewBox="0 0 200 200" xml:space="preserve"><path d="M62.5 62.4 7.5 44 44.2 7.3z"/><path d="M93.9 14.7c-3.7.5-7.5 1.3-11.2 2.3-3.6 1-7.1 2.2-10.5 3.5l16.4 16.4c2.7-.7 5.5-1.3 8.2-1.6l9.3-1.3 5.2-7.9 1.4-2.1 30 8 .1 2.5.5 9.4 7.5 5.8c12.4 9.7 21.1 22.8 25.2 38 1.6 6.1 2.5 12.4 2.5 18.6 0 9.2-1.8 18.3-5.3 26.9l-3.6 8.8 4.3 8.4 1.1 2.2-22 22-2.2-1.1-8.4-4.3-8.7 3.5c-2.7 1.1-5.6 2.1-8.4 2.8-27.9 7.5-57.5-2.4-75.2-25.2l-5.8-7.4-9.4-.5-2.5-.1-8-30 2.1-1.3 7.9-5.2 1.3-9.3c.4-2.8.9-5.5 1.6-8.2L20.8 71.9C18 78.8 16 86.1 15 93.6L.4 103.2l15.8 59.1 17.5 1c22.2 28.4 60 42.4 97 32.5 3.7-1 7.4-2.2 10.8-3.6l15.6 7.9 43.2-43.2-7.9-15.6c4.4-10.9 6.8-22.7 6.8-34.7 0-7.9-1-16-3.2-24-5.4-20.2-17.2-37.1-32.5-49.1l-1-17.5-59-16-9.6 14.7z"/><circle cx="106.6" cy="106" r="72.5" fill="none"/><path d="M106.6 61c-24.9 0-45 20.1-45 45s20.1 45 45 45 45-20.1 45-45-20.2-45-45-45zm30 50h-25v25h-10v-25h-25v-10h25V76h10v25h25v10z"/><path d="M3.7 6.6h25.8v20H3.7z" transform="matrix(0.7071 0.7071 -0.7071 0.7071 16.6282 -6.885)"/></svg>