<?xml version='1.0' encoding='utf-8'?><svg xmlns="http://www.w3.org/2000/svg" xmlns:xlink="http://www.w3.org/1999/xlink" id="Backlinks-Icon" x="0" y="0" baseProfile="tiny" overflow="visible" version="1.2" viewBox="0 0 200 200" xml:space="preserve"><path d="M192.1 141.1c4.4-10.9 6.8-22.7 6.8-34.7 0-7.9-1-16-3.2-24-5.4-20.2-17.2-37.1-32.5-49.1l-1-17.5-59-15.8-9.6 14.7c-3.7.5-7.5 1.3-11.2 2.3-3.6 1-7.1 2.1-10.5 3.5l-10-10-18.3 55 55.1-18.4-10.3-10.3c2.7-.7 5.4-1.2 8.1-1.6l9.3-1.3L111 26l1.4-2.1 30 8 .1 2.5.5 9.4 7.5 5.8c12.4 9.7 21.1 22.8 25.2 38 1.6 6.1 2.5 12.4 2.5 18.6 0 9.2-1.8 18.3-5.3 26.9l-3.6 8.8 4.3 8.4 1.1 2.2-22 22-2.2-1.1-8.4-4.3-8.7 3.5c-2.7 1.1-5.6 2.1-8.4 2.8-27.9 7.5-57.5-2.4-75.2-25.2l-5.8-7.4-9.4-.5-2.5-.1-8-30L26 111l7.9-5.2 1.3-9.3c.4-2.8.9-5.5 1.6-8.2L20.5 71.9c-2.8 6.9-4.8 14.2-5.8 21.8L0 103.2l15.8 59.1 17.5 1c22.2 28.4 60 42.4 97 32.5 3.7-1 7.4-2.2 10.8-3.6l15.6 7.9 43.2-43.2-7.8-15.8z"/><path d="M102.2 108.3c-4.4 5.7-13-1-8.6-6.7l3.3-4.3c7.1-9.1 17-9.9 24.8-6.1 2.9 1.3 5.7 3.5 7.7 6 5.6 6.6 7.2 16.5.1 25.6l-20.9 26.9c-4.8 6.2-11 8.4-17 7.9-7.6 0-15.5-5.5-18.3-12.6-3.9-8.1-1.7-16.1 5.2-23.9 2.1 2.9 5.3 5.3 8.6 6.7-1.5 2-4.1 4.8-4.4 7.4-1.5 6.5 4.8 12.8 11.3 11.5 2.1-.3 4.3-1.4 6-3.6 4.9-6.3 20.9-26.9 20.9-26.9 1.3-1.6 1.9-3.3 2-4.9 1.1-9.8-11.4-14.8-17.4-7.1l-3.3 4.1z"/><path d="M117.3 113.5c4.4-5.7-4.1-12.5-8.6-6.7l-3.3 4.3c-6 7.7-18.5 2.7-17.4-7.1.1-1.6.7-3.3 2-4.9 0 0 16-20.6 20.9-26.9 1.7-2.2 3.9-3.3 6-3.6 6.5-1.4 12.8 5 11.3 11.5-.3 2.6-2.9 5.4-4.4 7.4 3.3 1.3 6.5 3.8 8.6 6.7 6.9-7.8 9.2-15.8 5.2-23.9-2.8-7.2-10.7-12.6-18.3-12.6-6-.5-12.2 1.7-17 7.9L81.4 92.5c-7.1 9.1-5.4 18.9.1 25.6 2 2.5 4.8 4.7 7.7 6 7.8 3.7 17.7 3 24.8-6.1l3.3-4.5z"/></svg>