<?xml version="1.0" encoding="utf-8"?><svg xmlns="http://www.w3.org/2000/svg" xmlns:xlink="http://www.w3.org/1999/xlink" id="bilibili_logo" x="0" y="0" baseProfile="tiny" overflow="visible" version="1.2" viewBox="0 0 2215 2080" xml:space="preserve"><path d="M1536.5 714.3h-858c-58 0-105.1 47.2-105.1 105.1v549.5c0 58 47.2 105.1 105.1 105.1h858.1c58 0 105.1-47.2 105.1-105.1V819.4c0-57.9-47.2-105.1-105.2-105.1zM681.2 958.6l280.6-49.5 20.6 116.9-280.6 49.5-20.6-116.9zm570.3 317.7c-18.8 18.8-43.8 29.6-70.5 30.3-26.9.7-53.6-10.9-73.5-31.2-19.3 19.7-45 31.2-71.1 31.2h-2.4c-26.6-.8-51.7-11.5-70.5-30.3l-17.7-17.7 33.6-33.6 17.7 17.7c10.2 10.2 23.8 16 38.2 16.4 17.1.7 35.1-9.8 46.3-26.9l25.9-39.7 25.9 39.7c11.2 17.1 29.1 27.8 46.3 26.9 14.4-.4 28-6.2 38.2-16.4l17.7-17.7 33.6 33.6-17.7 17.7zm261.7-200.8-280.6-49.5 20.6-116.9 280.6 49.5-20.6 116.9z"/><path d="M2090 1212.1c4.9-40 7.5-80.8 7.5-122.1 0-410-249.3-761.8-604.6-912.1L1434.5 0h-654l-58.4 177.9C366.8 328.2 117.5 680 117.5 1090c0 41.4 2.6 82.1 7.5 122.1L0 1351.8l327 566.4 183.5-38.4c166 125.7 372.8 200.2 597 200.2s431-74.5 597-200.2l183.5 38.4 327-566.4-125-139.7zm-329.6 156.8c0 123.6-100.2 223.8-223.8 223.8H1501c-3.4 36.2-33.5 64.6-70.6 64.6-37.1 0-67.1-28.4-70.6-64.6H855.1c-3.4 36.2-33.5 64.6-70.6 64.6-37.1 0-67.1-28.4-70.6-64.6h-35.5c-123.6 0-223.8-100.2-223.8-223.8V819.4c0-123.6 100.2-223.8 223.8-223.8h211.8l-91.8-91.8c-18.5-18.5-18.5-48.6 0-67.1 18.5-18.5 48.6-18.5 67.1 0l158.9 158.9h166l158.9-158.9c18.5-18.5 48.6-18.5 67.1 0 18.5 18.5 18.5 48.6 0 67.1l-91.8 91.8h211.8c123.6 0 223.8 100.2 223.8 223.8v549.5z"/></svg>
