<?xml version='1.0' encoding='utf-8'?><svg xmlns="http://www.w3.org/2000/svg" xmlns:xlink="http://www.w3.org/1999/xlink" id="Edit-Icon" x="0" y="0" baseProfile="tiny" overflow="visible" version="1.2" viewBox="0 0 200 200" xml:space="preserve"><path d="M103.1 36.1h50v71.7h-50z" transform="matrix(0.7071 0.7071 -0.7071 0.7071 88.3726 -69.4924)"/><path d="m60.3 139.7 17.7-53 35.3 35.3z"/><path d="M146.1 13.9h50v30h-50z" transform="matrix(0.7071 0.7071 -0.7071 0.7071 70.5477 -112.5254)"/><path d="M178.5 97.5c-.5-3.6-1.2-7.2-2.2-10.8-.9-3.5-2.1-6.9-3.4-10.2l-15.8 15.8c.7 2.6 1.2 5.3 1.6 7.9l1.3 9 7.6 5 2 1.3-7.7 28.9-2.4.1-9.1.5-5.6 7.2c-9.3 12-22 20.4-36.6 24.3-5.9 1.6-11.9 2.4-17.9 2.4-8.9 0-17.6-1.7-25.9-5.1l-8.4-3.4-8.1 4.1-2.1 1.1-21.2-21.2 1.1-2.1 4.1-8.1-3.4-8.4c-1.1-2.6-2-5.4-2.7-8.1C16.5 100.8 26 72.4 48 55.2l7.2-5.6.5-9.1.1-2.4 28.9-7.7 1.3 2 5 7.6 9 1.3c2.7.4 5.3.9 7.9 1.6l15.8-15.8c-6.7-2.7-13.7-4.6-21-5.6L93.3 7.4 36.4 22.6l-.9 16.8C8 60.8-5.4 97.2 4.1 132.9c1 3.6 2.1 7.1 3.5 10.4L0 158.4 41.6 200l15.1-7.6c10.5 4.3 21.8 6.6 33.5 6.6 7.6 0 15.4-1 23.1-3.1 19.5-5.2 35.7-16.5 47.3-31.3l16.9-.9 15.2-56.9-14.2-9.3z"/></svg>