<?xml version='1.0' encoding='utf-8'?><svg xmlns="http://www.w3.org/2000/svg" xmlns:xlink="http://www.w3.org/1999/xlink" id="Files-Icon" x="0" y="0" baseProfile="tiny" overflow="visible" version="1.2" viewBox="0 0 200 200" xml:space="preserve"><path d="M18.4 43.5.3 48.3l34.5 102.6z"/><path fill="none" d="M60 20v180h140V75l-55-55z"/><path d="M60 200h90.9H60zm85-180H60v180h140V75l-55-55zm35.9 50H150V39.1L180.9 70zm9.1 120H70V30h70v50h50v110z"/><path d="M130 125h-10V10H90v90h10V40h10v70H80V0h50zm86.6 50.6c.2-1.7.3-3.5.3-5.2 0-19.7-11.5-37.4-29.4-45.3l-3-9.1h-34.3l-3 9.1c-17.9 8-29.4 25.7-29.4 45.3 0 1.7.1 3.5.3 5.2l-6.4 7.1 17.2 29.7 9.4-2c8.5 6.2 18.6 9.5 29.2 9.5s20.7-3.3 29.2-9.5l9.4 2 17.2-29.7-6.7-7.1zm-14.8 28.1-7.4-1.6-.7.6c-7.4 6.1-16.8 9.4-26.4 9.4s-19-3.3-26.4-9.4l-.7-.6-7.4 1.6-11.5-20 5.1-5.7-.2-.9c-.4-2.2-.5-4.4-.5-6.7 0-17.2 10.8-32.9 26.9-39.1l.9-.3 2.4-7.2H179l2.4 7.2.9.3c16.1 6.1 26.9 21.8 26.9 39.1 0 2.2-.2 4.5-.5 6.7l-.2.9 5.1 5.7-11.8 20z"/><path d="M200.5 170.4c0-16.9-12.7-31.1-29.3-33v-4.8h-7.8v4.8c-16.6 2-29.3 16.1-29.3 33 0 4.6.9 9 2.7 13.1l-4.1 2.4 3.9 6.8 4.1-2.4c6.3 8.4 16.1 13.3 26.6 13.3s20.4-5 26.6-13.3l4.1 2.4 3.9-6.8-4.1-2.4c1.8-4.1 2.7-8.5 2.7-13.1zm-56.7 0c0-11.5 8.4-21.3 19.6-23.2v7.2H158l7.3 14.7h-.3l.2.3-16.4 1 2.7 4.6-6.2 3.6c-1.1-2.6-1.5-5.4-1.5-8.2zm23.4 23.5c-7 0-13.6-3.1-18.1-8.5l6.2-3.6 2.7 4.6 9-13.7.1.3.1-.3 9 13.7 2.7-4.6 6.2 3.6c-4.2 5.3-10.8 8.5-17.9 8.5zm22-15.3L183 175l2.7-4.6-16.4-1 .2-.3h-.3l7.3-14.7h-5.3v-7.2c11.1 1.9 19.6 11.7 19.6 23.2-.1 2.8-.6 5.6-1.6 8.2z"/><path fill="none" d="M200 200H60V20h85l55 55z"/><path d="m27 30 23 170V28z"/></svg>