<?xml version="1.0" encoding="utf-8"?><svg xmlns="http://www.w3.org/2000/svg" xmlns:xlink="http://www.w3.org/1999/xlink" id="github_logo" x="0" y="0" baseProfile="tiny" overflow="visible" version="1.2" viewBox="0 0 2215 2080" xml:space="preserve"><path d="M2090 1212.1c4.9-40 7.5-80.8 7.5-122.1 0-410-249.3-761.8-604.6-912.1L1434.5 0h-654l-58.4 177.9C366.8 328.2 117.5 680 117.5 1090c0 41.4 2.6 82.1 7.5 122.1L0 1351.8l327 566.4 183.5-38.4c166 125.7 372.8 200.2 597 200.2s431-74.5 597-200.2l183.5 38.4 327-566.4-125-139.7zm-736.9 603.8c-39.4 7.6-53.3-16.6-53.3-37.3 0-25.4 1-109.1 1-212.7 0-72.3-24.8-119.7-52.6-143.6 172.8-19.2 354.1-84.8 354.1-382.7 0-84.7-30-153.9-79.7-208.1 8-19.6 34.6-98.5-7.7-205.2 0 0-65-20.9-213 79.5-61.9-17.2-128.3-25.8-194.1-26.1-65.9.3-132.3 8.9-194.1 26.1-148.1-100.4-213.3-79.5-213.3-79.5-42.4 106.7-15.8 185.6-7.9 205.2-49.6 54.2-79.8 123.4-79.8 208.1 0 297.2 181 363.7 353.2 383.3-22.2 19.4-42.2 53.6-49.2 103.7-44.2 19.9-156.5 54.1-225.7-64.4 0 0-41-74.4-118.8-79.9 0 0-75.7-1-5.3 47.1 0 0 50.8 23.9 86.1 113.4 0 0 45.5 150.8 261.2 104 .4 64.7 1 113.5 1 131.9 0 20.6-14.2 44.5-52.9 37.4C554.2 1713.5 332 1422.8 332 1080.2c0-428.3 347.2-775.5 775.4-775.5 428.3 0 775.5 347.2 775.5 775.5.1 342.5-221.9 633-529.8 735.7z"/></svg>