<?xml version='1.0' encoding='utf-8'?><svg xmlns="http://www.w3.org/2000/svg" xmlns:xlink="http://www.w3.org/1999/xlink" id="Page-Lock-Icon" x="0" y="0" baseProfile="tiny" overflow="visible" version="1.2" viewBox="0 0 200 200" xml:space="preserve"><path d="M140 120c5.5 0 10 4.5 10 10v50c0 5.5-4.5 10-10 10H60c-5.5 0-10-4.5-10-10v-50c0-5.5 4.5-10 10-10h80m0-10H60c-11 0-20 9-20 20v50c0 11 9 20 20 20h80c11 0 20-9 20-20v-50c0-11-9-20-20-20z"/><path d="M0 40v140h40v-10H10V50h180v120h-30v10h40V40z"/><path fill="none" stroke="#000000" stroke-miterlimit="10" stroke-width="10" d="M130 113H70V83c0-5.5 4.5-10 10-10h40c5.5 0 10 4.5 10 10v30z"/><path d="M0 50h200V20H0v30zm59.9-20H180v10H59.9V30zm-20 0h10v10h-10V30zM20 30h10v10H20V30zm80 155c-2.8 0-5-2.2-5-5v-30c0-2.8 2.2-5 5-5s5 2.2 5 5v30c0 2.8-2.2 5-5 5z"/><path d="M105 160H95c-5.5 0-10-4.5-10-10v-10c0-5.5 4.5-10 10-10h10c5.5 0 10 4.5 10 10v10c0 5.5-4.5 10-10 10z"/></svg>