<?xml version='1.0' encoding='utf-8'?><svg xmlns="http://www.w3.org/2000/svg" xmlns:xlink="http://www.w3.org/1999/xlink" id="Rename-Icon" x="0" y="0" baseProfile="tiny" overflow="visible" version="1.2" viewBox="0 0 200 200" xml:space="preserve"><path d="M80 140h20v20H80zm-30 0h20v20H50zm-30 0h20v20H20z"/><path d="M190 110h-16l3.4 10H190v50H10v-50h81.2l-10-10H0v70h200v-70z"/><path d="m179.9 159.2-53.1-17.7 35.4-35.4z"/><path d="M24.1 13.4h50v30h-50z" transform="matrix(0.7071 -0.7071 0.7071 0.7071 -5.6833 42.9942)"/><path d="M76.8 31.1h50v100h-50z" transform="matrix(0.7071 -0.7071 0.7071 0.7071 -27.5307 95.7386)"/></svg>