<?xml version="1.0" encoding="utf-8"?><svg xmlns="http://www.w3.org/2000/svg" xmlns:xlink="http://www.w3.org/1999/xlink" id="sandbox_logo" x="0" y="0" baseProfile="tiny" overflow="visible" version="1.2" viewBox="0 0 2215 2080" xml:space="preserve"><path d="M2090 1212.1c4.9-40 7.5-80.8 7.5-122.1 0-410-249.3-761.8-604.6-912.1L1434.5 0h-654l-58.4 177.9C366.8 328.2 117.5 680 117.5 1090c0 41.4 2.6 82.1 7.5 122.1L0 1351.8l327 566.4 183.5-38.4c166 125.7 372.8 200.2 597 200.2s431-74.5 597-200.2l183.5 38.4 327-566.4-125-139.7zM1107.5 1881c-441.8 0-800-358.2-800-800s358.2-800 800-800 800 358.2 800 800-358.2 800-800 800z"/><path d="m504.1 1518.1 386.6 131.1 820.2-131.1zm252.3-55.9h423c12.4-8 24.9-16.3 37.3-25.2 99.5-71.2 166-150.9 207.7-210.7-89.3-42.4-178.6-84.7-267.8-127.1l247.8-363 125.6 55c16.5 7.2 35.7 2.4 46.9-11.7L1620 725c16.4-20.8 8.2-51.5-16.4-61.3l-372.8-148.1c-15.5-6.2-33.3-1.9-44.3 10.6l-42.6 48.5c-17.6 20-10.8 51.4 13.6 62.2l130.5 58.2-237.5 353.7c-88-41.7-176-83.5-264-125.2-23.6 89.4-46.3 212.3-44.5 359 .8 65.3 6.3 125.4 14.4 179.6z"/></svg>