<?xml version='1.0' encoding='utf-8'?><svg xmlns="http://www.w3.org/2000/svg" xmlns:xlink="http://www.w3.org/1999/xlink" id="Site-Tools-Icon" x="0" y="0" baseProfile="tiny" overflow="visible" version="1.2" viewBox="0 0 200 200" xml:space="preserve"><path d="m66 186.6-.8-14.5-.7-.6c-12.4-10.1-21.2-23.7-25.3-39.2-1.7-6.5-2.6-13.1-2.6-19.7 0-9.2 1.7-18.3 4.9-26.9l.3-.8-6.6-13 36.6-36.6 13 6.6.8-.3c2.4-.9 4.8-1.7 7.2-2.3 6.5-1.7 13.1-2.6 19.7-2.6 22.5 0 44.5 10.4 58.8 27.9l.6.7 14.5.8 13.4 50-12.2 8-.1.9c-.9 5.5-2.4 10.9-4.5 16.1l-1.1 2.8-15.9-16.2.3-1.1c.5-2.1 1-4.2 1.3-6.4l1.2-8.4 7.5-4.9-5.7-21.2-9-.5-5.2-6.7c-10.6-13.6-26.5-21.4-43.7-21.4-4.8 0-9.7.6-14.4 1.9-2.2.6-4.4 1.3-6.5 2.2L84 64.4l-8-4.1-15.6 15.6 4.1 8-3.2 7.8c-2.7 6.7-4.1 13.6-4.1 20.8 0 4.8.6 9.7 1.9 14.4 3.2 11.8 9.9 21.9 19.5 29.4l6.7 5.2.5 9 21.2 5.7 4.9-7.5 8.4-1.2c2.1-.3 4.2-.7 6.3-1.3l1.1-.3 16.1 16.1-2.8 1.1c-2.8 1.1-5.8 2.1-8.7 2.9-2.4.7-4.9 1.2-7.4 1.6l-.9.1-8 12.2-50-13.3z"/><path d="M144 112.9c0-2.4-.3-4.7-.8-6.9l8.8-7.9c-2-5.3-5-10.1-8.9-14.2l-11 4.4c-1.8-1.4-3.8-2.7-5.9-3.7l-.7-11.8c-2.6-.9-5.4-1.5-8.2-1.8-2.8-.3-5.7-.4-8.4-.1l-3.4 11.4c-2.3.5-4.5 1.3-6.6 2.3l-9.7-6.8c-4.7 3.1-8.7 7.1-11.9 11.8l6.8 9.7c-1 2.1-1.8 4.3-2.3 6.6l-11.4 3.3c-.5 5.8.1 11.4 1.8 16.6l11.8.8c1 2.1 2.2 4.1 3.7 5.9l-4.5 11c4 3.8 8.8 6.9 14.1 9l8-8.8c1.1.3 2.3.5 3.4.6 1.2.1 2.3.2 3.5.2l5.8 10.4c5.7-.8 11-2.7 15.8-5.5l-1.9-11.7c1.8-1.4 3.5-3.1 4.9-4.9l11.7 2c2.8-4.7 4.8-10 5.6-15.8l-10.1-6.1zm-33.1 14.6c-8.4-1-14.5-8.6-13.5-17s8.6-14.4 17-13.5c8.4 1 14.5 8.6 13.5 17s-8.6 14.4-17 13.5z"/><path d="M21.1 8.1h55.6v80H21.1z" transform="matrix(0.7071 0.7071 -0.7071 0.7071 48.305 -20.5051)"/></svg>