<?xml version="1.0" encoding="utf-8"?><svg xmlns="http://www.w3.org/2000/svg" xmlns:xlink="http://www.w3.org/1999/xlink" id="UserIcon" x="0" y="0" baseProfile="tiny" overflow="visible" version="1.2" viewBox="0 0 200 200" xml:space="preserve"><path d="M89.8 70.6c-9.9 0-15.8 7.9-15.8 15.8 0 15.8 19.8 19.8 27.7 31.6 7.9-11.9 27.7-15.8 27.7-31.6 0-7.9-5.9-15.8-15.8-15.8-7.9 0-11.9 7.9-11.9 7.9s-4-7.9-11.9-7.9z"/><path d="M188.7 115.6c.1-.9.2-1.8.3-2.8.2-1.8.3-3.7.3-5.5v-2.8c0-1.1 0-2.2-.1-3.2 0-.4 0-.7-.1-1.1 0-.7-.1-1.4-.1-2.2 0-.4-.1-.8-.1-1.2-.1-.7-.1-1.3-.2-2 0-.4-.1-.9-.1-1.3-.1-.6-.2-1.3-.3-1.9-.1-.4-.1-.9-.2-1.3-.1-.6-.2-1.3-.3-1.9-.1-.4-.1-.8-.2-1.2-.1-.7-.3-1.4-.4-2.1-.1-.3-.1-.7-.2-1-.2-1-.5-2-.7-3-.1-.3-.2-.7-.3-1-.2-.7-.4-1.3-.6-2-.1-.4-.3-.9-.4-1.3-.2-.5-.4-1.1-.5-1.6-.2-.5-.3-.9-.5-1.4l-.6-1.5c-.2-.5-.4-.9-.5-1.4-.2-.5-.4-1-.6-1.4-.2-.5-.4-.9-.6-1.4-.2-.5-.4-.9-.6-1.4-.2-.5-.4-1-.7-1.4l-.6-1.2c-.5-1.1-1.1-2.1-1.7-3.2-.1-.3-.3-.5-.4-.8-.3-.5-.6-1.1-.9-1.6-.2-.3-.4-.6-.6-1-.3-.5-.7-1-1-1.6l-.6-.9c-.3-.5-.7-1-1.1-1.6l-.6-.9c-.4-.5-.7-1-1.1-1.6-.2-.3-.4-.5-.6-.8-.4-.5-.8-1.1-1.3-1.6-.1-.2-.3-.3-.4-.5-2.2-2.7-4.5-5.2-6.9-7.6l-.4-.4c-.5-.5-1.1-1-1.6-1.6-.2-.1-.3-.3-.5-.4-.6-.5-1.1-1-1.7-1.5-.2-.1-.3-.3-.5-.4l-1.8-1.5c-.1-.1-.2-.2-.3-.2-2.8-2.3-5.8-4.4-8.9-6.3-3.9-2.4-7.9-4.5-12.2-6.3L129.5 6h-59l-5.3 16.1c-32.1 13.6-54.6 45.4-54.6 82.4 0 1.8.1 3.7.2 5.5s.3 3.7.5 5.5L0 128.2l15 26.1 14.5 25.1 16.6-3.5c15 11.4 33.7 18.1 53.9 18.1 20.2 0 38.9-6.7 53.9-18.1l16.6 3.5 29.5-51.2-11.3-12.6zm-70-94.6 1.9 5.8 2.1 6.5 5.1 2.2-11 4 16.9 11.9c7.6 5.4 12.2 14.1 12.2 23.4v24.4c0 10.4-4.3 19.9-11.3 26.6-5.7 5.5-13.2 9.1-21.1 10.1-3.2.5-16.9.2-20.3.3-9.5 0-18.9-3.8-25.7-10.4-6.9-6.7-11.3-16.1-11.3-26.5V74.7c0-9.3 4.6-18.1 12.2-23.4l31.3-21.9 1.5-8.3h17.5zm44.2 141.5-5.9-1.2-6.7-1.4-5.4 4.1c-13 9.8-28.5 15-44.8 15s-31.9-5.2-44.8-15l-5.4-4.1-6.7 1.4-5.9 1.2-10.9-19c8.3-6.6 18.4-12 29.7-16C64.5 138.7 78 146 93.2 146H109c15.2 0 28.7-7.3 37.3-18.5 10.7 3.8 20.2 8.9 28.2 14.9l-11.6 20.1z"/></svg>
