<?xml version='1.0' encoding='utf-8'?><svg xmlns="http://www.w3.org/2000/svg" xmlns:xlink="http://www.w3.org/1999/xlink" id="View-Source-Icon" x="0" y="0" baseProfile="tiny" overflow="visible" version="1.2" viewBox="0 0 200 200" xml:space="preserve"><path fill="none" stroke="#000000" stroke-miterlimit="10" stroke-width="10" d="M69.2 139.9h-15v-60h15m-30 60h-15v-60h15m91.6 0h15v60h-15m30-60h15v60h-15m-44.8-70-32 80"/><path d="M190 45v130H10V45h180m10-10H0v150h200V35z"/><path d="M0 45h200V15H0v30zm59.9-20H180v10H59.9V25zm-20 0h10v10h-10V25zM20 25h10v10H20V25z"/></svg>