<?xml version='1.0' encoding='utf-8'?><svg xmlns="http://www.w3.org/2000/svg" xmlns:xlink="http://www.w3.org/1999/xlink" id="Vote-Icon" x="0" y="0" baseProfile="tiny" overflow="visible" version="1.2" viewBox="0 0 200 200" xml:space="preserve"><path d="M0 100c0 51.9 39.5 94.5 90 99.5v-20.2c-39.4-4.9-70-38.6-70-79.4 0-33.5 20.7-62.2 50-74.1V100H40l50 60V.5C39.5 5.5 0 48.1 0 100zM110 .5v20.2c39.4 4.9 70 38.6 70 79.4 0 33.5-20.7 62.2-50 74.1V100h30l-50-60v159.6c50.5-5 90-47.7 90-99.5S160.5 5.5 110 .5z"/></svg>