<?xml version="1.0" encoding="utf-8"?><svg xmlns="http://www.w3.org/2000/svg" xmlns:xlink="http://www.w3.org/1999/xlink" id="Bold-Icon" x="0" y="0" baseProfile="tiny" overflow="visible" version="1.2" viewBox="0 0 200 200" xml:space="preserve"><path d="M53.9 159.4V40h47.8c8.8 0 16.1 1.3 22 3.9 5.9 2.6 10.3 6.2 13.2 10.8 3 4.6 4.4 9.9 4.4 15.9 0 4.7-.9 8.8-2.8 12.3s-4.4 6.4-7.7 8.6c-3.2 2.2-7 3.8-11.1 4.8v1.2c4.5.2 8.8 1.5 12.8 3.8 4 2.4 7.2 5.7 9.7 9.9 2.5 4.3 3.7 9.3 3.7 15.2 0 6.3-1.6 12-4.7 16.9-3.1 5-7.7 8.9-13.9 11.8-6.1 2.9-13.6 4.3-22.6 4.3H53.9zM79.2 90h18.7c3.5 0 6.5-.6 9.2-1.8 2.7-1.2 4.8-3 6.4-5.2 1.6-2.3 2.4-5 2.4-8.1 0-4.3-1.5-7.8-4.6-10.4-3.1-2.6-7.4-4-13-4H79.2V90zm0 48.8h20.6c7 0 12.2-1.4 15.4-4.1 3.2-2.7 4.8-6.3 4.8-10.8 0-3.3-.8-6.2-2.4-8.7-1.6-2.5-3.9-4.5-6.8-5.9-2.9-1.4-6.4-2.2-10.5-2.2H79.2v31.7z"/></svg>