<?xml version="1.0" encoding="utf-8"?><svg xmlns="http://www.w3.org/2000/svg" xmlns:xlink="http://www.w3.org/1999/xlink" id="Div-Block-Icon" x="0" y="0" baseProfile="tiny" overflow="visible" version="1.2" viewBox="0 0 200 200" xml:space="preserve"><path d="m59.5 65.5-18.8 69.7H30.3L49 65.5h10.5zm17.1 61.6c-3.3 0-6.3-.9-9-2.6-2.7-1.7-4.8-4.2-6.4-7.6-1.6-3.3-2.3-7.4-2.3-12.3 0-5 .8-9.2 2.4-12.5 1.6-3.3 3.8-5.8 6.4-7.5 2.7-1.7 5.6-2.5 8.8-2.5 2.4 0 4.5.4 6.1 1.2 1.6.8 3 1.8 4 3.1 1 1.2 1.8 2.4 2.3 3.6h.4V68.2h12.1v58.2H89.5v-7H89c-.6 1.2-1.4 2.4-2.4 3.6-1 1.2-2.4 2.2-4 2.9s-3.7 1.2-6 1.2zm3.8-9.6c2 0 3.6-.5 5-1.6s2.4-2.6 3.1-4.5c.7-1.9 1.1-4.2 1.1-6.8s-.4-4.8-1.1-6.8c-.7-1.9-1.8-3.4-3.1-4.4s-3-1.6-5-1.6-3.7.5-5 1.6-2.4 2.6-3.1 4.5c-.7 1.9-1.1 4.1-1.1 6.6s.4 4.8 1.1 6.7c.7 1.9 1.7 3.5 3.1 4.5s3 1.8 5 1.8zm35-40.4c-1.8 0-3.3-.6-4.6-1.8-1.3-1.2-1.9-2.6-1.9-4.3s.6-3.1 1.9-4.3c1.3-1.2 2.8-1.8 4.6-1.8 1.8 0 3.4.6 4.6 1.8 1.3 1.2 1.9 2.6 1.9 4.3 0 1.7-.6 3.1-1.9 4.3-1.3 1.2-2.8 1.8-4.6 1.8zm-6.1 49.3V82.7h12.1v43.6h-12.1zm60.4-43.7-15.3 43.6h-13.6l-15.3-43.6h12.8l9.1 31.2h.5l9-31.2h12.8z"/><path fill="none" stroke="#000000" stroke-width="10" d="M42.4 160H5V40h37.4m115.2 0H195v120h-37.4"/></svg>