<?xml version="1.0" encoding="utf-8"?><svg xmlns="http://www.w3.org/2000/svg" xmlns:xlink="http://www.w3.org/1999/xlink" id="Link-Wizard-Icon" x="0" y="0" baseProfile="tiny" overflow="visible" version="1.2" viewBox="0 0 200 200" xml:space="preserve"><path d="M52.5 100.9c-5.3 6.9-15.6-1.2-10.3-8.1l4-5.1c8.5-10.9 20.3-11.9 29.7-7.4 3.5 1.5 6.9 4.1 9.3 7.2 6.7 8 8.6 19.8.2 30.7l-25.1 32.2c-5.8 7.4-13.2 10.1-20.4 9.5-9.1 0-18.7-6.6-22-15.2-4.7-9.7-2-19.3 6.3-28.7 2.5 3.5 6.3 6.4 10.3 8-1.8 2.4-5 5.8-5.3 8.8-1.7 7.8 5.7 15.4 13.6 13.8 2.6-.3 5.1-1.6 7.2-4.3 5.9-7.5 25.1-32.3 25.1-32.3 1.5-1.9 2.2-3.9 2.4-5.9 1.3-11.7-13.7-17.8-20.9-8.5l-4.1 5.3z"/><path d="m60.5 99.1-4 5.1c-7.2 9.3-22.2 3.2-20.9-8.5.1-2 .9-4 2.4-5.9 0 0 19.2-24.7 25.1-32.3 2.1-2.7 4.6-4 7.2-4.3 4.1-.9 8.1.8 10.7 3.8l9.3-9.3C85.8 43.1 79.4 40 73.2 40c-7.2-.6-14.6 2.1-20.4 9.5L27.7 81.7c-8.5 10.9-6.5 22.7.2 30.7 2.4 3 5.7 5.7 9.3 7.2 9.4 4.5 21.2 3.5 29.7-7.4l4-5.1c5.1-6.8-5.2-14.9-10.4-8zm128.3 23.4-57-57-22.6-22.6-22.6 22.6 22.6 22.6 57 57 22.6-22.6zM109.2 57l8.5 8.5-8.5 8.5-8.5-8.5 8.5-8.5z"/></svg>