<?xml version="1.0" encoding="utf-8"?><svg xmlns="http://www.w3.org/2000/svg" xmlns:xlink="http://www.w3.org/1999/xlink" id="Page-Link-Icon" x="0" y="0" baseProfile="tiny" overflow="visible" version="1.2" viewBox="0 0 200 200" xml:space="preserve"><path d="M96 100.9c-5.3 6.9-15.6-1.2-10.3-8.1l4-5.1c8.5-10.9 20.3-11.9 29.7-7.4 3.5 1.5 6.9 4.1 9.3 7.2 6.7 8 8.6 19.8.2 30.7l-25.1 32.2c-5.8 7.4-13.2 10.1-20.4 9.5-9.1 0-18.7-6.6-22-15.2-4.7-9.7-2-19.3 6.3-28.7 2.5 3.5 6.3 6.4 10.3 8-1.8 2.4-5 5.8-5.3 8.8-1.7 7.8 5.7 15.4 13.6 13.8 2.6-.3 5.1-1.6 7.2-4.3 5.9-7.5 25.1-32.3 25.1-32.3 1.5-1.9 2.2-3.9 2.4-5.9 1.3-11.7-13.7-17.8-20.9-8.5l-4.1 5.3z"/><path d="M114.2 107.2c5.3-6.8-5-14.9-10.3-8.1l-4 5.1c-7.2 9.3-22.2 3.2-20.9-8.5.1-2 .9-4 2.4-5.9 0 0 19.2-24.7 25.1-32.3 2.1-2.7 4.6-4 7.2-4.3 7.9-1.6 15.3 6 13.6 13.8-.3 3.1-3.4 6.4-5.3 8.8 4 1.6 7.8 4.5 10.3 8 8.3-9.4 11-18.9 6.3-28.7-3.3-8.6-12.8-15.1-22-15.2-7.2-.6-14.6 2.1-20.4 9.5L71.1 81.6c-8.5 10.9-6.5 22.7.2 30.7 2.4 3 5.7 5.7 9.3 7.2 9.4 4.5 21.2 3.5 29.7-7.4l3.9-4.9z"/><path d="M35.9 150V50h70.7l10-10H25.9v120h150v-10z"/><path d="m165.9 140 10-10v30h-10zm-140-70h69.9V40H25.9v30zm39.9-20h10v10h-10V50zm-19.9 0h10v10h-10V50z"/></svg>