<?xml version="1.0" encoding="utf-8"?><!--Generator: Adobe Illustrator 25.3.1, SVG Export Plug-In . SVG Version: 6.00 Build 0)--><svg xmlns="http://www.w3.org/2000/svg" xmlns:xlink="http://www.w3.org/1999/xlink" id="TOC-Icon" x="0" y="0" baseProfile="tiny" overflow="visible" version="1.2" viewBox="0 0 200 200" xml:space="preserve"><path d="M66.5 50.5v9.1H40.2v-9.1h26.3zM46.2 40.1h12.1v40.7c0 1.1.2 2 .5 2.6s.8 1 1.4 1.3c.6.2 1.3.4 2.1.4.6 0 1.1-.1 1.7-.2s1-.2 1.3-.2l1.9 9c-.6.2-1.5.4-2.6.7-1.1.3-2.4.4-4 .5-2.9.1-5.5-.3-7.7-1.2-2.2-.9-3.9-2.3-5.1-4.1-1.2-1.9-1.8-4.2-1.8-7.1V40.1h.2zM90.1 95c-4.4 0-8.2-.9-11.4-2.8-3.2-1.9-5.7-4.5-7.4-7.9-1.7-3.4-2.6-7.3-2.6-11.8s.9-8.5 2.6-11.8c1.7-3.4 4.2-6 7.4-7.9 3.2-1.9 7-2.8 11.4-2.8s8.2.9 11.4 2.8c3.2 1.9 5.7 4.5 7.4 7.9 1.7 3.4 2.6 7.3 2.6 11.8s-.9 8.4-2.6 11.8-4.2 6-7.4 7.9c-3.1 1.9-7 2.8-11.4 2.8zm.1-9.3c2 0 3.7-.6 5-1.7s2.4-2.7 3.1-4.7 1-4.3 1-6.8-.3-4.8-1-6.8-1.7-3.6-3.1-4.7c-1.3-1.2-3-1.7-5-1.7s-3.7.6-5.1 1.7c-1.4 1.2-2.4 2.7-3.1 4.7s-1 4.3-1 6.8.3 4.8 1 6.8 1.7 3.6 3.1 4.7 3.1 1.7 5.1 1.7zm47.4 9.3c-4.5 0-8.3-1-11.5-2.9s-5.7-4.5-7.4-7.9c-1.7-3.4-2.6-7.3-2.6-11.7 0-4.5.9-8.4 2.6-11.8s4.2-6 7.4-7.9c3.2-1.9 7-2.9 11.4-2.9 3.8 0 7.1.7 10 2.1 2.9 1.4 5.1 3.3 6.8 5.8s2.6 5.4 2.8 8.8h-11.4c-.3-2.2-1.2-3.9-2.5-5.3-1.4-1.3-3.2-2-5.4-2-1.9 0-3.5.5-4.9 1.5s-2.5 2.5-3.3 4.4c-.8 1.9-1.2 4.3-1.2 7 0 2.8.4 5.2 1.2 7.1s1.9 3.4 3.3 4.5c1.4 1 3 1.5 4.9 1.5 1.4 0 2.6-.3 3.7-.9 1.1-.6 2-1.4 2.8-2.5.7-1.1 1.2-2.4 1.4-3.9h11.4c-.2 3.3-1.1 6.3-2.7 8.8s-3.8 4.5-6.7 5.9c-2.9 1.6-6.2 2.3-10.1 2.3z"/><path fill="none" stroke="#000000" stroke-width="10" d="M70 155h80m-80-28.8h80"/><path stroke="#000000" stroke-width="2.5" d="M50.2 131.2v-10l10 5zm0 29v-10l10 5z"/></svg>