<?xml version="1.0" standalone="no"?>
<!DOCTYPE svg PUBLIC "-//W3C//DTD SVG 1.1//EN" "http://www.w3.org/Graphics/SVG/1.1/DTD/svg11.dtd">
<svg xmlns="http://www.w3.org/2000/svg">
<defs >
<font id="Kanit" horiz-adv-x="556" ><font-face
    font-family="Kanit"
    units-per-em="1000"
    panose-1="0 0 0 0 0 0 0 0 0 0"
    ascent="1100"
    descent="-395"
    alphabetic="0" />
<glyph unicode=" " glyph-name="space" horiz-adv-x="230" />
<glyph unicode="!" glyph-name="exclam" horiz-adv-x="203" d="M53 161L47 483V644H156V483L150 161H53ZM43 0V82H159V0H43Z" />
<glyph unicode="&quot;" glyph-name="quotedbl" horiz-adv-x="341" d="M203 455V644H297L284 455H203ZM43 455V644H137L124 455H43Z" />
<glyph unicode="#" glyph-name="numbersign" horiz-adv-x="702" d="M73 0L127 172H43V245H150L198 398H89V472H221L275 644H369L315 472H484L538 644H633L579 472H659V398H555L507 245H613V172H484L430 0H336L390 172H220L166 0H73ZM243 245H413L461 398H291L243 245Z" />
<glyph unicode="$" glyph-name="dollar" horiz-adv-x="555" d="M239 -86V-10Q184 -8 138 -1T57 22V118Q98 102 145 93T239 82V288Q235 288 231 290Q127 317 85 358T43 473Q43 548 92 594T239 651V730H321V653Q368 651 408 644T473 628V532Q403 558 321 561V363Q396
343 437 316T495 253T512 172Q512 99 464 52T321 -6V-86H239ZM239 386V556Q198 549 176 530T153 473Q153 439 171 421T239 386ZM321 87Q362 94 382 113T402 172Q402 207 384 227T321 264V87Z" />
<glyph unicode="%" glyph-name="percent" horiz-adv-x="727" d="M185 360Q114 360 79 399T43 500Q43 571 78 612T185 654Q256 654 291 613T326 500Q326 439 291 400T185 360ZM141 0L482 644H584L243 0H141ZM185 426Q224 426 241 446T258 502Q258 546 241 566T185
587Q147 587 130 567T112 502Q112 466 129 446T185 426ZM543 -10Q472 -10 437 29T401 130Q401 201 436 242T543 284Q614 284 649 243T684 130Q684 69 649 30T543 -10ZM543 56Q582 56 599 76T616 132Q616 176 599 196T543 217Q505 217 488 197T470 132Q470 96 487
76T543 56Z" />
<glyph unicode="&amp;" glyph-name="ampersand" horiz-adv-x="668" d="M273 -10Q169 -10 106 35T43 157Q43 225 83 272T194 357Q155 392 132 426T108 506Q108 569 153 611T277 654Q355 654 399 614T444 506Q444 454 419 417T339 344L487 193Q503 227 503 273V290H586V271Q586
233 576 197T549 133L630 51L564 -9L492 63Q455 25 399 8T273 -10ZM271 391Q314 419 335 441T356 501Q356 536 338 556T277 577Q234 577 215 555T196 501Q196 470 214 446T271 391ZM273 66Q373 66 426 123L259 292Q203 269 176 238T148 159Q148 113 183 90T273
66Z" />
<glyph unicode="&apos;" glyph-name="quotesingle" horiz-adv-x="181" d="M43 455V644H137L124 455H43Z" />
<glyph unicode="(" glyph-name="parenleft" horiz-adv-x="325" d="M178 -72Q129 -28 99 33T56 164T43 303Q43 372 56 441T99 572T178 678H301Q222 609 188 514T153 303Q153 188 187 93T301 -72H178Z" />
<glyph unicode=")" glyph-name="parenright" horiz-adv-x="325" d="M23 -72Q103 -3 137 92T171 303Q171 418 137 513T23 678H147Q196 634 225 573T268 442T281 303Q281 234 268 164T226 33T147 -72H23Z" />
<glyph unicode="*" glyph-name="asterisk" horiz-adv-x="432" d="M134 323L70 370L159 467L43 515L77 583L179 533L174 644H258L253 533L355 583L388 515L272 467L361 370L297 323L216 430L134 323Z" />
<glyph unicode="+" glyph-name="plus" horiz-adv-x="473" d="M193 86V227H46V312H193V458H280V312H427V227H280V86H193Z" />
<glyph unicode="," glyph-name="comma" horiz-adv-x="211" d="M43 -120L73 69H168L122 -120H43Z" />
<glyph unicode="-" glyph-name="hyphen" horiz-adv-x="468" d="M43 227V312H425V227H43Z" />
<glyph unicode="." glyph-name="period" horiz-adv-x="179" d="M43 0V85H135V0H43Z" />
<glyph unicode="/" glyph-name="slash" horiz-adv-x="431" d="M43 0L277 662H388L154 0H43Z" />
<glyph unicode="0" glyph-name="zero" horiz-adv-x="651" d="M326 -18Q224 -18 162 21T72 135T43 314Q43 422 70 498T160 614T326 654Q430 654 491 614T580 498T608 314Q608 210 580 136T490 22T326 -18ZM326 75Q422 75 460 138T498 314Q498 433 461 497T326 561Q228
561 191 497T153 314Q153 202 191 139T326 75Z" />
<glyph unicode="1" glyph-name="one" horiz-adv-x="319" d="M147 0V548L43 530V621L255 654V0H147Z" />
<glyph unicode="2" glyph-name="two" horiz-adv-x="509" d="M43 0V54Q69 115 115 164T215 259Q255 294 281 318T323 363T344 404T350 455Q350 507 320 534T220 561Q182 561 143 553T67 531V627Q102 639 150 646T241 654Q349 654 404 601T459 456Q459 410 443 375T399
308T334 243Q288 203 248 166T182 84H466V0H43Z" />
<glyph unicode="3" glyph-name="three" horiz-adv-x="519" d="M226 -10Q197 -10 162 -7T96 4T43 19V114Q83 98 125 91T211 83Q289 83 327 106T365 187Q365 239 331 262T232 285H135L144 366H225Q352 366 352 466Q352 515 319 538T211 561Q170 561 129 553T55 531V624Q85
636 133 645T228 654Q346 654 403 604T461 476Q461 428 438 386T364 326Q422 311 448 272T475 180Q475 83 407 37T226 -10Z" />
<glyph unicode="4" glyph-name="four" horiz-adv-x="543" d="M345 0V141H23V218L358 644H453V229H519V141H453V0H345ZM129 226H362V520L129 226Z" />
<glyph unicode="5" glyph-name="five" horiz-adv-x="515" d="M225 -10Q182 -10 131 -3T46 19V114Q81 99 126 91T211 83Q288 83 324 109T361 197Q361 253 335 280T233 307H43V373L60 644H426L417 560H152L141 391H250Q365 391 418 342T471 195Q471 100 409 45T225 -10Z" />
<glyph unicode="6" glyph-name="six" horiz-adv-x="573" d="M287 -10Q166 -10 105 50T43 239V384Q43 464 76 525T170 620T315 654Q364 654 400 648T468 631V538Q437 549 402 555T322 561Q232 561 189 519T146 405V365Q181 391 226 403T309 416Q422 416 476 361T530
205Q530 109 471 50T287 -10ZM288 72Q360 72 396 107T432 201Q432 263 403 297T293 332Q253 332 215 319T146 283V214Q146 72 288 72Z" />
<glyph unicode="7" glyph-name="seven" horiz-adv-x="498" d="M110 0L347 560H33V644H464V574L221 0H110Z" />
<glyph unicode="8" glyph-name="eight" horiz-adv-x="590" d="M295 -10Q43 -10 43 174Q43 229 72 272T157 333Q107 352 84 389T61 470Q61 553 118 603T295 654Q417 654 473 604T529 470Q529 424 507 385T428 324Q490 306 518 269T546 174Q546 -10 295 -10ZM322
358Q377 372 402 396T428 468Q428 568 295 568Q230 568 196 544T162 468Q162 389 251 372L322 358ZM295 75Q370 75 407 99T445 176Q445 223 419 244T337 277L255 294Q204 283 174 258T144 178Q144 124 182 100T295 75Z" />
<glyph unicode="9" glyph-name="nine" horiz-adv-x="573" d="M258 -10Q209 -10 173 -4T105 12V106Q136 94 171 88T251 82Q341 82 384 125T427 239V279Q392 254 347 241T264 228Q152 228 98 283T43 439Q43 534 102 594T286 654Q407 654 468 594T530 405V260Q530
180 497 119T403 24T258 -10ZM280 311Q321 311 359 325T427 360V430Q427 571 285 571Q213 571 177 536T141 442Q141 381 170 346T280 311Z" />
<glyph unicode=":" glyph-name="colon" horiz-adv-x="179" d="M43 326V412H135V326H43ZM43 25V111H135V25H43Z" />
<glyph unicode=";" glyph-name="semicolon" horiz-adv-x="212" d="M76 326V412H167V326H76ZM43 -112L73 77H168L122 -112H43Z" />
<glyph unicode="&lt;" glyph-name="less" horiz-adv-x="544" d="M501 46L43 255V344L501 552V451L158 300L501 148V46Z" />
<glyph unicode="=" glyph-name="equal" horiz-adv-x="473" d="M43 308V385H429V308H43ZM43 154V232H429V154H43Z" />
<glyph unicode="&gt;" glyph-name="greater" horiz-adv-x="544" d="M43 46V148L387 300L43 451V552L501 344V255L43 46Z" />
<glyph unicode="?" glyph-name="question" horiz-adv-x="495" d="M154 162V184Q154 224 171 253T213 305T265 349Q297 375 319 400T341 463Q341 516 310 538T201 561Q159 561 117 551T43 525V617Q77 634 125 644T229 654Q339 654 395 606T451 471Q451 415 425
381T354 310Q327 287 307 269T275 231T263 179V162H154ZM150 0V82H266V0H150Z" />
<glyph unicode="@" glyph-name="at" horiz-adv-x="764" d="M390 -132Q291 -132 213 -101T89 0T43 188Q43 363 138 444T401 525Q557 525 638 455T720 253Q720 157 675 101T535 44H504Q479 19 443 5T353 -9Q292 -9 253 21T213 110Q213 164 247 200T362 236H482V258Q482
303 462 320T380 338Q317 338 259 318V374Q285 385 322 390T398 396Q478 396 515 362T553 254V107Q598 107 618 141T639 250Q639 352 582 402T401 453Q264 453 195 392T125 187Q125 92 159 38T252 -38T388 -61Q498 -61 561 -42V-114Q530 -121 486 -126T390 -132ZM371
47Q444 47 482 95V182H377Q325 182 307 163T289 110Q289 76 310 62T371 47Z" />
<glyph unicode="A" glyph-name="A" horiz-adv-x="700" d="M44 0L290 644H412L656 0H544L480 166H221L157 0H44ZM238 250H462L350 545L238 250Z" />
<glyph unicode="B" glyph-name="B" horiz-adv-x="631" d="M63 0V644H375Q471 644 517 599T563 472Q563 420 542 385T486 331Q533 318 560 285T588 186Q588 92 538 46T389 0H63ZM172 369H360Q415 369 438 394T462 463Q462 513 438 537T348 562H172V369ZM172 80H366Q424
80 451 104T478 190Q478 240 452 264T355 289H172V80Z" />
<glyph unicode="C" glyph-name="C" horiz-adv-x="597" d="M365 -10Q206 -10 125 77T43 312Q43 418 77 494T183 612T364 654Q420 654 466 646T553 623V528Q513 544 468 552T372 561Q252 561 203 497T153 312Q153 199 207 141T374 82Q420 82 466 89T554 113V17Q514
4 468 -3T365 -10Z" />
<glyph unicode="D" glyph-name="D" horiz-adv-x="649" d="M63 0V644H324Q467 644 536 569T605 318Q605 153 537 77T324 0H63ZM172 84H307Q370 84 412 102T475 172T496 318Q496 413 477 465T417 538T307 559H172V84Z" />
<glyph unicode="E" glyph-name="E" horiz-adv-x="550" d="M63 0V644H512V559H172V364H475V280H172V84H512V0H63Z" />
<glyph unicode="F" glyph-name="F" horiz-adv-x="524" d="M63 0V644H501V559H172V364H464V280H172V0H63Z" />
<glyph unicode="G" glyph-name="G" horiz-adv-x="641" d="M363 -10Q204 -10 124 76T43 309Q43 415 78 492T184 612T366 654Q423 654 469 647T557 625V531Q475 561 375 561Q252 561 203 496T153 309Q153 198 205 140T366 82Q452 82 505 102V282H344V353H598V43Q567
23 510 7T363 -10Z" />
<glyph unicode="H" glyph-name="H" horiz-adv-x="654" d="M63 0V644H172V364H482V644H591V0H482V280H172V0H63Z" />
<glyph unicode="I" glyph-name="I" horiz-adv-x="235" d="M63 0V644H172V0H63Z" />
<glyph unicode="J" glyph-name="J" horiz-adv-x="431" d="M163 -10Q81 -10 23 13V105Q47 95 79 89T144 82Q211 82 237 109T264 198V644H373V180Q373 88 321 39T163 -10Z" />
<glyph unicode="K" glyph-name="K" horiz-adv-x="625" d="M63 0V644H172V348L446 644H572L335 384L582 0H466L267 315L172 213V0H63Z" />
<glyph unicode="L" glyph-name="L" horiz-adv-x="525" d="M63 0V644H172V84H502V0H63Z" />
<glyph unicode="M" glyph-name="M" horiz-adv-x="757" d="M63 0V644H175L379 227L582 644H694V0H586V467L412 111H346L171 467V0H63Z" />
<glyph unicode="N" glyph-name="N" horiz-adv-x="667" d="M63 0V644H159L495 170V644H603V0H507L172 473V0H63Z" />
<glyph unicode="O" glyph-name="O" horiz-adv-x="696" d="M348 -10Q195 -10 119 70T43 320Q43 496 119 575T348 654Q502 654 577 575T653 320Q653 151 578 71T348 -10ZM348 82Q449 82 496 137T544 320Q544 454 497 507T348 561Q248 561 201 508T153 320Q153 193
200 138T348 82Z" />
<glyph unicode="P" glyph-name="P" horiz-adv-x="590" d="M63 0V644H350Q424 644 472 616T543 540T566 429Q566 333 507 275T346 217H172V0H63ZM172 303H326Q391 303 424 337T457 429Q457 491 426 525T331 559H172V303Z" />
<glyph unicode="Q" glyph-name="Q" horiz-adv-x="697" d="M441 -172Q365 -172 330 -129T293 -7Q168 7 106 86T43 320Q43 496 119 575T348 654Q502 654 577 575T653 320Q653 163 588 83T390 -8Q391 -54 407 -71T464 -89Q500 -89 535 -79V-160Q519 -165 493 -168T441
-172ZM348 82Q449 82 496 137T544 320Q544 454 497 507T348 561Q248 561 201 508T153 320Q153 193 200 138T348 82Z" />
<glyph unicode="R" glyph-name="R" horiz-adv-x="610" d="M63 0V644H359Q467 644 516 589T566 438Q566 370 532 322T434 255Q452 242 462 227T482 187L563 0H451L372 180Q361 206 346 217T293 228H172V0H63ZM172 316H330Q389 316 423 345T457 438Q457 559 340
559H172V316Z" />
<glyph unicode="S" glyph-name="S" horiz-adv-x="555" d="M258 -10Q133 -10 57 22V118Q100 102 149 92T248 82Q325 82 363 100T402 172Q402 205 386 225T333 259T231 290Q127 317 85 358T43 473Q43 558 105 606T290 654Q346 654 395 646T473 628V532Q397 561 305
561Q233 561 193 542T153 473Q153 444 167 426T215 395T311 366Q390 346 433 319T494 255T512 172Q512 87 449 39T258 -10Z" />
<glyph unicode="T" glyph-name="T" horiz-adv-x="568" d="M230 0V559H24V644H544V559H339V0H230Z" />
<glyph unicode="U" glyph-name="U" horiz-adv-x="674" d="M338 -10Q205 -10 132 54T58 239V644H167V243Q167 162 211 122T338 82Q419 82 463 122T508 243V644H616V239Q616 118 543 54T338 -10Z" />
<glyph unicode="V" glyph-name="V" horiz-adv-x="700" d="M290 0L44 644H157L350 117L543 644H656L412 0H290Z" />
<glyph unicode="W" glyph-name="W" horiz-adv-x="869" d="M194 0L44 644H151L260 161L382 566V644H471L608 161L719 644H825L676 0H569L440 451L303 0H194Z" />
<glyph unicode="X" glyph-name="X" horiz-adv-x="677" d="M43 0L273 321L48 644H174L338 405L502 644H629L403 321L633 0H505L338 236L171 0H43Z" />
<glyph unicode="Y" glyph-name="Y" horiz-adv-x="656" d="M274 0V239L43 644H156L328 331L500 644H613L382 239V0H274Z" />
<glyph unicode="Z" glyph-name="Z" horiz-adv-x="575" d="M43 0V58L389 555H60V644H529V577L186 84H534V0H43Z" />
<glyph unicode="[" glyph-name="bracketleft" horiz-adv-x="351" d="M43 -99V706H314L317 621H152V-15H318L314 -99H43Z" />
<glyph unicode="\" glyph-name="backslash" horiz-adv-x="451" d="M296 -54L43 662H155L407 -54H296Z" />
<glyph unicode="]" glyph-name="bracketright" horiz-adv-x="351" d="M37 -99L33 -15H199V621H34L37 706H308V-99H37Z" />
<glyph unicode="^" glyph-name="asciicircum" horiz-adv-x="476" d="M43 387L196 624H275L432 387H331L238 545L145 387H43Z" />
<glyph unicode="_" glyph-name="underscore" horiz-adv-x="541" d="M43 -77V0H497V-77H43Z" />
<glyph unicode="`" glyph-name="grave" horiz-adv-x="261" d="M128 522L44 699H140L215 522H128Z" />
<glyph unicode="a" glyph-name="a" horiz-adv-x="547" d="M211 -10Q166 -10 128 6T66 54T43 135Q43 203 89 244T233 286H385V307Q385 341 375 361T337 390T256 399Q172 399 99 374V455Q131 468 177 476T276 484Q380 484 434 442T489 305V0H396L389 48Q360 20 318
5T211 -10ZM240 68Q289 68 325 84T385 129V212H235Q187 212 166 194T144 137Q144 100 169 84T240 68Z" />
<glyph unicode="b" glyph-name="b" horiz-adv-x="582" d="M323 -10Q271 -10 233 4T163 47L157 0H63V674H172V443Q234 484 321 484Q422 484 480 427T539 241Q539 112 481 51T323 -10ZM294 72Q368 72 398 114T429 241Q429 329 396 365T292 401Q218 401 172 360V122Q219
72 294 72Z" />
<glyph unicode="c" glyph-name="c" horiz-adv-x="474" d="M296 -10Q171 -10 107 53T43 237Q43 362 113 423T302 484Q351 484 384 477T449 455V374Q397 400 323 400Q241 400 197 364T153 237Q153 152 192 113T321 73Q392 73 450 100V17Q417 4 380 -3T296 -10Z" />
<glyph unicode="d" glyph-name="d" horiz-adv-x="582" d="M259 -10Q195 -10 146 12T70 85T43 222Q43 307 72 365T152 454T269 484Q312 484 345 474T410 443V674H519V0H426L419 47Q387 18 349 4T259 -10ZM288 72Q361 72 410 122V359Q363 401 292 401Q223 401 188
355T153 221Q153 136 185 104T288 72Z" />
<glyph unicode="e" glyph-name="e" horiz-adv-x="537" d="M303 -10Q179 -10 111 51T43 238Q43 352 101 418T277 484Q385 484 439 428T494 282V194H147Q155 125 197 99T325 73Q361 73 399 80T465 98V18Q433 4 392 -3T303 -10ZM147 265H398V298Q398 347 371 374T280
402Q204 402 176 369T147 265Z" />
<glyph unicode="f" glyph-name="f" horiz-adv-x="360" d="M92 0V389H23V474H92V532Q92 603 131 646T249 690Q278 690 302 686T346 673V595Q315 606 283 606Q236 606 218 589T200 531V474H324L319 389H200V0H92Z" />
<glyph unicode="g" glyph-name="g" horiz-adv-x="554" d="M255 -176Q202 -176 149 -170T59 -150V-66Q99 -79 151 -86T250 -93Q322 -93 355 -85T388 -49Q388 -28 372 -20T311 -11H183Q54 -11 54 80Q54 109 71 134T125 172Q84 192 65 227T45 311Q45 402 99 443T263
484Q286 484 311 481T350 474H524L521 403H441Q460 387 469 363T478 311Q478 235 432 192T293 148Q277 148 264 149T234 153Q204 150 180 137T156 102Q156 87 168 81T208 74H341Q412 74 450 44T489 -45Q489 -115 429 -145T255 -176ZM263 217Q328 217 353 239T379
314Q379 367 354 391T263 415Q202 415 174 392T146 314Q146 263 172 240T263 217Z" />
<glyph unicode="h" glyph-name="h" horiz-adv-x="578" d="M63 0V674H172V428Q203 453 246 468T343 484Q433 484 476 441T519 307V0H411V302Q411 357 388 379T306 401Q270 401 233 386T172 345V0H63Z" />
<glyph unicode="i" glyph-name="i" horiz-adv-x="285" d="M103 573V663H222V573H103ZM112 0V391H40L50 474H221V0H112Z" />
<glyph unicode="j" glyph-name="j" horiz-adv-x="308" d="M126 573V663H245V573H126ZM91 -234Q33 -234 -8 -218V-139Q9 -144 24 -146T53 -149Q100 -149 118 -132T137 -76V391H65L75 474H245V-86Q245 -153 207 -193T91 -234Z" />
<glyph unicode="k" glyph-name="k" horiz-adv-x="537" d="M63 0V674H172V284L371 474H496L303 283L507 0H392L235 225L172 165V0H63Z" />
<glyph unicode="l" glyph-name="l" horiz-adv-x="280" d="M181 -10Q123 -10 93 18T63 113V674H172V123Q172 95 182 85T212 75Q236 75 258 81V2Q239 -5 222 -7T181 -10Z" />
<glyph unicode="m" glyph-name="m" horiz-adv-x="856" d="M63 0V474H163L168 424Q203 452 245 468T335 484Q386 484 414 468T458 422Q491 449 534 466T637 484Q719 484 758 442T797 313V0H690V302Q690 357 667 379T592 401Q558 401 528 389T475 353Q478 342 479
330T480 304V0H379V301Q379 353 361 377T293 401Q258 401 227 385T170 345V0H63Z" />
<glyph unicode="n" glyph-name="n" horiz-adv-x="578" d="M63 0V474H163L168 424Q200 449 244 466T343 484Q435 484 477 441T519 307V0H411V302Q411 357 389 379T304 401Q267 401 232 386T172 347V0H63Z" />
<glyph unicode="o" glyph-name="o" horiz-adv-x="581" d="M290 -10Q162 -10 103 54T43 237Q43 356 103 420T290 484Q418 484 478 420T538 237Q538 118 479 54T290 -10ZM290 82Q365 82 396 118T428 237Q428 319 397 355T290 391Q216 391 185 355T153 237Q153 155
184 119T290 82Z" />
<glyph unicode="p" glyph-name="p" horiz-adv-x="582" d="M63 -216V474H157L163 427Q195 456 233 470T323 484Q425 484 482 429T539 245Q539 117 480 54T319 -10Q233 -10 172 30V-216H63ZM291 72Q429 72 429 246Q429 330 398 365T294 401Q221 401 172 351V114Q195
95 223 84T291 72Z" />
<glyph unicode="q" glyph-name="q" horiz-adv-x="582" d="M537 -242Q474 -242 442 -210T410 -110V30Q349 -10 263 -10Q161 -10 102 45T43 229Q43 357 101 420T260 484Q312 484 349 470T419 427L426 474H519V-102Q519 -133 529 -145T570 -157Q580 -157 591 -155T612
-151V-230Q595 -236 578 -239T537 -242ZM291 72Q330 72 359 83T410 114V351Q361 401 289 401Q216 401 185 358T153 230Q153 142 187 107T291 72Z" />
<glyph unicode="r" glyph-name="r" horiz-adv-x="359" d="M63 0V474H163L169 419Q203 441 250 459T343 484V401Q315 396 283 387T221 366T172 342V0H63Z" />
<glyph unicode="s" glyph-name="s" horiz-adv-x="464" d="M221 -10Q172 -10 128 -3T54 14V106Q88 93 129 86T207 79Q263 79 287 89T311 128Q311 149 297 161T254 183T181 207Q139 221 108 237T60 280T43 348Q43 413 90 448T241 484Q282 484 319 478T382 463V372Q354
383 321 389T258 395Q206 395 180 386T153 350Q153 322 180 311T269 279Q325 262 358 243T405 198T420 129Q420 59 369 25T221 -10Z" />
<glyph unicode="t" glyph-name="t" horiz-adv-x="359" d="M244 -10Q168 -10 131 30T93 141V389H23V474H93V583L201 616V474H327L320 389H201V147Q201 106 220 90T282 73Q309 73 339 83V6Q300 -10 244 -10Z" />
<glyph unicode="u" glyph-name="u" horiz-adv-x="578" d="M234 -10Q149 -10 104 37T58 175V474H167V175Q167 122 193 97T273 72Q313 72 347 87T406 127V474H514V0H415L410 49Q378 24 334 7T234 -10Z" />
<glyph unicode="v" glyph-name="v" horiz-adv-x="578" d="M230 0L43 474H156L289 106L422 474H534L348 0H230Z" />
<glyph unicode="w" glyph-name="w" horiz-adv-x="746" d="M168 0L43 474H152L234 129L327 416V474H410L513 129L595 474H703L579 0H476L375 310L272 0H168Z" />
<glyph unicode="x" glyph-name="x" horiz-adv-x="540" d="M30 0L211 241L37 474H154L270 316L386 474H503L330 241L510 0H392L270 165L148 0H30Z" />
<glyph unicode="y" glyph-name="y" horiz-adv-x="598" d="M170 -176Q116 -176 78 -162V-81Q95 -87 109 -89T139 -91Q170 -91 189 -81T222 -50T254 6L43 474H156L308 122L462 474H574L381 27Q356 -33 328 -78T262 -150T170 -176Z" />
<glyph unicode="z" glyph-name="z" horiz-adv-x="487" d="M43 0V57L302 385H55V474H436V407L182 84H443V0H43Z" />
<glyph unicode="{" glyph-name="braceleft" horiz-adv-x="304" d="M195 -104Q137 -104 113 -76T88 12V172Q88 215 75 237T23 264V332Q65 337 76 361T88 433V590Q88 649 112 674T204 700H270V616H241Q215 616 206 605T196 565V391Q196 363 184 336T141 298Q171
286 183 260T196 205V31Q196 2 205 -9T241 -20H270V-104H195Z" />
<glyph unicode="|" glyph-name="bar" horiz-adv-x="196" d="M43 -120V735H152V-120H43Z" />
<glyph unicode="}" glyph-name="braceright" horiz-adv-x="304" d="M33 -104V-20H62Q88 -20 97 -9T107 31V205Q107 234 119 260T162 298Q132 309 120 336T107 391V565Q107 594 98 605T62 616H33V700H99Q166 700 190 675T215 590V433Q215 386 226 362T280 332V264Q241
260 228 238T215 172V12Q215 -47 191 -75T108 -104H33Z" />
<glyph unicode="~" glyph-name="asciitilde" horiz-adv-x="562" d="M401 217Q370 217 340 227T281 252T223 276T162 287Q124 287 96 273T43 227V335Q60 358 92 372T162 387Q197 387 227 377T285 352T342 328T401 317Q439 317 466 331T518 376V268Q501 244 470
231T401 217Z" />
<glyph unicode="&#xa0;" glyph-name="uni00A0" horiz-adv-x="230" />
<glyph unicode="&#xa1;" glyph-name="exclamdown" horiz-adv-x="203" d="M43 392V474H159V392H43ZM47 -170V-9L53 313H150L156 -9V-170H47Z" />
<glyph unicode="&#xa2;" glyph-name="cent" horiz-adv-x="493" d="M260 -86V-8Q153 0 98 63T43 237Q43 350 101 411T260 482V560H340V483Q373 481 398 474T449 455V374Q405 396 340 399V73Q399 76 450 100V17Q402 -3 340 -8V-86H260ZM260 78V394Q208 382 181 345T153
237Q153 168 178 129T260 78Z" />
<glyph unicode="&#xa3;" glyph-name="sterling" horiz-adv-x="498" d="M43 0V84H68Q97 84 110 101T124 149V299H56V383H124V489Q124 566 173 610T299 654Q335 654 364 649T416 633V555Q402 563 378 566T332 570Q282 570 257 550T232 483V383H414L410 299H232V154Q232
130 227 113T207 84H454V0H43Z" />
<glyph unicode="&#xa4;" glyph-name="currency" horiz-adv-x="572" d="M92 54L43 114L125 174Q96 215 96 269Q96 322 125 362L44 424L92 483L175 418Q198 435 226 445T285 456Q317 456 345 446T396 417L480 483L528 424L446 362Q460 343 468 319T476 269Q476 243
468 219T446 174L528 113L480 54L396 118Q374 101 346 91T286 81Q255 81 227 91T176 118L92 54ZM285 159Q331 159 363 191T395 269Q395 300 380 324T340 364T285 379Q239 379 208 347T177 269Q177 223 208 191T285 159Z" />
<glyph unicode="&#xa5;" glyph-name="yen" horiz-adv-x="656" d="M274 0V90H123V158H274V212H123V280H250L43 644H156L328 331L500 644H613L405 280H533V212H382V158H533V90H382V0H274Z" />
<glyph unicode="&#xa6;" glyph-name="brokenbar" horiz-adv-x="196" d="M43 414V735H152V414H43ZM43 -120V200H152V-120H43Z" />
<glyph unicode="&#xa7;" glyph-name="section" horiz-adv-x="555" d="M258 -10Q133 -10 57 22V118Q100 102 149 92T248 82Q322 82 362 100T402 172Q402 205 383 225T326 259T230 288Q161 307 120 328T61 379T43 452Q43 492 62 519Q54 533 49 551T44 591Q44 673
104 719T290 765Q343 765 394 757T473 739V643Q436 657 393 664T303 672Q264 672 230 665T174 639T153 584Q153 555 167 537T216 505T311 476Q392 456 435 435T495 385T512 314Q512 298 507 276T493 240Q512 208 512 169Q512 81 447 36T258 -10ZM414 301Q419 314
419 326Q419 342 406 353T361 376T271 402Q226 414 196 426T149 454Q148 450 147 445T145 433Q145 408 175 395T282 361Q331 348 364 334T414 301Z" />
<glyph unicode="&#xa8;" glyph-name="dieresis" horiz-adv-x="365" d="M229 559V645H321V559H229ZM43 559V645H135V559H43Z" />
<glyph unicode="&#xa9;" glyph-name="copyright" horiz-adv-x="751" d="M375 -10Q306 -10 246 16T141 87T69 193T43 322Q43 391 69 451T140 556T246 628T375 654Q444 654 504 628T609 557T681 451T707 322Q707 253 681 193T610 88T504 16T375 -10ZM375 57Q450
57 509 91T603 185T637 322Q637 398 603 457T510 551T375 586Q301 586 242 552T149 458T115 322Q115 245 149 185T242 91T375 57ZM375 99Q275 99 217 158T159 321Q159 395 189 444T269 518T381 543Q423 543 454 534T509 510V449Q483 463 456 469T398 476Q352 476
316 461T258 412T237 321Q237 236 277 201T394 165Q423 165 454 173T510 195V131Q483 116 448 108T375 99Z" />
<glyph unicode="&#xaa;" glyph-name="ordfeminine" horiz-adv-x="343" d="M138 380Q99 380 71 398T43 459Q43 546 150 546H232V555Q232 581 219 591T162 601Q119 601 77 587V638Q96 645 122 649T176 654Q233 654 266 631T299 554V386H239L235 412Q216 396 194
388T138 380ZM158 427Q181 427 200 435T232 462V501H162Q133 501 120 493T107 462Q107 443 120 435T158 427Z" />
<glyph unicode="&#xab;" glyph-name="guillemotleft" horiz-adv-x="620" d="M301 73L43 263V309L301 499L344 437L140 285L344 134L301 73ZM534 73L276 263V309L534 499L576 437L373 285L576 134L534 73Z" />
<glyph unicode="&#xac;" glyph-name="logicalnot" horiz-adv-x="524" d="M393 141V286H43V371H480V141H393Z" />
<glyph unicode="&#xad;" glyph-name="uni00AD" horiz-adv-x="468" d="M43 227V312H425V227H43Z" />
<glyph unicode="&#xae;" glyph-name="registered" horiz-adv-x="751" d="M375 -10Q306 -10 246 16T141 87T69 193T43 322Q43 391 69 451T140 556T246 628T375 654Q444 654 504 628T609 557T681 451T707 322Q707 253 681 193T610 88T504 16T375 -10ZM375 57Q450
57 509 91T603 185T637 322Q637 398 603 457T510 551T375 586Q301 586 242 552T149 458T115 322Q115 245 149 185T242 91T375 57ZM226 120V527H413Q480 527 514 493T548 400Q548 354 525 324T457 282Q469 274 475 264T489 237L537 120H470L421 241Q413 258 402
263T360 269H295V120H226ZM295 324H376Q424 324 451 337T479 400Q479 441 461 456T401 472H295V324Z" />
<glyph unicode="&#xaf;" glyph-name="overscore" horiz-adv-x="365" d="M33 563V634H331V563H33Z" />
<glyph unicode="&#xb0;" glyph-name="degree" horiz-adv-x="312" d="M155 500Q109 500 76 531T42 612Q42 662 75 692T155 723Q202 723 235 693T269 612Q269 563 236 532T155 500ZM155 562Q177 562 191 576T206 612Q206 633 192 647T155 662Q134 662 120 648T106
612Q106 590 120 576T155 562Z" />
<glyph unicode="&#xb1;" glyph-name="plusminus" horiz-adv-x="473" d="M193 126V267H46V352H193V498H280V352H427V267H280V126H193ZM46 0V85H427V0H46Z" />
<glyph unicode="&#xb2;" glyph-name="uni00B2" horiz-adv-x="301" d="M43 370V408Q58 431 77 448T119 485Q153 513 166 527T179 559Q179 578 167 586T124 594Q107 594 88 590T51 579V638Q67 643 93 648T148 654Q200 654 227 629T255 569Q255 541 243 522T203 477Q187
462 176 453T150 429H257V370H43Z" />
<glyph unicode="&#xb3;" glyph-name="uni00B3" horiz-adv-x="304" d="M134 362Q112 362 85 365T43 375V429Q61 422 79 419T116 415Q152 415 167 423T182 450Q182 485 123 485H84L88 533H120Q176 533 176 570Q176 587 161 593T117 599Q81 599 48 586V641Q62 646
86 650T136 654Q201 654 228 632T255 574Q255 553 246 535T214 509Q239 502 250 486T261 447Q261 362 134 362Z" />
<glyph unicode="&#xb4;" glyph-name="acute" horiz-adv-x="261" d="M44 522L120 699H215L132 522H44Z" />
<glyph unicode="&#xb5;" glyph-name="uni00B5" horiz-adv-x="583" d="M63 -143V474H172V175Q172 122 198 97T278 72Q318 72 352 87T411 127V474H519V0H420L415 49Q383 24 339 7T239 -10Q199 -10 172 5V-143H63Z" />
<glyph unicode="&#xb6;" glyph-name="paragraph" horiz-adv-x="632" d="M296 -77V253Q225 253 168 273T77 343T43 477Q43 561 76 612T168 686T303 710H598V-77H489V626H404V-77H296Z" />
<glyph unicode="&#xb7;" glyph-name="middot" horiz-adv-x="179" d="M43 242V327H135V242H43Z" />
<glyph unicode="&#xb8;" glyph-name="cedilla" horiz-adv-x="293" d="M111 -240Q95 -240 72 -238T38 -232V-173Q67 -181 100 -181Q145 -181 165 -173T185 -136Q185 -108 164 -102T104 -95H64L93 0H166L150 -47Q204 -47 231 -71T259 -137Q259 -186 224 -213T111 -240Z" />
<glyph unicode="&#xb9;" glyph-name="uni00B9" horiz-adv-x="203" d="M104 370V581L32 566V625L179 654V370H104Z" />
<glyph unicode="&#xba;" glyph-name="ordmasculine" horiz-adv-x="363" d="M181 380Q43 380 43 517Q43 584 77 619T181 654Q251 654 285 619T319 517Q319 380 181 380ZM181 432Q219 432 234 453T250 517Q250 559 235 580T181 601Q144 601 128 580T111 517Q111
474 127 453T181 432Z" />
<glyph unicode="&#xbb;" glyph-name="guillemotright" horiz-adv-x="620" d="M86 73L43 134L247 285L43 437L86 499L344 309V263L86 73ZM318 73L276 134L479 285L276 437L318 499L576 309V263L318 73Z" />
<glyph unicode="&#xbc;" glyph-name="onequarter" horiz-adv-x="644" d="M115 370V581L43 566V625L190 654V370H115ZM94 0L435 644H537L196 0H94ZM495 0V54H351V106L490 284H570V107H600V54H570V0H495ZM424 108H511V222L424 108Z" />
<glyph unicode="&#xbd;" glyph-name="onehalf" horiz-adv-x="651" d="M115 370V581L43 566V625L190 654V370H115ZM94 0L435 644H537L196 0H94ZM383 0V38Q398 61 417 78T459 115Q493 143 506 157T519 189Q519 208 507 216T464 224Q447 224 428 220T391 209V268Q407
273 433 278T488 284Q540 284 567 259T595 199Q595 171 583 152T543 107Q527 92 516 83T490 59H597V0H383Z" />
<glyph unicode="&#xbe;" glyph-name="threequarters" horiz-adv-x="660" d="M134 362Q112 362 85 365T43 375V428Q61 421 79 418T116 414Q152 414 167 422T182 450Q182 485 123 485H84L88 533H120Q176 533 176 570Q176 600 117 600Q81 600 48 587V641Q62 646 86
650T136 654Q201 654 228 632T255 574Q255 553 246 535T214 509Q239 502 250 486T261 447Q261 362 134 362ZM99 0L439 644H542L201 0H99ZM500 0V54H355V106L495 284H574V107H605V54H574V0H500ZM428 108H516V222L428 108Z" />
<glyph unicode="&#xbf;" glyph-name="questiondown" horiz-adv-x="495" d="M229 392V474H345V392H229ZM266 -180Q157 -180 101 -131T44 3Q44 59 71 93T141 164Q169 187 189 205T220 244T232 295V312H341V290Q341 251 324 222T282 169T230 125Q199 100 177 74T154
11Q154 -41 185 -64T294 -87Q336 -87 378 -77T452 -51V-143Q418 -159 370 -169T266 -180Z" />
<glyph unicode="&#xc0;" glyph-name="Agrave" horiz-adv-x="700" d="M298 688L215 865H310L386 688H298ZM44 0L290 644H412L656 0H544L480 166H221L157 0H44ZM238 250H462L350 545L238 250Z" />
<glyph unicode="&#xc1;" glyph-name="Aacute" horiz-adv-x="700" d="M310 688L385 865H481L397 688H310ZM44 0L290 644H412L656 0H544L480 166H221L157 0H44ZM238 250H462L350 545L238 250Z" />
<glyph unicode="&#xc2;" glyph-name="Acircumflex" horiz-adv-x="700" d="M186 687L311 848H387L512 687H425L349 788L275 687H186ZM44 0L290 644H412L656 0H544L480 166H221L157 0H44ZM238 250H462L350 545L238 250Z" />
<glyph unicode="&#xc3;" glyph-name="Atilde" horiz-adv-x="700" d="M430 695Q403 695 377 705T326 724T278 734Q252 734 230 726T191 698V778Q204 792 227 800T276 808Q305 808 330 799T379 779T429 769Q481 769 509 806V726Q499 713 478 704T430 695ZM44 0L290
644H412L656 0H544L480 166H221L157 0H44ZM238 250H462L350 545L238 250Z" />
<glyph unicode="&#xc4;" glyph-name="Adieresis" horiz-adv-x="700" d="M210 711V797H302V711H210ZM396 711V797H488V711H396ZM44 0L290 644H412L656 0H544L480 166H221L157 0H44ZM238 250H462L350 545L238 250Z" />
<glyph unicode="&#xc5;" glyph-name="Aring" horiz-adv-x="700" d="M44 0L281 621Q233 653 233 714Q233 762 265 795T349 828Q403 828 435 795T467 714Q467 654 420 622L656 0H544L480 166H221L157 0H44ZM349 655Q377 655 393 672T410 714Q410 739 394 756T349
773Q323 773 307 756T290 714Q290 689 306 672T349 655ZM238 250H462L350 545L238 250Z" />
<glyph unicode="&#xc6;" glyph-name="AE" horiz-adv-x="845" d="M44 0L290 644H802V559H515V364H765V280H515V84H802V0H407V167H225L161 0H44ZM253 251H407V561H368L253 251Z" />
<glyph unicode="&#xc7;" glyph-name="Ccedilla" horiz-adv-x="597" d="M336 -240Q320 -240 297 -238T263 -232V-173Q292 -181 325 -181Q370 -181 390 -173T410 -136Q410 -108 389 -102T329 -95H289L316 -8Q181 6 112 91T43 312Q43 418 77 494T183 612T364 654Q420
654 466 646T553 623V528Q513 544 468 552T372 561Q252 561 203 497T153 312Q153 199 207 141T374 82Q420 82 466 89T554 113V17Q518 6 477 -1T388 -10L375 -47Q429 -47 456 -71T484 -137Q484 -186 449 -213T336 -240Z" />
<glyph unicode="&#xc8;" glyph-name="Egrave" horiz-adv-x="550" d="M252 688L169 865H264L340 688H252ZM63 0V644H512V559H172V364H475V280H172V84H512V0H63Z" />
<glyph unicode="&#xc9;" glyph-name="Eacute" horiz-adv-x="550" d="M230 688L305 865H401L317 688H230ZM63 0V644H512V559H172V364H475V280H172V84H512V0H63Z" />
<glyph unicode="&#xca;" glyph-name="Ecircumflex" horiz-adv-x="550" d="M117 687L242 848H318L443 687H356L280 788L206 687H117ZM63 0V644H512V559H172V364H475V280H172V84H512V0H63Z" />
<glyph unicode="&#xcb;" glyph-name="Edieresis" horiz-adv-x="550" d="M146 712V798H238V712H146ZM332 712V798H424V712H332ZM63 0V644H512V559H172V364H475V280H172V84H512V0H63Z" />
<glyph unicode="&#xcc;" glyph-name="Igrave" horiz-adv-x="235" d="M74 688L-9 865H86L162 688H74ZM63 0V644H172V0H63Z" />
<glyph unicode="&#xcd;" glyph-name="Iacute" horiz-adv-x="236" d="M70 688L145 865H241L157 688H70ZM63 0V644H172V0H63Z" />
<glyph unicode="&#xce;" glyph-name="Icircumflex" horiz-adv-x="235" d="M-46 687L79 848H155L280 687H193L117 788L43 687H-46ZM63 0V644H172V0H63Z" />
<glyph unicode="&#xcf;" glyph-name="Idieresis" horiz-adv-x="235" d="M-22 715V801H70V715H-22ZM164 715V801H256V715H164ZM63 0V644H172V0H63Z" />
<glyph unicode="&#xd0;" glyph-name="Eth" horiz-adv-x="689" d="M103 0V274H33V358H103V644H364Q507 644 576 569T645 318Q645 153 577 77T364 0H103ZM212 84H347Q410 84 452 102T515 172T536 318Q536 413 517 465T457 538T347 559H212V358H377V274H212V84Z" />
<glyph unicode="&#xd1;" glyph-name="Ntilde" horiz-adv-x="667" d="M416 703Q389 703 363 713T312 732T264 742Q238 742 216 734T177 706V786Q190 800 213 808T262 816Q291 816 316 807T365 787T415 777Q467 777 495 814V734Q485 721 464 712T416 703ZM63 0V644H159L495
170V644H603V0H507L172 473V0H63Z" />
<glyph unicode="&#xd2;" glyph-name="Ograve" horiz-adv-x="697" d="M310 688L227 865H322L398 688H310ZM348 -10Q195 -10 119 70T43 320Q43 496 119 575T348 654Q502 654 577 575T653 320Q653 151 578 71T348 -10ZM348 82Q449 82 496 137T544 320Q544 454 497
507T348 561Q248 561 201 508T153 320Q153 193 200 138T348 82Z" />
<glyph unicode="&#xd3;" glyph-name="Oacute" horiz-adv-x="697" d="M300 688L375 865H471L387 688H300ZM348 -10Q195 -10 119 70T43 320Q43 496 119 575T348 654Q502 654 577 575T653 320Q653 151 578 71T348 -10ZM348 82Q449 82 496 137T544 320Q544 454 497
507T348 561Q248 561 201 508T153 320Q153 193 200 138T348 82Z" />
<glyph unicode="&#xd4;" glyph-name="Ocircumflex" horiz-adv-x="697" d="M185 687L310 848H386L511 687H424L348 788L274 687H185ZM348 -10Q195 -10 119 70T43 320Q43 496 119 575T348 654Q502 654 577 575T653 320Q653 151 578 71T348 -10ZM348 82Q449 82 496
137T544 320Q544 454 497 507T348 561Q248 561 201 508T153 320Q153 193 200 138T348 82Z" />
<glyph unicode="&#xd5;" glyph-name="Otilde" horiz-adv-x="697" d="M428 695Q401 695 375 705T324 724T276 734Q250 734 228 726T189 698V778Q202 792 225 800T274 808Q303 808 328 799T377 779T427 769Q479 769 507 806V726Q497 713 476 704T428 695ZM348 -10Q195
-10 119 70T43 320Q43 496 119 575T348 654Q502 654 577 575T653 320Q653 151 578 71T348 -10ZM348 82Q449 82 496 137T544 320Q544 454 497 507T348 561Q248 561 201 508T153 320Q153 193 200 138T348 82Z" />
<glyph unicode="&#xd6;" glyph-name="Odieresis" horiz-adv-x="697" d="M209 712V798H301V712H209ZM395 712V798H487V712H395ZM348 -10Q195 -10 119 70T43 320Q43 496 119 575T348 654Q502 654 577 575T653 320Q653 151 578 71T348 -10ZM348 82Q449 82 496 137T544
320Q544 454 497 507T348 561Q248 561 201 508T153 320Q153 193 200 138T348 82Z" />
<glyph unicode="&#xd7;" glyph-name="multiply" horiz-adv-x="414" d="M317 90L208 199L103 95L48 150L152 255L43 363L98 418L205 309L315 417L370 362L261 253L370 144L317 90Z" />
<glyph unicode="&#xd8;" glyph-name="Oslash" horiz-adv-x="697" d="M165 -53L192 18Q43 85 43 320Q43 496 119 575T348 654Q390 654 427 648L444 693H518L494 630Q574 599 613 523T653 320Q653 151 578 71T348 -10Q323 -10 301 -8T258 -2L239 -53H165ZM227 113L393
558Q372 561 348 561Q248 561 201 508T153 320Q153 165 227 113ZM348 82Q449 82 496 137T544 320Q544 408 523 460T459 537L291 87Q304 85 318 84T348 82Z" />
<glyph unicode="&#xd9;" glyph-name="Ugrave" horiz-adv-x="674" d="M307 688L224 865H319L395 688H307ZM338 -10Q205 -10 132 54T58 239V644H167V243Q167 162 211 122T338 82Q419 82 463 122T508 243V644H616V239Q616 118 543 54T338 -10Z" />
<glyph unicode="&#xda;" glyph-name="Uacute" horiz-adv-x="674" d="M288 688L363 865H459L375 688H288ZM338 -10Q205 -10 132 54T58 239V644H167V243Q167 162 211 122T338 82Q419 82 463 122T508 243V644H616V239Q616 118 543 54T338 -10Z" />
<glyph unicode="&#xdb;" glyph-name="Ucircumflex" horiz-adv-x="674" d="M174 687L299 848H375L500 687H413L337 788L263 687H174ZM338 -10Q205 -10 132 54T58 239V644H167V243Q167 162 211 122T338 82Q419 82 463 122T508 243V644H616V239Q616 118 543 54T338 -10Z" />
<glyph unicode="&#xdc;" glyph-name="Udieresis" horiz-adv-x="674" d="M192 712V798H284V712H192ZM378 712V798H470V712H378ZM338 -10Q205 -10 132 54T58 239V644H167V243Q167 162 211 122T338 82Q419 82 463 122T508 243V644H616V239Q616 118 543 54T338 -10Z" />
<glyph unicode="&#xdd;" glyph-name="Yacute" horiz-adv-x="656" d="M274 688L349 865H445L361 688H274ZM274 0V239L43 644H156L328 331L500 644H613L382 239V0H274Z" />
<glyph unicode="&#xde;" glyph-name="Thorn" horiz-adv-x="590" d="M63 0V644H172V534H350Q424 534 472 507T543 431T566 320Q566 256 539 208T463 134T346 107H172V0H63ZM172 193H326Q391 193 424 227T457 320Q457 382 426 415T331 448H172V193Z" />
<glyph unicode="&#xdf;" glyph-name="germandbls" horiz-adv-x="630" d="M382 -10Q297 -10 238 12V104Q264 93 296 88T362 82Q415 82 446 110T477 193Q477 249 448 277T353 305H275V388H352Q410 388 435 418T460 498Q460 547 429 577T312 607Q242 607 203 570T163
455V0H58V458Q58 529 89 583T177 669T312 700Q396 700 451 672T534 598T562 498Q562 443 540 404T482 347Q530 332 558 291T587 187Q587 94 534 42T382 -10Z" />
<glyph unicode="&#xe0;" glyph-name="agrave" horiz-adv-x="547" d="M251 522L168 699H263L339 522H251ZM211 -10Q166 -10 128 6T66 54T43 135Q43 203 89 244T233 286H385V307Q385 341 375 361T337 390T256 399Q172 399 99 374V455Q131 468 177 476T276 484Q380
484 434 442T489 305V0H396L389 48Q360 20 318 5T211 -10ZM240 68Q289 68 325 84T385 129V212H235Q187 212 166 194T144 137Q144 100 169 84T240 68Z" />
<glyph unicode="&#xe1;" glyph-name="aacute" horiz-adv-x="549" d="M236 522L311 699H407L323 522H236ZM211 -10Q166 -10 128 6T66 54T43 135Q43 203 89 244T233 286H385V307Q385 341 375 361T337 390T256 399Q172 399 99 374V455Q131 468 177 476T276 484Q380
484 434 442T489 305V0H396L389 48Q360 20 318 5T211 -10ZM240 68Q289 68 325 84T385 129V212H235Q187 212 166 194T144 137Q144 100 169 84T240 68Z" />
<glyph unicode="&#xe2;" glyph-name="acircumflex" horiz-adv-x="547" d="M122 521L247 682H323L448 521H361L285 622L211 521H122ZM211 -10Q166 -10 128 6T66 54T43 135Q43 203 89 244T233 286H385V307Q385 341 375 361T337 390T256 399Q172 399 99 374V455Q131
468 177 476T276 484Q380 484 434 442T489 305V0H396L389 48Q360 20 318 5T211 -10ZM240 68Q289 68 325 84T385 129V212H235Q187 212 166 194T144 137Q144 100 169 84T240 68Z" />
<glyph unicode="&#xe3;" glyph-name="atilde" horiz-adv-x="547" d="M368 537Q341 537 315 547T264 566T216 576Q190 576 168 568T129 540V620Q142 634 165 642T214 650Q243 650 268 641T317 621T367 611Q419 611 447 648V568Q437 555 416 546T368 537ZM211 -10Q166
-10 128 6T66 54T43 135Q43 203 89 244T233 286H385V307Q385 341 375 361T337 390T256 399Q172 399 99 374V455Q131 468 177 476T276 484Q380 484 434 442T489 305V0H396L389 48Q360 20 318 5T211 -10ZM240 68Q289 68 325 84T385 129V212H235Q187 212 166 194T144
137Q144 100 169 84T240 68Z" />
<glyph unicode="&#xe4;" glyph-name="adieresis" horiz-adv-x="547" d="M152 546V632H244V546H152ZM338 546V632H430V546H338ZM211 -10Q166 -10 128 6T66 54T43 135Q43 203 89 244T233 286H385V307Q385 341 375 361T337 390T256 399Q172 399 99 374V455Q131 468
177 476T276 484Q380 484 434 442T489 305V0H396L389 48Q360 20 318 5T211 -10ZM240 68Q289 68 325 84T385 129V212H235Q187 212 166 194T144 137Q144 100 169 84T240 68Z" />
<glyph unicode="&#xe5;" glyph-name="aring" horiz-adv-x="547" d="M291 521Q239 521 207 554T175 634Q175 682 207 715T291 748Q345 748 377 715T409 634Q409 587 377 554T291 521ZM291 575Q319 575 335 592T352 634Q352 659 336 676T291 693Q265 693 249 676T232
634Q232 609 248 592T291 575ZM211 -10Q166 -10 128 6T66 54T43 135Q43 203 89 244T233 286H385V307Q385 341 375 361T337 390T256 399Q172 399 99 374V455Q131 468 177 476T276 484Q380 484 434 442T489 305V0H396L389 48Q360 20 318 5T211 -10ZM240 68Q289 68
325 84T385 129V212H235Q187 212 166 194T144 137Q144 100 169 84T240 68Z" />
<glyph unicode="&#xe6;" glyph-name="ae" horiz-adv-x="881" d="M217 -10Q170 -10 130 6T67 54T43 135Q43 203 89 244T233 286H385V307Q385 341 375 361T337 390T256 399Q172 399 99 374V455Q131 468 177 476T276 484Q398 484 449 421Q478 450 521 467T621 484Q729
484 783 428T838 282V194H491Q499 125 541 99T669 72Q705 72 743 78T809 97V18Q777 4 736 -3T647 -10Q582 -10 530 10T446 73Q422 50 392 31T320 1T217 -10ZM491 265H742V298Q742 347 715 374T624 402Q548 402 520 369T491 265ZM240 68Q292 68 326 83T385 127V212H235Q187
212 166 194T144 137Q144 100 169 84T240 68Z" />
<glyph unicode="&#xe7;" glyph-name="ccedilla" horiz-adv-x="493" d="M266 -240Q250 -240 227 -238T193 -232V-173Q222 -181 255 -181Q300 -181 320 -173T340 -136Q340 -108 319 -102T259 -95H219L246 -7Q145 5 94 67T43 237Q43 362 113 423T302 484Q351 484
384 477T449 455V374Q397 400 323 400Q241 400 197 364T153 237Q153 152 192 113T321 73Q392 73 450 100V17Q392 -7 318 -10L305 -47Q359 -47 386 -71T414 -137Q414 -186 379 -213T266 -240Z" />
<glyph unicode="&#xe8;" glyph-name="egrave" horiz-adv-x="537" d="M229 522L146 699H241L317 522H229ZM303 -10Q179 -10 111 51T43 238Q43 352 101 418T277 484Q385 484 439 428T494 282V194H147Q155 125 197 99T325 73Q361 73 399 80T465 98V18Q433 4 392 -3T303
-10ZM147 265H398V298Q398 347 371 374T280 402Q204 402 176 369T147 265Z" />
<glyph unicode="&#xe9;" glyph-name="eacute" horiz-adv-x="537" d="M225 522L300 699H396L312 522H225ZM303 -10Q179 -10 111 51T43 238Q43 352 101 418T277 484Q385 484 439 428T494 282V194H147Q155 125 197 99T325 73Q361 73 399 80T465 98V18Q433 4 392 -3T303
-10ZM147 265H398V298Q398 347 371 374T280 402Q204 402 176 369T147 265Z" />
<glyph unicode="&#xea;" glyph-name="ecircumflex" horiz-adv-x="537" d="M109 521L234 682H310L435 521H348L272 622L198 521H109ZM303 -10Q179 -10 111 51T43 238Q43 352 101 418T277 484Q385 484 439 428T494 282V194H147Q155 125 197 99T325 73Q361 73 399
80T465 98V18Q433 4 392 -3T303 -10ZM147 265H398V298Q398 347 371 374T280 402Q204 402 176 369T147 265Z" />
<glyph unicode="&#xeb;" glyph-name="edieresis" horiz-adv-x="537" d="M132 546V632H224V546H132ZM318 546V632H410V546H318ZM303 -10Q179 -10 111 51T43 238Q43 352 101 418T277 484Q385 484 439 428T494 282V194H147Q155 125 197 99T325 73Q361 73 399 80T465
98V18Q433 4 392 -3T303 -10ZM147 265H398V298Q398 347 371 374T280 402Q204 402 176 369T147 265Z" />
<glyph unicode="&#xec;" glyph-name="igrave" horiz-adv-x="308" d="M145 522L62 699H157L233 522H145ZM135 0V391H63L73 474H244V0H135Z" />
<glyph unicode="&#xed;" glyph-name="iacute" horiz-adv-x="308" d="M133 522L208 699H304L220 522H133ZM135 0V391H63L73 474H244V0H135Z" />
<glyph unicode="&#xee;" glyph-name="icircumflex" horiz-adv-x="308" d="M5 521L130 682H206L331 521H244L168 622L94 521H5ZM135 0V391H63L73 474H244V0H135Z" />
<glyph unicode="&#xef;" glyph-name="idieresis" horiz-adv-x="328" d="M40 546V632H132V546H40ZM226 546V632H318V546H226ZM155 0V391H83L93 474H264V0H155Z" />
<glyph unicode="&#xf0;" glyph-name="eth" horiz-adv-x="573" d="M286 -10Q161 -10 102 46T43 197Q43 298 101 350T266 403Q304 403 348 391T427 352V393Q427 430 423 460T407 512L279 456V512L374 553Q338 580 274 580Q231 580 197 573T131 555V630Q163 641 203
647T289 654Q346 654 389 638T461 592L553 632V575L493 549Q530 482 530 382V239Q530 110 469 50T286 -10ZM285 66Q356 66 391 101T427 210V282Q397 303 360 317T286 331Q206 331 174 295T141 197Q141 136 177 101T285 66Z" />
<glyph unicode="&#xf1;" glyph-name="ntilde" horiz-adv-x="578" d="M372 537Q345 537 319 547T268 566T220 576Q194 576 172 568T133 540V620Q146 634 169 642T218 650Q247 650 272 641T321 621T371 611Q423 611 451 648V568Q441 555 420 546T372 537ZM63 0V474H163L168
424Q200 449 244 466T343 484Q435 484 477 441T519 307V0H411V302Q411 357 389 379T304 401Q267 401 232 386T172 347V0H63Z" />
<glyph unicode="&#xf2;" glyph-name="ograve" horiz-adv-x="581" d="M251 522L168 699H263L339 522H251ZM290 -10Q162 -10 103 54T43 237Q43 356 103 420T290 484Q418 484 478 420T538 237Q538 118 479 54T290 -10ZM290 82Q365 82 396 118T428 237Q428 319 397
355T290 391Q216 391 185 355T153 237Q153 155 184 119T290 82Z" />
<glyph unicode="&#xf3;" glyph-name="oacute" horiz-adv-x="581" d="M242 522L317 699H413L329 522H242ZM290 -10Q162 -10 103 54T43 237Q43 356 103 420T290 484Q418 484 478 420T538 237Q538 118 479 54T290 -10ZM290 82Q365 82 396 118T428 237Q428 319 397
355T290 391Q216 391 185 355T153 237Q153 155 184 119T290 82Z" />
<glyph unicode="&#xf4;" glyph-name="ocircumflex" horiz-adv-x="581" d="M127 521L252 682H328L453 521H366L290 622L216 521H127ZM290 -10Q162 -10 103 54T43 237Q43 356 103 420T290 484Q418 484 478 420T538 237Q538 118 479 54T290 -10ZM290 82Q365 82 396
118T428 237Q428 319 397 355T290 391Q216 391 185 355T153 237Q153 155 184 119T290 82Z" />
<glyph unicode="&#xf5;" glyph-name="otilde" horiz-adv-x="581" d="M370 545Q343 545 317 555T266 574T218 584Q192 584 170 576T131 548V628Q144 642 167 650T216 658Q245 658 270 649T319 629T369 619Q421 619 449 656V576Q439 563 418 554T370 545ZM290 -10Q162
-10 103 54T43 237Q43 356 103 420T290 484Q418 484 478 420T538 237Q538 118 479 54T290 -10ZM290 82Q365 82 396 118T428 237Q428 319 397 355T290 391Q216 391 185 355T153 237Q153 155 184 119T290 82Z" />
<glyph unicode="&#xf6;" glyph-name="odieresis" horiz-adv-x="581" d="M151 546V632H243V546H151ZM337 546V632H429V546H337ZM290 -10Q162 -10 103 54T43 237Q43 356 103 420T290 484Q418 484 478 420T538 237Q538 118 479 54T290 -10ZM290 82Q365 82 396 118T428
237Q428 319 397 355T290 391Q216 391 185 355T153 237Q153 155 184 119T290 82Z" />
<glyph unicode="&#xf7;" glyph-name="divide" horiz-adv-x="468" d="M192 397V478H280V397H192ZM46 227V312H427V227H46ZM192 66V147H280V66H192Z" />
<glyph unicode="&#xf8;" glyph-name="oslash" horiz-adv-x="581" d="M144 -54L168 10Q104 36 74 93T43 237Q43 356 103 420T290 484Q319 484 343 481L361 528H435L411 463Q476 438 507 381T538 237Q538 118 479 54T290 -10Q275 -10 262 -9T235 -6L218 -54H144ZM202
102L309 390Q305 390 300 390T290 391Q216 391 185 355T153 237Q153 185 164 152T202 102ZM290 82Q365 82 396 118T428 237Q428 339 376 371L269 83Q274 82 279 82T290 82Z" />
<glyph unicode="&#xf9;" glyph-name="ugrave" horiz-adv-x="578" d="M253 522L170 699H265L341 522H253ZM234 -10Q149 -10 104 37T58 175V474H167V175Q167 122 193 97T273 72Q313 72 347 87T406 127V474H514V0H415L410 49Q378 24 334 7T234 -10Z" />
<glyph unicode="&#xfa;" glyph-name="uacute" horiz-adv-x="578" d="M227 522L302 699H398L314 522H227ZM234 -10Q149 -10 104 37T58 175V474H167V175Q167 122 193 97T273 72Q313 72 347 87T406 127V474H514V0H415L410 49Q378 24 334 7T234 -10Z" />
<glyph unicode="&#xfb;" glyph-name="ucircumflex" horiz-adv-x="578" d="M122 521L247 682H323L448 521H361L285 622L211 521H122ZM234 -10Q149 -10 104 37T58 175V474H167V175Q167 122 193 97T273 72Q313 72 347 87T406 127V474H514V0H415L410 49Q378 24 334
7T234 -10Z" />
<glyph unicode="&#xfc;" glyph-name="udieresis" horiz-adv-x="578" d="M145 544V630H237V544H145ZM331 544V630H423V544H331ZM234 -10Q149 -10 104 37T58 175V474H167V175Q167 122 193 97T273 72Q313 72 347 87T406 127V474H514V0H415L410 49Q378 24 334 7T234 -10Z" />
<glyph unicode="&#xfd;" glyph-name="yacute" horiz-adv-x="598" d="M256 522L331 699H427L343 522H256ZM170 -176Q116 -176 78 -162V-81Q95 -87 109 -89T139 -91Q170 -91 189 -81T222 -50T254 6L43 474H156L308 122L462 474H574L381 27Q356 -33 328 -78T262 -150T170
-176Z" />
<glyph unicode="&#xfe;" glyph-name="thorn" horiz-adv-x="582" d="M63 -216V700H172V443Q203 464 241 474T322 484Q423 484 481 425T539 237Q539 109 480 50T319 -10Q233 -10 172 30V-216H63ZM291 72Q361 72 395 111T429 238Q429 322 398 361T294 401Q221 401
172 351V114Q195 95 223 84T291 72Z" />
<glyph unicode="&#xff;" glyph-name="ydieresis" horiz-adv-x="598" d="M172 556V642H264V556H172ZM358 556V642H450V556H358ZM170 -176Q116 -176 78 -162V-81Q95 -87 109 -89T139 -91Q170 -91 189 -81T222 -50T254 6L43 474H156L308 122L462 474H574L381 27Q356
-33 328 -78T262 -150T170 -176Z" />
<glyph unicode="&#x2013;" glyph-name="endash" horiz-adv-x="575" d="M43 227V312H532V227H43Z" />
<glyph unicode="&#x2014;" glyph-name="emdash" horiz-adv-x="858" d="M43 227V312H814V227H43Z" />
<glyph unicode="&#x2018;" glyph-name="quoteleft" horiz-adv-x="235" d="M43 459L109 654H191L139 459H43Z" />
<glyph unicode="&#x2019;" glyph-name="quoteright" horiz-adv-x="235" d="M43 459L96 654H191L125 459H43Z" />
<glyph unicode="&#x201a;" glyph-name="quotesinglbase" horiz-adv-x="235" d="M43 -162L96 33H191L125 -162H43Z" />
<glyph unicode="&#x201c;" glyph-name="quotedblleft" horiz-adv-x="374" d="M43 459L109 654H184L131 459H43ZM190 459L256 654H330L278 459H190Z" />
<glyph unicode="&#x201d;" glyph-name="quotedblright" horiz-adv-x="374" d="M43 459L96 654H184L118 459H43ZM190 459L242 654H330L264 459H190Z" />
<glyph unicode="&#x201e;" glyph-name="quotedblbase" horiz-adv-x="374" d="M43 -115L96 80H184L118 -115H43ZM190 -115L242 80H330L264 -115H190Z" />
<glyph unicode="&#x2022;" glyph-name="bullet" horiz-adv-x="334" d="M166 164Q132 164 104 180T60 225T43 287Q43 321 59 349T104 394T166 411Q201 411 229 394T273 349T290 287Q290 253 274 225T229 181T166 164Z" />
<glyph unicode="&#x2039;" glyph-name="guilsinglleft" horiz-adv-x="388" d="M301 73L43 263V309L301 499L344 437L140 285L344 134L301 73Z" />
<glyph unicode="&#x203a;" glyph-name="guilsinglright" horiz-adv-x="388" d="M86 73L43 134L247 285L43 437L86 499L344 309V263L86 73Z" />
</font>
</defs>
</svg>
