<?xml version="1.0" standalone="no"?>
<!DOCTYPE svg PUBLIC "-//W3C//DTD SVG 1.1//EN" "http://www.w3.org/Graphics/SVG/1.1/DTD/svg11.dtd">
<svg xmlns="http://www.w3.org/2000/svg">
<defs >
<font id="Kanit" horiz-adv-x="578" ><font-face
    font-family="Kanit"
    units-per-em="1000"
    panose-1="0 0 0 0 0 0 0 0 0 0"
    ascent="1100"
    descent="-395"
    alphabetic="0" />
<glyph unicode=" " glyph-name="space" horiz-adv-x="205" />
<glyph unicode="!" glyph-name="exclam" horiz-adv-x="246" d="M18 184L73 471L109 644H297L261 471L194 184H18ZM-31 0L-3 133H193L165 0H-31Z" />
<glyph unicode="&quot;" glyph-name="quotedbl" horiz-adv-x="403" d="M257 419L304 644H458L396 419H257ZM58 419L105 644H259L196 419H58Z" />
<glyph unicode="#" glyph-name="numbersign" horiz-adv-x="711" d="M-15 0L63 150H0L26 271H127L180 373H89L115 495H244L323 644H484L405 495H516L595 644H756L677 495H735L709 373H613L559 271H647L621 150H496L417 0H257L335 150H224L145 0H-15ZM287 271H399L452
373H341L287 271Z" />
<glyph unicode="$" glyph-name="dollar" horiz-adv-x="555" d="M132 -86L149 -8Q101 -5 57 4T-16 30L16 180Q57 159 109 146T209 133Q259 133 286 143T320 184Q321 188 321 195Q321 219 291 232T199 266Q127 291 94 325T61 413Q61 424 62 436T66 461Q82 539 137
590T288 648L306 730H461L443 650Q481 646 514 640T570 625L538 474Q495 493 454 501T375 509Q327 509 293 499T258 452Q258 433 282 422T365 394Q448 369 483 329T519 234Q519 211 513 184Q498 115 450 66T306 0L287 -86H132Z" />
<glyph unicode="%" glyph-name="percent" horiz-adv-x="773" d="M194 344Q131 344 100 374T69 454Q69 463 70 472T73 492Q89 567 137 610T260 654Q322 654 353 624T384 541Q384 518 378 492Q365 427 317 386T194 344ZM73 0L545 644H723L250 0H73ZM214 442Q242
442 257 456T278 496Q281 510 281 519Q281 556 239 556Q188 556 175 496Q174 491 174 487T173 478Q173 442 214 442ZM536 -10Q474 -10 443 19T411 98Q411 108 412 118T416 138Q432 212 480 255T602 299Q664 299 695 269T726 186Q726 175 725 163T721 138Q707 73
659 32T536 -10ZM557 87Q585 87 600 101T620 141Q623 155 623 164Q623 201 581 201Q530 201 517 141Q516 137 516 133T515 124Q515 87 557 87Z" />
<glyph unicode="&amp;" glyph-name="ampersand" horiz-adv-x="678" d="M487 -18L436 48Q396 20 340 5T224 -10Q119 -10 60 29T1 136Q1 144 2 153T5 171Q19 236 62 282T175 362Q158 385 147 410T136 463Q136 481 140 497Q155 570 212 612T373 654Q446 654 494 619T542
523Q542 508 539 491Q529 443 501 409T424 341L502 239Q516 256 523 286L527 303H666L661 280Q653 240 632 202T586 138L625 87L487 -18ZM320 413Q349 429 365 443T387 482Q388 487 388 491T389 499Q389 514 380 522T348 531Q321 531 307 517T287 482Q286 478 286
475T286 469Q286 453 295 440T320 413ZM251 117Q307 117 343 148L265 250Q231 237 212 220T187 176Q186 172 186 169T186 163Q186 141 203 129T251 117Z" />
<glyph unicode="&apos;" glyph-name="quotesingle" horiz-adv-x="204" d="M58 419L105 644H259L196 419H58Z" />
<glyph unicode="(" glyph-name="parenleft" horiz-adv-x="370" d="M80 -72Q47 -30 32 27T16 151Q16 187 20 225T33 303Q57 417 109 515T240 678H453Q357 605 303 509T225 303Q218 268 214 234T209 168Q209 99 229 39T293 -72H80Z" />
<glyph unicode=")" glyph-name="parenright" horiz-adv-x="370" d="M-66 -72Q29 2 83 97T161 303Q176 374 176 438Q176 507 157 567T93 678H307Q339 635 354 578T370 454Q370 418 366 381T353 303Q328 188 276 91T147 -72H-66Z" />
<glyph unicode="*" glyph-name="asterisk" horiz-adv-x="444" d="M164 289L70 370L165 449L72 491L151 600L221 556L233 644H372L348 556L435 600L466 487L355 445L416 366L298 289L250 381L164 289Z" />
<glyph unicode="+" glyph-name="plus" horiz-adv-x="455" d="M118 92L144 212H14L44 356H174L200 477H345L319 356H449L419 212H289L263 92H118Z" />
<glyph unicode="," glyph-name="comma" horiz-adv-x="241" d="M-56 -120L25 105H182L77 -120H-56Z" />
<glyph unicode="-" glyph-name="hyphen" horiz-adv-x="455" d="M14 212L44 356H449L419 212H14Z" />
<glyph unicode="." glyph-name="period" horiz-adv-x="198" d="M-31 0L-3 135H145L117 0H-31Z" />
<glyph unicode="/" glyph-name="slash" horiz-adv-x="477" d="M-31 0L343 662H536L162 0H-31Z" />
<glyph unicode="0" glyph-name="zero" horiz-adv-x="666" d="M274 -10Q150 -10 88 48T25 215Q25 264 37 322Q60 429 104 503T224 615T416 654Q545 654 604 593T664 425Q664 401 662 376T653 322Q631 215 587 141T467 29T274 -10ZM308 150Q373 150 408 193T461
322Q466 348 469 369T472 408Q472 451 452 472T382 494Q317 494 282 451T229 322Q217 268 217 231Q217 191 237 171T308 150Z" />
<glyph unicode="1" glyph-name="one" horiz-adv-x="365" d="M76 0L175 470L65 454L98 611L403 654L264 0H76Z" />
<glyph unicode="2" glyph-name="two" horiz-adv-x="522" d="M-31 0L-13 86Q26 139 75 181T182 267Q231 304 261 328T309 373T332 423Q335 435 335 445Q335 494 255 494Q212 494 169 484T87 459L121 619Q165 635 224 644T342 654Q438 654 486 613T535 499Q535 475
529 446Q520 401 503 369T457 309T388 251Q351 224 316 197T256 144H471L441 0H-31Z" />
<glyph unicode="3" glyph-name="three" horiz-adv-x="534" d="M177 -10Q149 -10 110 -6T34 7T-26 25L6 175Q44 156 91 148T179 139Q241 139 268 153T304 205Q305 209 305 212T305 218Q305 261 228 261H119L158 387H249Q293 387 315 401T343 446Q344 450 344 453T345
461Q345 483 324 494T252 505Q208 505 161 495T78 469L110 618Q150 633 207 643T320 654Q424 654 484 610T544 500Q544 493 543 485T540 468Q530 422 505 384T440 324Q498 298 498 230Q498 220 497 210T493 189Q471 86 389 38T177 -10Z" />
<glyph unicode="4" glyph-name="four" horiz-adv-x="549" d="M242 0L267 121H-26L0 244L403 644H566L488 273H546L513 121H455L430 0H242ZM186 265H331L368 440L186 265Z" />
<glyph unicode="5" glyph-name="five" horiz-adv-x="524" d="M172 -10Q144 -10 108 -7T37 4T-23 24L9 175Q30 164 60 156T121 144T174 140Q232 140 260 157T295 211Q298 223 298 233Q298 256 281 266T223 277H27L46 363L122 644H539L496 500H253L227 408H300Q397
408 444 367T491 254Q491 242 490 230T486 204Q474 140 437 92T335 17T172 -10Z" />
<glyph unicode="6" glyph-name="six" horiz-adv-x="589" d="M237 -10Q128 -10 71 36T13 173Q13 209 22 251L48 375Q75 505 165 579T412 654Q465 654 504 648T577 627L546 481Q515 496 479 502T399 509Q320 509 280 484T232 414L229 396Q258 413 298 422T371 431Q465
431 512 389T559 272Q559 246 553 216Q540 151 502 100T399 19T237 -10ZM267 123Q317 123 346 145T384 209Q387 226 387 238Q387 267 369 282T306 297Q281 297 254 289T201 267L191 220Q189 210 188 201T187 183Q187 152 205 138T267 123Z" />
<glyph unicode="7" glyph-name="seven" horiz-adv-x="498" d="M4 0L322 500H65L95 644H563L540 536L200 0H4Z" />
<glyph unicode="8" glyph-name="eight" horiz-adv-x="610" d="M245 -10Q3 -10 3 141Q3 152 4 163T8 187Q18 234 49 274T123 333Q101 350 90 373T78 424Q78 432 79 440T82 457Q101 547 174 600T387 654Q503 654 559 613T615 501Q615 491 614 480T610 457Q602 420
578 385T512 328Q572 295 572 225Q572 206 568 187Q548 90 469 40T245 -10ZM353 380Q388 391 405 407T430 453Q431 458 431 463T432 472Q432 495 415 506T358 518Q272 518 259 453Q258 449 258 445T257 436Q257 400 300 391L353 380ZM274 125Q327 125 355 141T390
191Q391 196 391 200T392 208Q392 228 378 239T335 258L270 272Q239 265 218 248T188 197Q187 192 187 188T186 178Q186 125 274 125Z" />
<glyph unicode="9" glyph-name="nine" horiz-adv-x="589" d="M201 -10Q147 -10 109 -5T36 15L67 161Q99 146 134 140T214 134Q292 134 332 162T380 229L384 248Q356 232 316 222T242 212Q155 212 105 257T54 377Q54 389 55 401T59 427Q73 493 109 544T210 625T376
654Q489 654 544 605T599 467Q599 450 598 432T591 393L565 269Q538 142 450 66T201 -10ZM306 346Q331 346 359 355T412 377L421 423Q425 440 425 457Q425 521 345 521Q296 521 267 498T229 434Q227 425 226 417T225 402Q225 375 242 361T306 346Z" />
<glyph unicode=":" glyph-name="colon" horiz-adv-x="197" d="M36 317L65 454H212L183 317H36ZM-28 18L1 155H148L119 18H-28Z" />
<glyph unicode=";" glyph-name="semicolon" horiz-adv-x="241" d="M76 317L105 454H253L224 317H76ZM-56 -120L25 105H182L77 -120H-56Z" />
<glyph unicode="&lt;" glyph-name="less" horiz-adv-x="538" d="M460 18L18 234L51 389L585 605L548 425L235 307L498 188L460 18Z" />
<glyph unicode="=" glyph-name="equal" horiz-adv-x="446" d="M35 311L62 440H458L431 311H35ZM-5 124L22 254H418L391 124H-5Z" />
<glyph unicode="&gt;" glyph-name="greater" horiz-adv-x="538" d="M-28 18L10 198L323 317L60 435L97 605L539 389L506 234L-28 18Z" />
<glyph unicode="?" glyph-name="question" horiz-adv-x="501" d="M108 184L111 202Q120 244 142 270T203 326Q235 350 259 365T299 396T320 435Q322 445 322 450Q322 473 300 483T225 494Q181 494 139 484T65 456L99 612Q142 632 195 643T313 654Q409 654 465
614T522 503Q522 493 521 484T518 463Q506 408 478 373T396 301Q356 273 326 251T288 196L286 184H108ZM60 0L88 133H284L256 0H60Z" />
<glyph unicode="@" glyph-name="at" horiz-adv-x="755" d="M303 -132Q216 -132 148 -107T39 -28T-1 108Q-1 145 8 188Q46 363 159 444T451 525Q580 525 657 470T734 314Q734 300 733 285T727 253Q707 157 644 105T474 50H434Q403 33 371 24T294 15Q247 15 212
36T177 102Q177 113 180 126Q192 180 232 209T348 239H439L442 253Q443 256 443 259T443 265Q443 280 429 289T375 298Q347 298 316 293T256 280L272 353Q301 364 340 370T418 376Q483 376 516 350T549 275Q549 267 548 258T545 238L525 145Q550 145 568 167T598
244Q604 274 604 298Q604 359 563 390T429 422Q304 422 233 365T135 186Q126 146 126 113Q126 38 174 5T323 -29Q434 -29 500 -10L478 -114Q445 -121 400 -126T303 -132ZM339 88Q381 88 414 118L425 171H363Q332 171 318 160T299 127Q298 124 298 121T298 115Q298
88 339 88Z" />
<glyph unicode="A" glyph-name="A" horiz-adv-x="743" d="M-32 0L351 644H550L661 0H465L442 137H246L164 0H-32ZM299 272H443L411 461L299 272Z" />
<glyph unicode="B" glyph-name="B" horiz-adv-x="647" d="M-11 0L125 644H479Q562 644 604 609T647 511Q647 501 646 490T642 466Q632 416 606 382T545 328Q576 315 593 293T611 232Q611 223 610 213T606 191Q587 100 521 50T351 0H-11ZM252 387H374Q410 387 429
403T456 449Q458 454 458 459T458 468Q458 490 444 501T395 512H278L252 387ZM197 131H327Q365 131 386 147T416 200Q417 205 417 209T418 218Q418 241 402 252T351 263H225L197 131Z" />
<glyph unicode="C" glyph-name="C" horiz-adv-x="607" d="M325 -10Q186 -10 107 54T27 236Q27 274 36 319Q71 481 172 567T466 654Q526 654 570 645T655 620L620 456Q543 494 445 494Q354 494 301 453T228 319Q224 301 222 286T220 256Q220 201 255 176T373 150Q421
150 468 159T565 187L530 22Q484 7 435 -1T325 -10Z" />
<glyph unicode="D" glyph-name="D" horiz-adv-x="671" d="M-11 0L125 644H413Q488 644 545 619T635 542T667 410Q667 389 665 366T657 318Q635 207 589 137T469 34T284 0H-11ZM207 144H283Q330 144 365 157T425 208T465 318Q470 344 473 366T476 406Q476 460 448
480T359 500H283L207 144Z" />
<glyph unicode="E" glyph-name="E" horiz-adv-x="549" d="M-11 0L125 644H613L583 500H283L260 395H523L492 249H229L207 144H507L477 0H-11Z" />
<glyph unicode="F" glyph-name="F" horiz-adv-x="535" d="M-11 0L125 644H609L580 504H284L260 393H518L488 251H230L177 0H-11Z" />
<glyph unicode="G" glyph-name="G" horiz-adv-x="651" d="M317 -10Q229 -10 164 18T62 100T26 234Q26 273 35 316Q70 478 176 566T472 654Q532 654 579 647T666 626L631 465Q591 482 546 488T451 494Q365 494 306 452T227 316Q218 277 218 248Q218 197 248 174T351
150Q377 150 400 153T446 163L466 257H338L363 373H648L579 49Q537 26 472 8T317 -10Z" />
<glyph unicode="H" glyph-name="H" horiz-adv-x="689" d="M-11 0L125 644H313L262 404H484L535 644H723L587 0H399L450 240H228L177 0H-11Z" />
<glyph unicode="I" glyph-name="I" horiz-adv-x="279" d="M-11 0L125 644H313L177 0H-11Z" />
<glyph unicode="J" glyph-name="J" horiz-adv-x="447" d="M99 -10Q57 -10 20 -5T-49 13L-16 169Q30 149 94 149Q154 149 179 171T214 244L299 644H487L396 214Q373 105 301 48T99 -10Z" />
<glyph unicode="K" glyph-name="K" horiz-adv-x="684" d="M-11 0L125 644H313L265 417L508 644H722L439 380L602 0H402L298 260L216 186L177 0H-11Z" />
<glyph unicode="L" glyph-name="L" horiz-adv-x="529" d="M-11 0L125 644H313L207 144H497L467 0H-11Z" />
<glyph unicode="M" glyph-name="M" horiz-adv-x="775" d="M-11 0L125 644H302L393 317L621 644H809L673 0H485L553 322L405 110H304L245 322L177 0H-11Z" />
<glyph unicode="N" glyph-name="N" horiz-adv-x="682" d="M-11 0L125 644H285L456 303L528 644H716L580 0H419L249 340L177 0H-11Z" />
<glyph unicode="O" glyph-name="O" horiz-adv-x="708" d="M294 -10Q170 -10 97 44T24 218Q24 263 36 320Q62 440 113 513T244 620T436 654Q564 654 635 599T706 425Q706 379 694 320Q657 146 560 68T294 -10ZM328 150Q400 150 441 190T502 320Q507 344 509 364T512
401Q512 451 487 472T402 494Q330 494 290 455T228 320Q223 296 220 276T217 239Q217 191 243 171T328 150Z" />
<glyph unicode="P" glyph-name="P" horiz-adv-x="614" d="M-11 0L125 644H443Q541 644 593 593T645 462Q645 436 639 407Q625 339 591 286T501 203T365 173H213L177 0H-11ZM244 317H341Q392 317 415 342T447 407Q449 417 450 426T451 443Q451 470 437 485T385
500H283L244 317Z" />
<glyph unicode="Q" glyph-name="Q" horiz-adv-x="708" d="M378 -172Q220 -172 220 -52Q220 -41 221 -30T225 -5Q131 8 78 62T24 217Q24 263 36 320Q62 440 113 513T244 620T436 654Q564 654 635 599T706 425Q706 379 694 320Q661 167 583 89T372 -5Q371 -12 371
-17T370 -27Q370 -44 379 -50T411 -56Q426 -56 443 -53T476 -46L451 -162Q435 -166 415 -169T378 -172ZM328 150Q400 150 441 190T502 320Q507 344 509 364T512 401Q512 451 487 472T402 494Q330 494 290 455T228 320Q223 296 220 276T217 239Q217 191 243 171T328
150Z" />
<glyph unicode="R" glyph-name="R" horiz-adv-x="636" d="M-11 0L125 644H460Q552 644 600 598T648 474Q648 447 642 415Q628 350 585 301T482 225Q492 216 497 204T507 169L546 0H350L314 155Q310 173 300 180T269 188H216L177 0H-11ZM247 332H346Q432 332 450
415Q452 424 453 432T454 447Q454 473 439 486T388 500H283L247 332Z" />
<glyph unicode="S" glyph-name="S" horiz-adv-x="556" d="M197 -10Q132 -10 76 0T-16 30L17 185Q58 164 110 151T210 138Q260 138 287 146T321 185Q322 189 322 195Q322 220 291 232T199 265Q131 289 96 323T61 413Q61 424 62 435T66 460Q86 555 160 604T376 654Q429
654 483 645T570 625L537 469Q494 488 453 496T374 504Q330 504 298 497T258 461Q257 458 257 452Q257 433 282 423T365 395Q452 369 486 331T520 241Q520 228 518 214T513 185Q501 127 467 83T367 15T197 -10Z" />
<glyph unicode="T" glyph-name="T" horiz-adv-x="561" d="M130 0L237 504H56L85 644H635L606 504H425L318 0H130Z" />
<glyph unicode="U" glyph-name="U" horiz-adv-x="689" d="M286 -10Q204 -10 147 17T61 92T31 200Q31 226 37 254L120 644H308L228 268Q222 240 222 219Q222 182 245 166T320 150Q384 150 416 177T461 268L541 644H729L645 248Q617 112 529 51T286 -10Z" />
<glyph unicode="V" glyph-name="V" horiz-adv-x="743" d="M216 0L105 644H295L355 218L595 644H798L415 0H216Z" />
<glyph unicode="W" glyph-name="W" horiz-adv-x="891" d="M119 0L105 644H289L290 303L413 547L433 644H587L613 302L762 644H946L661 0H496L469 333L294 0H119Z" />
<glyph unicode="X" glyph-name="X" horiz-adv-x="753" d="M-32 0L275 326L113 644H337L419 475L574 644H798L502 326L671 0H444L356 175L195 0H-32Z" />
<glyph unicode="Y" glyph-name="Y" horiz-adv-x="702" d="M201 0L251 236L105 644H295L374 401L555 644H757L439 236L389 0H201Z" />
<glyph unicode="Z" glyph-name="Z" horiz-adv-x="579" d="M-31 0L-12 94L355 500H90L120 644H632L612 546L249 144H532L502 0H-31Z" />
<glyph unicode="[" glyph-name="bracketleft" horiz-adv-x="375" d="M-53 -99L119 706H448L422 562H276L166 45H313L277 -99H-53Z" />
<glyph unicode="\" glyph-name="backslash" horiz-adv-x="498" d="M210 -54L109 662H305L405 -54H210Z" />
<glyph unicode="]" glyph-name="bracketright" horiz-adv-x="375" d="M-57 -99L-32 45H115L225 562H79L115 706H444L272 -99H-57Z" />
<glyph unicode="^" glyph-name="asciicircum" horiz-adv-x="527" d="M48 372L271 624H399L525 372H357L315 488L227 372H48Z" />
<glyph unicode="_" glyph-name="underscore" horiz-adv-x="518" d="M-58 -129L-31 0H437L409 -129H-58Z" />
<glyph unicode="`" glyph-name="grave" horiz-adv-x="284" d="M175 522L123 728H269L313 522H175Z" />
<glyph unicode="a" glyph-name="a" horiz-adv-x="607" d="M187 -10Q104 -10 56 27T7 147Q7 164 9 182T15 220Q33 301 75 360T176 452T303 484Q341 484 369 475T413 451L418 474H606L506 0H343L341 37Q308 15 271 3T187 -10ZM270 126Q292 126 313 133T350 155L386
323Q364 348 322 348Q235 348 207 219Q201 194 201 176Q201 148 217 137T270 126Z" />
<glyph unicode="b" glyph-name="b" horiz-adv-x="607" d="M301 -10Q255 -10 223 2T167 37L151 0H-12L131 674H319L273 457Q299 470 333 477T400 484Q483 484 534 445T585 318Q585 283 576 241Q549 114 480 52T301 -10ZM276 126Q320 126 345 152T383 239Q389 268
389 287Q389 320 372 334T323 348Q278 348 244 323L208 155Q232 126 276 126Z" />
<glyph unicode="c" glyph-name="c" horiz-adv-x="506" d="M244 -10Q177 -10 124 10T41 72T11 177Q11 191 12 206T18 237Q45 363 129 423T350 484Q403 484 443 477T518 451L490 319Q437 347 362 347Q298 347 261 323T210 237Q208 227 207 218T206 201Q206 162 233
145T315 127Q351 127 387 135T458 160L428 22Q386 5 341 -2T244 -10Z" />
<glyph unicode="d" glyph-name="d" horiz-adv-x="608" d="M187 -10Q111 -10 61 30T10 159Q10 176 12 194T18 233Q46 363 118 423T298 484Q331 484 362 477T415 457L461 674H649L506 0H343L341 37Q308 15 271 3T187 -10ZM270 126Q313 126 350 155L386 323Q364 348
317 348Q275 348 249 321T210 232Q204 204 204 184Q204 152 220 139T270 126Z" />
<glyph unicode="e" glyph-name="e" horiz-adv-x="552" d="M246 -10Q140 -10 76 36T11 174Q11 188 12 204T18 236Q42 349 117 416T325 484Q423 484 477 437T531 312Q531 301 530 289T526 264L508 181H179Q180 144 209 128T318 111Q359 111 401 118T472 136L448
23Q372 -10 246 -10ZM201 283H368L371 300Q372 305 372 309T373 317Q373 338 358 351T306 364Q257 364 233 344T201 283Z" />
<glyph unicode="f" glyph-name="f" horiz-adv-x="390" d="M15 0L86 335H25L54 474H115L122 505Q134 559 160 600T232 666T345 690Q384 690 413 684T467 667L441 545Q428 550 414 553T384 556Q348 556 332 543T309 501L303 474H415L378 335H274L203 0H15Z" />
<glyph unicode="g" glyph-name="g" horiz-adv-x="607" d="M151 -176Q135 -176 108 -175T56 -171T17 -166L46 -32Q65 -37 96 -41T150 -45Q233 -45 274 -31T321 16L323 27Q298 14 263 4T194 -6Q114 -6 62 36T10 164Q10 178 11 194T17 227Q43 353 113 418T300 484Q342
484 374 471T426 437L443 474H606L516 48Q501 -23 462 -73T348 -149T151 -176ZM271 130Q318 130 350 155L385 319Q373 333 358 340T321 348Q271 348 247 320T209 228Q203 200 203 180Q203 151 219 141T271 130Z" />
<glyph unicode="h" glyph-name="h" horiz-adv-x="604" d="M-12 0L131 674H319L270 445Q299 462 338 473T421 484Q577 484 577 358Q577 345 576 330T570 298L507 0H318L378 284Q381 298 381 308Q381 345 331 345Q306 345 283 335T242 311L176 0H-12Z" />
<glyph unicode="i" glyph-name="i" horiz-adv-x="327" d="M136 537L165 673H368L339 537H136ZM37 0L108 337H39L84 474H325L225 0H37Z" />
<glyph unicode="j" glyph-name="j" horiz-adv-x="354" d="M163 537L192 673H395L366 537H163ZM19 -234Q-56 -234 -104 -212L-77 -87Q-48 -97 -19 -97Q16 -97 32 -85T54 -46L135 337H66L111 474H352L239 -60Q223 -136 172 -185T19 -234Z" />
<glyph unicode="k" glyph-name="k" horiz-adv-x="609" d="M-12 0L131 674H319L248 341L408 474H621L390 274L532 0H332L252 176L205 137L176 0H-12Z" />
<glyph unicode="l" glyph-name="l" horiz-adv-x="319" d="M146 -10Q79 -10 46 15T12 93Q12 116 18 143L131 674H319L210 164Q209 160 209 156T208 149Q208 136 215 132T239 127Q252 127 265 129T290 135L264 10Q236 0 210 -5T146 -10Z" />
<glyph unicode="m" glyph-name="m" horiz-adv-x="862" d="M-11 0L89 474H263L260 436Q295 457 336 470T424 484Q470 484 494 471T528 433Q565 456 608 470T706 484Q774 484 805 454T837 368Q837 355 836 340T830 308L765 0H580L640 286Q643 300 643 309Q643 345
597 345Q558 345 527 317Q526 304 524 293T518 267L462 0H288L349 289Q352 303 352 313Q352 345 313 345Q294 345 274 335T237 311L171 0H-11Z" />
<glyph unicode="n" glyph-name="n" horiz-adv-x="605" d="M-11 0L89 474H265L263 438Q294 456 341 470T439 484Q512 484 545 454T579 364Q579 351 578 336T572 304L508 0H320L380 285Q383 297 383 307Q383 345 335 345Q309 345 285 335T243 311L177 0H-11Z" />
<glyph unicode="o" glyph-name="o" horiz-adv-x="606" d="M242 -10Q133 -10 72 36T11 173Q11 188 12 204T18 237Q44 357 123 420T347 484Q463 484 522 435T581 300Q581 285 580 270T574 237Q549 116 467 53T242 -10ZM271 127Q317 127 343 153T382 237Q388 264
388 285Q388 317 372 332T318 347Q273 347 248 321T210 237Q204 207 204 186Q204 155 219 141T271 127Z" />
<glyph unicode="p" glyph-name="p" horiz-adv-x="608" d="M-56 -216L89 474H252L253 436Q287 459 324 471T407 484Q490 484 537 442T585 314Q585 279 576 237Q549 110 483 50T294 -10Q224 -10 180 17L131 -216H-56ZM275 127Q316 127 344 153T385 240Q387 253 388
264T390 285Q390 319 374 333T324 347Q278 347 244 319L209 151Q230 127 275 127Z" />
<glyph unicode="q" glyph-name="q" horiz-adv-x="600" d="M426 -242Q364 -242 329 -215T293 -132Q293 -121 294 -110T298 -86L320 17Q295 4 261 -3T194 -10Q115 -10 63 32T10 164Q10 181 12 199T18 237Q45 365 114 424T293 484Q340 484 370 472T424 436L442 474H605L491
-64Q490 -69 490 -74T489 -83Q489 -106 522 -106Q545 -106 569 -98L542 -222Q514 -232 490 -237T426 -242ZM270 127Q294 127 312 133T349 151L384 319Q371 333 356 340T318 347Q276 347 250 323T211 240Q208 225 206 212T204 188Q204 155 220 141T270 127Z" />
<glyph unicode="r" glyph-name="r" horiz-adv-x="405" d="M-11 0L89 474H270L267 436Q300 453 348 467T442 484L413 344Q387 342 355 337T293 325T242 308L177 0H-11Z" />
<glyph unicode="s" glyph-name="s" horiz-adv-x="487" d="M171 -10Q110 -10 59 -2T-21 20L7 155Q39 139 85 130T166 121Q202 121 221 123T243 140Q247 157 216 166T138 192Q88 212 62 237T36 303Q36 311 37 319T40 336Q55 407 116 445T303 484Q349 484 396 477T470
461L442 329Q415 342 381 348T318 354Q286 354 261 351T231 334Q228 318 255 311T327 289Q389 270 414 244T440 179Q440 170 439 161T435 141Q419 69 358 30T171 -10Z" />
<glyph unicode="t" glyph-name="t" horiz-adv-x="381" d="M189 -10Q116 -10 78 24T40 118Q40 141 46 168L82 335H20L49 474H111L132 571L329 616L299 474H408L372 335H270L237 182Q234 169 234 160Q234 140 247 134T286 127Q315 127 348 137L321 12Q264 -10 189 -10Z" />
<glyph unicode="u" glyph-name="u" horiz-adv-x="605" d="M158 -10Q93 -10 54 23T15 122Q15 147 21 175L84 474H272L212 190Q211 185 211 180T210 170Q210 128 262 128Q285 128 309 138T349 163L415 474H603L503 0H327L329 36Q296 16 253 3T158 -10Z" />
<glyph unicode="v" glyph-name="v" horiz-adv-x="622" d="M156 0L69 474H260L291 196L440 474H641L354 0H156Z" />
<glyph unicode="w" glyph-name="w" horiz-adv-x="783" d="M94 0L69 474H251L257 239L348 406L362 474H500L516 239L620 474H802L577 0H414L387 215L270 0H94Z" />
<glyph unicode="x" glyph-name="x" horiz-adv-x="611" d="M-37 0L197 241L70 474H274L327 374L423 474H626L402 241L534 0H328L270 106L168 0H-37Z" />
<glyph unicode="y" glyph-name="y" horiz-adv-x="604" d="M138 -176Q122 -176 95 -175T43 -171T4 -166L33 -32Q52 -37 83 -41T137 -45Q220 -45 267 -32T321 16L325 36Q292 16 251 3T158 -10Q94 -10 55 27T16 129Q16 140 17 151T21 175L84 474H272L212 190Q209
175 209 163Q209 143 221 136T262 128Q285 128 309 138T349 163L415 474H603L516 63Q501 -10 460 -63T342 -146T138 -176Z" />
<glyph unicode="z" glyph-name="z" horiz-adv-x="496" d="M-31 0L-10 103L238 330H46L76 474H507L485 368L244 144H444L414 0H-31Z" />
<glyph unicode="{" glyph-name="braceleft" horiz-adv-x="328" d="M119 -104Q61 -104 34 -82T7 -15Q7 7 13 34L41 166Q44 183 44 196Q44 237 0 244L23 352Q58 357 74 377T99 440L125 562Q140 631 179 666T291 701H406L375 557H350Q329 557 319 547T303 513L277
393Q263 327 209 298Q240 276 240 232Q240 218 237 203L211 83Q210 79 210 75T209 66Q209 40 240 40H265L234 -104H119Z" />
<glyph unicode="|" glyph-name="bar" horiz-adv-x="238" d="M-56 -120L125 735H313L131 -120H-56Z" />
<glyph unicode="}" glyph-name="braceright" horiz-adv-x="328" d="M-63 -104L-33 40H-8Q13 40 24 50T39 83L65 203Q78 267 133 298Q102 319 102 364Q102 378 105 393L131 513Q132 518 132 522T133 530Q133 557 102 557H77L108 701H223Q282 701 308 679T335 611Q335
589 329 562L303 440Q301 428 300 418T298 400Q298 378 308 367T341 352L318 244Q287 240 270 222T245 166L217 34Q202 -35 163 -69T51 -104H-63Z" />
<glyph unicode="~" glyph-name="asciitilde" horiz-adv-x="532" d="M372 189Q339 189 312 199T258 222T203 245T143 255Q105 255 73 242T10 197L46 365Q69 388 104 401T177 415Q211 415 239 405T294 382T348 359T406 349Q444 349 475 362T537 406L501 238Q479
214 445 202T372 189Z" />
<glyph unicode="&#xa0;" glyph-name="uni00A0" horiz-adv-x="205" />
<glyph unicode="&#xa1;" glyph-name="exclamdown" horiz-adv-x="246" d="M41 341L69 474H265L237 341H41ZM-63 -170L-27 3L40 290H216L161 3L125 -170H-63Z" />
<glyph unicode="&#xa2;" glyph-name="cent" horiz-adv-x="506" d="M144 -86L162 -1Q95 15 54 59T12 176Q12 206 19 237Q42 342 103 401T264 477L282 560H436L419 480Q448 477 472 470T519 451L491 319Q438 347 363 347Q299 347 262 323T211 237Q209 226 208 216T206
196Q206 160 231 144T316 127Q352 127 388 135T459 160L429 22Q377 0 315 -6L298 -86H144Z" />
<glyph unicode="&#xa3;" glyph-name="sterling" horiz-adv-x="485" d="M-31 0L-2 139H21Q44 139 57 151T74 184L91 264H30L59 403H120L134 467Q151 550 208 602T365 654Q407 654 438 648T494 629L468 508Q455 514 437 517T400 520Q361 520 344 505T320 460L308
403H443L406 264H279L264 195Q260 175 253 163T231 139H433L404 0H-31Z" />
<glyph unicode="&#xa4;" glyph-name="currency" horiz-adv-x="570" d="M58 35L-3 135L86 191Q83 200 82 210T81 230Q81 240 82 249T85 269Q93 310 119 346L55 403L157 502L224 438Q271 464 326 464Q382 464 418 437L514 501L574 403L484 346Q490 327 490 302Q490
286 487 269Q483 249 473 229T451 192L516 133L415 36L347 99Q323 86 297 79T244 72Q218 72 195 79T152 98L58 35ZM271 203Q303 203 328 227T354 286Q354 308 341 322T299 336Q267 336 243 310T218 250Q218 230 230 217T271 203Z" />
<glyph unicode="&#xa5;" glyph-name="yen" horiz-adv-x="702" d="M201 0L215 65H80L103 171H237L246 211H111L134 317H222L105 644H295L374 401L555 644H757L502 317H589L566 211H434L425 171H558L535 65H403L389 0H201Z" />
<glyph unicode="&#xa6;" glyph-name="brokenbar" horiz-adv-x="238" d="M50 383L125 735H313L238 383H50ZM-56 -120L18 231H206L131 -120H-56Z" />
<glyph unicode="&#xa7;" glyph-name="section" horiz-adv-x="555" d="M197 -10Q132 -10 76 0T-16 30L16 180Q57 159 109 146T209 133Q256 133 284 143T320 184Q321 187 321 192Q321 218 288 231T199 265Q129 290 94 321T59 404Q59 413 60 423T63 443Q67 463 77
482T100 514Q96 523 94 535T91 560Q91 573 94 588Q113 674 188 719T399 765Q432 765 469 761T539 750T594 736L562 585Q519 604 478 612T395 620Q375 620 351 618T307 605T282 573Q281 570 281 564Q281 544 307 533T389 505Q478 480 513 449T548 371Q548 361 547
351T543 328Q539 308 528 285T504 249Q514 232 514 205Q514 192 511 178Q492 87 413 39T197 -10ZM396 322Q400 329 402 338Q407 358 384 372T308 400Q280 408 257 417T224 437Q223 434 221 430T218 421Q214 400 236 389T308 363Q338 354 363 344T396 322Z" />
<glyph unicode="&#xa8;" glyph-name="dieresis" horiz-adv-x="406" d="M300 548L328 678H469L441 548H300ZM85 548L113 678H254L226 548H85Z" />
<glyph unicode="&#xa9;" glyph-name="copyright" horiz-adv-x="714" d="M298 -10Q219 -10 159 24T64 118T30 253Q30 270 31 287T37 322Q52 391 89 451T180 556T300 628T440 654Q520 654 580 620T674 526T708 391Q708 375 707 358T701 322Q686 253 650 193T560
88T440 16T298 -10ZM319 86Q389 86 446 116T544 199T600 322Q605 342 606 359T608 393Q608 470 562 513T419 557Q351 557 293 527T194 444T138 322Q134 303 132 286T130 253Q130 174 177 130T319 86ZM329 124Q286 124 250 142T193 194T172 276Q172 287 173 298T177
322Q197 417 262 469T415 521Q456 521 484 511T534 482L516 398Q476 425 426 425Q386 425 349 403T299 322Q293 297 293 279Q293 245 313 233T379 220Q405 220 433 228T486 251L467 162Q436 144 402 134T329 124Z" />
<glyph unicode="&#xaa;" glyph-name="ordfeminine" horiz-adv-x="334" d="M142 380Q111 380 88 395T65 444Q65 449 65 454T67 464Q85 553 197 553H265L266 557Q267 560 267 565Q267 575 256 579T216 584Q171 584 123 570L136 635Q159 643 191 648T253 654Q307
654 339 633T371 571Q371 561 368 547L334 386H239L238 406Q219 393 197 387T142 380ZM194 443Q225 443 246 465L253 494H211Q192 494 181 489T167 468Q166 465 166 460Q166 443 194 443Z" />
<glyph unicode="&#xab;" glyph-name="guillemotleft" horiz-adv-x="676" d="M534 51L307 250L321 318L633 517L682 407L480 278L627 148L534 51ZM249 51L22 250L36 318L348 517L397 407L195 278L342 148L249 51Z" />
<glyph unicode="&#xac;" glyph-name="logicalnot" horiz-adv-x="503" d="M302 119L327 238H19L50 382H503L447 119H302Z" />
<glyph unicode="&#xad;" glyph-name="uni00AD" horiz-adv-x="455" d="M14 212L44 356H449L419 212H14Z" />
<glyph unicode="&#xae;" glyph-name="registered" horiz-adv-x="714" d="M298 -10Q219 -10 159 24T64 118T30 253Q30 270 31 287T37 322Q52 391 89 451T180 556T300 628T440 654Q520 654 580 620T674 526T708 391Q708 375 707 358T701 322Q686 253 650 193T560
88T440 16T298 -10ZM319 86Q389 86 446 116T544 199T600 322Q605 342 606 359T608 393Q608 470 562 513T419 557Q351 557 293 527T194 444T138 322Q134 303 132 286T130 253Q130 174 177 130T319 86ZM191 148L266 500H453Q505 500 530 476T555 412Q555 405 554
397T551 379Q543 339 518 312T457 271Q466 262 469 242L484 148H387L375 239Q373 249 368 253T347 257H315L292 148H191ZM331 333H376Q405 333 424 341T450 379Q451 384 451 387T452 394Q452 412 439 418T401 424H351L331 333Z" />
<glyph unicode="&#xaf;" glyph-name="overscore" horiz-adv-x="378" d="M87 557L111 669H439L415 557H87Z" />
<glyph unicode="&#xb0;" glyph-name="degree" horiz-adv-x="307" d="M200 487Q156 487 126 512T96 583Q96 597 99 612Q111 671 153 704T253 737Q299 737 329 712T359 641Q359 627 356 612Q343 554 302 521T200 487ZM218 573Q235 573 248 584T266 612Q267 616 267
622Q267 634 260 642T235 650Q219 650 205 639T188 612Q187 609 187 606T187 600Q187 588 194 581T218 573Z" />
<glyph unicode="&#xb1;" glyph-name="plusminus" horiz-adv-x="455" d="M137 183L163 303H33L64 447H194L219 568H364L339 447H469L438 303H308L282 183H137ZM-31 0L-1 144H404L374 0H-31Z" />
<glyph unicode="&#xb2;" glyph-name="uni00B2" horiz-adv-x="306" d="M47 370L58 422Q78 442 95 454T137 483Q172 506 184 515T199 537Q203 561 162 561Q146 561 126 556T89 544L108 634Q128 641 164 647T235 654Q288 654 316 635T345 583Q345 579 345 576T343
567Q338 541 325 525T286 489Q273 479 265 474T245 459H322L303 370H47Z" />
<glyph unicode="&#xb3;" glyph-name="uni00B3" horiz-adv-x="310" d="M160 362Q146 362 124 364T80 369T49 377L64 451Q81 443 102 439T140 435Q188 435 192 456Q198 477 158 477H112L130 540H169Q206 540 210 561Q214 579 169 579Q150 579 129 575T92 563L108
638Q126 644 160 649T223 654Q285 654 315 634T346 584Q346 580 346 577T345 570Q336 529 301 508Q327 497 327 470Q327 461 324 450Q315 406 273 384T160 362Z" />
<glyph unicode="&#xb4;" glyph-name="acute" horiz-adv-x="284" d="M79 522L211 728H357L217 522H79Z" />
<glyph unicode="&#xb5;" glyph-name="uni00B5" horiz-adv-x="610" d="M-42 -143L89 474H277L217 190Q214 178 214 168Q214 128 267 128Q290 128 314 138T354 163L420 474H608L508 0H332L334 36Q309 17 279 4T209 -10Q190 -10 176 -3L146 -143H-42Z" />
<glyph unicode="&#xb6;" glyph-name="paragraph" horiz-adv-x="669" d="M175 -77L245 253Q193 253 152 269T86 321T62 412Q62 426 64 442T70 477Q88 559 132 610T240 685T375 710H738L571 -77H403L541 571H480L342 -77H175Z" />
<glyph unicode="&#xb7;" glyph-name="middot" horiz-adv-x="198" d="M15 219L44 354H192L163 219H15Z" />
<glyph unicode="&#xb8;" glyph-name="cedilla" horiz-adv-x="293" d="M-1 -240Q-19 -240 -44 -238T-80 -232L-64 -158Q-38 -166 -8 -166Q34 -166 53 -157T72 -124Q72 -109 59 -105T24 -101H-39L12 0H115L91 -41Q141 -41 163 -60T186 -111Q186 -123 183 -135Q173
-184 127 -212T-1 -240Z" />
<glyph unicode="&#xb9;" glyph-name="uni00B9" horiz-adv-x="222" d="M105 370L139 528L78 517L99 616L300 654L239 370H105Z" />
<glyph unicode="&#xba;" glyph-name="ordmasculine" horiz-adv-x="359" d="M203 380Q141 380 108 405T74 479Q74 498 78 517Q93 585 136 619T262 654Q325 654 358 629T392 555Q392 547 391 538T387 517Q373 449 328 415T203 380ZM220 458Q244 458 257 472T277
517Q279 525 280 532T281 544Q281 575 245 575Q221 575 208 562T187 517Q184 502 184 490Q184 458 220 458Z" />
<glyph unicode="&#xbb;" glyph-name="guillemotright" horiz-adv-x="676" d="M335 51L286 160L489 290L341 419L434 517L662 318L648 250L335 51ZM50 51L1 160L204 290L56 419L149 517L377 318L363 250L50 51Z" />
<glyph unicode="&#xbc;" glyph-name="onequarter" horiz-adv-x="682" d="M105 370L139 528L78 517L99 616L300 654L239 370H105ZM23 0L495 644H673L200 0H23ZM445 0L453 42H325L342 121L506 284H632L598 126H627L609 42H580L572 0H445ZM451 126H505L520 196L451 126Z" />
<glyph unicode="&#xbd;" glyph-name="onehalf" horiz-adv-x="695" d="M105 370L139 528L78 517L99 616L300 654L239 370H105ZM23 0L495 644H673L200 0H23ZM358 0L369 52Q388 72 405 84T448 113Q483 136 494 145T509 167Q514 191 472 191Q456 191 436 186T399 174L419
264Q439 271 475 277T545 284Q598 284 626 265T655 213Q655 209 655 205T653 197Q648 171 635 155T597 119Q584 109 576 104T555 89H632L614 0H358Z" />
<glyph unicode="&#xbe;" glyph-name="threequarters" horiz-adv-x="692" d="M160 362Q146 362 124 364T80 369T49 377L64 451Q81 443 102 439T140 435Q188 435 192 456Q198 477 158 477H112L130 540H169Q206 540 210 561Q214 579 169 579Q150 579 129 575T92 563L108
638Q126 644 160 649T223 654Q289 654 318 635T347 585Q347 581 347 578T345 570Q336 529 301 508Q327 497 327 470Q327 461 324 450Q315 406 273 384T160 362ZM33 0L505 644H683L210 0H33ZM455 0L463 42H335L352 121L516 284H642L608 126H637L619 42H590L582 0H455ZM461
126H515L530 196L461 126Z" />
<glyph unicode="&#xbf;" glyph-name="questiondown" horiz-adv-x="501" d="M204 341L232 474H428L400 341H204ZM175 -180Q79 -180 23 -140T-34 -29Q-34 -19 -33 -9T-30 11Q-18 67 10 101T92 173Q133 202 163 223T200 278L202 290H380L377 272Q368 230 346 204T285
148Q254 124 229 109T189 78T168 39Q166 29 166 24Q166 1 188 -9T263 -20Q307 -20 349 -10T423 18L389 -138Q346 -157 293 -168T175 -180Z" />
<glyph unicode="&#xc0;" glyph-name="Agrave" horiz-adv-x="743" d="M390 688L337 894H484L528 688H390ZM-32 0L351 644H550L661 0H465L442 137H246L164 0H-32ZM299 272H443L411 461L299 272Z" />
<glyph unicode="&#xc1;" glyph-name="Aacute" horiz-adv-x="743" d="M388 688L520 894H666L526 688H388ZM-32 0L351 644H550L661 0H465L442 137H246L164 0H-32ZM299 272H443L411 461L299 272Z" />
<glyph unicode="&#xc2;" glyph-name="Acircumflex" horiz-adv-x="743" d="M249 688L445 888H559L672 688H541L487 796L394 688H249ZM-32 0L351 644H550L661 0H465L442 137H246L164 0H-32ZM299 272H443L411 461L299 272Z" />
<glyph unicode="&#xc3;" glyph-name="Atilde" horiz-adv-x="743" d="M558 691Q525 691 496 701T441 722T386 733Q355 733 329 723T280 694L305 812Q322 826 350 835T407 845Q441 845 468 835T521 814T579 803Q611 803 636 814T677 843L652 724Q639 711 613 701T558
691ZM-32 0L351 644H550L661 0H465L442 137H246L164 0H-32ZM299 272H443L411 461L299 272Z" />
<glyph unicode="&#xc4;" glyph-name="Adieresis" horiz-adv-x="743" d="M293 714L319 834H449L423 714H293ZM508 714L534 834H665L639 714H508ZM-32 0L351 644H550L661 0H465L442 137H246L164 0H-32ZM299 272H443L411 461L299 272Z" />
<glyph unicode="&#xc5;" glyph-name="Aring" horiz-adv-x="743" d="M-32 0L343 631Q325 657 325 690Q325 698 326 706T329 722Q341 778 383 816T495 854Q552 854 581 826T610 754Q610 747 609 739T606 722Q593 664 552 630L661 0H465L442 137H246L164 0H-32ZM455
668Q487 668 506 688T525 737Q525 754 515 765T478 776Q446 776 428 754T409 706Q409 690 419 679T455 668ZM299 272H443L411 461L299 272Z" />
<glyph unicode="&#xc6;" glyph-name="AE" horiz-adv-x="859" d="M-32 0L351 644H913L883 500H635L612 395H823L792 249H581L559 144H807L777 0H345L374 138H249L167 0H-32ZM316 284H405L451 500H445L316 284Z" />
<glyph unicode="&#xc7;" glyph-name="Ccedilla" horiz-adv-x="607" d="M261 -240Q243 -240 218 -238T181 -232L197 -158Q224 -166 254 -166Q296 -166 315 -157T334 -124Q334 -109 321 -105T286 -101H223L269 -7Q154 5 91 67T27 235Q27 274 36 319Q71 481 172 567T466
654Q526 654 570 645T655 620L620 456Q543 494 445 494Q354 494 301 453T228 319Q224 301 222 286T220 256Q220 201 255 176T373 150Q421 150 468 159T565 187L530 22Q493 10 454 2T371 -8L352 -41Q402 -41 424 -60T447 -111Q447 -123 444 -135Q434 -184 388 -212T261
-240Z" />
<glyph unicode="&#xc8;" glyph-name="Egrave" horiz-adv-x="549" d="M328 688L275 894H422L466 688H328ZM-11 0L125 644H613L583 500H283L260 395H523L492 249H229L207 144H507L477 0H-11Z" />
<glyph unicode="&#xc9;" glyph-name="Eacute" horiz-adv-x="549" d="M291 688L423 894H569L429 688H291ZM-11 0L125 644H613L583 500H283L260 395H523L492 249H229L207 144H507L477 0H-11Z" />
<glyph unicode="&#xca;" glyph-name="Ecircumflex" horiz-adv-x="549" d="M169 688L365 888H479L592 688H461L407 796L314 688H169ZM-11 0L125 644H613L583 500H283L260 395H523L492 249H229L207 144H507L477 0H-11Z" />
<glyph unicode="&#xcb;" glyph-name="Edieresis" horiz-adv-x="549" d="M216 715L242 835H372L346 715H216ZM431 715L457 835H588L562 715H431ZM-11 0L125 644H613L583 500H283L260 395H523L492 249H229L207 144H507L477 0H-11Z" />
<glyph unicode="&#xcc;" glyph-name="Igrave" horiz-adv-x="278" d="M162 688L109 894H256L300 688H162ZM-12 0L124 644H312L176 0H-12Z" />
<glyph unicode="&#xcd;" glyph-name="Iacute" horiz-adv-x="279" d="M155 688L287 894H433L293 688H155ZM-11 0L125 644H313L177 0H-11Z" />
<glyph unicode="&#xce;" glyph-name="Icircumflex" horiz-adv-x="277" d="M16 688L212 888H326L439 688H308L254 796L161 688H16ZM-13 0L123 644H311L175 0H-13Z" />
<glyph unicode="&#xcf;" glyph-name="Idieresis" horiz-adv-x="278" d="M63 722L89 842H219L193 722H63ZM278 722L304 842H435L409 722H278ZM-11 0L125 644H313L177 0H-11Z" />
<glyph unicode="&#xd0;" glyph-name="Eth" horiz-adv-x="690" d="M8 0L61 251H2L29 380H88L144 644H432Q507 644 564 619T654 542T686 410Q686 389 684 366T676 318Q654 207 608 137T488 34T303 0H8ZM226 144H302Q349 144 384 157T444 208T484 318Q489 344 492
366T495 406Q495 460 467 480T378 500H302L276 380H398L371 251H249L226 144Z" />
<glyph unicode="&#xd1;" glyph-name="Ntilde" horiz-adv-x="682" d="M539 696Q506 696 477 706T422 727T367 738Q336 738 310 728T261 699L286 817Q303 831 331 840T388 850Q422 850 449 840T502 819T560 808Q592 808 617 819T658 848L633 729Q620 716 594 706T539
696ZM-11 0L125 644H285L456 303L528 644H716L580 0H419L249 340L177 0H-11Z" />
<glyph unicode="&#xd2;" glyph-name="Ograve" horiz-adv-x="708" d="M380 688L327 894H474L518 688H380ZM294 -10Q170 -10 97 44T24 218Q24 263 36 320Q62 440 113 513T244 620T436 654Q564 654 635 599T706 425Q706 379 694 320Q657 146 560 68T294 -10ZM328
150Q400 150 441 190T502 320Q507 344 509 364T512 401Q512 451 487 472T402 494Q330 494 290 455T228 320Q223 296 220 276T217 239Q217 191 243 171T328 150Z" />
<glyph unicode="&#xd3;" glyph-name="Oacute" horiz-adv-x="708" d="M361 688L493 894H639L499 688H361ZM294 -10Q170 -10 97 44T24 218Q24 263 36 320Q62 440 113 513T244 620T436 654Q564 654 635 599T706 425Q706 379 694 320Q657 146 560 68T294 -10ZM328
150Q400 150 441 190T502 320Q507 344 509 364T512 401Q512 451 487 472T402 494Q330 494 290 455T228 320Q223 296 220 276T217 239Q217 191 243 171T328 150Z" />
<glyph unicode="&#xd4;" glyph-name="Ocircumflex" horiz-adv-x="708" d="M233 688L429 888H543L656 688H525L471 796L378 688H233ZM294 -10Q170 -10 97 44T24 218Q24 263 36 320Q62 440 113 513T244 620T436 654Q564 654 635 599T706 425Q706 379 694 320Q657
146 560 68T294 -10ZM328 150Q400 150 441 190T502 320Q507 344 509 364T512 401Q512 451 487 472T402 494Q330 494 290 455T228 320Q223 296 220 276T217 239Q217 191 243 171T328 150Z" />
<glyph unicode="&#xd5;" glyph-name="Otilde" horiz-adv-x="708" d="M545 711Q512 711 483 721T428 742T373 753Q342 753 316 743T267 714L292 832Q309 846 337 855T394 865Q428 865 455 855T508 834T566 823Q598 823 623 834T664 863L639 744Q626 731 600 721T545
711ZM294 -10Q170 -10 97 44T24 218Q24 263 36 320Q62 440 113 513T244 620T436 654Q564 654 635 599T706 425Q706 379 694 320Q657 146 560 68T294 -10ZM328 150Q400 150 441 190T502 320Q507 344 509 364T512 401Q512 451 487 472T402 494Q330 494 290 455T228
320Q223 296 220 276T217 239Q217 191 243 171T328 150Z" />
<glyph unicode="&#xd6;" glyph-name="Odieresis" horiz-adv-x="708" d="M276 715L302 835H432L406 715H276ZM491 715L517 835H648L622 715H491ZM294 -10Q170 -10 97 44T24 218Q24 263 36 320Q62 440 113 513T244 620T436 654Q564 654 635 599T706 425Q706 379
694 320Q657 146 560 68T294 -10ZM328 150Q400 150 441 190T502 320Q507 344 509 364T512 401Q512 451 487 472T402 494Q330 494 290 455T228 320Q223 296 220 276T217 239Q217 191 243 171T328 150Z" />
<glyph unicode="&#xd7;" glyph-name="multiply" horiz-adv-x="426" d="M268 63L192 160L78 67L5 158L119 252L43 349L153 440L227 342L347 439L418 348L300 250L377 153L268 63Z" />
<glyph unicode="&#xd8;" glyph-name="Oslash" horiz-adv-x="708" d="M82 -53L128 24Q79 50 52 97T24 217Q24 263 36 320Q62 440 113 513T244 620T436 654Q456 654 474 653T508 649L535 693H637L595 624Q649 598 677 549T706 425Q706 379 694 320Q657 146 560 68T294
-10Q250 -10 214 -4L184 -53H82ZM228 188L414 493Q411 493 408 493T402 494Q330 494 290 455T228 320Q223 295 220 275T217 238Q217 206 228 188ZM328 150Q400 150 441 190T502 320Q507 343 509 363T512 400Q512 439 496 461L308 151Q313 150 318 150T328 150Z"
/>
<glyph unicode="&#xd9;" glyph-name="Ugrave" horiz-adv-x="689" d="M372 688L319 894H466L510 688H372ZM286 -10Q204 -10 147 17T61 92T31 200Q31 226 37 254L120 644H308L228 268Q222 240 222 219Q222 182 245 166T320 150Q384 150 416 177T461 268L541 644H729L645
248Q617 112 529 51T286 -10Z" />
<glyph unicode="&#xda;" glyph-name="Uacute" horiz-adv-x="689" d="M364 688L496 894H642L502 688H364ZM286 -10Q204 -10 147 17T61 92T31 200Q31 226 37 254L120 644H308L228 268Q222 240 222 219Q222 182 245 166T320 150Q384 150 416 177T461 268L541 644H729L645
248Q617 112 529 51T286 -10Z" />
<glyph unicode="&#xdb;" glyph-name="Ucircumflex" horiz-adv-x="689" d="M224 688L420 888H534L647 688H516L462 796L369 688H224ZM286 -10Q204 -10 147 17T61 92T31 200Q31 226 37 254L120 644H308L228 268Q222 240 222 219Q222 182 245 166T320 150Q384 150
416 177T461 268L541 644H729L645 248Q617 112 529 51T286 -10Z" />
<glyph unicode="&#xdc;" glyph-name="Udieresis" horiz-adv-x="689" d="M267 715L293 835H423L397 715H267ZM482 715L508 835H639L613 715H482ZM286 -10Q204 -10 147 17T61 92T31 200Q31 226 37 254L120 644H308L228 268Q222 240 222 219Q222 182 245 166T320
150Q384 150 416 177T461 268L541 644H729L645 248Q617 112 529 51T286 -10Z" />
<glyph unicode="&#xdd;" glyph-name="Yacute" horiz-adv-x="702" d="M368 688L500 894H646L506 688H368ZM201 0L251 236L105 644H295L374 401L555 644H757L439 236L389 0H201Z" />
<glyph unicode="&#xde;" glyph-name="Thorn" horiz-adv-x="615" d="M-11 0L125 644H313L294 553H438Q502 553 543 528T604 460T625 366Q625 356 624 344T621 321Q604 218 531 154T336 90H196L177 0H-11ZM226 234H323Q377 234 399 257T430 321Q432 332 433 341T435
358Q435 383 420 396T365 409H263L226 234Z" />
<glyph unicode="&#xdf;" glyph-name="germandbls" horiz-adv-x="646" d="M345 -10Q262 -10 213 12L243 155Q260 148 283 144T329 140Q403 140 416 203Q418 208 418 213T418 223Q418 247 401 256T348 266H284L312 397H365Q399 397 420 413T449 467Q450 472 450
477T451 487Q451 509 437 524T381 540Q323 540 296 517T257 438L164 0H-17L78 448Q106 577 187 638T409 700Q489 700 542 675T621 608T647 516Q647 506 646 497T643 476Q632 426 606 390T544 334Q575 321 592 296T610 233Q610 223 609 213T605 191Q586 99 518 45T345
-10Z" />
<glyph unicode="&#xe0;" glyph-name="agrave" horiz-adv-x="607" d="M282 522L229 728H376L420 522H282ZM187 -10Q104 -10 56 27T7 147Q7 164 9 182T15 220Q33 301 75 360T176 452T303 484Q341 484 369 475T413 451L418 474H606L506 0H343L341 37Q308 15 271 3T187
-10ZM270 126Q292 126 313 133T350 155L386 323Q364 348 322 348Q235 348 207 219Q201 194 201 176Q201 148 217 137T270 126Z" />
<glyph unicode="&#xe1;" glyph-name="aacute" horiz-adv-x="607" d="M270 522L402 728H548L408 522H270ZM187 -10Q104 -10 56 27T7 147Q7 164 9 182T15 220Q33 301 75 360T176 452T303 484Q341 484 369 475T413 451L418 474H606L506 0H343L341 37Q308 15 271 3T187
-10ZM270 126Q292 126 313 133T350 155L386 323Q364 348 322 348Q235 348 207 219Q201 194 201 176Q201 148 217 137T270 126Z" />
<glyph unicode="&#xe2;" glyph-name="acircumflex" horiz-adv-x="607" d="M134 522L330 722H444L557 522H426L372 630L279 522H134ZM187 -10Q104 -10 56 27T7 147Q7 164 9 182T15 220Q33 301 75 360T176 452T303 484Q341 484 369 475T413 451L418 474H606L506
0H343L341 37Q308 15 271 3T187 -10ZM270 126Q292 126 313 133T350 155L386 323Q364 348 322 348Q235 348 207 219Q201 194 201 176Q201 148 217 137T270 126Z" />
<glyph unicode="&#xe3;" glyph-name="atilde" horiz-adv-x="607" d="M455 530Q422 530 393 540T338 561T283 572Q252 572 226 562T177 533L202 651Q219 665 247 674T304 684Q338 684 365 674T418 653T476 642Q508 642 533 653T574 682L549 563Q536 550 510 540T455
530ZM187 -10Q104 -10 56 27T7 147Q7 164 9 182T15 220Q33 301 75 360T176 452T303 484Q341 484 369 475T413 451L418 474H606L506 0H343L341 37Q308 15 271 3T187 -10ZM270 126Q292 126 313 133T350 155L386 323Q364 348 322 348Q235 348 207 219Q201 194 201
176Q201 148 217 137T270 126Z" />
<glyph unicode="&#xe4;" glyph-name="adieresis" horiz-adv-x="607" d="M189 549L215 669H345L319 549H189ZM404 549L430 669H561L535 549H404ZM187 -10Q104 -10 56 27T7 147Q7 164 9 182T15 220Q33 301 75 360T176 452T303 484Q341 484 369 475T413 451L418 474H606L506
0H343L341 37Q308 15 271 3T187 -10ZM270 126Q292 126 313 133T350 155L386 323Q364 348 322 348Q235 348 207 219Q201 194 201 176Q201 148 217 137T270 126Z" />
<glyph unicode="&#xe5;" glyph-name="aring" horiz-adv-x="607" d="M374 522Q319 522 290 550T260 622Q260 630 261 637T264 653Q276 709 318 747T430 785Q487 785 516 757T545 685Q545 678 544 670T541 653Q529 598 486 560T374 522ZM390 599Q422 599 441 619T460
668Q460 685 450 696T413 707Q381 707 363 685T344 637Q344 621 354 610T390 599ZM187 -10Q104 -10 56 27T7 147Q7 164 9 182T15 220Q33 301 75 360T176 452T303 484Q341 484 369 475T413 451L418 474H606L506 0H343L341 37Q308 15 271 3T187 -10ZM270 126Q292
126 313 133T350 155L386 323Q364 348 322 348Q235 348 207 219Q201 194 201 176Q201 148 217 137T270 126Z" />
<glyph unicode="&#xe6;" glyph-name="ae" horiz-adv-x="882" d="M148 -10Q80 -10 37 17T-6 103Q-6 112 -5 122T-1 142Q15 217 73 258T233 300H356L358 309Q359 313 359 316T360 322Q360 343 338 353T266 363Q184 363 98 338L122 451Q161 465 217 474T329 484Q382
484 419 474T483 444Q517 464 562 474T656 484Q756 484 809 438T863 315Q863 291 857 264L839 181H510Q515 143 544 127T649 111Q690 111 732 118T803 136L779 23Q703 -10 577 -10Q518 -10 473 8T401 60Q360 29 302 10T148 -10ZM532 283H699L702 300Q704 305 704
310T704 320Q704 340 690 352T637 364Q591 364 567 346T533 291L532 283ZM222 100Q254 100 278 110T321 135L334 197H243Q181 197 171 148Q170 145 170 142T170 136Q170 100 222 100Z" />
<glyph unicode="&#xe7;" glyph-name="ccedilla" horiz-adv-x="506" d="M175 -240Q157 -240 132 -238T95 -232L111 -158Q138 -166 168 -166Q210 -166 229 -157T248 -124Q248 -109 235 -105T200 -101H137L184 -5Q107 6 59 51T11 176Q11 206 18 237Q45 363 129 423T350
484Q403 484 443 477T518 451L490 319Q437 347 362 347Q298 347 261 323T210 237Q208 227 207 218T206 201Q206 162 233 145T315 127Q351 127 387 135T458 160L428 22Q394 8 359 1T284 -9L266 -41Q316 -41 338 -60T361 -111Q361 -123 358 -135Q348 -184 302 -212T175
-240Z" />
<glyph unicode="&#xe8;" glyph-name="egrave" horiz-adv-x="552" d="M269 522L216 728H363L407 522H269ZM246 -10Q140 -10 76 36T11 174Q11 188 12 204T18 236Q42 349 117 416T325 484Q423 484 477 437T531 312Q531 301 530 289T526 264L508 181H179Q180 144 209
128T318 111Q359 111 401 118T472 136L448 23Q372 -10 246 -10ZM201 283H368L371 300Q372 305 372 309T373 317Q373 338 358 351T306 364Q257 364 233 344T201 283Z" />
<glyph unicode="&#xe9;" glyph-name="eacute" horiz-adv-x="552" d="M271 522L403 728H549L409 522H271ZM246 -10Q140 -10 76 36T11 174Q11 188 12 204T18 236Q42 349 117 416T325 484Q423 484 477 437T531 312Q531 301 530 289T526 264L508 181H179Q180 144 209
128T318 111Q359 111 401 118T472 136L448 23Q372 -10 246 -10ZM201 283H368L371 300Q372 305 372 309T373 317Q373 338 358 351T306 364Q257 364 233 344T201 283Z" />
<glyph unicode="&#xea;" glyph-name="ecircumflex" horiz-adv-x="552" d="M126 522L322 722H436L549 522H418L364 630L271 522H126ZM246 -10Q140 -10 76 36T11 174Q11 188 12 204T18 236Q42 349 117 416T325 484Q423 484 477 437T531 312Q531 301 530 289T526
264L508 181H179Q180 144 209 128T318 111Q359 111 401 118T472 136L448 23Q372 -10 246 -10ZM201 283H368L371 300Q372 305 372 309T373 317Q373 338 358 351T306 364Q257 364 233 344T201 283Z" />
<glyph unicode="&#xeb;" glyph-name="edieresis" horiz-adv-x="552" d="M170 549L196 669H326L300 549H170ZM385 549L411 669H542L516 549H385ZM246 -10Q140 -10 76 36T11 174Q11 188 12 204T18 236Q42 349 117 416T325 484Q423 484 477 437T531 312Q531 301 530
289T526 264L508 181H179Q180 144 209 128T318 111Q359 111 401 118T472 136L448 23Q372 -10 246 -10ZM201 283H368L371 300Q372 305 372 309T373 317Q373 338 358 351T306 364Q257 364 233 344T201 283Z" />
<glyph unicode="&#xec;" glyph-name="igrave" horiz-adv-x="347" d="M186 522L133 728H280L324 522H186ZM57 0L128 337H59L104 474H345L245 0H57Z" />
<glyph unicode="&#xed;" glyph-name="iacute" horiz-adv-x="348" d="M169 522L301 728H447L307 522H169ZM58 0L129 337H60L105 474H346L246 0H58Z" />
<glyph unicode="&#xee;" glyph-name="icircumflex" horiz-adv-x="346" d="M18 522L214 722H328L441 522H310L256 630L163 522H18ZM57 0L128 337H59L104 474H345L245 0H57Z" />
<glyph unicode="&#xef;" glyph-name="idieresis" horiz-adv-x="347" d="M62 549L88 669H218L192 549H62ZM277 549L303 669H434L408 549H277ZM57 0L128 337H59L104 474H345L245 0H57Z" />
<glyph unicode="&#xf0;" glyph-name="eth" horiz-adv-x="592" d="M234 -10Q120 -10 63 32T5 151Q5 175 11 202Q34 306 98 356T284 406Q317 406 352 397T410 371L415 395Q419 415 421 432T424 462Q424 467 424 472T422 481L304 435L316 492L392 522Q366 536 314
536Q273 536 237 528T162 505L188 626Q229 640 275 647T371 654Q433 654 476 635T546 583L647 623L635 565L572 540Q593 494 593 437Q593 419 591 402T585 366L561 251Q533 121 457 56T234 -10ZM259 113Q308 113 337 137T377 213L387 261Q368 275 344 283T295 291Q241
291 215 268T179 202Q178 194 177 187T175 171Q175 143 194 128T259 113Z" />
<glyph unicode="&#xf1;" glyph-name="ntilde" horiz-adv-x="605" d="M457 530Q424 530 395 540T340 561T285 572Q254 572 228 562T179 533L204 651Q221 665 249 674T306 684Q340 684 367 674T420 653T478 642Q510 642 535 653T576 682L551 563Q538 550 512 540T457
530ZM-11 0L89 474H265L263 438Q294 456 341 470T439 484Q512 484 545 454T579 364Q579 351 578 336T572 304L508 0H320L380 285Q383 297 383 307Q383 345 335 345Q309 345 285 335T243 311L177 0H-11Z" />
<glyph unicode="&#xf2;" glyph-name="ograve" horiz-adv-x="606" d="M288 522L235 728H382L426 522H288ZM242 -10Q133 -10 72 36T11 173Q11 188 12 204T18 237Q44 357 123 420T347 484Q463 484 522 435T581 300Q581 285 580 270T574 237Q549 116 467 53T242 -10ZM271
127Q317 127 343 153T382 237Q388 264 388 285Q388 317 372 332T318 347Q273 347 248 321T210 237Q204 207 204 186Q204 155 219 141T271 127Z" />
<glyph unicode="&#xf3;" glyph-name="oacute" horiz-adv-x="606" d="M274 522L406 728H552L412 522H274ZM242 -10Q133 -10 72 36T11 173Q11 188 12 204T18 237Q44 357 123 420T347 484Q463 484 522 435T581 300Q581 285 580 270T574 237Q549 116 467 53T242 -10ZM271
127Q317 127 343 153T382 237Q388 264 388 285Q388 317 372 332T318 347Q273 347 248 321T210 237Q204 207 204 186Q204 155 219 141T271 127Z" />
<glyph unicode="&#xf4;" glyph-name="ocircumflex" horiz-adv-x="606" d="M145 522L341 722H455L568 522H437L383 630L290 522H145ZM242 -10Q133 -10 72 36T11 173Q11 188 12 204T18 237Q44 357 123 420T347 484Q463 484 522 435T581 300Q581 285 580 270T574
237Q549 116 467 53T242 -10ZM271 127Q317 127 343 153T382 237Q388 264 388 285Q388 317 372 332T318 347Q273 347 248 321T210 237Q204 207 204 186Q204 155 219 141T271 127Z" />
<glyph unicode="&#xf5;" glyph-name="otilde" horiz-adv-x="606" d="M458 545Q425 545 396 555T341 576T286 587Q255 587 229 577T180 548L205 666Q222 680 250 689T307 699Q341 699 368 689T421 668T479 657Q511 657 536 668T577 697L552 578Q539 565 513 555T458
545ZM242 -10Q133 -10 72 36T11 173Q11 188 12 204T18 237Q44 357 123 420T347 484Q463 484 522 435T581 300Q581 285 580 270T574 237Q549 116 467 53T242 -10ZM271 127Q317 127 343 153T382 237Q388 264 388 285Q388 317 372 332T318 347Q273 347 248 321T210
237Q204 207 204 186Q204 155 219 141T271 127Z" />
<glyph unicode="&#xf6;" glyph-name="odieresis" horiz-adv-x="606" d="M190 549L216 669H346L320 549H190ZM405 549L431 669H562L536 549H405ZM242 -10Q133 -10 72 36T11 173Q11 188 12 204T18 237Q44 357 123 420T347 484Q463 484 522 435T581 300Q581 285 580
270T574 237Q549 116 467 53T242 -10ZM271 127Q317 127 343 153T382 237Q388 264 388 285Q388 317 372 332T318 347Q273 347 248 321T210 237Q204 207 204 186Q204 155 219 141T271 127Z" />
<glyph unicode="&#xf7;" glyph-name="divide" horiz-adv-x="455" d="M194 411L219 529H348L323 411H194ZM14 212L44 356H449L419 212H14ZM115 42L140 159H269L244 42H115Z" />
<glyph unicode="&#xf8;" glyph-name="oslash" horiz-adv-x="606" d="M71 -53L111 13Q11 58 11 172Q11 187 12 203T18 237Q44 357 123 420T347 484Q373 484 395 481L423 528H519L478 461Q581 416 581 299Q581 284 579 269T574 237Q549 116 467 53T242 -10Q217 -10
194 -7L167 -53H71ZM197 155L319 356Q270 355 241 327T198 237Q192 209 192 188Q192 170 197 155ZM270 118Q319 118 350 146T394 237Q396 250 397 261T399 283Q399 305 393 320L270 118Z" />
<glyph unicode="&#xf9;" glyph-name="ugrave" horiz-adv-x="605" d="M304 522L251 728H398L442 522H304ZM158 -10Q93 -10 54 23T15 122Q15 147 21 175L84 474H272L212 190Q211 185 211 180T210 170Q210 128 262 128Q285 128 309 138T349 163L415 474H603L503 0H327L329
36Q296 16 253 3T158 -10Z" />
<glyph unicode="&#xfa;" glyph-name="uacute" horiz-adv-x="605" d="M267 522L399 728H545L405 522H267ZM158 -10Q93 -10 54 23T15 122Q15 147 21 175L84 474H272L212 190Q211 185 211 180T210 170Q210 128 262 128Q285 128 309 138T349 163L415 474H603L503 0H327L329
36Q296 16 253 3T158 -10Z" />
<glyph unicode="&#xfb;" glyph-name="ucircumflex" horiz-adv-x="605" d="M142 522L338 722H452L565 522H434L380 630L287 522H142ZM158 -10Q93 -10 54 23T15 122Q15 147 21 175L84 474H272L212 190Q211 185 211 180T210 170Q210 128 262 128Q285 128 309 138T349
163L415 474H603L503 0H327L329 36Q296 16 253 3T158 -10Z" />
<glyph unicode="&#xfc;" glyph-name="udieresis" horiz-adv-x="605" d="M188 549L214 669H344L318 549H188ZM403 549L429 669H560L534 549H403ZM158 -10Q93 -10 54 23T15 122Q15 147 21 175L84 474H272L212 190Q211 185 211 180T210 170Q210 128 262 128Q285 128
309 138T349 163L415 474H603L503 0H327L329 36Q296 16 253 3T158 -10Z" />
<glyph unicode="&#xfd;" glyph-name="yacute" horiz-adv-x="604" d="M313 522L445 728H591L451 522H313ZM138 -176Q122 -176 95 -175T43 -171T4 -166L33 -32Q52 -37 83 -41T137 -45Q220 -45 267 -32T321 16L325 36Q292 16 251 3T158 -10Q94 -10 55 27T16 129Q16
140 17 151T21 175L84 474H272L212 190Q209 175 209 163Q209 143 221 136T262 128Q285 128 309 138T349 163L415 474H603L516 63Q501 -10 460 -63T342 -146T138 -176Z" />
<glyph unicode="&#xfe;" glyph-name="thorn" horiz-adv-x="608" d="M-56 -216L137 700H325L274 457Q328 484 399 484Q488 484 536 440T584 311Q584 294 582 276T576 237Q550 110 482 50T294 -10Q224 -10 180 17L131 -216H-56ZM275 127Q316 127 344 153T385 240Q387
253 388 264T390 285Q390 319 374 333T324 347Q282 347 244 319L209 151Q221 139 236 133T275 127Z" />
<glyph unicode="&#xff;" glyph-name="ydieresis" horiz-adv-x="604" d="M185 570L211 690H341L315 570H185ZM400 570L426 690H557L531 570H400ZM138 -176Q122 -176 95 -175T43 -171T4 -166L33 -32Q52 -37 83 -41T137 -45Q220 -45 267 -32T321 16L325 36Q292 16
251 3T158 -10Q94 -10 55 27T16 129Q16 140 17 151T21 175L84 474H272L212 190Q209 175 209 163Q209 143 221 136T262 128Q285 128 309 138T349 163L415 474H603L516 63Q501 -10 460 -63T342 -146T138 -176Z" />
<glyph unicode="&#x2013;" glyph-name="endash" horiz-adv-x="549" d="M14 212L44 356H543L513 212H14Z" />
<glyph unicode="&#x2014;" glyph-name="emdash" horiz-adv-x="802" d="M14 212L44 356H796L766 212H14Z" />
<glyph unicode="&#x2018;" glyph-name="quoteleft" horiz-adv-x="269" d="M59 424L186 654H327L216 424H59Z" />
<glyph unicode="&#x2019;" glyph-name="quoteright" horiz-adv-x="269" d="M59 424L170 654H327L200 424H59Z" />
<glyph unicode="&#x201a;" glyph-name="quotesinglbase" horiz-adv-x="269" d="M-72 -197L38 33H195L68 -197H-72Z" />
<glyph unicode="&#x201c;" glyph-name="quotedblleft" horiz-adv-x="431" d="M236 424L363 654H489L378 424H236ZM59 424L186 654H312L201 424H59Z" />
<glyph unicode="&#x201d;" glyph-name="quotedblright" horiz-adv-x="431" d="M236 424L346 654H489L362 424H236ZM59 424L170 654H312L185 424H59Z" />
<glyph unicode="&#x201e;" glyph-name="quotedblbase" horiz-adv-x="431" d="M124 -102L233 127H376L250 -102H124ZM-53 -102L57 127H199L73 -102H-53Z" />
<glyph unicode="&#x2022;" glyph-name="bullet" horiz-adv-x="321" d="M136 152Q87 152 57 181T27 257Q27 272 30 287Q38 325 62 355T120 404T193 423Q243 423 273 392T304 314Q304 301 301 287Q293 249 268 219T209 170T136 152Z" />
<glyph unicode="&#x2039;" glyph-name="guilsinglleft" horiz-adv-x="391" d="M249 51L22 250L36 318L348 517L397 408L195 279L342 149L249 51Z" />
<glyph unicode="&#x203a;" glyph-name="guilsinglright" horiz-adv-x="391" d="M50 51L1 159L204 289L56 418L149 517L377 318L363 250L50 51Z" />
</font>
</defs>
</svg>
