<?xml version="1.0" encoding="utf-8"?><svg xmlns="http://www.w3.org/2000/svg" xmlns:xlink="http://www.w3.org/1999/xlink" id="deviantart_logo" x="0" y="0" baseProfile="tiny" overflow="visible" version="1.2" viewBox="0 0 2215 2080" xml:space="preserve"><path d="M2090 1212.1c4.9-40 7.5-80.8 7.5-122.1 0-410-249.3-761.8-604.6-912.1L1434.5 0h-654l-58.4 177.9C366.8 328.2 117.5 680 117.5 1090c0 41.4 2.6 82.1 7.5 122.1L0 1351.8l327 566.4 183.5-38.4c166 125.7 372.8 200.2 597 200.2s431-74.5 597-200.2l183.5 38.4 327-566.4-125-139.7zm-548.7-592.9-257.2 490.4 21.3 25.4h235.9v350.5H1112l-37.7 25.4-120 229.1-26.1 25.4H673.7v-254.5l257.2-491.1-21.3-25.4H673.7V644.6H1103l37.7-25.4 120-229.8 25.4-25.4h255.2v255.2z"/></svg>