<?xml version="1.0" encoding="utf-8"?><svg xmlns="http://www.w3.org/2000/svg" xmlns:xlink="http://www.w3.org/1999/xlink" id="naver_logo" x="0" y="0" baseProfile="tiny" overflow="visible" version="1.2" viewBox="0 0 2215 2080" xml:space="preserve"><path d="M2090 1212.1c4.9-40 7.5-80.8 7.5-122.1 0-410-249.3-761.8-604.6-912.1L1434.5 0h-654l-58.4 177.9C366.8 328.2 117.5 680 117.5 1090c0 41.4 2.6 82.1 7.5 122.1L0 1351.8l327 566.4 183.5-38.4c166 125.7 372.8 200.2 597 200.2s431-74.5 597-200.2l183.5 38.4 327-566.4-125-139.7zM1107.5 1881c-441.8 0-800-358.2-800-800s358.2-800 800-800 800 358.2 800 800-358.2 800-800 800z"/><path d="M1267.7 1112.6 934.1 633.2H657.5v895.6h289.8v-479.3l333.6 479.3h276.6V633.2h-289.8z"/></svg>
