<?xml version="1.0" encoding="utf-8"?>
<svg version="1.2" baseProfile="tiny" id="plurk_logo"
	 xmlns="http://www.w3.org/2000/svg" xmlns:xlink="http://www.w3.org/1999/xlink" x="0px" y="0px" viewBox="0 0 2215 2080"
	 overflow="visible" xml:space="preserve">
<path d="M2090,1212.1c4.9-40,7.5-80.8,7.5-122.1c0-410-249.3-761.8-604.6-912.1L1434.5,0h-654l-58.4,177.9
	C366.8,328.2,117.5,680,117.5,1090c0,41.4,2.6,82.1,7.5,122.1L0,1351.8l327,566.4l183.5-38.4c166,125.7,372.8,200.2,597,200.2
	s431-74.5,597-200.2l183.5,38.4l327-566.4L2090,1212.1L2090,1212.1z M1107.5,1881c-441.8,0-800-358.2-800-800s358.2-800,800-800
	s800,358.2,800,800S1549.3,1881,1107.5,1881z"/>
<g>
	<path d="M1683,871.9c-25.3,9.4-44.8,15.5-68.3,10.1c-75.3-190.9-257.5-329.1-470.3-340.1c-179.7-9.3-340.1,69.6-443.8,196.2
		c-4.7,5.8-9.4,11.6-13.9,17.5c-0.4,0.5-0.8,0.9-1.1,1.4c0.1-0.1,0.1-0.1,0.2-0.1c12.3-10.4,25.1-18.4,38.1-23.6
		c1-0.4,2.1-0.8,3.1-1.3c15.9-5.9,32-7.8,47.8-4.6c76.5,15.3,116.4,138.6,89,275.3c-27.4,136.8-111.6,235.2-188.1,219.9
		c-53.7-10.7-89.2-74.6-96.2-158.9c0-0.1,0-0.2,0-0.3c0,0.9,0,1.8,0,2.8c-0.1,7-0.1,14.1,0,21.2c0,1.3,0,2.6,0,3.9
		c0,1,0.1,2.1,0.2,3.1c0.2,7.9,0.7,15.8,1.2,23.6c0.3,3.6,0.7,7.1,1,10.6c0.4,3.8,0.8,7.6,1.2,11.5c7.1,60.9,24.2,118.7,49.9,171.5
		c3.2,6.6,1.6,14.6-4.1,19.3l-14.7,12c-13.4,10.9-19.2,27.5-17.2,43.5c0.3,2.7,1,5.4,1.8,8c0.1,0.3,0.2,0.6,0.3,0.9
		c0.8,2.6,1.9,5.1,3.1,7.5l2.7-2l12.2-9.3c6.1-4.6,14.8-3.5,19.5,2.6c4.6,6.1,3.5,14.8-2.6,19.5l-13,9.9l-1.9,1.5l62.5,76.9
		c16.7,20.6,47.2,23.7,67.8,7l13.7-11.1c5.8-4.7,14-4.6,19.9,0c95.1,75.4,216,119.2,346.8,115.8c110.5-2.9,212.2-39,296.1-98.5
		c6.2-4.4,14.6-3.9,20.1,1.3l8.7,8.3c16.5,15.7,41.4,17.2,59.6,5.2c1-0.6,2-1.4,3-2.1l-0.2-0.2l-11.1-10.5c-5.6-5.2-5.9-14-0.6-19.6
		c5.2-5.6,14-5.9,19.6-0.6l12,11.2l66.9-70.5c18.2-19.2,17.5-49.9-1.8-68.1l-14-13.3c-5.3-5-6.4-12.9-2.8-19.2
		c49.8-89.9,74.6-195.3,64.9-306.7c-1.4-16.1-3.5-32-6.4-47.7c16-14.7,45.3-43.8,56.8-68.6C1712.5,887.3,1715.6,859.8,1683,871.9z"
		/>
	<path d="M599.9,1034.9c5.4,65.3,32.9,114.8,74.4,123.1c59.2,11.8,124.3-64.3,145.5-170c21.2-105.7-9.7-201.1-68.8-212.9
		c-23.1-4.6-47,4.3-68.9,22.9c-23.9,20.4-45.4,52.5-60.6,92c-0.5-0.1-1-0.2-1.6-0.4c-7.5-2.1-11.4-7-16.6-8.1
		c20.5-22.1,23.5-56.2,5.5-81.8c-20.7-29.6-61.5-36.7-91.1-16c-26.6,18.7-34.9,53.5-21.2,81.9c-12.1,0.5-24.3,4.2-35,11.7
		c-29.6,20.7-36.7,61.5-16,91.1c20.7,29.6,61.5,36.7,91.1,16c9.4-6.6,16.3-15.3,21-25c9.9,18.2,24.5,33.3,41.4,43.7
		C598.8,1014,599.1,1024.6,599.9,1034.9z M669.8,853.6c14.3-12.2,29.9-18,44.9-14.9c38.5,7.7,58.6,69.8,44.8,138.7
		c-13.8,68.9-56.2,118.5-94.8,110.8c-26.2-5.2-43.8-35.7-48.1-76.2c9.6,3.7,19.7,6,29.7,6.5c28,1.3,46.3-8.1,60.5-27.3
		c18.4-24.7,4.5-93.1-19.8-101.9c-18.9-6.9-30.1,1.4-47,2.6C648.7,876,658.9,862.9,669.8,853.6z"/>
</g>
</svg>
