<?xml version="1.0" encoding="utf-8"?><svg xmlns="http://www.w3.org/2000/svg" xmlns:xlink="http://www.w3.org/1999/xlink" id="telegram_logo" x="0" y="0" baseProfile="tiny" overflow="visible" version="1.2" viewBox="0 0 2215 2080" xml:space="preserve"><path d="M2090 1212.1c4.9-40 7.5-80.8 7.5-122.1 0-410-249.3-761.8-604.6-912.1L1434.5 0h-654l-58.4 177.9C366.8 328.2 117.5 680 117.5 1090c0 41.4 2.6 82.1 7.5 122.1L0 1351.8l327 566.4 183.5-38.4c166 125.7 372.8 200.2 597 200.2s431-74.5 597-200.2l183.5 38.4 327-566.4-125-139.7zm-394.4-561c-3.4 47.9-34.2 215.6-58.2 397l-82.1 537.3s-6.8 78.7-68.4 92.4c-61.6 13.7-154-47.9-171.1-61.6-13.7-10.3-256.7-164.3-342.2-239.6-24-20.5-51.3-61.6 3.4-109.5l359.3-342.2c41.1-41.1 82.1-136.9-89-20.5l-479.1 325.1s-54.8 34.2-157.4 3.4l-222.5-68.4s-82.1-51.3 58.2-102.7c342.2-160.9 763.2-325.1 1136.2-479.1-.1 0 123.1-48 112.9 68.4z"/></svg>