<?xml version="1.0" encoding="utf-8"?><svg xmlns="http://www.w3.org/2000/svg" xmlns:xlink="http://www.w3.org/1999/xlink" id="tiktok_logo" x="0" y="0" baseProfile="tiny" overflow="visible" version="1.2" viewBox="0 0 2215 2080" xml:space="preserve"><path d="M2090 1212.1c4.9-40 7.5-80.8 7.5-122.1 0-410-249.3-761.8-604.6-912.1L1434.5 0h-654l-58.4 177.9C366.8 328.2 117.5 680 117.5 1090c0 41.4 2.6 82.1 7.5 122.1L0 1351.8l327 566.4 183.5-38.4c166 125.7 372.8 200.2 597 200.2s431-74.5 597-200.2l183.5 38.4 327-566.4-125-139.7zm-381.6-294.4c-111.8 10.9-209.8-25.6-323.7-94.6v418.3c0 531.4-579.4 697.5-812.3 316.6-149.7-245.1-58-675.2 422.1-692.5v235.9c-36.6 5.9-75.7 15.1-111.4 27.3-106.8 36.2-167.3 103.8-150.5 223.3 32.4 228.7 452 296.4 417.1-150.5V364.4h231.7v-.4c23.1 198.9 134.1 317.4 327.1 330v223.7z"/></svg>
