<?xml version='1.0' encoding='utf-8'?><svg xmlns="http://www.w3.org/2000/svg" xmlns:xlink="http://www.w3.org/1999/xlink" id="Twitter_Logo" x="0" y="0" baseProfile="tiny" overflow="visible" version="1.2" viewBox="0 0 2215 2080" xml:space="preserve"><path d="M2090 1212.1c4.9-40 7.5-80.8 7.5-122.1 0-410-249.3-761.8-604.6-912.1L1434.5 0h-654l-58.4 177.9C366.8 328.2 117.5 680 117.5 1090c0 41.4 2.6 82.1 7.5 122.1L0 1351.8l327 566.4 183.5-38.4c166 125.7 372.8 200.2 597 200.2s431-74.5 597-200.2l183.5 38.4 327-566.4-125-139.7zm-393.2-378.6c.5 12.2.8 24.5.8 36.9 0 376.5-286.6 810.6-810.6 810.6-160.9 0-310.7-47.2-436.7-128 22.3 2.6 45 4 68 4 133.5 0 256.3-45.5 353.8-122-124.7-2.3-229.9-84.7-266.2-197.9 17.4 3.3 35.2 5.1 53.6 5.1 26 0 51.2-3.5 75.1-10-130.3-26.2-228.5-141.3-228.5-279.4v-3.6c38.4 21.3 82.3 34.2 129 35.6-76.4-51.1-126.7-138.3-126.7-237.1 0-52.2 14.1-101.2 38.6-143.2C687.5 777 897.4 890.4 1134.2 902.3c-4.9-20.9-7.4-42.6-7.4-64.9 0-157.3 127.6-284.9 284.9-284.9 81.9 0 156 34.6 208 90 64.9-12.8 125.9-36.5 180.9-69.1-21.3 66.5-66.5 122.4-125.3 157.6 57.6-6.9 112.5-22.2 163.6-44.9-38.1 57.1-86.4 107.3-142.1 147.4z"/></svg>