<?xml version="1.0" encoding="utf-8"?><svg xmlns="http://www.w3.org/2000/svg" xmlns:xlink="http://www.w3.org/1999/xlink" x="0" y="0" baseProfile="tiny" overflow="visible" version="1.2" viewBox="0 0 200 200" xml:space="preserve"><path id="Bibliography-Icon" d="M165.6 110.1c2.6-6.4 2.6-13.8 0-20.2 2.7-6.7 2.6-14.6-.4-21.2-.2-.5-.6-.9-1-1.1l-46.4-27.1c-.4-.3-1-.4-1.5-.3l-81.4 6.9h-.5c-.1 0-.2.1-.2.1s-.1 0-.1.1c-.1 0-.2.1-.2.1l-.1.1-.2.2-.1.1-.2.2s-.1.1-.1.2-.1.1-.1.2-.1.1-.1.2-.1.1-.1.2 0 .1-.1.2v1.4c0 .1 0 .2.1.2 2.6 5.7 2.6 12.5 0 18.2v.1c0 .1-.1.2-.1.3v.1c0 .1 0 .3-.1.4v.6c0 .1 0 .2.1.3 0 .1 0 .1.1.2 0 .1 0 .1.1.2 2.6 5.7 2.6 12.5 0 18.2v.1c0 .1-.1.2-.1.3v.1c0 .1 0 .3-.1.4v.6c0 .1 0 .2.1.3 0 .1 0 .1.1.2 0 .1 0 .1.1.2 2.6 5.7 2.6 12.5 0 18.2v.1c0 .1-.1.2-.1.3v.1c0 .1 0 .3-.1.4v.6c0 .1 0 .2.1.3 0 .1 0 .1.1.2 0 .1 0 .1.1.2 2.6 5.7 2.6 12.5 0 18.2-.5 1.2-.1 2.5 1 3.2l46.4 27.1c.4.2.8.3 1.3.3h.2l81.4-6.9c.9-.1 1.7-.6 2.1-1.5 3-6.6 3.1-14.5.4-21.3 2.1-7 2.1-14.4-.4-20.8zm-81.3 6.7c2.5-6.4 2.4-13.7-.1-20 0-.1.1-.2.1-.2l76.1-6.5c0 .3.1.6.2.8 2.6 5.7 2.6 12.5 0 18.2-.2.4-.2.8-.2 1.2l-76.1 6.5zm-4.8-38.5c1.9 4.7 2.1 10 .7 14.8l-42-24.6c1.5-4.4 1.9-9.2 1.1-13.8l34.8 20.4 5.4 3.2zm0 20.2c1.9 4.7 2.1 10 .7 14.8l-42-24.6c1.5-4.4 1.9-9.2 1.1-13.8l40.2 23.6zm0 20.3c1.9 4.7 2.1 10 .7 14.8l-42-24.6c1.5-4.4 1.9-9.2 1.1-13.8l40.2 23.6zm.6 35-42-24.6c1.5-4.4 1.9-9.2 1.1-13.8l40.1 23.5.1.1c2 4.7 2.2 10 .7 14.8zm81-5.6-76 6.5c1.6-5.7 1.2-11.9-.9-17.4 0-.1.1-.2.1-.2l76.1-6.5c0 .3.1.6.2.8 2.3 5.2 2.5 11.4.5 16.8z"/></svg>
