<?xml version="1.0" encoding="utf-8"?>
<!-- Generator: Adobe Illustrator 25.3.1, SVG Export Plug-In . SVG Version: 6.00 Build 0)  -->
<svg version="1.2" baseProfile="tiny" id="e3aed506-2c24-4ea3-adbd-50280746778a"
	 xmlns="http://www.w3.org/2000/svg" xmlns:xlink="http://www.w3.org/1999/xlink" x="0px" y="0px" viewBox="0 0 1605 758"
	 overflow="visible" xml:space="preserve">
<polygon fill="#303034" points="175.3,332.8 193.2,345.2 332.1,156.9 314.2,144.4 303.8,82.7 286.2,70.4 94.2,330.7 111.7,342.9 "/>
<path fill="#303034" d="M300.2,419.8c62.7-51.3,139.7-15.4,200.5,27.9l30-40.6c-61.9-42.6-121.8-101.5-91.3-174.6
	c1.2-1.7-78.7-54.8-78.9-55.8L221.5,365L300.2,419.8z"/>
<path fill="#303034" d="M61.6,299.4l152-206L84,139.4L54.1,306C57,304.3,59.6,302.1,61.6,299.4z"/>
<path fill="#303034" d="M323.1,54.4l12.7,8.9l10.5,61.8L459.5,204c51.4,48-64.1,69.2,97.7,180c8.2,5.7,12.4,15.6,10.9,25.5l45.9,32
	l-16.1,97.8L515,481.4c-8.9,4.5-20.1,3.9-28.3-1.9c-160.2-113.4-143-0.5-206.8-32.2c0,0-113.1-78.9-113.1-78.9l-63.6,10.2
	l-51.9-36.2c-1.2,0.2-2.5,0.4-3.7,0.5L22.4,482.7l275.2,223.6l336.8-119.7L696,243.3L420.9,19.7L323.1,54.4z"/>
<g>
	<path fill="#303034" d="M1577.9,427c-8.7-6.6-50.2-7-62.9-10c-6.8-1.1-12.7-1.4-19.5-0.8c-25.7-0.8-51.3-2.9-77-0.9
		c-29.1-0.8-58.4,0.4-87.4-2.7c-6.6-0.5-13.1-1.2-19.7-1.4c-5.9,1-11.8,1.8-17.8,0.4c-34.5,1.9-69.3-3.8-104.1-2.7
		c-80.8,0.3-161.9,1.7-242.9-0.3c-15.5-0.8-30.9-1.4-46.3,0.8c-16.2-2.1-32.4-0.3-48.7-1.5c-15.3,0.5-30.5,2.9-45.7,0
		c-31-0.3-62,1.9-93.1,1.7c-24.9-2.2-49.9-2.1-74.9-2.6L625.6,586c126.4-5.3,815.8,12.4,922.4-11c13.1-9.8,12-21.6,24.7-83.1
		C1581.4,449.8,1586.4,433.4,1577.9,427z M773.6,551.5h-8.6l7.2-43.4h-53.6l-7.2,43.4h-8.6l15.7-94.5h8.6l-7.2,43.3h53.6l7.2-43.3
		h8.6L773.6,551.5z M805.1,551.5h-8.6l15.7-94.5h8.6L805.1,551.5z M840.5,526.1c9.8,33.4,57.9,17.6,60.4-12.6h-27.5l1.4-7.8h35.9
		c-1.8,17.5-9.3,34.6-25.4,42.3c-18.9,10-46.9,4.7-52.7-18.1c-6.8-25,5.2-60.5,30.8-70.9c21-10,50.5,2,49.7,27.4h-8.9
		c-0.6-21.2-25.2-28.4-41.6-18C844.2,478.3,835.5,506.7,840.5,526.1z M993.3,551.5h-8.6l7.2-43.4h-53.6l-7.2,43.4h-8.6L938,457h8.6
		l-7.2,43.3h53.6l7.2-43.3h8.6L993.3,551.5z M1069.9,551.5h-53.7l15.7-94.5h8.6l-14.4,86.8h45.1L1069.9,551.5z M1093.9,551.5h-8.6
		l15.7-94.5h8.6L1093.9,551.5z M1129.2,526.1c9.8,33.4,57.9,17.6,60.4-12.6H1162l1.4-7.8h35.9c-1.8,17.5-9.3,34.6-25.4,42.3
		c-18.9,10-46.9,4.7-52.7-18.1c-6.8-25,5.2-60.5,30.8-70.9c21-10,50.5,2,49.7,27.4h-8.9c-0.6-21.2-25.2-28.4-41.6-18
		C1132.9,478.3,1124.2,506.7,1129.2,526.1z M1282,551.5h-8.6l7.2-43.4h-53.6l-7.2,43.4h-8.6l15.7-94.5h8.6l-7.2,43.3h53.6l7.2-43.3
		h8.6L1282,551.5z M1350.2,464.8l-14.4,86.8h-8.6l14.4-86.8h-30l1.3-7.8h68.6l-1.3,7.8H1350.2z M1450.3,464.8h-46.2l-5.9,35.6h43.3
		l-1.3,7.8h-43.3l-5.9,35.7h47.1l-1.3,7.8H1381l15.7-94.5h54.8L1450.3,464.8z M1525.2,485.3c-1.9,12.4-10.2,22.6-22.3,26.2l15.2,40
		h-9.9l-14.3-38.4c-2,0.3-23.2,0.1-25.7,0.1l-6.3,38.2h-8.6l15.7-94.5C1491.1,457.6,1531,450.1,1525.2,485.3z"/>
	<path fill="#303034" d="M1509.9,467.3c-6.2-4.2-26-2.1-33.6-2.5l-6.8,40.7c8.3-0.5,27.3,1.5,34.5-2.4
		C1516.8,497.7,1523.1,475.1,1509.9,467.3z"/>
</g>
<g>
	<path fill="#303034" d="M722.3,417.5l29-174.5c31.8,3.5,108.2-12.2,126.4,20.5c13.4,25.7-9.8,57.4-37.1,61.3l-0.3,1.7
		c37.1,0.3,43.4,43,22.1,67.1c-13.9,16.5-35.2,24-57.9,23.9C804.5,417.5,722.3,417.5,722.3,417.5z M776.2,379.7
		c10.7-0.4,32.5,2,40.7-4.5c9.9-6.1,12.4-25.1,0.1-30.1c-6.8-3.7-27.1-1.8-35-2.2L776.2,379.7z M787.1,313.5
		c14.8-0.1,40.2,3.2,43.3-16.7c3.4-21.1-25-16.2-37.8-16.7L787.1,313.5z"/>
	<path fill="#303034" d="M878.5,417.5l29-174.5h47.4l-22.5,136.4h70.6l-6.5,38.2H878.5z"/>
	<path fill="#303034" d="M1139.3,417.5h51.1L1161.8,243H1097l-86.6,174.5h51.1l15.7-33.4h57.6L1139.3,417.5z M1093.9,348.6l27-57.6
		h1.4l7.8,57.6H1093.9z"/>
	<path fill="#303034" d="M1375.1,308.4h-47.4c3.9-27.8-27.2-32.5-45.8-20.4c-15,9.7-22.2,26.4-25.5,45c-2.2,16.3-2.7,31,8.8,40.7
		c17.8,11.9,48.5,2.3,54.6-19.2h47.7c-12.8,54.1-82.1,83-129.9,54.7c-42.8-24.7-35.7-93.9-10.1-129.6c18.1-25.3,46.4-39,77-38.9
		C1345.4,239.1,1380.2,265.2,1375.1,308.4z"/>
	<path fill="#303034" d="M1373.4,417.5l29-174.5h47.4l-11.6,70.6h2.4l64.1-70.6h55.2l-71.6,77.7l48.5,106.7h-56.9l-32.2-75.4
		l-19.4,20.8l-7.5,44.7H1373.4z"/>
</g>
</svg>
