<?xml version="1.0" encoding="utf-8"?><svg xmlns="http://www.w3.org/2000/svg" xmlns:xlink="http://www.w3.org/1999/xlink" id="Clear-Both-Icon" x="0" y="0" baseProfile="tiny" overflow="visible" version="1.2" viewBox="0 0 200 200" xml:space="preserve"><path d="M150 50v100H50V50h100m10-10H40v120h120V40z"/><path d="m160 58.2 28 41.8-28 41.8V58.2m-.1-18.2H150v120h9.9l40.1-60-40.1-60zM40 58.2v83.6L12 100l28-41.8M50 40h-9.9L0 100l40.1 60H50V40zm77.3 102.7-70-69.9 15.4-15.5 70.1 70-15.5 15.4zm-54.7 0-15.4-15.4 70-70 15.4 15.5-70 69.9z"/></svg>