<?xml version='1.0' encoding='utf-8'?><svg xmlns="http://www.w3.org/2000/svg" xmlns:xlink="http://www.w3.org/1999/xlink" id="Discuss-Icon" x="0" y="0" baseProfile="tiny" overflow="visible" version="1.2" viewBox="0 0 200 200" xml:space="preserve"><path d="m85.4 107-5.4 8h60v10H73.4l-10 15H140v10H20v-10h36.6l-10-15H20v-10h20l-10-15H20V90h10V70H0v100h120l20 30 20-30v-63z"/><path d="M40 0v97l20 30 20-30h120V0H40zm81.8 56.8c0-5.3 4-10.6 10.6-10.6 5.3 0 7.9 5.3 7.9 5.3s2.6-5.3 7.9-5.3c6.6 0 10.6 5.3 10.6 10.6 0 10.6-13.2 13.2-18.5 21.2-5.2-7.9-18.5-10.6-18.5-21.2zm31-46.8-9.9 9.9 1.7-9.9h8.2zM74.6 87l-3 4.5L60 109 50 94V10h90.6l-1.5 8.6L110 39v44.7l-7.1 3.3H74.6zM190 87h-12.9l-7.1-3.3V39l-19.6-13.7 21.2-7.7-1.4-3.8-23.8 8.7-.2-.2 12.1-12.1-.2-.2H190v77z"/></svg>