<?xml version="1.0" encoding="utf-8"?>
<svg version="1.1" id="H1-Icon" xmlns="http://www.w3.org/2000/svg" xmlns:xlink="http://www.w3.org/1999/xlink" x="0px" y="0px"
	 width="200px" height="200px" viewBox="0 0 200 200" style="enable-background:new 0 0 200 200;" xml:space="preserve">
<path d="M22.4,160V40h14.5v53.4h64V40h14.5v120h-14.5v-53.7h-64V160H22.4z M177.6,40v120h-14.5V61.1h-0.9c-0.5,1.1-2,2.3-4.2,3.7
	c-2.3,1.4-5.2,2.6-8.8,3.6s-7.7,1.6-12.3,1.6V57.8c4.6,0,8.7-0.8,12.1-2.5c3.4-1.7,6.2-3.7,8.5-5.9c2.3-2.3,4-4.3,5.2-6.2
	c1.2-1.8,1.9-2.9,2.1-3.2L177.6,40L177.6,40z"/>
</svg>
