<?xml version="1.0" encoding="utf-8"?><svg xmlns="http://www.w3.org/2000/svg" xmlns:xlink="http://www.w3.org/1999/xlink" id="H5-Icon" x="0" y="0" baseProfile="tiny" overflow="visible" version="1.2" viewBox="0 0 200 200" xml:space="preserve"><path d="M6.4 159.2v-120h14.5v53.4h64V39.2h14.5v120H84.9v-53.7h-64v53.7H6.4zm147.6 1.6c-6.9 0-13.1-1.4-18.6-4.1s-9.9-6.5-13.2-11.2c-3.3-4.8-5.1-10.2-5.4-16.3h14.1c.5 5.4 3 9.9 7.4 13.4s9.7 5.3 15.8 5.3c4.9 0 9.3-1.2 13.2-3.5 3.8-2.3 6.9-5.5 9.1-9.5s3.3-8.6 3.3-13.7c0-5.2-1.1-9.9-3.4-14s-5.4-7.4-9.4-9.8c-4-2.4-8.5-3.6-13.7-3.6-3.7 0-7.4.5-11.3 1.7-3.9 1.2-7.1 2.6-9.6 4.4l-13.6-1.6 7.3-59.1h62.3v12.9h-50.2l-4.2 35.4h.7c2.5-2 5.5-3.6 9.3-4.9s7.6-1.9 11.6-1.9c7.3 0 13.9 1.7 19.7 5.2 5.8 3.5 10.3 8.3 13.6 14.3 3.3 6.1 5 13 5 20.7 0 7.7-1.7 14.5-5.1 20.5-3.4 6-8.1 10.7-14.1 14.2s-13 5.2-20.6 5.2z"/></svg>