<?xml version='1.0' encoding='utf-8'?><svg xmlns="http://www.w3.org/2000/svg" xmlns:xlink="http://www.w3.org/1999/xlink" id="History-Icon" x="0" y="0" baseProfile="tiny" overflow="visible" version="1.2" viewBox="0 0 200 200" xml:space="preserve"><path d="m108.9 113.9 14.7-50.5-14.5-4.1-18.8 64.8 14.4 4.2 21.6 6.2 4.2-14.4z"/><path d="M192.1 141.1c4.4-10.9 6.8-22.7 6.8-34.7 0-7.9-1-16-3.2-24-5.4-20.2-17.2-37.1-32.5-49.1l-1-17.5-59-15.8-9.6 14.7c-3.7.5-7.5 1.3-11.2 2.3-3.6 1-7.1 2.1-10.5 3.5l-10-10-18.3 55 55.1-18.4-10.3-10.3c2.7-.7 5.4-1.2 8.1-1.6l9.3-1.3L111 26l1.4-2.1 30 8 .1 2.5.5 9.4 7.5 5.8c12.4 9.7 21.1 22.8 25.2 38 1.6 6.1 2.5 12.4 2.5 18.6 0 9.2-1.8 18.3-5.3 26.9l-3.6 8.8 4.3 8.4 1.1 2.2-22 22-2.2-1.1-8.4-4.3-8.7 3.5c-2.7 1.1-5.6 2.1-8.4 2.8-27.9 7.5-57.5-2.4-75.2-25.2l-5.8-7.4-9.4-.5-2.5-.1-8-30L26 111l7.9-5.2 1.3-9.3c.4-2.8.9-5.5 1.6-8.2L20.5 71.9c-2.8 6.9-4.8 14.2-5.8 21.8L0 103.2l15.8 59.1 17.5 1c22.2 28.4 60 42.4 97 32.5 3.7-1 7.4-2.2 10.8-3.6l15.6 7.9 43.2-43.2-7.8-15.8z"/></svg>