<?xml version="1.0" encoding="utf-8"?>
<svg version="1.2" baseProfile="tiny" id="SCP_Logo"
	 xmlns="http://www.w3.org/2000/svg" xmlns:xlink="http://www.w3.org/1999/xlink" x="0px" y="0px" viewBox="0 0 2215 2080"
	 overflow="visible" xml:space="preserve">
<g id="Arrows">
	<polygon id="Arrow_Top" fill="#FFFFFF" points="1147.5,800 1147.5,346 1067.5,346 1067.5,800 982.5,800 1107.5,1050 1232.5,800 	
		"/>
	<polygon id="Arrow_Left" fill="#FFFFFF" points="836.35266,1200.35901 443.17709,1427.35901 483.17709,1496.64099 
		876.35266,1269.64099 918.85266,1343.25317 1072.85901,1110 793.85266,1126.74683 	"/>
	<polygon id="Arrow_Right" fill="#FFFFFF" points="1338.64734,1269.64099 1731.82288,1496.64099 1771.82288,1427.35901 
		1378.64734,1200.35901 1421.14734,1126.74683 1142.14099,1110 1296.14734,1343.25317 	"/>
</g>
<path id="Outer_Circle" fill="#FFFFFF" d="M2214.96777,1351.80969l-124.95508-139.6676
	c4.92798-40.02539,7.4873-80.78394,7.4873-122.14209c0-410.04419-249.29761-761.84424-604.58667-912.14929L1434.5,0h-654
	l-58.41333,177.85059C366.79749,328.15552,117.5,679.95581,117.5,1090c0,41.35815,2.55945,82.11646,7.48749,122.14185
	L0.03229,1351.80969l327,566.38062l183.47089-38.38831C676.47491,2005.45386,883.28003,2080,1107.5,2080
	s431.02515-74.54614,596.99683-200.198l183.47095,38.38831L2214.96777,1351.80969z M1683.01074,1794.4021
	C1526.27563,1922.89185,1325.88599,2000,1107.5,2000c-218.38696,0-418.77734-77.10864-575.51263-205.59949l-164.17303,34.42639
	l-270-467.65381l112.30011-125.4176C202.48218,1188.29614,198.5,1139.6145,198.5,1090
	c0-389.04492,243.87122-721.06372,586.92242-851.22034L837.5,80h540l52.06689,158.77563
	C1772.62366,368.92944,2016.5,700.95105,2016.5,1090c0,49.61755-3.98267,98.30237-11.61584,145.7644l112.30139,125.40869
	l-269.99988,467.65381L1683.01074,1794.4021z"/>
<path id="Inner_Circle" fill="#FFFFFF" d="M1107.49988,440C748.51477,440,457.49994,731.01514,457.5,1090.00012
	S748.51508,1740,1107.50012,1740S1757.5,1448.98486,1757.5,1089.99988S1466.48486,440,1107.49988,440z M1107.5,1620
	c-292.71094,0-530-237.28906-530-530s237.28906-530,530-530s530,237.28906,530,530S1400.21094,1620,1107.5,1620z"/>
</svg>
