<?xml version='1.0' encoding='utf-8'?><svg xmlns="http://www.w3.org/2000/svg" xmlns:xlink="http://www.w3.org/1999/xlink" id="Print-Icon" x="0" y="0" baseProfile="tiny" overflow="visible" version="1.2" viewBox="0 0 200 200" xml:space="preserve"><path d="M140 10v60H60V10h80m10-10H50v80h100V0zM40 120v80h120v-80H40zm110 70H50v-60h100v60z"/><path d="M0 50v100h50v-20h100v20h50V50H0zm30 17h20v20H30V67zm140 48H30v-10h140v10z"/><path d="M76.5 200h9.1l-9.4-16.3 5.1-5.7-.2-.9c-.4-2.2-.5-4.4-.5-6.7 0-17.2 10.8-32.9 26.9-39.1l.9-.3 2.4-7.2h23.1l2.4 7.2.9.3c10.3 3.9 18.5 11.8 23 21.5v-14.6c-4.7-5.5-10.7-10.1-17.6-13.2l-3-9.1h-34.3l-3 9.1c-17.9 8-29.4 25.7-29.4 45.3 0 1.7.1 3.5.3 5.2l-6.4 7.1 9.7 17.4zm82.4 0h1.1v-1.9z"/><path d="m91.5 192.7 4.1-2.4c3.1 4.1 7 7.4 11.5 9.7h30.3c4.5-2.3 8.4-5.6 11.5-9.7l4.1 2.4 3.9-6.8-4.1-2.4c1.8-4.1 2.7-8.5 2.7-13.1 0-16.9-12.7-31.1-29.3-33v-4.8h-7.8v4.8c-16.6 2-29.3 16.1-29.3 33 0 4.6.9 9 2.7 13.1l-4.1 2.4 3.8 6.8zm34.7-38.2v-7.2c11.1 1.9 19.6 11.7 19.6 23.2 0 2.8-.5 5.6-1.5 8.2L138 175l2.7-4.6-16.4-1 .2-.3h-.3l7.3-14.7h-5.3zm-4 18.5.1-.3 9 13.7 2.7-4.6 6.2 3.6c-4.4 5.4-11.1 8.5-18.1 8.5-7 0-13.6-3.1-18.1-8.5l6.2-3.6 2.7 4.6 9-13.7.3.3zm-3.9-25.7v7.2H113l7.3 14.7h-.3l.2.3-16.4 1 2.7 4.6-6.2 3.6c-1-2.6-1.5-5.3-1.5-8.2 0-11.6 8.4-21.4 19.5-23.2z"/></svg>