<?xml version="1.0" encoding="utf-8"?><svg xmlns="http://www.w3.org/2000/svg" xmlns:xlink="http://www.w3.org/1999/xlink" id="Raw-Text-Icon" x="0" y="0" baseProfile="tiny" overflow="visible" version="1.2" viewBox="0 0 200 200" xml:space="preserve"><path d="M104.3 109.8V98.5H81.1L65.6 71.4H35.8v.1l-13.1 36 10.6 3.9 10.5-28.7h8.7l-17.3 47.6H12.8v11.3h30.4l7.4-20.5 32.7 39 8.7-7.3-36.9-44 7.3-20.1 12.1 20.9v.2zm-37.2-42c3.2 1.2 6.4 1 9.5-.4 3.1-1.5 5.3-3.8 6.4-7 1.2-3.2 1-6.4-.4-9.5-1.5-3.1-3.8-5.3-7.1-6.5-3.2-1.2-6.3-1-9.5.5-3.1 1.5-5.3 3.8-6.5 7s-1 6.4.4 9.5c1.6 3 4 5.2 7.2 6.4z"/><path d="M183.4 72.7C180.8 66 177 60.2 172 55.3c-5-4.9-11-8.6-18.2-11.3-7.1-2.6-15.2-4-24.3-4-9.8 0-18.5 1.4-26.2 4.3-5.6 2.1-10.6 4.9-15 8.4.6 3.1.4 6.3-.7 9.3-1.5 4.3-4.6 7.7-8.9 9.8l-.1.2c-1.9.8-3.8 1.3-5.7 1.5-.1.1-.1.3-.2.4L84 93.5h.4c.4-3.9 1.3-7.6 2.4-11.2 1.9-5.6 4.7-10.4 8.5-14.5s8.5-7.4 14.2-9.7c5.7-2.3 12.3-3.4 19.9-3.4 4.4 0 8.7.4 12.8 1.3 4.2.9 8 2.3 11.6 4.2 3.6 1.9 6.7 4.4 9.4 7.5 2.7 3.1 4.8 6.8 6.3 11.1s2.3 9.4 2.3 15.1c0 5.9-.4 10.8-1.1 14.7s-1.8 6.7-3.2 8.5c-1.4 1.9-3.2 2.8-5.3 2.8-1.5 0-2.8-.6-3.7-1.7-.9-1.2-1.4-2.8-1.4-4.9V68.7h-14.3v5.1h-.6c-.5-1.3-1.8-2.6-4-3.7-2.1-1.2-4.7-2-7.8-2.5-3.1-.5-6.3-.5-9.8 0-3 .4-6.1 1.4-9.1 2.9s-5.7 3.6-8.2 6.3c-2.4 2.7-4.4 6-5.9 9.9-.8 2.1-1.4 4.4-1.7 6.9h13.6v21.3H97.4c1.4 4 3.3 7.4 5.8 10.1 2.5 2.8 5.3 4.9 8.5 6.3 3.2 1.5 6.6 2.3 10.2 2.5 3.4.2 6.7-.1 9.7-.9 3.1-.8 5.6-2 7.8-3.4 2.1-1.5 3.6-3.1 4.3-5h.5c.3 2.1 1.1 3.9 2.2 5.5s2.8 2.7 5 3.5c2.2.8 5.1 1.1 8.6.8 4.9-.3 9.1-1.4 12.6-3.4s6.3-4.8 8.4-8.3c2.1-3.5 3.7-7.6 4.7-12.3 1-4.7 1.5-9.8 1.5-15.4.1-8.1-1.2-15.5-3.8-22.2zm-42.9 37.5c-1 2.8-2.5 4.9-4.7 6.4-2.2 1.4-5.2 2.1-8.9 2.1-4 0-7.1-.9-9.5-2.7s-4-4.1-5-7c-1-2.9-1.5-5.9-1.6-9.2 0-3.5.7-6.5 1.9-9.1 1.2-2.6 3-4.6 5.4-6 2.4-1.4 5.2-2.1 8.6-2.1 3.9 0 6.9.7 9.1 2 2.2 1.3 3.7 3.3 4.6 5.8.9 2.5 1.4 5.6 1.4 9.3.1 4.2-.4 7.7-1.3 10.5z"/><path d="M149.4 142.5c-2.7.7-5.7 1.3-9.1 1.8-3.3.5-6.8.8-10.3.8-7.4 0-14-1-19.7-2.9-5.7-1.9-10.5-4.8-14.4-8.6-3.9-3.8-6.8-8.4-8.8-14-.6-1.5-1-3.2-1.4-4.8H69.5v-3.9l-1.4-2.4c.3 3.4.8 6.7 1.5 9.8L99 153.4l-.8.7c1.6.7 3.2 1.4 4.9 1.9 7.6 2.6 16.2 3.9 25.9 3.9 4.3 0 8.5-.3 12.6-.9 4.1-.6 7.8-1.4 11-2.3 3.3-1 5.9-2 7.8-3.1l-4.5-13.2c-1.7.7-3.8 1.4-6.5 2.1z"/></svg>