<?xml version="1.0" encoding="utf-8"?><svg xmlns="http://www.w3.org/2000/svg" xmlns:xlink="http://www.w3.org/1999/xlink" id="Subscript-Icon" x="0" y="0" baseProfile="tiny" overflow="visible" version="1.2" viewBox="0 0 200 200" xml:space="preserve"><path d="m35.6 39.9 30.9 49.9h.9l30.9-49.9h17.1l-37.7 60 37.7 60h-17l-30.9-49h-.9l-30.9 49H18.4l38.7-60-38.7-60h17.2zm89.2 140.6v-9.1l27.4-24.4c2.7-2.4 5-4.6 6.9-6.5 1.8-1.9 3.2-3.8 4.2-5.6.9-1.8 1.4-3.7 1.4-5.7 0-3.5-1.3-6.3-4-8.4s-6-3.1-10-3.1c-4.2 0-7.6 1.1-10.2 3.4s-3.9 5.2-3.9 8.8h-12.2c0-6.7 2.5-12.1 7.4-16.1s11.3-6.1 19-6.1c5.2 0 9.7.9 13.6 2.8s7 4.4 9.1 7.6 3.3 6.9 3.3 10.9c0 3.2-.6 6.2-1.9 8.9-1.3 2.7-3.3 5.6-6 8.5s-6.2 6.3-10.5 10l-15.2 13.4v.5H179v10.3h-54.2z"/></svg>