<?xml version="1.0" encoding="utf-8"?><svg xmlns="http://www.w3.org/2000/svg" xmlns:xlink="http://www.w3.org/1999/xlink" id="Teletype-Icon" x="0" y="0" baseProfile="tiny" overflow="visible" version="1.2" viewBox="0 0 200 200" xml:space="preserve"><path d="M166 70.9c-.3-.3-.8-.5-1.3-.5h-34.4V43.9c0-.4-.1-.8-.2-1l-.6-.6c-.2-.2-.6-.2-1-.2h-9.8v28.3H67.4V43.9c0-.4-.1-.8-.2-1l-.6-.6c-.2-.2-.6-.2-1-.2h-9.8v28.3H33.5V79c0 .3 0 .6.1.8l.3.6c.2.2.4.3.6.3.2.1.5.1.8.1h20.5V126c0 6.3.8 11.5 2.4 15.6 1.6 4.1 3.9 7.4 6.8 9.8 2.9 2.4 6.3 4.1 10.1 5 3.8 1 7.9 1.5 12.2 1.5h14.6c.7 0 1.1-.2 1.4-.5.3-.3.4-.8.4-1.5v-8.8H88.3c-3.7 0-6.9-.3-9.5-1-2.6-.7-4.7-1.8-6.4-3.5-1.7-1.7-2.9-4-3.7-6.9-.8-3-1.2-6.7-1.2-11.2V80.8h51.3V126c0 6.3.8 11.5 2.4 15.6 1.6 4.1 3.9 7.4 6.8 9.8 2.9 2.4 6.3 4.1 10.1 5s7.9 1.5 12.2 1.5h14.6c.7 0 1.1-.2 1.4-.5.3-.3.4-.8.4-1.5v-8.8h-15.4c-3.7 0-6.9-.3-9.5-1-2.6-.7-4.7-1.8-6.4-3.5-1.7-1.7-2.9-4-3.7-6.9-.8-3-1.2-6.7-1.2-11.2V80.8h36.2v-8.6c-.2-.5-.4-1-.7-1.3z"/></svg>