<?xml version='1.0' encoding='utf-8'?><svg xmlns="http://www.w3.org/2000/svg" xmlns:xlink="http://www.w3.org/1999/xlink" id="Watchers-Icon" x="0" y="0" baseProfile="tiny" overflow="visible" version="1.2" viewBox="0 0 200 200" xml:space="preserve"><path d="M76.9 124.8c-5.8-10.1-5.7-22.7.1-32.9l8.7 5c-4.1 7.1-4.1 15.9-.1 23l-8.7 4.9zm-67.3.5-9.2-4C27.5 56.5 98.3 18 158.8 25.8l-1 10c-56.5-7.4-123 28.8-148.2 89.5z"/><path d="M111.8 51.2C47.9 63.9 10.6 136.8 8.2 167.1 89.8 198.2 188.3 131.5 200 54.6c-14.3-4.9-48-14.2-88.2-3.4zm29.2 80.9c-3.6 3.2-7.5 6.1-11.5 8.8l-9.4-16.6c6.2-7 3.8-19.4-5.1-23.2-7.4-2.8-11.3-12.5-8-19.7-20 9-21.3 48.7 4.4 47.9l9.6 16.8c-25.9 14.8-57.2 19.6-86.4 13.3l2.1-9.8c12.7 3.1 38.2 4.3 59.4-3.3-33.2-6.7-40.2-55.6-10.1-71.8 28-17.7 65 10.5 57 41.9 8.6-9.2 15.8-19.9 21-31.5l9.1 4.1c-7.4 16.5-18.5 31.4-32.1 43.1z"/></svg>