<?xml version="1.0" encoding="utf-8"?><svg xmlns="http://www.w3.org/2000/svg" xmlns:xlink="http://www.w3.org/1999/xlink" id="search_icon" x="0" y="0" baseProfile="tiny" overflow="visible" version="1.2" viewBox="0 0 200 200" xml:space="preserve"><path d="M164.4 141.4h-10.6l11.8-11.8-6.5-12.9c1.2-2.9 2.2-5.9 3-9 8.2-30.6-3.4-61.9-26.9-80.2l-.8-14.5-49-13-7.9 12.1c-29.6 4.1-55.2 25.4-63.4 56-.8 3.1-1.4 6.2-1.9 9.3L0 85.3l13.1 48.8 14.5.8c9.9 12.7 23.9 22.4 40.6 26.9 16.8 4.5 33.7 3.1 48.6-3l12.9 6.5 11.6-11.6v10.6L177 200h8l15-15v-8l-35.6-35.6zm-76.5-6.2c-26.1 0-47.2-21.1-47.2-47.2s21.1-47.2 47.2-47.2 47.2 21.1 47.2 47.2c0 26-21.1 47.2-47.2 47.2z"/></svg>