<?xml version="1.0" encoding="utf-8"?><svg xmlns="http://www.w3.org/2000/svg" xmlns:xlink="http://www.w3.org/1999/xlink" x="0" y="0" baseProfile="tiny" overflow="visible" version="1.2" viewBox="0 0 200 200" xml:space="preserve"><g id="Bibliography-Cite-Icon"><path d="m145.2 106.1.9-25L125 94.5l-5.5-9.5 22.3-11.6-22.3-11.6 5.5-9.5 21.1 13.4-.9-25h10.9l-.9 25 21.1-13.4 5.5 9.5-22.3 11.6L181.8 85l-5.5 9.5-21.1-13.4.9 25h-10.9z"/><path d="m165.9 99.7.2 6 .1 2.6c.8-2.4 1.2-5 1.3-7.6l-1.6-1zm.5 12.8.1 3.6h-31.7l.1-3.6-50.7 4.3c2.5-6.4 2.4-13.7-.1-20 0-.1.1-.2.1-.2l29-2.5-2.4-4.2-5.2-9 9.2-4.8 5.2-2.7-5.2-2.7-9.2-4.8 5.2-9 5.5-9.5 3.3-5.8-1.9-1.1c-.4-.3-1-.4-1.5-.3l-81.4 6.9h-.5c-.1 0-.2.1-.2.1s-.1 0-.1.1c-.1 0-.2.1-.2.1l-.1.1-.2.2-.1.1-.2.2s-.1.1-.1.2-.1.1-.1.2-.1.1-.1.2-.1.1-.1.2 0 .1-.1.2v1.4c0 .1 0 .2.1.2 2.6 5.7 2.6 12.5 0 18.2v.1c0 .1-.1.2-.1.3v.1c0 .1 0 .3-.1.4v.6c0 .1 0 .2.1.3 0 .1 0 .1.1.2 0 .1 0 .1.1.2 2.6 5.7 2.6 12.5 0 18.2v.1c0 .1-.1.2-.1.3v.1c0 .1 0 .3-.1.4v.6c0 .1 0 .2.1.3 0 .1 0 .1.1.2 0 .1 0 .1.1.2 2.6 5.7 2.6 12.5 0 18.2v.1c0 .1-.1.2-.1.3v.1c0 .1 0 .3-.1.4v.6c0 .1 0 .2.1.3 0 .1 0 .1.1.2 0 .1 0 .1.1.2 2.6 5.7 2.6 12.5 0 18.2-.5 1.2-.1 2.5 1 3.2l46.4 27.1c.4.2.8.3 1.3.3h.2l81.4-6.9c.9-.1 1.7-.6 2.1-1.5 3-6.6 3.1-14.5.4-21.3 1.9-6.2 2.2-12.6.5-18.4zm-86.3 41.3-42-24.6c1.5-4.4 1.9-9.2 1.1-13.8l40.1 23.5.1.1c2 4.7 2.2 10 .7 14.8zm0-20.2-42-24.6c1.5-4.4 1.9-9.2 1.1-13.8l40.2 23.5c2 4.7 2.2 10.1.7 14.9zm0-20.2-42-24.6c1.5-4.4 1.9-9.2 1.1-13.8l40.2 23.5c2 4.7 2.2 10 .7 14.9zm0-20.3-42-24.6c1.5-4.4 1.9-9.2 1.1-13.8L74 75.1l5.4 3.2c2 4.7 2.2 10 .7 14.8zm81 55.1-76 6.5c1.6-5.7 1.2-11.9-.9-17.4 0-.1.1-.2.1-.2l76.1-6.5c0 .3.1.6.2.8 2.3 5.2 2.5 11.4.5 16.8z"/></g></svg>
