<?xml version="1.0" encoding="utf-8"?><svg xmlns="http://www.w3.org/2000/svg" xmlns:xlink="http://www.w3.org/1999/xlink" id="Code-Icon" x="0" y="0" baseProfile="tiny" overflow="visible" version="1.2" viewBox="0 0 200 200" xml:space="preserve"><path d="M165 50v100H35V50h130m10-10H25v120h150V40z"/><path d="M60.5 86.4c-2.9 1.3-5.6 2.5-8.3 3.7-2.7 1.2-5.3 2.4-7.7 3.5v13.5c0 .3 0 .5.1.6.1.2.2.3.4.5s.4.3.6.4c3.5 1.6 7.1 3.1 10.7 4.7 3.5 1.6 7.1 3.1 10.6 4.7s7.1 3.1 10.6 4.7v-9.5c0-.4-.1-.7-.1-.8-.1-.2-.3-.3-.7-.5-.9-.4-2.3-1-4.1-1.8-1.8-.8-3.9-1.8-6.3-2.8-2.4-1-4.8-2.1-7.3-3.2-2-.9-3.8-1.7-5.5-2.4V100c1.2-.6 2.6-1.2 4-1.8 1.9-.9 3.9-1.7 5.8-2.6 2-.8 3.8-1.7 5.6-2.5 1.8-.8 3.4-1.5 4.7-2.1s2.4-1 3.1-1.4c.3-.2.6-.4.7-.6.1-.2.1-.4.1-.8v-9.4c-2.7 1.2-5.5 2.4-8.4 3.7-2.9 1.4-5.8 2.7-8.6 3.9zm54.8 38.4c-2.5-6.3-4.9-12.7-7.3-19.1-2.5-6.4-4.9-12.8-7.4-19.1-2.5-6.4-4.9-12.7-7.4-19.1-.1-.1-.1-.3-.2-.3-.1-.1-.2-.1-.3-.1H82.5c2.8 7.2 5.6 14.4 8.4 21.7 2.8 7.3 5.6 14.5 8.4 21.8 2.8 7.3 5.6 14.5 8.3 21.8.1.3.3.5.5.6.2.1.4.2.6.2h9.8c-.6-1.3-1.1-2.7-1.6-4.1s-1.1-2.9-1.6-4.3zm40.2-30.9c-.1-.2-.2-.4-.4-.5-.2-.2-.4-.3-.6-.4-3.6-1.5-7.1-3.1-10.6-4.7s-7.1-3.1-10.6-4.7c-3.6-1.5-7.1-3.1-10.6-4.7v9.4c0 .4 0 .6.1.8.1.2.3.4.7.6.9.4 2.3 1 4.1 1.8 1.8.8 3.9 1.8 6.3 2.8 2.4 1.1 4.8 2.1 7.3 3.2 2 .9 3.8 1.7 5.6 2.4v1.6c-1.2.6-2.6 1.2-4 1.8-1.9.9-3.9 1.7-5.8 2.6-2 .9-3.8 1.7-5.6 2.5s-3.4 1.5-4.7 2.1c-1.3.6-2.4 1-3.1 1.3-.4.2-.6.4-.7.5-.1.2-.1.4-.1.8v9.5c2.7-1.2 5.5-2.5 8.4-3.8 2.9-1.2 5.7-2.5 8.6-3.8 2.8-1.3 5.6-2.5 8.3-3.8 2.7-1.2 5.3-2.4 7.7-3.5V94.3c-.2 0-.3-.2-.3-.4z"/></svg>