<?xml version="1.0" encoding="utf-8"?><svg xmlns="http://www.w3.org/2000/svg" xmlns:xlink="http://www.w3.org/1999/xlink" id="Def-List-Icon" x="0" y="0" baseProfile="tiny" overflow="visible" version="1.2" viewBox="0 0 200 200" xml:space="preserve"><path d="M34.2 63.4c-1.5 0-2.9-.5-4-1.7-1.1-1.1-1.7-2.4-1.7-4 0-1.5.5-2.9 1.7-4 1.1-1.1 2.4-1.7 4-1.7 1.5 0 2.9.6 4 1.7s1.7 2.4 1.7 4c0 1-.3 2-.8 2.8-.5.9-1.2 1.5-2 2-.9.6-1.9.9-2.9.9zm0 32.2c-1.5 0-2.9-.5-4-1.7-1.1-1.1-1.7-2.4-1.7-4s.5-2.9 1.7-4c1.1-1.1 2.4-1.7 4-1.7 1.5 0 2.9.5 4 1.7 1.1 1.1 1.7 2.4 1.7 4 0 1-.3 2-.8 2.8-.5.9-1.2 1.5-2 2-.9.7-1.9.9-2.9.9zm19.2 8.2h-8.1L68.7 40h8l23.4 63.8H92L73 50.1h-.5l-19.1 53.7zm3-24.9H89v6.9H56.4v-6.9zm54.9-15.5c-1.5 0-2.9-.5-4-1.7-1.1-1.1-1.7-2.4-1.7-4 0-1.5.6-2.9 1.7-4s2.4-1.7 4-1.7 2.9.6 4 1.7 1.7 2.4 1.7 4c0 1-.3 2-.8 2.8-.5.9-1.2 1.5-2 2-1 .6-1.9.9-2.9.9zm0 32.2c-1.5 0-2.9-.5-4-1.7-1.1-1.1-1.7-2.4-1.7-4s.6-2.9 1.7-4 2.4-1.7 4-1.7 2.9.5 4 1.7 1.7 2.4 1.7 4c0 1-.3 2-.8 2.8s-1.2 1.5-2 2c-1 .7-1.9.9-2.9.9zm17.3 8.2V40h22.3c4.4 0 8.1.8 11 2.3s5 3.6 6.4 6.1c1.4 2.6 2.1 5.4 2.1 8.5 0 2.7-.5 5-1.4 6.8-1 1.8-2.2 3.2-3.8 4.2s-3.3 1.8-5.1 2.3v.6c2 .1 3.9.8 5.9 2.1 2 1.2 3.6 3 5 5.4s2 5.2 2 8.5c0 3.2-.7 6.1-2.2 8.6s-3.7 4.6-6.9 6.1c-3.1 1.5-7.2 2.2-12.2 2.2h-23.1zm7.7-35.8h14.3c2.3 0 4.4-.5 6.3-1.4 1.9-.9 3.4-2.2 4.5-3.9 1.1-1.7 1.7-3.6 1.7-5.9 0-2.8-1-5.2-2.9-7.1s-5-2.9-9.3-2.9h-14.6V68zm0 28.9h15.3c5 0 8.6-1 10.8-2.9s3.2-4.3 3.2-7.1c0-2.2-.6-4.2-1.7-6-1.1-1.8-2.7-3.3-4.7-4.4-2-1.1-4.4-1.7-7.2-1.7h-15.7v22.1z"/><path fill="none" stroke="#000000" stroke-width="10" d="M69.9 154.2h80m-80-28.8h80"/><path stroke="#000000" stroke-width="2.5" d="M50.1 130.4v-10l10 5-10 5zm0 29v-10l10 5-10 5z"/></svg>
