<?xml version="1.0" encoding="utf-8"?><svg xmlns="http://www.w3.org/2000/svg" xmlns:xlink="http://www.w3.org/1999/xlink" id="Equation-Ref-Icon" x="0" y="0" baseProfile="tiny" overflow="visible" version="1.2" viewBox="0 0 200 200" xml:space="preserve"><path d="M20.7 158.2V41.9H91v12.5H34.8v39.3h52.5v12.5H34.8v39.5h57v12.5H20.7zM181.1 191h-13.4v-46.1h-1.1c-1 1.6-2.4 3.6-4.2 6-1.8 2.4-4.4 4.5-7.8 6.4-3.4 1.9-7.9 2.8-13.5 2.8-7.3 0-13.7-1.8-19.3-5.5s-9.9-8.9-13.1-15.7-4.7-14.8-4.7-24 1.6-17.1 4.7-23.9c3.1-6.7 7.5-12 13.1-15.6 5.6-3.7 12.1-5.5 19.4-5.5 5.7 0 10.2.9 13.5 2.8 3.3 1.9 5.9 4 7.6 6.4 1.8 2.4 3.1 4.3 4.1 5.8h1.6V71h13v120zm-13.2-76.4c0-6.5-.9-12.2-2.8-17.1-1.9-4.9-4.7-8.7-8.4-11.5-3.7-2.7-8.3-4.1-13.8-4.1-5.7 0-10.4 1.4-14.2 4.3-3.8 2.9-6.6 6.8-8.5 11.8-1.9 4.9-2.8 10.5-2.8 16.6 0 6.2 1 11.8 2.9 16.9 1.9 5.1 4.8 9.1 8.5 12s8.5 4.5 14.1 4.5c5.4 0 9.9-1.4 13.6-4.2 3.7-2.8 6.5-6.7 8.5-11.8 1.9-5 2.9-10.8 2.9-17.4z"/></svg>
