<?xml version="1.0" encoding="utf-8"?>
<svg version="1.2" baseProfile="tiny" id="Equation-Ref-Icon"
	 xmlns="http://www.w3.org/2000/svg" xmlns:xlink="http://www.w3.org/1999/xlink" x="0px" y="0px" viewBox="0 0 200 200"
	 overflow="visible" xml:space="preserve">
<rect x="0.5" fill="none" width="200" height="200"/>
<g>
	<g>
		<path d="M145.7,106.1l0.9-25l-21.1,13.4L120,85l22.3-11.6L120,61.8l5.5-9.5l21.1,13.4l-0.9-25h10.9l-0.9,25l21.1-13.4l5.5,9.5
			L160,73.4L182.3,85l-5.5,9.5l-21.1-13.4l0.9,25H145.7z"/>
	</g>
	<g>
		<path d="M21,160V87.3h45.6v9.4H32v22.2h32.2v9.4H32v22.3h35v9.4H21z"/>
		<path d="M121.9,180.5h-10.6v-28.9h-0.6c-0.6,1.2-1.6,2.5-2.8,4s-2.8,2.8-4.9,3.9c-2.1,1.1-4.8,1.7-8.1,1.7
			c-4.4,0-8.3-1.1-11.8-3.4c-3.4-2.3-6.1-5.5-8.1-9.7s-2.9-9.3-2.9-15.1s1-10.9,3-15.1c2-4.2,4.7-7.4,8.1-9.6
			c3.5-2.2,7.4-3.3,11.8-3.3c3.4,0,6.1,0.6,8.2,1.7c2.1,1.1,3.7,2.4,4.8,3.9c1.1,1.5,2,2.8,2.7,3.9h0.9v-8.8h10.4V180.5z
			 M111.4,132.7c0-3.8-0.5-7.1-1.6-9.9c-1.1-2.8-2.7-5.1-4.8-6.6c-2.1-1.6-4.7-2.4-7.8-2.4c-3.2,0-5.9,0.8-8,2.5
			c-2.1,1.7-3.7,3.9-4.8,6.8c-1.1,2.9-1.6,6.1-1.6,9.7c0,3.6,0.5,6.9,1.6,9.8c1.1,2.9,2.7,5.2,4.8,6.9c2.1,1.7,4.8,2.5,7.9,2.5
			c3.1,0,5.6-0.8,7.8-2.4c2.1-1.6,3.7-3.9,4.8-6.8C110.9,139.9,111.4,136.6,111.4,132.7z"/>
	</g>
</g>
</svg>
