<?xml version="1.0" encoding="utf-8"?><svg xmlns="http://www.w3.org/2000/svg" xmlns:xlink="http://www.w3.org/1999/xlink" id="Footnotes-Icon" x="0" y="0" baseProfile="tiny" overflow="visible" version="1.2" viewBox="0 0 200 200" xml:space="preserve"><path fill="none" stroke="#000000" stroke-miterlimit="10" stroke-width="10" d="M127.9 84.7v14.6H73.5v15.4"/><path d="M185 125.1v30h-75v-30h75m5-5h-85v40h85v-40zM75 77.4H10v-5h65v5zm-20-15H10v-5h45v5zm40-15H10v-5h85v5z"/><path fill="none" stroke="#000000" stroke-miterlimit="10" stroke-width="5" d="M95 44.9H10m45 15H10m65 15H10"/><path d="M130.4 44.9v30H125V50.2h-.2l-7 4.5v-5l7.5-4.8h5.1zm-54.7 80.2v30h-5.4v-24.7h-.2l-7 4.5v-5l7.5-4.8h5.1z"/></svg>