<?xml version="1.0" encoding="utf-8"?><svg xmlns="http://www.w3.org/2000/svg" xmlns:xlink="http://www.w3.org/1999/xlink" id="Footnotes-Icon" x="0" y="0" baseProfile="tiny" overflow="visible" version="1.2" viewBox="0 0 200 200" xml:space="preserve"><path fill="none" stroke="#000000" stroke-miterlimit="10" stroke-width="10" d="M127.9 84.7v14.6H73.5v15.4"/><path d="M182.9 120.1H52v40h135.9v-40h-5zm-97.9 24-2.3 4-7.4-4.8.4 8.8h-4.5l.4-8.8-7.4 4.8-2.3-4 7.9-4-7.9-4 2.3-4 7.4 4.8-.4-8.8h4.5l-.4 8.8 7.4-4.8 2.3 4-7.9 4 7.9 4zm97.9 11h-90v-30h90v30zm-75.8-75.2H148v-40h-40.9m0 5v30M139.5 64l-2.3 4-7.4-4.8.4 8.8h-4.5l.4-8.8-7.4 4.8-2.3-4 7.9-4-7.9-4 2.3-4 7.4 4.8-.4-8.8h4.5l-.4 8.8 7.4-4.8 2.3 4-7.9 4 7.9 4z"/><path fill="none" stroke="#000000" stroke-miterlimit="10" stroke-width="5" d="M97.1 44.9h-85m45 15h-45m65 15h-65"/></svg>