<?xml version="1.0" encoding="utf-8"?><svg xmlns="http://www.w3.org/2000/svg" xmlns:xlink="http://www.w3.org/1999/xlink" id="H2-Icon" x="0" y="0" baseProfile="tiny" overflow="visible" version="1.2" viewBox="0 0 200 200" xml:space="preserve"><path d="M10.2 160.8v-120h14.5v53.4h64V40.8h14.5v120H88.7v-53.7h-64v53.7H10.2zm106.8 0v-10.5l39.6-43.4c4.6-5.1 8.5-9.5 11.5-13.3 3-3.8 5.2-7.3 6.7-10.7s2.2-6.8 2.2-10.5c0-4.2-1-7.9-3-11-2-3.1-4.8-5.5-8.2-7.1-3.5-1.7-7.4-2.5-11.7-2.5-4.6 0-8.6.9-12 2.8-3.4 1.9-6.1 4.5-7.9 7.9s-2.8 7.4-2.8 12h-13.8c0-7 1.6-13.2 4.9-18.5 3.2-5.3 7.7-9.5 13.3-12.4 5.6-3 11.9-4.5 18.9-4.5 7 0 13.3 1.5 18.7 4.5 5.4 3 9.7 7 12.8 12s4.6 10.6 4.6 16.8c0 4.4-.8 8.7-2.4 12.9-1.6 4.2-4.3 8.9-8.2 14-3.9 5.1-9.3 11.4-16.1 18.8l-27 28.8v.9h55.8v12.9H117z"/></svg>