<?xml version="1.0" encoding="utf-8"?><svg xmlns="http://www.w3.org/2000/svg" xmlns:xlink="http://www.w3.org/1999/xlink" id="H3-Icon" x="0" y="0" baseProfile="tiny" overflow="visible" version="1.2" viewBox="0 0 200 200" xml:space="preserve"><path d="M6.1 160V40h14.5v53.4h64V40h14.5v120H84.6v-53.7h-64V160H6.1zm147.3 1.6c-7.7 0-14.6-1.3-20.7-4s-10.8-6.4-14.4-11.1c-3.5-4.7-5.5-10.3-5.8-16.6h14.8c.3 3.9 1.6 7.2 4 10 2.3 2.8 5.4 5 9.2 6.5 3.8 1.5 8 2.3 12.6 2.3 5.2 0 9.7-.9 13.7-2.7 4-1.8 7.1-4.3 9.4-7.5 2.3-3.2 3.4-6.9 3.4-11.1 0-4.4-1.1-8.3-3.3-11.7-2.2-3.4-5.4-6-9.6-7.9-4.2-1.9-9.4-2.9-15.5-2.9h-9.6V92h9.6c4.8 0 9-.9 12.6-2.6 3.6-1.7 6.4-4.1 8.5-7.3 2.1-3.1 3.1-6.8 3.1-11 0-4.1-.9-7.6-2.7-10.6-1.8-3-4.3-5.4-7.6-7-3.3-1.7-7.1-2.5-11.5-2.5-4.1 0-8 .8-11.7 2.3-3.7 1.5-6.6 3.7-8.9 6.5-2.3 2.8-3.6 6.2-3.8 10.2h-14.1c.2-6.3 2.1-11.8 5.7-16.6 3.6-4.7 8.2-8.4 14-11.1 5.8-2.7 12.1-4 19-4 7.4 0 13.8 1.5 19.1 4.5 5.3 3 9.4 6.9 12.2 11.8 2.9 4.9 4.3 10.2 4.3 15.8 0 6.8-1.8 12.5-5.3 17.3-3.5 4.8-8.3 8.1-14.4 9.9v.9c7.6 1.3 13.5 4.5 17.8 9.6 4.3 5.2 6.4 11.6 6.4 19.2 0 6.5-1.8 12.4-5.3 17.5-3.5 5.2-8.3 9.2-14.4 12.2s-13 4.6-20.8 4.6z"/></svg>