<?xml version="1.0" encoding="utf-8"?><svg xmlns="http://www.w3.org/2000/svg" xmlns:xlink="http://www.w3.org/1999/xlink" id="H6-Icon" x="0" y="0" baseProfile="tiny" overflow="visible" version="1.2" viewBox="0 0 200 200" xml:space="preserve"><path d="M5 160.1v-120h14.5v53.4h64V40.1H98v120H83.5v-53.7h-64v53.7H5zm149.9 1.7c-4.9-.1-9.8-1-14.8-2.8s-9.4-4.8-13.5-9.1-7.3-10.1-9.8-17.4c-2.5-7.3-3.7-16.5-3.7-27.6 0-10.7 1-20.1 3-28.4s4.9-15.2 8.7-20.9c3.8-5.7 8.4-10 13.7-12.9s11.4-4.4 18.2-4.4c6.7 0 12.7 1.3 18 4s9.5 6.4 12.9 11.2c3.3 4.8 5.5 10.3 6.4 16.6h-14.3c-1.3-5.5-3.9-10-7.7-13.6s-8.9-5.4-15.2-5.4c-9.3 0-16.6 4.1-21.9 12.2-5.3 8.1-8 19.5-8.1 34.2h.9c2.2-3.3 4.8-6.2 7.8-8.5 3-2.4 6.4-4.2 10-5.5s7.6-1.9 11.7-1.9c6.9 0 13.2 1.7 18.9 5.1 5.7 3.4 10.3 8.1 13.7 14.1 3.4 6 5.2 12.9 5.2 20.6 0 7.4-1.7 14.2-5 20.4s-8 11-14 14.6c-5.9 3.7-13 5.4-21.1 5.4zm0-12.9c4.9 0 9.3-1.2 13.3-3.7s7-5.8 9.3-9.9c2.3-4.1 3.4-8.8 3.4-13.8s-1.1-9.5-3.3-13.6c-2.2-4.1-5.2-7.3-9.1-9.8-3.8-2.4-8.2-3.6-13.2-3.6-3.7 0-7.2.7-10.4 2.2s-6 3.5-8.4 6c-2.4 2.5-4.3 5.4-5.7 8.7-1.4 3.3-2.1 6.7-2.1 10.3 0 4.8 1.1 9.2 3.4 13.4 2.2 4.1 5.3 7.5 9.3 10 4.1 2.5 8.5 3.8 13.5 3.8z"/></svg>