<?xml version="1.0" encoding="utf-8"?><svg xmlns="http://www.w3.org/2000/svg" xmlns:xlink="http://www.w3.org/1999/xlink" id="HTML-Icon" x="0" y="0" baseProfile="tiny" overflow="visible" version="1.2" viewBox="0 0 200 200" xml:space="preserve"><path d="M76.5 110.6c-1.7.8-3.3 1.5-4.9 2.2s-3.1 1.4-4.6 2.1v8c0 .2 0 .3.1.4.1.1.1.2.2.3s.2.2.4.2c2.1.9 4.2 1.8 6.4 2.8 2.1.9 4.2 1.8 6.3 2.8s4.2 1.8 6.3 2.8v-5.6c0-.2-.1-.4-.1-.5-.1-.1-.2-.2-.4-.3-.5-.2-1.4-.6-2.4-1.1-1.1-.5-2.3-1.1-3.7-1.7-1.4-.6-2.8-1.2-4.3-1.9-1.2-.5-2.3-1-3.3-1.4v-1c.7-.4 1.5-.7 2.4-1.1 1.1-.5 2.3-1 3.4-1.5 1.2-.5 2.3-1 3.3-1.5 1.1-.5 2-.9 2.8-1.2.8-.4 1.4-.6 1.8-.8.2-.1.4-.2.4-.4.1-.1.1-.2.1-.5v-5.6c-1.6.7-3.3 1.4-5 2.2-1.9.8-3.6 1.6-5.2 2.3zm14 25.3c-.3.8-.6 1.7-.9 2.4h5.8c.1 0 .2-.1.4-.1.1-.1.2-.2.3-.4 1.6-4.3 3.3-8.6 4.9-12.9s3.3-8.6 5-12.9c1.7-4.3 3.3-8.6 5-12.9h-6.1c-.1 0-.1 0-.2.1-.1 0-.1.1-.1.2-1.5 3.8-2.9 7.5-4.4 11.3-1.5 3.7-2.9 7.5-4.4 11.3-1.4 3.8-2.8 7.6-4.3 11.3-.4.9-.7 1.8-1 2.6zm42.4-20.9c-.1-.1-.1-.2-.2-.3-.1-.1-.2-.2-.4-.2-2.1-.9-4.2-1.8-6.3-2.8-2.1-.9-4.2-1.8-6.3-2.8-2.1-.9-4.2-1.8-6.3-2.8v5.6c0 .2 0 .4.1.5l.4.4c.5.2 1.4.6 2.4 1.1 1.1.5 2.3 1.1 3.7 1.7 1.4.7 2.8 1.2 4.3 1.9 1.2.5 2.3 1 3.3 1.4v.9c-.7.4-1.5.7-2.4 1.1-1.1.5-2.3 1-3.4 1.5-1.2.5-2.3 1-3.3 1.5-1.1.5-2 .9-2.8 1.2-.8.4-1.4.6-1.8.8-.2.1-.4.2-.4.3-.1.1-.1.2-.1.5v5.6c1.6-.7 3.3-1.5 5-2.3 1.7-.7 3.4-1.5 5.1-2.3 1.7-.8 3.3-1.5 4.9-2.3 1.6-.7 3.1-1.4 4.6-2.1v-8c-.1.2-.1.1-.1-.1z"/><path d="M110.7 38.3H51.6v123.5h96.8V75.9l-37.7-37.6zm4.4 33.3V57l14.6 14.6h-14.6zm23.1 10.2v69.8H61.7V48.4h43.2v33.3h33.3z"/></svg>
