<?xml version="1.0" encoding="utf-8"?><svg xmlns="http://www.w3.org/2000/svg" xmlns:xlink="http://www.w3.org/1999/xlink" id="Image-Wizard-Icon" x="0" y="0" baseProfile="tiny" overflow="visible" version="1.2" viewBox="0 0 200 200" xml:space="preserve"><path d="M175 83.9V40h-43.9zm-10 63.5v2.6H35v-20.3l24.1-24.1 21.6 21.6 32-32-22.6-22.7-7.1-7 7.1-7.1L108.5 40H25v120h150v-2.6l-10-10zM63 61c8.3 0 15 6.7 15 15s-6.7 15-15 15-15-6.7-15-15c0-8.2 6.7-15 15-15z"/><path d="m199.4 122.5-57-57-22.6-22.6-22.6 22.6 22.6 22.6 57 57 22.6-22.6zM119.8 57l8.5 8.5-8.5 8.5-8.5-8.5 8.5-8.5z"/></svg>