<?xml version="1.0" encoding="utf-8"?><svg xmlns="http://www.w3.org/2000/svg" xmlns:xlink="http://www.w3.org/1999/xlink" id="Inline-Math-Icon" x="0" y="0" baseProfile="tiny" overflow="visible" version="1.2" viewBox="0 0 200 200" xml:space="preserve"><path d="m65.1 142-3-7.1 29.1-35.7-28.7-29.1 3-8.1h60.1l5.2 4.3V83h-8.4l-5.6-10.7H82.4l28.5 28.6v4.7l-24.6 28h35.4l4.2-10.8h6.8V142H65.1z"/><path d="m65.8 103.4-54.9 28v-10.9L53 100.2l-.3.7v-1.7l.3.7-42.1-20.4V68.6l54.9 28v6.8zm69.3-6.8 54.9-28v10.9l-42.1 20.3.3-.7v1.7l-.3-.7 42.1 20.3v10.9l-54.9-28v-6.7z"/></svg>
