<?xml version='1.0' encoding='utf-8'?><svg xmlns="http://www.w3.org/2000/svg" xmlns:xlink="http://www.w3.org/1999/xlink" id="Meta-Tags-Icon" x="0" y="0" baseProfile="tiny" overflow="visible" version="1.2" viewBox="0 0 200 200" xml:space="preserve"><path d="M78.4 20.7 7.7 91.5 110.2 194l63.6-7.1 7.1-63.6L78.4 20.7zm35.5 162.8-92.1-92 56.6-56.6 92.1 92.1-5.7 50.9-50.9 5.6z"/><path d="m180.9 123.3-5.3 47.4 16.8-30.4-55.5-134-51.6 21.4zM61.6 37.5l-17.1 7.1 3 7.1zm79.8 153 20.1 5.9 4.7-8.6z"/><path d="M154.4 153.9c2.6 0 5.1 1 7.1 2.9 3.9 3.9 3.9 10.2 0 14.1-2 2-4.5 2.9-7.1 2.9s-5.1-1-7.1-2.9c-3.9-3.9-3.9-10.2 0-14.1 2-1.9 4.5-2.9 7.1-2.9m0-10c-5.3 0-10.4 2.1-14.1 5.9-7.8 7.8-7.8 20.5 0 28.3 3.8 3.8 8.8 5.9 14.1 5.9 5.3 0 10.4-2.1 14.1-5.9 7.8-7.8 7.8-20.5 0-28.3-3.7-3.8-8.8-5.9-14.1-5.9z"/><path fill="none" stroke="#000000" stroke-miterlimit="10" stroke-width="10" d="M65 105.2v-30h30m33.5 33.6v30h-30m-11.3-8.7 19.1-46.2"/></svg>