<?xml version="1.0" encoding="utf-8"?><svg xmlns="http://www.w3.org/2000/svg" xmlns:xlink="http://www.w3.org/1999/xlink" id="OL-Icon" x="0" y="0" baseProfile="tiny" overflow="visible" version="1.2" viewBox="0 0 200 200" xml:space="preserve"><path fill="none" stroke="#000000" stroke-width="15" d="M65 150h110M65 100h110M65 50h110"/><path d="M49.2 60.5c-1.7-.4-4.5 0-6.7-.1V33.2c-.9-1.3-6-.2-7.7-.5-2.4 1.6-5 3.4-7.4 5.1.2.3-.3 8.3.2 8.2 2.7-.8 5.2-3.5 6.6-6.1h1v20.5h-8.8c.1 2-.2 4.8.1 6.8 7 .4 15.7 0 22.8.1-.1-1.8.3-5-.1-6.8zm.5 50.3c-4.9-.5-11.8-.2-16.3 1.2.2-7.1 10.8-8.1 14-13.5 6.7-12.1-5.4-19-16.2-15.1-5.7 1.3-3.9 4.7-4.1 9h1c3.4-2.4 10.8-5 13.7-1.2.8 7.6-13.2 8.8-14.8 16.1-1 2.6-1.3 7.5-.6 10.2 7.3.2 16.3 0 23.6.1-.3-2 .1-4.9-.3-6.8zm-.7 43.1c-1.5-2.2-4.3-3.3-7.3-3.9v-1c9.3-.6 10.8-13.7 1.8-16.1-4.6-1.5-12.5-1.2-16.6.7-.3 2 0 4.9-.1 6.9 4.5-.4 11-3 15 .3 2.4 6.2-6.7 5.1-11.2 5.4-.8 11.4 1.7 4.7 10 7.9 3 1 2.9 5.4-.2 6.2-4.6 1.3-10-.1-14.5-1v6.6c.2 1.1 1 .9 2.4 1.3 9.3 2.6 26.5.1 20.7-13.3z"/></svg>
