<?xml version='1.0' encoding='utf-8'?><svg xmlns="http://www.w3.org/2000/svg" xmlns:xlink="http://www.w3.org/1999/xlink" id="Parent-Page-Icon" x="0" y="0" baseProfile="tiny" overflow="visible" version="1.2" viewBox="0 0 200 200" xml:space="preserve"><path d="M114.2 95.9c-.5-3.7-1.3-7.5-2.3-11.2-1-3.6-2.1-7.1-3.5-10.5l10-10-55-18.4 18.4 55.1L92 90.6c.7 2.7 1.2 5.4 1.6 8.1l1.3 9.3 7.9 5.2 2.1 1.4-8 30 16.2 19.9 15.8-59.1-14.7-9.5z"/><path d="M160 70V0H0v130h40v70h160V70h-40zM59.9 10H140v10H59.9V10zm-20 0h10v10h-10V10zM20 10h10v10H20V10zm170 180H50v-90h20.9l-3.3-10H60V80h4.3L61 70H39.9v50H10V30h140v40h-23.2l-1.2 1.2-5.5 5.5c.4 1.1.7 2.2 1 3.2h59v10h-56.5l10.8 7.1 4.5 2.9H190V190z"/></svg>