<?xml version="1.0" encoding="utf-8"?><svg xmlns="http://www.w3.org/2000/svg" xmlns:xlink="http://www.w3.org/1999/xlink" id="Quote-Icon" x="0" y="0" baseProfile="tiny" overflow="visible" version="1.2" viewBox="0 0 200 200" xml:space="preserve"><path d="M114.8 150v-37.2c0-4.1.2-8.6.5-13.7.3-4 .8-8 1.8-12.4.8-3.8 2.2-7.5 4-11.2 1.8-3.5 4.3-6.9 7.5-10.1 5.4-5.4 10.8-8.9 16.5-10.6 3.1-.9 6.2-1.8 9.4-2.6v10c-3.2 1.5-5.9 3.2-8.1 5.1-3.6 3.2-6.3 6.7-8.2 10.4-1.7 3.4-2.9 7.1-3.4 11v.4c-.4 3.4-.6 6.4-.6 9.1v10h20.3V150h-39.7zm-69.3 0v-37.2c0-4.1.2-8.6.5-13.7.3-4.1.9-8.1 1.8-12.2 1-4 2.3-7.8 4.2-11.5 1.6-3.3 4.1-6.6 7.4-9.7l.2-.2.2-.2c4.9-5.2 10.4-8.7 16.2-10.4 3.1-.9 6.3-1.8 9.6-2.6v10.1c-3.2 1.5-5.9 3.2-8.1 5.1-3.6 3.2-6.3 6.7-8.2 10.4-1.7 3.4-2.9 7.1-3.4 11v.4c-.4 3.4-.6 6.4-.6 9.1v10h20.3V150H45.5z"/></svg>