<?xml version="1.0" encoding="utf-8"?><svg xmlns="http://www.w3.org/2000/svg" xmlns:xlink="http://www.w3.org/1999/xlink" id="Strike-Icon" x="0" y="0" baseProfile="tiny" overflow="visible" version="1.2" viewBox="0 0 200 200" xml:space="preserve"><path d="M30 95h140v10H30z"/><path d="M127.5 69.8c-.7-5.9-3.6-10.5-8.6-13.8s-11-5-18.3-5c-5.3 0-10 .9-13.9 2.6-4 1.7-7.1 4.1-9.3 7.1-2.2 3-3.3 6.4-3.3 10.3 0 3.2.8 5.9 2.3 8.2 1.5 2.3 3.5 4.2 5.9 5.7 2.4 1.5 5 2.7 7.6 3.7 2.7 1 5.1 1.7 7.3 2.3l12.2 3.3c3.1.8 6.6 2 10.5 3.4 3.8 1.4 7.5 3.4 11.1 5.9s6.5 5.7 8.8 9.5 3.5 8.6 3.5 14.2c0 6.5-1.7 12.3-5.1 17.6-3.4 5.2-8.3 9.4-14.8 12.5s-14.3 4.6-23.5 4.6c-8.6 0-16-1.4-22.3-4.2s-11.2-6.6-14.8-11.6c-3.6-5-5.6-10.7-6.1-17.3h15c.4 4.5 1.9 8.3 4.6 11.2 2.7 3 6.1 5.1 10.2 6.6 4.1 1.4 8.6 2.1 13.3 2.1 5.5 0 10.5-.9 14.9-2.7s7.9-4.4 10.5-7.6c2.6-3.3 3.9-7.1 3.9-11.5 0-4-1.1-7.2-3.3-9.7s-5.2-4.5-8.8-6.1-7.6-2.9-11.8-4.1l-14.8-4.2c-9.4-2.7-16.8-6.5-22.3-11.5s-8.2-11.5-8.2-19.6c0-6.7 1.8-12.6 5.5-17.6 3.7-5 8.6-8.9 14.8-11.7 6.2-2.8 13.1-4.2 20.8-4.2 7.7 0 14.6 1.4 20.6 4.1s10.8 6.5 14.3 11.3c3.5 4.8 5.4 10.2 5.6 16.2h-14z"/></svg>