<?xml version="1.0" encoding="utf-8"?><svg xmlns="http://www.w3.org/2000/svg" xmlns:xlink="http://www.w3.org/1999/xlink" id="Underline-Icon" x="0" y="0" baseProfile="tiny" overflow="visible" version="1.2" viewBox="0 0 200 200" xml:space="preserve"><path d="M30 172.5h140v10H30zM131.5 40h14.3v78c0 8.1-1.9 15.2-5.7 21.5-3.8 6.3-9.1 11.3-16 14.9-6.9 3.6-14.9 5.4-24.2 5.4-9.2 0-17.3-1.8-24.2-5.4-6.9-3.6-12.2-8.6-16-14.9C55.9 133.2 54 126 54 118V40h14.3v76.9c0 5.8 1.3 10.9 3.8 15.3 2.5 4.5 6.1 8 10.8 10.5 4.7 2.6 10.3 3.8 16.9 3.8s12.2-1.3 16.9-3.8c4.7-2.6 8.3-6.1 10.8-10.5 2.5-4.5 3.8-9.6 3.8-15.3V40z"/></svg>