<?xml version="1.0" encoding="utf-8"?><svg xmlns="http://www.w3.org/2000/svg" xmlns:xlink="http://www.w3.org/1999/xlink" id="Discord_Logo" x="0" y="0" baseProfile="tiny" overflow="visible" version="1.2" viewBox="0 0 2215 2080" xml:space="preserve"><path d="M1337.6 939.4c-69.2 0-124.2 62.5-124.2 139.3 0 76.8 56.1 139.3 124.2 139.3 69.7 0 124.2-62.5 124.2-139.3 1.1-76.3-54.5-139.3-124.2-139.3zm-459.3 0c-69.2 0-124.2 62.5-124.2 139.3 0 76.8 56.1 139.3 124.2 139.3 69.2 0 124.2-62.5 124.2-139.3 1.1-76.3-54.5-139.3-124.2-139.3z"/><path d="M2090 1212.1c4.9-40 7.5-80.8 7.5-122.1 0-410-249.3-761.8-604.6-912.1L1434.5 0h-654l-58.4 177.9C366.8 328.2 117.5 680 117.5 1090c0 41.4 2.6 82.1 7.5 122.1L0 1351.8l327 566.4 183.5-38.4c166 125.7 372.8 200.2 597 200.2s431-74.5 597-200.2l183.5 38.4 327-566.4-125-139.7zm-297.3 163c-.1 1.3-.8 2.4-1.8 3.2-118.2 86.8-232.8 139.5-345.7 174.5-1.8.5-3.8-.1-4.8-1.6-26.1-36.3-49.8-74.6-70.6-114.8-1.2-2.4-.1-5.2 2.3-6.1 37.6-14.2 73.4-31.2 107.9-51.3 2.7-1.6 2.9-5.5.4-7.4-7.3-5.4-14.5-11.1-21.5-16.8-1.3-1-3.1-1.3-4.5-.5-223.6 103.3-468.5 103.3-694.7 0-1.5-.7-3.2-.4-4.5.6-6.9 5.7-14.2 11.4-21.4 16.8-2.5 1.9-2.3 5.8.4 7.4 34.4 19.7 70.2 37.1 107.8 51.4 2.5.9 3.6 3.7 2.4 6.1-20.3 40.3-44 78.5-70.6 114.9-1.1 1.5-3.1 2.1-4.8 1.6-112.4-34.9-226.9-87.7-345.2-174.5-1-.8-1.7-2-1.8-3.2-24.1-257.9 25-519 204.2-786.8.4-.7 1.1-1.3 1.9-1.6 88.2-40.5 182.6-70.3 281.4-87.3 1.8-.3 3.6.5 4.5 2.1 12.2 21.6 26.2 49.3 35.6 72 104.1-15.9 209.8-15.9 316 0 9.4-22.2 22.9-50.4 35-72 .9-1.6 2.7-2.5 4.5-2.1 98.8 17.1 193.3 46.8 281.4 87.3.8.3 1.4.9 1.8 1.6 156.1 229.3 233.2 488.3 204.4 786.5z"/></svg>