<?xml version='1.0' encoding='utf-8'?><svg xmlns="http://www.w3.org/2000/svg" xmlns:xlink="http://www.w3.org/1999/xlink" id="Facebook_Logo" x="0" y="0" baseProfile="tiny" overflow="visible" version="1.2" viewBox="0 0 2215 2080" xml:space="preserve"><path d="M2090 1212.1c4.9-40 7.5-80.8 7.5-122.1 0-410-249.3-761.8-604.6-912.1L1434.5 0h-654l-58.4 177.9C366.8 328.2 117.5 680 117.5 1090c0 41.4 2.6 82.1 7.5 122.1L0 1351.8l327 566.4 183.5-38.4c152.4 115.4 339.2 187.6 542.3 198.7v-709H795.4v-293h257.4V853.2c0-254.1 151.4-394.4 382.8-394.4 110.9 0 226.9 19.8 226.9 19.8V728h-127.8c-126 0-165.2 78.2-165.2 158.3v190.1h281.1l-44.9 293h-236.2V2045c122.8-33.6 236.2-90.3 335-165.2l183.5 38.4 327-566.4-125-139.7z"/></svg>