<?xml version='1.0' encoding='utf-8'?><svg xmlns="http://www.w3.org/2000/svg" xmlns:xlink="http://www.w3.org/1999/xlink" id="Instagram_Logo" x="0" y="0" baseProfile="tiny" overflow="visible" version="1.2" viewBox="0 0 2215 2080" xml:space="preserve"><ellipse cx="1107.5" cy="1074.9" rx="204.3" ry="204.3" transform="matrix(0.7071 -0.7071 0.7071 0.7071 -435.692 1097.9515)"/><path d="M1585.3 713.4c-11.1-28.6-24.4-49-45.8-70.5-21.4-21.4-41.9-34.7-70.5-45.8-21.6-8.4-54.1-18.4-113.8-21.1-64.6-2.9-84-3.6-247.7-3.6s-183 .6-247.7 3.6c-59.8 2.7-92.2 12.7-113.8 21.1-28.6 11.1-49 24.4-70.5 45.8-21.4 21.4-34.7 41.9-45.8 70.5-8.4 21.6-18.4 54.1-21.1 113.8-2.9 64.6-3.6 84-3.6 247.7s.6 183 3.6 247.7c2.7 59.8 12.7 92.2 21.1 113.8 11.1 28.6 24.4 49 45.8 70.5 21.4 21.4 41.9 34.7 70.5 45.8 21.6 8.4 54 18.4 113.8 21.1 64.6 2.9 84 3.6 247.7 3.6s183-.6 247.7-3.6c59.8-2.7 92.2-12.7 113.8-21.1 28.6-11.1 49-24.4 70.5-45.8 21.4-21.4 34.7-41.9 45.8-70.5 8.4-21.6 18.4-54.1 21.1-113.8 2.9-64.6 3.6-84 3.6-247.7s-.6-183-3.6-247.7c-2.7-59.7-12.7-92.2-21.1-113.8zm-477.8 676.2c-173.8 0-314.7-140.9-314.7-314.7s140.9-314.7 314.7-314.7 314.7 140.9 314.7 314.7-140.9 314.7-314.7 314.7zm327.2-568.3c-40.6 0-73.5-32.9-73.5-73.5s32.9-73.5 73.5-73.5 73.5 32.9 73.5 73.5-32.9 73.5-73.5 73.5z"/><path d="M2090 1212.1c4.9-40 7.5-80.8 7.5-122.1 0-410-249.3-761.8-604.6-912.1L1434.5 0h-654l-58.4 177.9C366.8 328.2 117.5 680 117.5 1090c0 41.4 2.6 82.1 7.5 122.1L0 1351.8l327 566.4 183.5-38.4c166 125.7 372.8 200.2 597 200.2s431-74.5 597-200.2l183.5 38.4 327-566.4-125-139.7zm-373.3 115.5c-3 65.2-13.3 109.8-28.5 148.8-15.7 40.3-36.6 74.5-70.7 108.6-34.1 34.1-68.3 55-108.6 70.7-39 15.2-83.5 25.5-148.8 28.5-65.4 3-86.2 3.7-252.7 3.7s-187.3-.7-252.7-3.7c-65.2-3-109.8-13.3-148.8-28.5-40.3-15.7-74.5-36.6-108.6-70.7-34.1-34.1-55-68.3-70.7-108.6-15.2-39-25.5-83.5-28.5-148.8-3-65.4-3.7-86.2-3.7-252.7s.7-187.3 3.7-252.7c3-65.2 13.3-109.8 28.5-148.8 15.7-40.3 36.6-74.5 70.7-108.6 34.1-34.1 68.3-55 108.6-70.7 39-15.2 83.5-25.5 148.8-28.5 65.4-3 86.2-3.7 252.7-3.7s187.3.7 252.7 3.7c65.2 3 109.8 13.3 148.8 28.5 40.3 15.7 74.5 36.6 108.6 70.7 34.1 34.1 55 68.3 70.7 108.6 15.2 39 25.5 83.5 28.5 148.8 3 65.4 3.7 86.2 3.7 252.7s-.7 187.3-3.7 252.7z"/></svg>