<?xml version='1.0' encoding='utf-8'?><svg xmlns="http://www.w3.org/2000/svg" xmlns:xlink="http://www.w3.org/1999/xlink" id="Reddit_Logo" x="0" y="0" baseProfile="tiny" overflow="visible" version="1.2" viewBox="0 0 2215 2080" xml:space="preserve"><path d="M1318.4 1444.1c-46.5 47.8-148.4 64.1-220.1 64.1-71.7 0-172.3-16.4-220.1-64.1-11.3-11.3-28.9-11.3-40.2 0-11.3 11.3-11.3 28.9 0 40.2 74.2 74.2 217.6 80.5 260.3 80.5 41.5 0 184.9-5 260.3-80.5 10.1-11.3 10.1-28.9 0-40.2-11.3-11.3-28.9-11.3-40.2 0z"/><path d="M2090 1212.1c4.9-40 7.5-80.8 7.5-122.1 0-410-249.3-761.8-604.6-912.1L1434.5 0h-654l-58.4 177.9C366.8 328.2 117.5 680 117.5 1090c0 41.4 2.6 82.1 7.5 122.1L0 1351.8l327 566.4 183.5-38.4c166 125.7 372.8 200.2 597 200.2s431-74.5 597-200.2l183.5 38.4 327-566.4-125-139.7zm-289.9-127.7c0 62.9-37.7 117-90.6 140.9 2.5 15.4 3.8 30.9 3.8 46.5 0 237.7-275.4 428.9-615 428.9s-615-192.4-615-428.9c0-16.4 1.3-31.4 3.8-46.5-15.9-7.2-30.5-17.1-43-29.2-61.1-58.8-62.9-155.9-4.1-217 58.8-61.1 155.9-62.9 217-4.1 106.9-76.7 254.1-125.8 417.6-130.8l78-367.2c1-7.2 5.2-13.7 11.3-17.6 5-3.8 12.6-5 20.1-3.8l255.3 54.1c17.8-35.9 53.8-59.2 93.8-60.7 60.4-2.3 111.2 44.8 113.5 105.1 2.3 60.4-44.8 111.2-105.1 113.5-60.4 2.3-111.2-44.8-113.5-105.1l-228.9-49.1-70.4 329.5c161 6.3 305.6 55.3 411.3 130.8 28.8-28 67.4-43.5 107.5-43.4 84.5.4 152.9 69.4 152.6 154.1z"/><path d="M964.9 1193.8v-.2c0-60.4-49.1-109.4-109.5-109.3-60.4 0-109.4 49.1-109.3 109.5 0 60.4 49 109.4 109.4 109.4 60.5 0 109.4-49 109.4-109.4zm373.6-108.1h-.2c-60.4 0-109.4 49.1-109.3 109.5 0 60.4 49.1 109.4 109.5 109.3 60.4 0 109.3-49 109.3-109.3.1-60.5-48.9-109.5-109.3-109.5z"/></svg>