<?xml version="1.0" encoding="utf-8"?><svg xmlns="http://www.w3.org/2000/svg" xmlns:xlink="http://www.w3.org/1999/xlink" id="steam_logo" x="0" y="0" baseProfile="tiny" overflow="visible" version="1.2" viewBox="0 0 2215 2080" xml:space="preserve"><path d="M1721.3 835.4c0-141.9-115.3-257.4-257.1-257.4-141.7 0-257 115.5-257 257.4 0 142 115.3 257.5 257 257.5 141.8 0 257.1-115.5 257.1-257.5zm-449.6-.4c0-106.8 86.5-193.5 193-193.5 106.6 0 193.1 86.6 193.1 193.5 0 106.8-86.5 193.4-193.1 193.4-106.5 0-193-86.6-193-193.4z"/><path d="M2090 1212.1c4.9-40 7.5-80.8 7.5-122.1 0-410-249.3-761.8-604.6-912.1L1434.5 0h-654l-58.4 177.9c-336 142.1-577.2 464.4-602.4 845.8l543.9 223.9c14.8-9.8 30.7-18.2 47.6-25.1 38.3-15.8 78.7-22.8 119-21l248.5-361c-.1-1.6-.1-3.3-.1-5 0-213.1 173-386.4 385.8-386.4s385.8 173.3 385.8 386.4c0 213-173 386.5-385.8 386.5-2.9 0-5.8-.1-8.7-.2l-355.6 254.1c1 39.2-6.2 78.5-21.7 116-59.6 143.4-224.9 211.7-368.3 151.8-87.6-36.5-147-112.5-166.4-199L20.4 1329 0 1351.8l327 566.4 183.5-38.4c166 125.7 372.8 200.2 597 200.2s431-74.5 597-200.2l183.5 38.4 327-566.4-125-139.7z"/><path d="m748.4 1629.6-125.6-52c22.2 46.5 60.8 85.4 111.8 106.7 110.7 46.1 238-6.5 284.2-117.3 22.3-53.5 22.4-112.8.3-166.5s-63.7-95.7-117.3-118c-53.2-22.1-110.1-21.4-160.2-2.4l129.8 53.8c81.6 34 120.2 127.8 86.2 209.5-33.9 81.5-127.5 120.2-209.2 86.2z"/></svg>