<?xml version="1.0" standalone="no"?>
<!DOCTYPE svg PUBLIC "-//W3C//DTD SVG 1.1//EN" "http://www.w3.org/Graphics/SVG/1.1/DTD/svg11.dtd">
<svg xmlns="http://www.w3.org/2000/svg">
<defs >
<font id="Kanit" horiz-adv-x="569" ><font-face
    font-family="Kanit SemiBold"
    units-per-em="1000"
    panose-1="0 0 0 0 0 0 0 0 0 0"
    ascent="1100"
    descent="-395"
    alphabetic="0" />
<glyph unicode=" " glyph-name="space" horiz-adv-x="215" />
<glyph unicode="!" glyph-name="exclam" horiz-adv-x="231" d="M41 176L35 475V644H196V475L190 176H41ZM31 0V116H200V0H31Z" />
<glyph unicode="&quot;" glyph-name="quotedbl" horiz-adv-x="382" d="M217 431V644H351L336 431H217ZM31 431V644H165L150 431H31Z" />
<glyph unicode="#" glyph-name="numbersign" horiz-adv-x="708" d="M51 0L100 157H31V262H133L170 381H73V487H204L253 644H392L342 487H473L522 644H661L611 487H677V381H578L540 262H635V157H507L458 0H320L369 157H238L189 0H51ZM271 262H402L439 381H309L271 262Z" />
<glyph unicode="$" glyph-name="dollar" horiz-adv-x="555" d="M232 -86V-9Q177 -7 131 1T49 25V144Q90 127 138 117T232 104V279L220 283Q119 311 78 353T37 469Q37 546 86 593T232 651V730H331V653Q377 650 416 643T480 627V508Q445 521 407 529T331 538V372Q405
351 445 323T502 258T518 176Q518 105 472 57T331 -5V-86H232ZM232 401V532Q204 526 189 511T174 469Q174 444 186 429T232 401ZM331 111Q356 118 368 133T380 176Q380 202 369 218T331 247V111Z" />
<glyph unicode="%" glyph-name="percent" horiz-adv-x="757" d="M179 349Q106 349 69 390T31 495Q31 569 68 611T179 654Q253 654 290 612T328 495Q328 431 291 390T179 349ZM133 0L470 644H623L285 0H133ZM179 437Q211 437 224 453T238 498Q238 566 179 566Q121
566 121 498Q121 470 134 454T179 437ZM577 -10Q504 -10 467 30T429 135Q429 209 466 251T577 294Q651 294 688 252T726 135Q726 71 689 31T577 -10ZM577 77Q609 77 622 93T636 138Q636 206 577 206Q519 206 519 138Q519 110 532 94T577 77Z" />
<glyph unicode="&amp;" glyph-name="ampersand" horiz-adv-x="677" d="M552 -15L486 52Q410 -10 279 -10Q166 -10 99 38T31 166Q31 232 66 277T166 359Q134 391 115 422T96 496Q96 566 147 610T285 654Q372 654 423 611T475 496Q475 447 453 411T387 340L493 231Q505
254 505 288V306H626V283Q626 244 614 207T583 144L652 75L552 -15ZM283 405Q314 424 330 441T346 488Q346 514 332 530T287 547Q255 547 241 530T226 488Q226 466 240 446T283 405ZM279 100Q348 100 388 138L265 264Q226 247 206 226T186 170Q186 136 212 118T279
100Z" />
<glyph unicode="&apos;" glyph-name="quotesingle" horiz-adv-x="196" d="M31 431V644H165L150 431H31Z" />
<glyph unicode="(" glyph-name="parenleft" horiz-adv-x="355" d="M160 -72Q93 -7 62 92T31 303Q31 413 62 513T160 678H343Q264 606 230 511T195 303Q195 191 229 96T343 -72H160Z" />
<glyph unicode=")" glyph-name="parenright" horiz-adv-x="355" d="M11 -72Q91 0 125 95T159 303Q159 415 125 510T11 678H195Q261 613 292 513T323 303Q323 192 292 93T195 -72H11Z" />
<glyph unicode="*" glyph-name="asterisk" horiz-adv-x="440" d="M148 300L56 367L137 452L31 496L79 594L165 548L160 644H280L275 548L361 594L408 496L302 452L383 367L291 300L220 397L148 300Z" />
<glyph unicode="+" glyph-name="plus" horiz-adv-x="457" d="M166 88V215H31V340H166V469H292V340H426V215H292V88H166Z" />
<glyph unicode="," glyph-name="comma" horiz-adv-x="231" d="M31 -120L63 93H200L146 -120H31Z" />
<glyph unicode="-" glyph-name="hyphen" horiz-adv-x="457" d="M31 215V340H426V215H31Z" />
<glyph unicode="." glyph-name="period" horiz-adv-x="191" d="M31 0V118H160V0H31Z" />
<glyph unicode="/" glyph-name="slash" horiz-adv-x="461" d="M31 0L265 662H430L196 0H31Z" />
<glyph unicode="0" glyph-name="zero" horiz-adv-x="661" d="M330 -18Q222 -18 156 21T61 135T31 318Q31 425 60 500T156 614T330 654Q439 654 504 615T600 500T630 318Q630 211 600 136T505 21T330 -18ZM330 120Q406 120 435 170T465 318Q465 415 436 465T330
516Q254 516 225 466T195 318Q195 221 224 171T330 120Z" />
<glyph unicode="1" glyph-name="one" horiz-adv-x="349" d="M137 0V496L31 479V614L298 654V0H137Z" />
<glyph unicode="2" glyph-name="two" horiz-adv-x="517" d="M31 0V75Q58 131 100 175T193 264Q239 306 266 331T304 379T316 434Q316 516 210 516Q169 516 129 507T53 483V622Q92 636 144 645T249 654Q362 654 421 597T480 437Q480 379 453 337T372 247Q332 213
301 185T247 124H486V0H31Z" />
<glyph unicode="3" glyph-name="three" horiz-adv-x="529" d="M232 -10Q204 -10 166 -6T92 5T31 23V157Q72 138 119 130T207 122Q270 122 301 139T333 201Q333 236 307 252T230 268H125L136 381H223Q274 381 297 397T320 451Q320 486 293 504T204 522Q161 522
117 513T41 488V620Q76 634 128 644T234 654Q356 654 420 603T485 471Q485 425 466 385T406 325Q452 309 474 273T497 186Q497 119 463 76T370 11T232 -10Z" />
<glyph unicode="4" glyph-name="four" horiz-adv-x="547" d="M314 0V128H11V235L334 644H475V258H535V128H475V0H314ZM166 252H341V467L166 252Z" />
<glyph unicode="5" glyph-name="five" horiz-adv-x="521" d="M229 -10Q200 -10 165 -7T95 4T34 22V156Q58 146 88 139T149 127T204 123Q266 123 295 142T325 207Q325 248 305 266T226 285H31V366L48 644H448L436 520H186L179 403H263Q380 403 434 352T489 201Q489
105 425 48T229 -10Z" />
<glyph unicode="6" glyph-name="six" horiz-adv-x="583" d="M293 -10Q31 -10 31 247V378Q31 458 66 520T168 618T325 654Q377 654 415 648T489 628V497Q456 511 419 517T338 524Q261 524 222 493T182 411V386Q211 406 252 416T327 427Q443 427 497 372T552 212Q552
147 526 97T442 19T293 -10ZM294 106Q351 106 379 133T408 206Q408 256 383 282T296 308Q267 308 238 298T182 272V218Q182 106 294 106Z" />
<glyph unicode="7" glyph-name="seven" horiz-adv-x="498" d="M76 0L297 520H21V644H476V548L244 0H76Z" />
<glyph unicode="8" glyph-name="eight" horiz-adv-x="603" d="M301 -10Q163 -10 97 38T31 183Q31 232 56 273T125 333Q85 353 66 387T47 461Q47 549 107 601T301 654Q437 654 496 602T555 461Q555 421 537 385T475 327Q572 287 572 183Q572 87 506 39T301 -10ZM326
373Q366 385 384 403T402 458Q402 533 301 533Q251 533 226 516T200 458Q200 398 265 385L326 373ZM301 110Q361 110 389 128T418 186Q418 221 399 237T337 263L264 278Q227 270 206 251T184 191Q184 148 213 129T301 110Z" />
<glyph unicode="9" glyph-name="nine" horiz-adv-x="583" d="M258 -10Q206 -10 168 -5T94 14V145Q159 119 245 119Q323 119 362 151T401 232V257Q372 238 332 227T256 216Q139 216 85 272T31 431Q31 496 57 546T141 625T290 654Q424 654 488 590T552 397V266Q552
186 517 124T416 26T258 -10ZM287 335Q316 335 346 345T401 372V425Q401 537 289 537Q232 537 204 511T175 437Q175 388 199 362T287 335Z" />
<glyph unicode=":" glyph-name="colon" horiz-adv-x="191" d="M31 320V440H159V320H31ZM31 20V140H159V20H31Z" />
<glyph unicode=";" glyph-name="semicolon" horiz-adv-x="231" d="M68 320V440H197V320H68ZM31 -120L63 93H200L146 -120H31Z" />
<glyph unicode="&lt;" glyph-name="less" horiz-adv-x="540" d="M509 27L31 241V374L509 587V437L202 308L509 178V27Z" />
<glyph unicode="=" glyph-name="equal" horiz-adv-x="455" d="M31 308V420H423V308H31ZM31 132V245H423V132H31Z" />
<glyph unicode="&gt;" glyph-name="greater" horiz-adv-x="540" d="M31 27V178L337 308L31 437V587L509 374V241L31 27Z" />
<glyph unicode="?" glyph-name="question" horiz-adv-x="498" d="M134 177V196Q134 236 150 263T195 316Q221 341 246 359T287 397T303 444Q303 483 276 499T184 516Q142 516 101 506T31 479V614Q68 632 118 643T229 654Q345 654 406 604T467 465Q467 409 444
375T377 304Q340 273 315 251T290 190V177H134ZM127 0V116H296V0H127Z" />
<glyph unicode="@" glyph-name="at" horiz-adv-x="758" d="M388 -132Q283 -132 203 -98T77 8T31 188Q31 297 76 372T204 486T398 525Q554 525 640 451T726 248Q726 152 676 101T525 50H489Q464 30 430 19T345 7Q290 7 254 36T217 120Q217 174 252 204T362 235H458V254Q458
284 441 298T372 312Q314 312 255 293V358Q281 369 319 375T396 381Q477 381 514 348T551 242V131Q583 131 599 158T616 248Q616 434 398 434Q273 434 207 375T141 186Q141 104 171 54T256 -18T386 -41Q496 -41 559 -22V-114Q528 -121 484 -126T388 -132ZM372 76Q427
76 458 113V172H380Q342 172 327 160T312 121Q312 76 372 76Z" />
<glyph unicode="A" glyph-name="A" horiz-adv-x="728" d="M31 0L277 644H451L697 0H529L471 146H256L199 0H31ZM278 265H449L363 489L278 265Z" />
<glyph unicode="B" glyph-name="B" horiz-adv-x="641" d="M51 0V644H391Q488 644 537 598T587 468Q587 417 568 383T516 329Q560 313 585 282T610 189Q610 97 556 49T401 0H51ZM212 382H343Q385 382 404 401T423 454Q423 491 404 509T335 528H212V382ZM212 115H359Q403
115 424 133T446 197Q446 234 425 252T353 271H212V115Z" />
<glyph unicode="C" glyph-name="C" horiz-adv-x="603" d="M377 -10Q208 -10 120 76T31 317Q31 478 117 566T376 654Q435 654 481 645T571 621V480Q484 516 388 516Q288 516 242 468T195 317Q195 219 244 173T390 127Q437 127 483 135T572 162V20Q530 6 483 -2T377 -10Z" />
<glyph unicode="D" glyph-name="D" horiz-adv-x="663" d="M51 0V644H330Q428 644 495 612T597 508T632 318Q632 152 556 76T330 0H51ZM212 124H308Q360 124 395 139T449 197T468 318Q468 398 452 441T400 502T308 520H212V124Z" />
<glyph unicode="E" glyph-name="E" horiz-adv-x="552" d="M51 0V644H526V520H212V385H489V259H212V124H526V0H51Z" />
<glyph unicode="F" glyph-name="F" horiz-adv-x="530" d="M51 0V644H519V520H212V385H482V259H212V0H51Z" />
<glyph unicode="G" glyph-name="G" horiz-adv-x="647" d="M372 -10Q205 -10 118 74T31 313Q31 474 120 564T382 654Q441 654 488 647T579 626V488Q536 504 490 510T394 516Q290 516 243 467T195 313Q195 218 240 173T373 127Q431 127 481 143V265H342V366H616V47Q582
25 522 8T372 -10Z" />
<glyph unicode="H" glyph-name="H" horiz-adv-x="676" d="M51 0V644H212V389H464V644H625V0H464V255H212V0H51Z" />
<glyph unicode="I" glyph-name="I" horiz-adv-x="263" d="M51 0V644H212V0H51Z" />
<glyph unicode="J" glyph-name="J" horiz-adv-x="441" d="M159 -10Q118 -10 81 -5T11 13V148Q35 138 65 133T126 127Q185 127 209 150T234 229V644H395V199Q395 98 335 44T159 -10Z" />
<glyph unicode="K" glyph-name="K" horiz-adv-x="663" d="M51 0V644H212V394L434 644H618L388 381L632 0H460L288 278L212 195V0H51Z" />
<glyph unicode="L" glyph-name="L" horiz-adv-x="527" d="M51 0V644H212V124H516V0H51Z" />
<glyph unicode="M" glyph-name="M" horiz-adv-x="768" d="M51 0V644H210L385 287L559 644H717V0H556V370L429 110H340L212 370V0H51Z" />
<glyph unicode="N" glyph-name="N" horiz-adv-x="676" d="M51 0V644H189L463 259V644H625V0H486L212 384V0H51Z" />
<glyph unicode="O" glyph-name="O" horiz-adv-x="704" d="M352 -10Q195 -10 113 70T31 319Q31 498 113 576T352 654Q509 654 591 576T673 319Q673 150 591 70T352 -10ZM352 127Q433 127 470 173T508 319Q508 427 471 471T352 516Q270 516 233 472T195 319Q195
220 232 174T352 127Z" />
<glyph unicode="P" glyph-name="P" horiz-adv-x="606" d="M51 0V644H368Q445 644 495 614T569 531T594 414Q594 348 566 297T487 218T364 189H212V0H51ZM212 313H328Q379 313 404 341T430 415Q430 465 407 492T333 520H212V313Z" />
<glyph unicode="Q" glyph-name="Q" horiz-adv-x="704" d="M462 -172Q394 -172 356 -154T302 -98T286 -6Q161 9 96 88T31 319Q31 498 113 576T352 654Q509 654 591 576T673 319Q673 171 611 92T429 -4Q429 -36 440 -48T480 -61Q511 -61 543 -53V-162Q528 -166 504
-169T462 -172ZM352 127Q433 127 470 173T508 319Q508 427 471 471T352 516Q270 516 233 472T195 319Q195 220 232 174T352 127Z" />
<glyph unicode="R" glyph-name="R" horiz-adv-x="626" d="M51 0V644H373Q487 644 541 584T595 423Q595 358 562 309T472 236Q486 225 494 212T513 174L589 0H421L349 164Q340 185 326 194T286 204H212V0H51ZM212 328H331Q378 328 404 351T431 423Q431 520 338
520H212V328Z" />
<glyph unicode="S" glyph-name="S" horiz-adv-x="555" d="M256 -10Q192 -10 137 -1T41 27V164Q85 145 138 133T240 121Q300 121 329 132T359 180Q359 205 345 220T298 246T209 274Q143 294 104 318T48 378T31 464Q31 556 97 605T292 654Q348 654 401 646T487 626V488Q444
505 401 513T316 521Q262 521 229 511T195 465Q195 444 207 432T248 409T329 385Q408 364 450 335T508 267T524 180Q524 95 458 43T256 -10Z" />
<glyph unicode="T" glyph-name="T" horiz-adv-x="571" d="M200 0V520H11V644H550V520H361V0H200Z" />
<glyph unicode="U" glyph-name="U" horiz-adv-x="684" d="M342 -10Q252 -10 186 19T83 105T46 245V644H207V260Q207 193 242 160T342 127Q407 127 442 160T477 260V644H638V245Q638 162 602 105T499 19T342 -10Z" />
<glyph unicode="V" glyph-name="V" horiz-adv-x="728" d="M277 0L31 644H199L363 184L528 644H697L451 0H277Z" />
<glyph unicode="W" glyph-name="W" horiz-adv-x="883" d="M181 0L31 644H189L274 256L362 553V644H494L605 255L694 644H852L703 0H554L446 372L330 0H181Z" />
<glyph unicode="X" glyph-name="X" horiz-adv-x="727" d="M31 0L266 324L38 644H230L363 452L497 644H689L461 324L696 0H502L363 195L225 0H31Z" />
<glyph unicode="Y" glyph-name="Y" horiz-adv-x="644" d="M241 0V237L10 644H178L322 377L466 644H634L403 237V0H241Z" />
<glyph unicode="Z" glyph-name="Z" horiz-adv-x="578" d="M31 0V82L333 516H46V644H544V554L245 124H550V0H31Z" />
<glyph unicode="[" glyph-name="bracketleft" horiz-adv-x="367" d="M31 -99V706H340L345 582H192V25H346L341 -99H31Z" />
<glyph unicode="\" glyph-name="backslash" horiz-adv-x="482" d="M284 -54L31 662H199L451 -54H284Z" />
<glyph unicode="]" glyph-name="bracketright" horiz-adv-x="367" d="M26 -99L21 25H175V582H22L27 706H336V-99H26Z" />
<glyph unicode="^" glyph-name="asciicircum" horiz-adv-x="510" d="M31 377L195 624H307L478 377H329L254 507L181 377H31Z" />
<glyph unicode="_" glyph-name="underscore" horiz-adv-x="525" d="M31 -125V0H494V-125H31Z" />
<glyph unicode="`" glyph-name="grave" horiz-adv-x="280" d="M124 522L32 718H163L247 522H124Z" />
<glyph unicode="a" glyph-name="a" horiz-adv-x="561" d="M199 -10Q154 -10 116 6T54 55T31 139Q31 212 80 253T229 295H361V306Q361 342 337 357T247 373Q166 373 88 348V452Q123 466 173 475T280 484Q390 484 452 439T515 296V0H374L366 40Q340 16 300 3T199
-10ZM250 89Q288 89 316 102T361 135V202H247Q176 202 176 145Q176 119 194 104T250 89Z" />
<glyph unicode="b" glyph-name="b" horiz-adv-x="598" d="M348 -10Q300 -10 264 2T199 40L191 0H51V674H212V452Q239 468 273 476T343 484Q447 484 507 427T567 241Q567 113 508 52T348 -10ZM302 107Q356 107 379 139T403 240Q403 310 379 338T302 366Q245 366
212 336V143Q248 107 302 107Z" />
<glyph unicode="c" glyph-name="c" horiz-adv-x="501" d="M301 -10Q174 -10 103 52T31 237Q31 362 105 423T304 484Q356 484 394 477T469 452V338Q413 365 338 365Q268 365 232 337T195 237Q195 170 229 140T337 109Q410 109 470 139V20Q434 4 393 -3T301 -10Z" />
<glyph unicode="d" glyph-name="d" horiz-adv-x="598" d="M250 -10Q181 -10 132 12T57 84T31 220Q31 306 61 364T143 453T264 484Q301 484 330 476T386 452V674H547V0H408L399 40Q370 15 334 3T250 -10ZM296 107Q349 107 386 143V335Q352 366 299 366Q248 366
222 328T195 219Q195 151 220 129T296 107Z" />
<glyph unicode="e" glyph-name="e" horiz-adv-x="547" d="M305 -10Q181 -10 106 51T31 237Q31 350 93 417T279 484Q392 484 454 426T516 270V185H180Q191 138 231 120T342 101Q381 101 421 108T489 126V21Q455 5 408 -2T305 -10ZM180 278H376V299Q376 334 355
354T284 375Q226 375 203 352T180 278Z" />
<glyph unicode="f" glyph-name="f" horiz-adv-x="375" d="M73 0V352H10V474H73V513Q73 590 117 640T248 690Q284 690 312 685T365 669V561Q350 566 336 569T305 572Q266 572 250 558T234 510V474H351L344 352H234V0H73Z" />
<glyph unicode="g" glyph-name="g" horiz-adv-x="563" d="M255 -176Q220 -176 181 -173T107 -164T47 -150V-40Q87 -53 143 -60T246 -67Q307 -67 337 -61T368 -38Q368 -24 356 -19T309 -14H178Q114 -14 79 9T43 76Q43 106 61 133T116 173Q75 194 54 226T33 307Q33
399 92 441T267 484Q291 484 320 481T364 474H546L542 374H473Q498 349 498 300Q498 231 454 189T319 147Q304 147 290 148T261 151Q235 148 217 140T198 117Q198 105 207 101T236 97H357Q430 97 470 64T511 -34Q511 -176 255 -176ZM268 236Q321 236 341 254T361
314Q361 356 341 375T268 394Q219 394 198 376T176 314Q176 274 196 255T268 236Z" />
<glyph unicode="h" glyph-name="h" horiz-adv-x="595" d="M51 0V674H212V439Q239 459 279 471T365 484Q460 484 504 439T549 301V0H388V290Q388 331 371 348T310 365Q284 365 257 353T212 323V0H51Z" />
<glyph unicode="i" glyph-name="i" horiz-adv-x="309" d="M83 549V670H258V549H83ZM96 0V355H26L40 474H257V0H96Z" />
<glyph unicode="j" glyph-name="j" horiz-adv-x="338" d="M112 549V670H287V549H112ZM114 -234Q43 -234 -4 -214V-105Q26 -115 56 -115Q126 -115 126 -55V355H56L70 474H287V-69Q287 -142 245 -188T114 -234Z" />
<glyph unicode="k" glyph-name="k" horiz-adv-x="581" d="M51 0V674H212V322L367 474H550L360 277L561 0H390L259 192L212 146V0H51Z" />
<glyph unicode="l" glyph-name="l" horiz-adv-x="308" d="M197 -10Q119 -10 85 24T51 133V674H212V149Q212 126 221 118T250 109Q277 109 298 116V7Q275 -2 253 -6T197 -10Z" />
<glyph unicode="m" glyph-name="m" horiz-adv-x="859" d="M51 0V474H200L205 432Q237 455 277 469T363 484Q411 484 438 470T480 429Q513 453 554 468T652 484Q735 484 774 441T813 310V0H654V291Q654 330 638 347T584 365Q561 365 539 356T502 329Q504 318 504
308T505 284V0H355V293Q355 329 343 347T295 365Q270 365 248 352T208 322V0H51Z" />
<glyph unicode="n" glyph-name="n" horiz-adv-x="595" d="M51 0V474H201L206 433Q235 453 279 468T373 484Q465 484 507 440T549 304V0H388V291Q388 331 371 348T310 365Q284 365 257 353T212 323V0H51Z" />
<glyph unicode="o" glyph-name="o" horiz-adv-x="597" d="M298 -10Q161 -10 96 53T31 237Q31 356 96 420T298 484Q435 484 500 420T566 237Q566 117 501 54T298 -10ZM298 116Q354 116 378 144T402 237Q402 302 378 330T298 358Q243 358 219 330T195 237Q195 172
219 144T298 116Z" />
<glyph unicode="p" glyph-name="p" horiz-adv-x="598" d="M51 -216V474H191L199 433Q228 457 264 470T348 484Q449 484 508 430T567 247Q567 120 507 55T340 -10Q265 -10 212 21V-216H51ZM299 108Q403 108 403 250Q403 318 379 342T302 366Q251 366 212 330V138Q231
124 250 116T299 108Z" />
<glyph unicode="q" glyph-name="q" horiz-adv-x="599" d="M535 -242Q459 -242 423 -206T386 -94V21Q333 -10 258 -10Q153 -10 92 44T31 225Q31 311 61 368T141 455T252 484Q300 484 334 471T399 433L408 474H547V-77Q547 -103 557 -113T592 -124Q614 -124 635
-116V-225Q613 -234 592 -238T535 -242ZM298 108Q327 108 347 116T386 138V330Q367 348 346 357T298 366Q195 366 195 228Q195 158 221 133T298 108Z" />
<glyph unicode="r" glyph-name="r" horiz-adv-x="388" d="M51 0V474H204L209 430Q240 449 286 464T378 484V363Q352 360 321 354T261 338T212 319V0H51Z" />
<glyph unicode="s" glyph-name="s" horiz-adv-x="479" d="M227 -10Q170 -10 119 -2T38 18V141Q73 126 119 118T201 110Q244 110 263 114T283 136Q283 156 251 166T163 195Q98 218 65 248T31 339Q31 409 83 446T251 484Q296 484 340 477T412 461V340Q384 353 348
359T283 365Q246 365 221 361T195 339Q195 320 223 313T304 288Q360 271 391 252T435 205T448 137Q448 66 392 28T227 -10Z" />
<glyph unicode="t" glyph-name="t" horiz-adv-x="374" d="M246 -10Q158 -10 117 35T75 159V352H11V474H75V573L236 616V474H351L344 352H236V170Q236 136 253 123T304 109Q333 109 363 119V10Q316 -10 246 -10Z" />
<glyph unicode="u" glyph-name="u" horiz-adv-x="585" d="M214 -10Q130 -10 83 37T36 176V474H197V185Q197 145 216 127T275 108Q304 108 330 120T373 150V474H534V0H384L379 40Q350 18 309 4T214 -10Z" />
<glyph unicode="v" glyph-name="v" horiz-adv-x="607" d="M218 0L31 474H199L303 166L408 474H576L389 0H218Z" />
<glyph unicode="w" glyph-name="w" horiz-adv-x="770" d="M156 0L31 474H189L253 202L320 409V474H441L519 202L581 474H739L614 0H468L387 246L304 0H156Z" />
<glyph unicode="x" glyph-name="x" horiz-adv-x="592" d="M26 0L208 241L33 474H208L296 355L384 474H559L384 241L566 0H390L296 125L202 0H26Z" />
<glyph unicode="y" glyph-name="y" horiz-adv-x="627" d="M192 -176Q156 -176 131 -173T80 -159V-47Q97 -53 111 -55T141 -57Q182 -57 202 -43T244 9L31 474H200L325 173L448 474H616L435 39Q408 -26 375 -74T298 -149T192 -176Z" />
<glyph unicode="z" glyph-name="z" horiz-adv-x="492" d="M31 0V86L250 346H39V474H454V380L240 124H461V0H31Z" />
<glyph unicode="{" glyph-name="braceleft" horiz-adv-x="320" d="M199 -104Q126 -104 98 -73T70 23V170Q70 208 57 227T11 251V345Q48 350 59 372T70 440V573Q70 638 98 669T199 701H298V577H273Q248 577 240 566T231 528V392Q231 361 219 337T180 298Q206 284
218 260T231 204V68Q231 43 239 32T273 20H298V-104H199Z" />
<glyph unicode="|" glyph-name="bar" horiz-adv-x="224" d="M31 -120V735H192V-120H31Z" />
<glyph unicode="}" glyph-name="braceright" horiz-adv-x="320" d="M21 -104V20H46Q71 20 79 31T88 68V204Q88 235 101 259T139 298Q114 312 101 336T88 392V528Q88 554 80 565T46 577H21V701H120Q193 701 221 670T249 573V440Q249 395 260 373T308 345V251Q275
247 262 228T249 170V23Q249 -42 221 -73T120 -104H21Z" />
<glyph unicode="~" glyph-name="asciitilde" horiz-adv-x="542" d="M392 197Q359 197 330 207T271 230T212 254T150 264Q112 264 84 251T31 206V356Q48 379 80 393T150 407Q184 407 214 397T274 374T332 350T392 340Q430 340 458 353T510 397V247Q493 223 462
210T392 197Z" />
<glyph unicode="&#xa0;" glyph-name="uni00A0" horiz-adv-x="215" />
<glyph unicode="&#xa1;" glyph-name="exclamdown" horiz-adv-x="231" d="M31 358V474H200V358H31ZM35 -170V-1L41 298H190L196 -1V-170H35Z" />
<glyph unicode="&#xa2;" glyph-name="cent" horiz-adv-x="501" d="M256 -86V-8Q150 2 94 64T37 237Q37 350 96 410T256 481V560H355V482Q385 479 409 472T459 454V357Q438 367 412 374T355 382V92Q383 94 409 100T460 119V19Q415 -1 355 -7V-86H256ZM256 100V374Q216
361 195 329T174 237Q174 181 193 148T256 100Z" />
<glyph unicode="&#xa3;" glyph-name="sterling" horiz-adv-x="489" d="M31 0V121H54Q78 121 90 135T102 173V276H38V398H102V474Q102 555 152 604T287 654Q328 654 359 648T416 630V523Q402 530 381 533T340 536Q263 536 263 467V398H414L407 276H263V182Q263
160 259 146T241 121H458V0H31Z" />
<glyph unicode="&#xa4;" glyph-name="currency" horiz-adv-x="570" d="M102 41L31 128L109 185Q88 223 88 269Q88 315 109 351L32 410L102 496L183 431Q204 445 229 453T284 461Q343 461 386 430L469 495L539 410L460 351Q482 313 482 269Q482 247 476 226T460
186L538 126L469 42L386 105Q342 75 285 75Q228 75 184 105L102 41ZM284 188Q318 188 341 211T365 269Q365 303 342 326T284 350Q250 350 228 327T205 269Q205 235 227 212T284 188Z" />
<glyph unicode="&#xa5;" glyph-name="yen" horiz-adv-x="686" d="M262 0V75H123V167H262V215H123V307H222L31 644H199L343 377L487 644H655L463 307H563V215H424V167H563V75H424V0H262Z" />
<glyph unicode="&#xa6;" glyph-name="brokenbar" horiz-adv-x="224" d="M31 393V735H192V393H31ZM31 -120V221H192V-120H31Z" />
<glyph unicode="&#xa7;" glyph-name="section" horiz-adv-x="555" d="M256 -10Q192 -10 137 -1T41 27V162Q85 143 138 131T240 118Q296 118 327 130T358 180Q358 217 320 234T209 273Q110 304 71 343T31 445Q31 466 37 484T52 516Q43 530 38 548T32 589Q32 673
96 719T292 765Q325 765 362 761T432 750T487 737V602Q400 635 312 635Q290 635 263 632T215 617T195 577Q195 546 225 530T329 495Q409 475 451 451T508 397T524 323Q524 305 518 282T503 246Q512 232 518 214T524 175Q524 84 456 37T256 -10ZM399 308Q403 317
403 327Q403 349 372 367T276 402Q242 411 212 423T168 449Q165 443 165 431Q165 407 196 392T286 361Q324 351 356 337T399 308Z" />
<glyph unicode="&#xa8;" glyph-name="dieresis" horiz-adv-x="391" d="M236 552V666H360V552H236ZM31 552V666H154V552H31Z" />
<glyph unicode="&#xa9;" glyph-name="copyright" horiz-adv-x="726" d="M363 -10Q294 -10 234 16T129 87T57 193T31 322Q31 391 57 451T128 556T234 628T363 654Q432 654 492 628T597 557T669 451T695 322Q695 253 669 193T598 88T492 16T363 -10ZM363 75Q432
75 486 107T573 194T605 322Q605 394 573 449T487 536T363 568Q295 568 240 537T153 450T121 322Q121 250 153 195T240 107T363 75ZM364 116Q273 116 218 171T163 322Q163 389 190 434T263 504T367 528Q409 528 439 518T495 491V415Q448 442 394 442Q361 442 333
431T287 393T269 322Q269 254 303 228T390 201Q450 201 496 232V152Q440 116 364 116Z" />
<glyph unicode="&#xaa;" glyph-name="ordfeminine" horiz-adv-x="336" d="M124 380Q86 380 59 399T31 462Q31 551 140 551H213V555Q213 573 200 580T152 588Q108 588 64 574V636Q84 644 113 649T172 654Q232 654 268 629T305 549V386H222L217 407Q200 394 178
387T124 380ZM156 438Q173 438 188 444T213 465V496H162Q140 496 129 490T118 466Q118 450 128 444T156 438Z" />
<glyph unicode="&#xab;" glyph-name="guillemotleft" horiz-adv-x="657" d="M564 58L298 254V315L564 511L626 421L441 284L626 147L564 58ZM297 58L31 254V315L297 511L358 421L174 284L358 147L297 58Z" />
<glyph unicode="&#xac;" glyph-name="logicalnot" horiz-adv-x="510" d="M353 127V254H31V378H478V127H353Z" />
<glyph unicode="&#xad;" glyph-name="uni00AD" horiz-adv-x="457" d="M31 215V340H426V215H31Z" />
<glyph unicode="&#xae;" glyph-name="registered" horiz-adv-x="726" d="M363 -10Q294 -10 234 16T129 87T57 193T31 322Q31 391 57 451T128 556T234 628T363 654Q432 654 492 628T597 557T669 451T695 322Q695 253 669 193T598 88T492 16T363 -10ZM363 75Q432
75 486 107T573 194T605 322Q605 394 573 449T487 536T363 568Q295 568 240 537T153 450T121 322Q121 250 153 195T240 107T363 75ZM220 138V508H407Q471 508 502 474T533 385Q533 299 457 274Q465 267 470 259T480 238L519 138H433L396 240Q392 253 383 257T354
261H308V138H220ZM308 328H363Q400 328 422 337T445 385Q445 417 429 429T381 441H308V328Z" />
<glyph unicode="&#xaf;" glyph-name="overscore" horiz-adv-x="360" d="M21 559V656H339V559H21Z" />
<glyph unicode="&#xb0;" glyph-name="degree" horiz-adv-x="306" d="M152 492Q103 492 67 524T30 612Q30 668 66 700T152 732Q203 732 239 700T276 612Q276 557 240 525T152 492ZM152 570Q170 570 182 582T195 612Q195 629 183 641T152 653Q135 653 123 641T110
612Q110 594 122 582T152 570Z" />
<glyph unicode="&#xb1;" glyph-name="plusminus" horiz-adv-x="462" d="M168 164V291H33V415H168V544H294V415H429V291H294V164H168ZM33 0V124H429V0H33Z" />
<glyph unicode="&#xb2;" glyph-name="uni00B2" horiz-adv-x="304" d="M31 370V418Q46 440 62 453T100 484Q132 509 143 519T155 543Q155 571 108 571Q92 571 73 567T37 555V635Q54 642 86 648T150 654Q209 654 240 630T271 568Q271 541 261 524T227 484Q214 473
206 467T187 450H273V370H31Z" />
<glyph unicode="&#xb3;" glyph-name="uni00B3" horiz-adv-x="308" d="M138 362Q123 362 102 364T61 369T31 376V445Q49 437 69 434T108 430Q137 430 149 435T162 454Q162 479 116 479H72L77 538H114Q156 538 156 564Q156 575 143 579T107 584Q67 584 35 569V639Q51
644 80 649T138 654Q209 654 240 630T271 571Q271 551 263 535T238 508Q277 495 277 449Q277 362 138 362Z" />
<glyph unicode="&#xb4;" glyph-name="acute" horiz-adv-x="280" d="M32 522L116 718H247L155 522H32Z" />
<glyph unicode="&#xb5;" glyph-name="uni00B5" horiz-adv-x="600" d="M51 -143V474H212V185Q212 145 231 127T290 108Q319 108 345 120T388 150V474H549V0H399L394 40Q369 18 334 4T252 -10Q230 -10 212 -3V-143H51Z" />
<glyph unicode="&#xb6;" glyph-name="paragraph" horiz-adv-x="652" d="M263 -77V253Q198 253 146 275T62 346T31 477Q31 559 64 610T156 686T287 710H631V-77H479V586H414V-77H263Z" />
<glyph unicode="&#xb7;" glyph-name="middot" horiz-adv-x="191" d="M31 227V345H160V227H31Z" />
<glyph unicode="&#xb8;" glyph-name="cedilla" horiz-adv-x="283" d="M105 -240Q87 -240 62 -238T26 -232V-161Q55 -169 86 -169Q127 -169 144 -163T162 -134Q162 -111 144 -106T96 -100H43L72 0H167L152 -43Q208 -43 234 -68T261 -136Q261 -185 223 -212T105 -240Z" />
<glyph unicode="&#xb9;" glyph-name="uni00B9" horiz-adv-x="208" d="M83 370V546L20 534V619L197 654V370H83Z" />
<glyph unicode="&#xba;" glyph-name="ordmasculine" horiz-adv-x="360" d="M179 380Q31 380 31 517Q31 654 179 654Q329 654 329 517Q329 380 179 380ZM179 449Q208 449 220 465T233 517Q233 552 221 568T179 584Q151 584 139 568T126 517Q126 482 138 466T179 449Z" />
<glyph unicode="&#xbb;" glyph-name="guillemotright" horiz-adv-x="657" d="M360 58L298 147L483 284L298 421L360 511L626 315V254L360 58ZM92 58L31 147L215 284L31 421L92 511L358 315V254L92 58Z" />
<glyph unicode="&#xbc;" glyph-name="onequarter" horiz-adv-x="669" d="M94 370V546L31 534V619L208 654V370H94ZM84 0L421 644H574L236 0H84ZM499 0V46H365V116L498 284H608V120H638V46H608V0H499ZM464 120H526V201L464 120Z" />
<glyph unicode="&#xbd;" glyph-name="onehalf" horiz-adv-x="684" d="M94 370V546L31 534V619L208 654V370H94ZM84 0L421 644H574L236 0H84ZM400 0V48Q416 70 432 83T469 114Q501 139 513 149T525 173Q525 201 478 201Q461 201 442 197T406 185V265Q424 272 456
278T520 284Q579 284 609 260T640 198Q640 171 630 154T596 114Q583 103 576 97T557 80H642V0H400Z" />
<glyph unicode="&#xbe;" glyph-name="threequarters" horiz-adv-x="685" d="M138 362Q123 362 102 364T61 369T31 376V445Q49 437 69 434T108 430Q137 430 149 435T162 454Q162 479 116 479H72L77 538H114Q156 538 156 564Q156 575 143 579T107 584Q67 584 35
569V639Q51 644 80 649T138 654Q209 654 240 630T271 571Q271 551 263 535T238 508Q277 495 277 449Q277 362 138 362ZM100 0L437 644H590L252 0H100ZM504 0V46H370V116L503 284H613V120H643V46H613V0H504ZM469 120H531V201L469 120Z" />
<glyph unicode="&#xbf;" glyph-name="questiondown" horiz-adv-x="498" d="M202 358V474H371V358H202ZM269 -180Q153 -180 92 -130T31 9Q31 65 54 99T121 170Q158 201 183 224T208 284V297H364V278Q364 238 348 211T303 158Q277 134 252 116T211 78T195 30Q195
-9 222 -25T314 -42Q356 -42 397 -32T467 -5V-140Q430 -158 380 -169T269 -180Z" />
<glyph unicode="&#xc0;" glyph-name="Agrave" horiz-adv-x="728" d="M300 688L207 884H339L423 688H300ZM31 0L277 644H451L697 0H529L471 146H256L199 0H31ZM278 265H449L363 489L278 265Z" />
<glyph unicode="&#xc1;" glyph-name="Aacute" horiz-adv-x="728" d="M297 688L381 884H513L421 688H297ZM31 0L277 644H451L697 0H529L471 146H256L199 0H31ZM278 265H449L363 489L278 265Z" />
<glyph unicode="&#xc2;" glyph-name="Acircumflex" horiz-adv-x="728" d="M168 687L313 874H413L558 687H438L363 791L291 687H168ZM31 0L277 644H451L697 0H529L471 146H256L199 0H31ZM278 265H449L363 489L278 265Z" />
<glyph unicode="&#xc3;" glyph-name="Atilde" horiz-adv-x="728" d="M454 690Q423 690 394 700T337 721T283 731Q254 731 231 721T189 693V800Q203 814 227 823T280 832Q312 832 340 822T395 802T451 791Q481 791 503 801T538 830V722Q528 709 506 700T454 690ZM31
0L277 644H451L697 0H529L471 146H256L199 0H31ZM278 265H449L363 489L278 265Z" />
<glyph unicode="&#xc4;" glyph-name="Adieresis" horiz-adv-x="728" d="M201 713V822H319V713H201ZM407 713V822H525V713H407ZM31 0L277 644H451L697 0H529L471 146H256L199 0H31ZM278 265H449L363 489L278 265Z" />
<glyph unicode="&#xc5;" glyph-name="Aring" horiz-adv-x="728" d="M31 0L270 625Q232 660 232 717Q232 770 267 806T363 843Q426 843 460 807T495 717Q495 661 458 626L697 0H529L471 146H256L199 0H31ZM363 662Q391 662 406 678T421 717Q421 740 406 756T363
773Q337 773 322 757T306 717Q306 694 321 678T363 662ZM278 265H449L363 489L278 265Z" />
<glyph unicode="&#xc6;" glyph-name="AE" horiz-adv-x="854" d="M31 0L277 644H823V520H562V385H786V259H562V124H823V0H402V147H260L203 0H31ZM297 272H402V520H390L297 272Z" />
<glyph unicode="&#xc7;" glyph-name="Ccedilla" horiz-adv-x="603" d="M357 -240Q340 -240 315 -238T278 -232V-161Q307 -169 338 -169Q379 -169 396 -163T414 -134Q414 -111 396 -106T349 -100H295L322 -7Q180 7 106 91T31 317Q31 478 117 566T376 654Q435 654
481 645T571 621V480Q484 516 388 516Q288 516 242 468T195 317Q195 219 244 173T390 127Q437 127 483 135T572 162V20Q537 8 500 1T417 -9L405 -43Q461 -43 487 -68T514 -136Q514 -185 476 -212T357 -240Z" />
<glyph unicode="&#xc8;" glyph-name="Egrave" horiz-adv-x="552" d="M243 688L150 884H282L366 688H243ZM51 0V644H526V520H212V385H489V259H212V124H526V0H51Z" />
<glyph unicode="&#xc9;" glyph-name="Eacute" horiz-adv-x="552" d="M211 688L295 884H427L335 688H211ZM51 0V644H526V520H212V385H489V259H212V124H526V0H51Z" />
<glyph unicode="&#xca;" glyph-name="Ecircumflex" horiz-adv-x="552" d="M93 687L238 874H338L483 687H363L288 791L216 687H93ZM51 0V644H526V520H212V385H489V259H212V124H526V0H51Z" />
<glyph unicode="&#xcb;" glyph-name="Edieresis" horiz-adv-x="552" d="M130 714V823H248V714H130ZM336 714V823H454V714H336ZM51 0V644H526V520H212V385H489V259H212V124H526V0H51Z" />
<glyph unicode="&#xcc;" glyph-name="Igrave" horiz-adv-x="263" d="M71 688L-22 884H110L194 688H71ZM51 0V644H212V0H51Z" />
<glyph unicode="&#xcd;" glyph-name="Iacute" horiz-adv-x="264" d="M67 688L151 884H283L191 688H67ZM51 0V644H212V0H51Z" />
<glyph unicode="&#xce;" glyph-name="Icircumflex" horiz-adv-x="264" d="M-64 687L81 874H181L326 687H206L131 791L59 687H-64ZM51 0V644H212V0H51Z" />
<glyph unicode="&#xcf;" glyph-name="Idieresis" horiz-adv-x="263" d="M-30 720V829H88V720H-30ZM176 720V829H294V720H176ZM51 0V644H212V0H51Z" />
<glyph unicode="&#xd0;" glyph-name="Eth" horiz-adv-x="707" d="M94 0V257H21V374H94V644H373Q471 644 538 612T640 508T675 318Q675 152 599 76T373 0H94ZM255 124H351Q403 124 438 139T492 197T511 318Q511 398 495 441T443 502T351 520H255V374H381V257H255V124Z" />
<glyph unicode="&#xd1;" glyph-name="Ntilde" horiz-adv-x="676" d="M437 698Q406 698 377 708T320 729T266 739Q237 739 214 729T172 701V808Q186 822 210 831T263 840Q295 840 323 830T378 810T434 799Q464 799 486 809T521 838V730Q511 717 489 708T437 698ZM51
0V644H189L463 259V644H625V0H486L212 384V0H51Z" />
<glyph unicode="&#xd2;" glyph-name="Ograve" horiz-adv-x="704" d="M296 688L203 884H335L419 688H296ZM352 -10Q195 -10 113 70T31 319Q31 498 113 576T352 654Q509 654 591 576T673 319Q673 150 591 70T352 -10ZM352 127Q433 127 470 173T508 319Q508 427 471
471T352 516Q270 516 233 472T195 319Q195 220 232 174T352 127Z" />
<glyph unicode="&#xd3;" glyph-name="Oacute" horiz-adv-x="704" d="M279 688L363 884H495L403 688H279ZM352 -10Q195 -10 113 70T31 319Q31 498 113 576T352 654Q509 654 591 576T673 319Q673 150 591 70T352 -10ZM352 127Q433 127 470 173T508 319Q508 427 471
471T352 516Q270 516 233 472T195 319Q195 220 232 174T352 127Z" />
<glyph unicode="&#xd4;" glyph-name="Ocircumflex" horiz-adv-x="704" d="M157 687L302 874H402L547 687H427L352 791L280 687H157ZM352 -10Q195 -10 113 70T31 319Q31 498 113 576T352 654Q509 654 591 576T673 319Q673 150 591 70T352 -10ZM352 127Q433 127
470 173T508 319Q508 427 471 471T352 516Q270 516 233 472T195 319Q195 220 232 174T352 127Z" />
<glyph unicode="&#xd5;" glyph-name="Otilde" horiz-adv-x="704" d="M443 710Q412 710 383 720T326 741T272 751Q243 751 220 741T178 713V820Q192 834 216 843T269 852Q301 852 329 842T384 822T440 811Q470 811 492 821T527 850V742Q517 729 495 720T443 710ZM352
-10Q195 -10 113 70T31 319Q31 498 113 576T352 654Q509 654 591 576T673 319Q673 150 591 70T352 -10ZM352 127Q433 127 470 173T508 319Q508 427 471 471T352 516Q270 516 233 472T195 319Q195 220 232 174T352 127Z" />
<glyph unicode="&#xd6;" glyph-name="Odieresis" horiz-adv-x="704" d="M190 714V823H308V714H190ZM396 714V823H514V714H396ZM352 -10Q195 -10 113 70T31 319Q31 498 113 576T352 654Q509 654 591 576T673 319Q673 150 591 70T352 -10ZM352 127Q433 127 470 173T508
319Q508 427 471 471T352 516Q270 516 233 472T195 319Q195 220 232 174T352 127Z" />
<glyph unicode="&#xd7;" glyph-name="multiply" horiz-adv-x="422" d="M313 70L212 171L114 75L34 154L132 251L31 352L110 431L209 329L311 430L390 351L289 249L390 148L313 70Z" />
<glyph unicode="&#xd8;" glyph-name="Oslash" horiz-adv-x="704" d="M156 -53L184 21Q108 55 70 128T31 319Q31 498 113 576T352 654Q372 654 391 653T428 649L445 693H534L509 628Q589 597 631 522T673 319Q673 150 591 70T352 -10Q328 -10 306 -8T264 -3L245
-53H156ZM240 165L376 515Q370 515 364 515T352 516Q270 516 233 472T195 319Q195 210 240 165ZM352 127Q433 127 470 173T508 319Q508 445 454 487L316 129Q324 128 333 128T352 127Z" />
<glyph unicode="&#xd9;" glyph-name="Ugrave" horiz-adv-x="684" d="M289 688L196 884H328L412 688H289ZM342 -10Q252 -10 186 19T83 105T46 245V644H207V260Q207 193 242 160T342 127Q407 127 442 160T477 260V644H638V245Q638 162 602 105T499 19T342 -10Z" />
<glyph unicode="&#xda;" glyph-name="Uacute" horiz-adv-x="684" d="M277 688L361 884H493L401 688H277ZM342 -10Q252 -10 186 19T83 105T46 245V644H207V260Q207 193 242 160T342 127Q407 127 442 160T477 260V644H638V245Q638 162 602 105T499 19T342 -10Z" />
<glyph unicode="&#xdb;" glyph-name="Ucircumflex" horiz-adv-x="684" d="M147 687L292 874H392L537 687H417L342 791L270 687H147ZM342 -10Q252 -10 186 19T83 105T46 245V644H207V260Q207 193 242 160T342 127Q407 127 442 160T477 260V644H638V245Q638 162
602 105T499 19T342 -10Z" />
<glyph unicode="&#xdc;" glyph-name="Udieresis" horiz-adv-x="684" d="M180 714V823H298V714H180ZM386 714V823H504V714H386ZM342 -10Q252 -10 186 19T83 105T46 245V644H207V260Q207 193 242 160T342 127Q407 127 442 160T477 260V644H638V245Q638 162 602 105T499
19T342 -10Z" />
<glyph unicode="&#xdd;" glyph-name="Yacute" horiz-adv-x="686" d="M275 688L359 884H491L399 688H275ZM262 0V237L31 644H199L343 377L487 644H655L424 237V0H262Z" />
<glyph unicode="&#xde;" glyph-name="Thorn" horiz-adv-x="606" d="M51 0V644H212V547H368Q445 547 495 518T569 437T594 320Q594 254 566 203T487 124T364 95H212V0H51ZM212 219H328Q379 219 404 246T430 320Q430 370 407 396T333 423H212V219Z" />
<glyph unicode="&#xdf;" glyph-name="germandbls" horiz-adv-x="640" d="M396 -10Q314 -10 256 12V141Q277 132 304 127T359 122Q399 122 422 141T445 198Q445 242 422 260T349 278H281V395H342Q386 395 404 416T422 480Q422 503 414 521T383 551T319 562Q263
562 235 534T207 442V0H46V448Q46 525 79 581T173 669T316 700Q406 700 466 669T556 589T586 483Q586 431 566 394T514 338Q558 322 583 284T609 189Q609 96 554 43T396 -10Z" />
<glyph unicode="&#xe0;" glyph-name="agrave" horiz-adv-x="561" d="M234 522L141 718H273L357 522H234ZM199 -10Q154 -10 116 6T54 55T31 139Q31 212 80 253T229 295H361V306Q361 342 337 357T247 373Q166 373 88 348V452Q123 466 173 475T280 484Q390 484 452
439T515 296V0H374L366 40Q340 16 300 3T199 -10ZM250 89Q288 89 316 102T361 135V202H247Q176 202 176 145Q176 119 194 104T250 89Z" />
<glyph unicode="&#xe1;" glyph-name="aacute" horiz-adv-x="561" d="M221 522L305 718H437L345 522H221ZM199 -10Q154 -10 116 6T54 55T31 139Q31 212 80 253T229 295H361V306Q361 342 337 357T247 373Q166 373 88 348V452Q123 466 173 475T280 484Q390 484 452
439T515 296V0H374L366 40Q340 16 300 3T199 -10ZM250 89Q288 89 316 102T361 135V202H247Q176 202 176 145Q176 119 194 104T250 89Z" />
<glyph unicode="&#xe2;" glyph-name="acircumflex" horiz-adv-x="561" d="M98 521L243 708H343L488 521H368L293 625L221 521H98ZM199 -10Q154 -10 116 6T54 55T31 139Q31 212 80 253T229 295H361V306Q361 342 337 357T247 373Q166 373 88 348V452Q123 466 173
475T280 484Q390 484 452 439T515 296V0H374L366 40Q340 16 300 3T199 -10ZM250 89Q288 89 316 102T361 135V202H247Q176 202 176 145Q176 119 194 104T250 89Z" />
<glyph unicode="&#xe3;" glyph-name="atilde" horiz-adv-x="561" d="M390 532Q359 532 330 542T273 563T219 573Q190 573 167 563T125 535V642Q139 656 163 665T216 674Q248 674 276 664T331 644T387 633Q417 633 439 643T474 672V564Q464 551 442 542T390 532ZM199
-10Q154 -10 116 6T54 55T31 139Q31 212 80 253T229 295H361V306Q361 342 337 357T247 373Q166 373 88 348V452Q123 466 173 475T280 484Q390 484 452 439T515 296V0H374L366 40Q340 16 300 3T199 -10ZM250 89Q288 89 316 102T361 135V202H247Q176 202 176 145Q176
119 194 104T250 89Z" />
<glyph unicode="&#xe4;" glyph-name="adieresis" horiz-adv-x="561" d="M137 548V657H255V548H137ZM343 548V657H461V548H343ZM199 -10Q154 -10 116 6T54 55T31 139Q31 212 80 253T229 295H361V306Q361 342 337 357T247 373Q166 373 88 348V452Q123 466 173 475T280
484Q390 484 452 439T515 296V0H374L366 40Q340 16 300 3T199 -10ZM250 89Q288 89 316 102T361 135V202H247Q176 202 176 145Q176 119 194 104T250 89Z" />
<glyph unicode="&#xe5;" glyph-name="aring" horiz-adv-x="561" d="M300 521Q239 521 204 557T169 646Q169 699 204 735T300 772Q363 772 397 736T432 646Q432 594 398 558T300 521ZM300 591Q328 591 343 607T358 646Q358 669 343 685T300 702Q274 702 259 686T243
646Q243 623 258 607T300 591ZM199 -10Q154 -10 116 6T54 55T31 139Q31 212 80 253T229 295H361V306Q361 342 337 357T247 373Q166 373 88 348V452Q123 466 173 475T280 484Q390 484 452 439T515 296V0H374L366 40Q340 16 300 3T199 -10ZM250 89Q288 89 316 102T361
135V202H247Q176 202 176 145Q176 119 194 104T250 89Z" />
<glyph unicode="&#xe6;" glyph-name="ae" horiz-adv-x="882" d="M212 -10Q161 -10 120 6T55 55T31 139Q31 212 80 253T229 295H361V306Q361 342 337 357T247 373Q166 373 88 348V452Q123 466 173 475T280 484Q388 484 447 438Q508 484 614 484Q727 484 789 426T851
270V185H515Q526 138 566 119T677 99Q716 99 756 106T824 124V21Q790 5 743 -2T640 -10Q583 -10 531 9T447 63Q420 42 389 26T316 0T212 -10ZM515 278H711V299Q711 334 690 354T619 375Q561 375 538 352T515 278ZM250 89Q288 89 315 100T361 131V202H247Q176 202
176 145Q176 119 194 104T250 89Z" />
<glyph unicode="&#xe7;" glyph-name="ccedilla" horiz-adv-x="501" d="M274 -240Q257 -240 232 -238T195 -232V-161Q224 -169 255 -169Q296 -169 313 -163T331 -134Q331 -111 313 -106T266 -100H212L239 -6Q140 8 86 69T31 237Q31 362 105 423T304 484Q356 484
394 477T469 452V338Q413 365 338 365Q268 365 232 337T195 237Q195 170 229 140T337 109Q410 109 470 139V20Q412 -5 334 -9L322 -43Q378 -43 404 -68T431 -136Q431 -185 393 -212T274 -240Z" />
<glyph unicode="&#xe8;" glyph-name="egrave" horiz-adv-x="547" d="M220 522L127 718H259L343 522H220ZM305 -10Q181 -10 106 51T31 237Q31 350 93 417T279 484Q392 484 454 426T516 270V185H180Q191 138 231 120T342 101Q381 101 421 108T489 126V21Q455 5 408
-2T305 -10ZM180 278H376V299Q376 334 355 354T284 375Q226 375 203 352T180 278Z" />
<glyph unicode="&#xe9;" glyph-name="eacute" horiz-adv-x="547" d="M220 522L304 718H436L344 522H220ZM305 -10Q181 -10 106 51T31 237Q31 350 93 417T279 484Q392 484 454 426T516 270V185H180Q191 138 231 120T342 101Q381 101 421 108T489 126V21Q455 5 408
-2T305 -10ZM180 278H376V299Q376 334 355 354T284 375Q226 375 203 352T180 278Z" />
<glyph unicode="&#xea;" glyph-name="ecircumflex" horiz-adv-x="547" d="M86 521L231 708H331L476 521H356L281 625L209 521H86ZM305 -10Q181 -10 106 51T31 237Q31 350 93 417T279 484Q392 484 454 426T516 270V185H180Q191 138 231 120T342 101Q381 101 421
108T489 126V21Q455 5 408 -2T305 -10ZM180 278H376V299Q376 334 355 354T284 375Q226 375 203 352T180 278Z" />
<glyph unicode="&#xeb;" glyph-name="edieresis" horiz-adv-x="547" d="M119 548V657H237V548H119ZM325 548V657H443V548H325ZM305 -10Q181 -10 106 51T31 237Q31 350 93 417T279 484Q392 484 454 426T516 270V185H180Q191 138 231 120T342 101Q381 101 421 108T489
126V21Q455 5 408 -2T305 -10ZM180 278H376V299Q376 334 355 354T284 375Q226 375 203 352T180 278Z" />
<glyph unicode="&#xec;" glyph-name="igrave" horiz-adv-x="334" d="M134 522L41 718H173L257 522H134ZM121 0V355H51L65 474H282V0H121Z" />
<glyph unicode="&#xed;" glyph-name="iacute" horiz-adv-x="334" d="M120 522L204 718H336L244 522H120ZM121 0V355H51L65 474H282V0H121Z" />
<glyph unicode="&#xee;" glyph-name="icircumflex" horiz-adv-x="334" d="M-22 521L123 708H223L368 521H248L173 625L101 521H-22ZM121 0V355H51L65 474H282V0H121Z" />
<glyph unicode="&#xef;" glyph-name="idieresis" horiz-adv-x="334" d="M8 548V657H126V548H8ZM214 548V657H332V548H214ZM121 0V355H51L65 474H282V0H121Z" />
<glyph unicode="&#xf0;" glyph-name="eth" horiz-adv-x="572" d="M290 -10Q153 -10 92 46T31 200Q31 303 90 353T258 404Q299 404 337 393T401 364V393Q401 422 397 446T384 489L271 440V499L346 531Q314 551 262 551Q221 551 186 544T117 522V627Q189 654 288
654Q352 654 399 637T478 588L565 626V567L512 544Q533 509 542 465T552 370V247Q552 -10 290 -10ZM289 96Q345 96 373 124T401 212V268Q378 285 351 294T288 304Q226 304 201 277T175 200Q175 151 203 124T289 96Z" />
<glyph unicode="&#xf1;" glyph-name="ntilde" horiz-adv-x="595" d="M392 532Q361 532 332 542T275 563T221 573Q192 573 169 563T127 535V642Q141 656 165 665T218 674Q250 674 278 664T333 644T389 633Q419 633 441 643T476 672V564Q466 551 444 542T392 532ZM51
0V474H201L206 433Q235 453 279 468T373 484Q465 484 507 440T549 304V0H388V291Q388 331 371 348T310 365Q284 365 257 353T212 323V0H51Z" />
<glyph unicode="&#xf2;" glyph-name="ograve" horiz-adv-x="597" d="M238 522L145 718H277L361 522H238ZM298 -10Q161 -10 96 53T31 237Q31 356 96 420T298 484Q435 484 500 420T566 237Q566 117 501 54T298 -10ZM298 116Q354 116 378 144T402 237Q402 302 378
330T298 358Q243 358 219 330T195 237Q195 172 219 144T298 116Z" />
<glyph unicode="&#xf3;" glyph-name="oacute" horiz-adv-x="597" d="M225 522L309 718H441L349 522H225ZM298 -10Q161 -10 96 53T31 237Q31 356 96 420T298 484Q435 484 500 420T566 237Q566 117 501 54T298 -10ZM298 116Q354 116 378 144T402 237Q402 302 378
330T298 358Q243 358 219 330T195 237Q195 172 219 144T298 116Z" />
<glyph unicode="&#xf4;" glyph-name="ocircumflex" horiz-adv-x="597" d="M103 521L248 708H348L493 521H373L298 625L226 521H103ZM298 -10Q161 -10 96 53T31 237Q31 356 96 420T298 484Q435 484 500 420T566 237Q566 117 501 54T298 -10ZM298 116Q354 116 378
144T402 237Q402 302 378 330T298 358Q243 358 219 330T195 237Q195 172 219 144T298 116Z" />
<glyph unicode="&#xf5;" glyph-name="otilde" horiz-adv-x="597" d="M389 544Q358 544 329 554T272 575T218 585Q189 585 166 575T124 547V654Q138 668 162 677T215 686Q247 686 275 676T330 656T386 645Q416 645 438 655T473 684V576Q463 563 441 554T389 544ZM298
-10Q161 -10 96 53T31 237Q31 356 96 420T298 484Q435 484 500 420T566 237Q566 117 501 54T298 -10ZM298 116Q354 116 378 144T402 237Q402 302 378 330T298 358Q243 358 219 330T195 237Q195 172 219 144T298 116Z" />
<glyph unicode="&#xf6;" glyph-name="odieresis" horiz-adv-x="597" d="M136 548V657H254V548H136ZM342 548V657H460V548H342ZM298 -10Q161 -10 96 53T31 237Q31 356 96 420T298 484Q435 484 500 420T566 237Q566 117 501 54T298 -10ZM298 116Q354 116 378 144T402
237Q402 302 378 330T298 358Q243 358 219 330T195 237Q195 172 219 144T298 116Z" />
<glyph unicode="&#xf7;" glyph-name="divide" horiz-adv-x="457" d="M170 404V510H288V404H170ZM31 215V340H426V215H31ZM170 48V154H288V48H170Z" />
<glyph unicode="&#xf8;" glyph-name="oslash" horiz-adv-x="597" d="M141 -53L165 11Q97 37 64 94T31 237Q31 356 96 420T298 484Q323 484 347 481L365 528H452L427 464Q498 438 532 381T566 237Q566 117 501 54T298 -10Q270 -10 244 -7L227 -53H141ZM216 141L300
361H298Q242 361 216 332T190 237Q190 170 216 141ZM291 113H298Q354 113 380 141T407 237Q407 305 377 335L291 113Z" />
<glyph unicode="&#xf9;" glyph-name="ugrave" horiz-adv-x="595" d="M249 522L156 718H288L372 522H249ZM224 -10Q140 -10 93 37T46 176V474H207V185Q207 145 226 127T285 108Q314 108 340 120T383 150V474H544V0H394L389 40Q360 18 319 4T224 -10Z" />
<glyph unicode="&#xfa;" glyph-name="uacute" horiz-adv-x="595" d="M215 522L299 718H431L339 522H215ZM224 -10Q140 -10 93 37T46 176V474H207V185Q207 145 226 127T285 108Q314 108 340 120T383 150V474H544V0H394L389 40Q360 18 319 4T224 -10Z" />
<glyph unicode="&#xfb;" glyph-name="ucircumflex" horiz-adv-x="595" d="M99 521L244 708H344L489 521H369L294 625L222 521H99ZM224 -10Q140 -10 93 37T46 176V474H207V185Q207 145 226 127T285 108Q314 108 340 120T383 150V474H544V0H394L389 40Q360 18 319
4T224 -10Z" />
<glyph unicode="&#xfc;" glyph-name="udieresis" horiz-adv-x="595" d="M133 548V657H251V548H133ZM339 548V657H457V548H339ZM224 -10Q140 -10 93 37T46 176V474H207V185Q207 145 226 127T285 108Q314 108 340 120T383 150V474H544V0H394L389 40Q360 18 319 4T224 -10Z" />
<glyph unicode="&#xfd;" glyph-name="yacute" horiz-adv-x="627" d="M255 522L339 718H471L379 522H255ZM192 -176Q156 -176 131 -173T80 -159V-47Q97 -53 111 -55T141 -57Q182 -57 202 -43T244 9L31 474H200L325 173L448 474H616L435 39Q408 -26 375 -74T298
-149T192 -176Z" />
<glyph unicode="&#xfe;" glyph-name="thorn" horiz-adv-x="598" d="M51 -216V700H212V452Q238 468 272 476T343 484Q447 484 507 425T567 237Q567 110 507 50T340 -10Q265 -10 212 21V-216H51ZM299 108Q350 108 376 139T403 240Q403 308 379 337T302 366Q251 366
212 330V138Q231 124 250 116T299 108Z" />
<glyph unicode="&#xff;" glyph-name="ydieresis" horiz-adv-x="627" d="M164 565V674H282V565H164ZM370 565V674H488V565H370ZM192 -176Q156 -176 131 -173T80 -159V-47Q97 -53 111 -55T141 -57Q182 -57 202 -43T244 9L31 474H200L325 173L448 474H616L435 39Q408
-26 375 -74T298 -149T192 -176Z" />
<glyph unicode="&#x2013;" glyph-name="endash" horiz-adv-x="557" d="M31 215V340H526V215H31Z" />
<glyph unicode="&#x2014;" glyph-name="emdash" horiz-adv-x="820" d="M31 215V340H789V215H31Z" />
<glyph unicode="&#x2018;" glyph-name="quoteleft" horiz-adv-x="257" d="M31 436L105 654H226L167 436H31Z" />
<glyph unicode="&#x2019;" glyph-name="quoteright" horiz-adv-x="257" d="M31 436L90 654H226L152 436H31Z" />
<glyph unicode="&#x201a;" glyph-name="quotesinglbase" horiz-adv-x="257" d="M31 -185L90 33H226L152 -185H31Z" />
<glyph unicode="&#x201c;" glyph-name="quotedblleft" horiz-adv-x="412" d="M31 436L105 654H214L155 436H31ZM198 436L272 654H380L322 436H198Z" />
<glyph unicode="&#x201d;" glyph-name="quotedblright" horiz-adv-x="412" d="M31 436L90 654H214L140 436H31ZM198 436L256 654H380L306 436H198Z" />
<glyph unicode="&#x201e;" glyph-name="quotedblbase" horiz-adv-x="412" d="M31 -106L90 111H214L140 -106H31ZM198 -106L256 111H380L306 -106H198Z" />
<glyph unicode="&#x2022;" glyph-name="bullet" horiz-adv-x="325" d="M162 156Q125 156 96 173T49 220T31 287Q31 324 48 353T95 401T162 419Q199 419 228 401T276 354T294 287Q294 250 276 221T229 174T162 156Z" />
<glyph unicode="&#x2039;" glyph-name="guilsinglleft" horiz-adv-x="390" d="M297 58L31 254V315L297 511L358 421L174 284L358 147L297 58Z" />
<glyph unicode="&#x203a;" glyph-name="guilsinglright" horiz-adv-x="390" d="M92 58L31 147L215 284L31 421L92 511L358 315V254L92 58Z" />
</font>
</defs>
</svg>
