<?xml version="1.0" standalone="no"?>
<!DOCTYPE svg PUBLIC "-//W3C//DTD SVG 1.1//EN" "http://www.w3.org/Graphics/SVG/1.1/DTD/svg11.dtd">
<svg xmlns="http://www.w3.org/2000/svg">
<defs >
<font id="MPLUS1p" horiz-adv-x="912" ><font-face
    font-family="Mplus 1p Bold"
    units-per-em="1000"
    panose-1="2 11 7 2 2 2 3 2 2 7"
    ascent="1075"
    descent="-320"
    alphabetic="0" />
<glyph unicode=" " glyph-name="space" horiz-adv-x="304" />
<glyph unicode="!" glyph-name="exclam" horiz-adv-x="425" d="M129 730H296L276 220H149L129 730ZM139 0V140H286V0H139Z" />
<glyph unicode="&quot;" glyph-name="quotedbl" horiz-adv-x="478" d="M64 770H204L184 490H84L64 770ZM274 770H414L394 490H294L274 770Z" />
<glyph unicode="#" glyph-name="numbersign" horiz-adv-x="692" d="M44 172V279H154L188 471H95V578H207L234 730H360L333 578H433L460 730H587L560 578H648V471H541L507 279H597V172H488L457 0H331L361 172H261L231 0H104L135 172H44ZM414 471H314L280 279H380L414 471Z" />
<glyph unicode="$" glyph-name="dollar" horiz-adv-x="625" d="M412 599V402Q498 369 532 326T566 212Q566 120 502 69T309 15V-85H206V21Q121 35 49 73L81 180Q142 144 206 131V346Q122 379 87 424T51 532Q51 618 115 666T309 715V815H412V708Q484 697 547 673L519
566Q467 588 412 599ZM309 608Q182 607 182 532Q182 497 208 475T302 435Q303 434 305 434T309 433V608ZM309 122Q432 126 432 210Q432 249 407 271T309 313V122Z" />
<glyph unicode="%" glyph-name="percent" horiz-adv-x="901" d="M589 730H712L312 0H189L589 730ZM597 387T684 387T819 335T867 188T819 42T684 -10T549 41T501 188T549 335ZM130 740T217 740T352 689T401 542T353 395T217 343T82 395T34 542T82 688ZM621 82T684
82T747 188Q747 295 684 295T621 188Q621 82 684 82ZM217 435Q281 435 281 542Q281 648 217 648Q154 648 154 542Q154 435 217 435Z" />
<glyph unicode="&amp;" glyph-name="ampersand" horiz-adv-x="753" d="M285 306Q186 240 186 183Q186 97 306 97Q385 97 457 137L285 306ZM386 368L512 242V401H641V113L754 0H597L547 50Q419 -10 299 -10Q44 -10 44 173Q44 226 80 275T205 383L200 388Q142 444
119 486T96 573Q96 648 156 694T322 740Q433 740 490 697T547 575Q547 521 511 473T386 368ZM308 447Q375 490 395 514T416 567Q416 639 324 639Q280 639 256 620T231 570Q231 543 244 521T308 447Z" />
<glyph unicode="&apos;" glyph-name="quotesingle" horiz-adv-x="291" d="M69 770H222L202 490H89L69 770Z" />
<glyph unicode="(" glyph-name="parenleft" horiz-adv-x="426" d="M194 574T194 300T387 -170H267Q170 -80 117 42T64 300T117 558T267 770H387Q194 574 194 300Z" />
<glyph unicode=")" glyph-name="parenright" horiz-adv-x="426" d="M232 26T232 300T39 770H159Q256 680 309 558T362 300T309 42T159 -170H39Q232 26 232 300Z" />
<glyph unicode="*" glyph-name="asterisk" horiz-adv-x="536" d="M492 548L349 506L440 387L352 324L268 447L184 324L96 387L188 506L44 548L77 651L218 600L214 750H322L318 600L459 651L492 548Z" />
<glyph unicode="+" glyph-name="plus" horiz-adv-x="735" d="M424 580V343H661V237H424V0H311V237H74V343H311V580H424Z" />
<glyph unicode="," glyph-name="comma" horiz-adv-x="351" d="M121 170H287L174 -110H54L121 170Z" />
<glyph unicode="-" glyph-name="hyphen" horiz-adv-x="471" d="M74 237V343H397V237H74Z" />
<glyph unicode="." glyph-name="period" horiz-adv-x="338" d="M89 0V170H249V0H89Z" />
<glyph unicode="/" glyph-name="slash" horiz-adv-x="546" d="M502 730L156 -40H29L376 730H502Z" />
<glyph unicode="0" glyph-name="zero" horiz-adv-x="640" d="M179 740T320 740T530 651T600 365T531 79T320 -10T110 79T40 365T109 651ZM250 99T320 99T424 159T458 365T424 571T320 631T216 571T182 365T216 159Z" />
<glyph unicode="1" glyph-name="one" horiz-adv-x="640" d="M292 0V567H291L116 407L69 523L292 730H436V0H292Z" />
<glyph unicode="2" glyph-name="two" horiz-adv-x="640" d="M81 113Q218 220 291 292T390 413T415 513Q415 624 296 624Q212 624 105 555L68 667Q118 701 184 720T316 740Q433 740 496 684T560 527Q560 433 501 346T268 115V113H561V0H81V113Z" />
<glyph unicode="3" glyph-name="three" horiz-adv-x="640" d="M79 730H547V617L342 431V429H359Q451 429 504 377T557 230Q557 115 487 53T287 -10Q170 -10 74 43L110 153Q203 103 281 103Q347 103 383 135T419 228Q419 284 379 308T236 333H176V433L376 615V617H79V730Z" />
<glyph unicode="4" glyph-name="four" horiz-adv-x="640" d="M343 260V547H341L143 262V260H343ZM478 260H590V150H478V0H343V150H13V260L343 730H478V260Z" />
<glyph unicode="5" glyph-name="five" horiz-adv-x="640" d="M538 617H239L231 448H233Q283 473 343 473Q451 473 510 414T569 247Q569 -10 276 -10Q169 -10 76 33L106 146Q196 103 273 103Q431 103 431 247Q431 366 316 366Q257 366 213 325H93L113 730H538V617Z" />
<glyph unicode="6" glyph-name="six" horiz-adv-x="640" d="M449 740L474 627Q366 620 301 577T203 447L204 446Q268 493 357 493Q472 493 534 430T597 250Q597 132 522 61T323 -10Q194 -10 122 64T50 283Q50 488 157 610T449 740ZM323 97Q388 97 424 136T460
250Q460 318 424 356T323 395Q261 395 225 356T188 250Q188 175 223 136T323 97Z" />
<glyph unicode="7" glyph-name="seven" horiz-adv-x="640" d="M75 730H572V617Q406 344 298 0H150Q264 335 438 614V617H75V730Z" />
<glyph unicode="8" glyph-name="eight" horiz-adv-x="640" d="M199 740T320 740T509 690T577 557Q577 452 452 395V393Q600 337 600 200Q600 104 526 47T320 -10T114 47T40 200Q40 256 76 302T185 379V381Q127 410 95 456T63 557Q63 639 131 689ZM323 434Q445
470 445 543Q445 586 412 612T320 638Q262 638 230 612T197 543Q197 468 323 434ZM309 334Q174 293 174 207Q174 155 214 124T320 92T424 123T463 207Q463 253 430 282T309 334Z" />
<glyph unicode="9" glyph-name="nine" horiz-adv-x="640" d="M156 103Q270 110 336 153T437 283L436 284Q370 237 283 237Q168 237 106 300T43 485Q43 600 118 670T316 740Q446 740 518 666T590 452Q590 240 481 119T181 -10L156 103ZM316 633Q251 633 216 595T180
485T216 374T316 335Q378 335 415 375T452 485Q452 556 416 594T316 633Z" />
<glyph unicode=":" glyph-name="colon" horiz-adv-x="418" d="M129 383V553H289V383H129ZM129 0V170H289V0H129Z" />
<glyph unicode=";" glyph-name="semicolon" horiz-adv-x="431" d="M74 -110L141 170H307L194 -110H74ZM141 383V553H301V383H141Z" />
<glyph unicode="&lt;" glyph-name="less" horiz-adv-x="681" d="M592 460L139 291V289L592 120V3L59 217V363L592 577V460Z" />
<glyph unicode="=" glyph-name="equal" horiz-adv-x="755" d="M84 358V465H671V358H84ZM84 115V222H671V115H84Z" />
<glyph unicode="&gt;" glyph-name="greater" horiz-adv-x="681" d="M89 460V577L622 363V217L89 3V120L542 289V291L89 460Z" />
<glyph unicode="?" glyph-name="question" horiz-adv-x="628" d="M202 223Q202 264 213 297T248 357T288 398T336 436Q366 458 380 470T408 504T422 550Q422 627 296 627Q199 627 84 590L59 703Q189 740 316 740Q437 740 503 693T569 567Q569 531 560 503T530
451T493 415T447 382Q419 363 405 352T373 320T346 277T336 223H202ZM196 0V140H342V0H196Z" />
<glyph unicode="@" glyph-name="at" horiz-adv-x="818" d="M478 116H477Q430 53 357 53Q287 53 243 108T199 260Q199 360 241 413T357 467Q429 467 477 405H478V459H594V148H678Q697 198 697 260Q697 389 618 468T409 548Q282 548 202 468T121 260T201 52T409
-28Q513 -28 582 24L634 -45Q540 -115 409 -115Q250 -115 142 -10T34 260Q34 424 140 529T409 635Q573 635 678 531T784 260Q784 149 732 61H481L478 116ZM316 260Q316 206 337 177T394 147T450 175T472 256V264Q472 315 451 344T394 373Q357 373 337 345T316 260Z"
/>
<glyph unicode="A" glyph-name="A" horiz-adv-x="715" d="M29 0L282 730H432L686 0H536L484 176H227L174 0H29ZM258 283H452L356 607H354L258 283Z" />
<glyph unicode="B" glyph-name="B" horiz-adv-x="620" d="M217 436H254Q347 436 388 461T430 537Q430 585 397 608T286 631Q248 631 217 625V436ZM217 332V105Q252 99 292 99Q375 99 413 129T452 223Q452 279 408 305T261 332H217ZM586 210Q586 100 514 45T289
-10Q178 -10 79 5V725Q173 740 279 740Q559 740 559 557Q559 495 518 451T409 393V391Q491 380 538 331T586 210Z" />
<glyph unicode="C" glyph-name="C" horiz-adv-x="703" d="M424 627Q311 627 244 557T177 365Q177 245 246 174T424 103Q515 103 602 158L644 55Q543 -10 411 -10Q240 -10 137 91T34 365Q34 538 135 639T411 740Q543 740 644 675L602 572Q515 627 424 627Z" />
<glyph unicode="D" glyph-name="D" horiz-adv-x="696" d="M662 375Q662 188 563 89T279 -10Q172 -10 79 5V725Q172 740 279 740Q462 740 562 645T662 375ZM529 375Q529 628 286 628Q248 628 217 622V108Q248 102 286 102Q408 102 468 169T529 375Z" />
<glyph unicode="E" glyph-name="E" horiz-adv-x="601" d="M219 617V438H512V331H219V113H532V0H79V730H532V617H219Z" />
<glyph unicode="F" glyph-name="F" horiz-adv-x="586" d="M79 730H522V617H219V425H502V317H219V0H79V730Z" />
<glyph unicode="G" glyph-name="G" horiz-adv-x="756" d="M437 629Q314 629 245 558T176 365T248 172T444 101Q506 101 554 121V331H351V438H687V43Q569 -10 431 -10Q250 -10 142 91T34 365Q34 538 138 639T424 740Q558 740 659 676L617 575Q527 629 437 629Z" />
<glyph unicode="H" glyph-name="H" horiz-adv-x="735" d="M516 331H219V0H79V730H219V438H516V730H656V0H516V331Z" />
<glyph unicode="I" glyph-name="I" horiz-adv-x="351" d="M99 0V730H252V0H99Z" />
<glyph unicode="J" glyph-name="J" horiz-adv-x="558" d="M489 730V280Q489 122 421 56T199 -10Q103 -10 19 35L47 150Q132 103 196 103Q273 103 308 147T344 300V730H489Z" />
<glyph unicode="K" glyph-name="K" horiz-adv-x="678" d="M219 730V413H221L476 730H639L349 380L649 0H486L221 347H219V0H79V730H219Z" />
<glyph unicode="L" glyph-name="L" horiz-adv-x="600" d="M224 730V116H546V0H79V730H224Z" />
<glyph unicode="M" glyph-name="M" horiz-adv-x="878" d="M662 493H660L500 183H374L214 493H212V0H79V730H219L436 300H438L655 730H799V0H662V493Z" />
<glyph unicode="N" glyph-name="N" horiz-adv-x="735" d="M79 0V730H216L517 233H519V730H656V0H519L218 497H216V0H79Z" />
<glyph unicode="O" glyph-name="O" horiz-adv-x="798" d="M233 740T399 740T664 639T764 365T665 92T399 -10T134 91T34 365T133 638ZM297 105T399 105T561 173T621 365T561 556T399 625T237 557T177 365T237 174Z" />
<glyph unicode="P" glyph-name="P" horiz-adv-x="628" d="M79 725Q183 740 299 740Q449 740 524 681T599 508Q599 383 527 319T312 255Q254 255 217 259V0H79V725ZM217 367Q255 361 299 361Q380 361 422 396T465 498Q465 631 299 631Q254 631 217 625V367Z" />
<glyph unicode="Q" glyph-name="Q" horiz-adv-x="798" d="M592 48V46Q658 17 715 -35T809 -150H652Q599 -61 552 -36T399 -10Q233 -10 134 91T34 365T133 638T399 740T664 639T764 365Q764 261 719 179T592 48ZM297 105T399 105T561 173T621 365T561 556T399 625T237
557T177 365T237 174Z" />
<glyph unicode="R" glyph-name="R" horiz-adv-x="651" d="M217 285V0H79V725Q181 740 299 740Q446 740 519 686T592 532Q592 460 554 406T449 331V329Q497 301 532 210L612 0H468L392 207Q374 255 351 270T272 285H217ZM217 391H276Q454 391 454 518Q454 631 289
631Q248 631 217 625V391Z" />
<glyph unicode="S" glyph-name="S" horiz-adv-x="608" d="M507 585Q416 630 312 630Q256 630 226 606T196 542Q196 471 299 442Q439 403 496 347T554 202Q554 99 486 45T289 -10Q158 -10 54 55L89 167Q185 102 292 102Q351 102 381 127T412 200Q412 243 388 268T299
312Q171 349 114 405T56 542Q56 632 122 686T309 740Q433 740 536 693L507 585Z" />
<glyph unicode="T" glyph-name="T" horiz-adv-x="668" d="M614 730V614H405V0H263V614H54V730H614Z" />
<glyph unicode="U" glyph-name="U" horiz-adv-x="705" d="M211 730V288Q211 105 354 105Q498 105 498 288V730H636V297Q636 145 563 68T352 -10T142 67T69 297V730H211Z" />
<glyph unicode="V" glyph-name="V" horiz-adv-x="715" d="M178 730L357 137H359L540 730H686L432 0H282L29 730H178Z" />
<glyph unicode="W" glyph-name="W" horiz-adv-x="971" d="M487 583H485L374 0H207L39 730H181L292 147H294L401 730H574L682 147H684L794 730H932L764 0H597L487 583Z" />
<glyph unicode="X" glyph-name="X" horiz-adv-x="678" d="M338 283H336L195 0H39L247 370L44 730H201L340 457H342L481 730H634L431 370L639 0H479L338 283Z" />
<glyph unicode="Y" glyph-name="Y" horiz-adv-x="698" d="M186 730L350 403H352L516 730H674L422 290V0H276V290L24 730H186Z" />
<glyph unicode="Z" glyph-name="Z" horiz-adv-x="651" d="M69 730H582V617L233 115V113H582V0H69V113L419 615V617H69V730Z" />
<glyph unicode="[" glyph-name="bracketleft" horiz-adv-x="501" d="M232 673V-73H422V-170H109V770H422V673H232Z" />
<glyph unicode="\" glyph-name="backslash" horiz-adv-x="546" d="M44 730H171L517 -40H391L44 730Z" />
<glyph unicode="]" glyph-name="bracketright" horiz-adv-x="501" d="M269 -73V673H79V770H392V-170H79V-73H269Z" />
<glyph unicode="^" glyph-name="asciicircum" horiz-adv-x="695" d="M348 650H347L169 280H34L264 730H431L661 280H526L348 650Z" />
<glyph unicode="_" glyph-name="underscore" horiz-adv-x="609" d="M-2 -170V-73H611V-170H-2Z" />
<glyph unicode="`" glyph-name="grave" horiz-adv-x="336" d="M189 810L302 530H189L9 810H189Z" />
<glyph unicode="a" glyph-name="a" horiz-adv-x="576" d="M279 530Q398 530 450 484T502 333V140Q502 69 517 0H394Q388 33 385 77H383Q355 36 308 13T204 -10Q131 -10 88 30T44 143Q44 230 117 282T329 335H372V338Q372 391 351 412T276 433Q178 433 91 388L72
485Q167 530 279 530ZM166 153Q166 121 185 103T237 85Q294 85 333 122T372 215V249H329Q250 249 208 223T166 153Z" />
<glyph unicode="b" glyph-name="b" horiz-adv-x="606" d="M74 750H204V453H206Q265 530 359 530Q456 530 511 461T567 260Q567 131 510 61T359 -10Q259 -10 200 73H198L196 0H74V750ZM442 260Q442 344 411 386T322 428Q269 428 237 385T204 265V255Q204 177 236
135T322 92T408 135T442 260Z" />
<glyph unicode="c" glyph-name="c" horiz-adv-x="540" d="M451 124L481 27Q399 -10 311 -10Q186 -10 110 63T34 260Q34 387 107 458T311 530Q399 530 481 493L451 394Q388 430 317 430T207 386T167 260Q167 180 208 134T317 88Q389 88 451 124Z" />
<glyph unicode="d" glyph-name="d" horiz-adv-x="606" d="M532 750V0H411L408 73H406Q347 -10 247 -10Q154 -10 97 60T39 260Q39 392 94 461T247 530Q341 530 400 453H402V750H532ZM164 260Q164 179 197 136T284 92T369 134T402 255V265Q402 341 370 384T284 428Q227
428 196 386T164 260Z" />
<glyph unicode="e" glyph-name="e" horiz-adv-x="570" d="M164 302H408Q407 367 376 401T287 436Q232 436 200 401T164 302ZM164 213Q169 154 209 120T312 85Q386 85 459 122L489 30Q399 -10 299 -10Q181 -10 108 63T34 260Q34 386 102 458T286 530T466 461T531
263Q531 238 528 213H164Z" />
<glyph unicode="f" glyph-name="f" horiz-adv-x="543" d="M49 403V500H174V543Q174 640 223 690T367 740Q426 740 479 725L457 625Q422 640 386 640Q342 640 325 619T307 543V500H469V403H307V0H174V403H49Z" />
<glyph unicode="g" glyph-name="g" horiz-adv-x="601" d="M244 530Q344 530 406 447H408L411 520H532V53Q532 -230 259 -230Q169 -230 89 -200L112 -102Q184 -132 256 -132Q334 -132 369 -91T404 50V87H402Q345 10 244 10Q156 10 98 80T39 270Q39 396 93 463T244
530ZM164 270Q164 195 196 153T281 110Q336 110 369 151T402 265V275Q402 348 369 389T281 430T195 389T164 270Z" />
<glyph unicode="h" glyph-name="h" horiz-adv-x="605" d="M74 750H204V453H206Q271 530 366 530Q456 530 498 475T541 293V0H413V280Q413 366 393 396T321 427Q274 427 239 381T204 277V0H74V750Z" />
<glyph unicode="i" glyph-name="i" horiz-adv-x="335" d="M99 630V750H236V630H99ZM99 0V520H236V0H99Z" />
<glyph unicode="j" glyph-name="j" horiz-adv-x="378" d="M142 18V520H279V27Q279 -122 216 -176T-24 -230L-31 -127Q78 -127 110 -100T142 18ZM142 630V750H279V630H142Z" />
<glyph unicode="k" glyph-name="k" horiz-adv-x="603" d="M206 230H204V0H74V750H204V317H206L404 520H559L312 273L564 0H409L206 230Z" />
<glyph unicode="l" glyph-name="l" horiz-adv-x="335" d="M99 0V750H236V0H99Z" />
<glyph unicode="m" glyph-name="m" horiz-adv-x="843" d="M69 520H189L192 450H194Q252 530 327 530Q376 530 408 510T463 445H465Q530 530 618 530Q702 530 740 484T779 327V0H653V297Q653 375 637 402T578 429Q542 429 515 391T488 297V0H362V297Q362 375 346
402T287 429Q251 429 224 391T197 297V0H69V520Z" />
<glyph unicode="n" glyph-name="n" horiz-adv-x="600" d="M69 520H191L193 447H195Q225 486 269 508T361 530Q451 530 493 475T536 293V0H408V280Q408 366 388 396T316 427Q272 427 236 382T199 277V0H69V520Z" />
<glyph unicode="o" glyph-name="o" horiz-adv-x="585" d="M173 530T292 530T481 457T551 260T481 63T292 -10T104 63T34 260T103 457ZM292 89Q353 89 387 132T421 260T387 387T292 431Q232 431 198 388T164 260T198 133T292 89Z" />
<glyph unicode="p" glyph-name="p" horiz-adv-x="601" d="M437 260Q437 344 406 386T317 428Q264 428 232 385T199 265V255Q199 177 231 135T317 92T403 135T437 260ZM562 260Q562 131 505 61T354 -10Q258 -10 201 63H199V-220H69V520H191L193 447H195Q255 530
354 530Q451 530 506 461T562 260Z" />
<glyph unicode="q" glyph-name="q" horiz-adv-x="601" d="M247 530Q346 530 406 447H408L411 520H532V-220H402V63H400Q343 -10 247 -10Q154 -10 97 60T39 260Q39 392 94 461T247 530ZM164 260Q164 179 197 136T284 92T369 134T402 255V265Q402 341 370 384T284
428Q227 428 196 386T164 260Z" />
<glyph unicode="r" glyph-name="r" horiz-adv-x="485" d="M69 520H193L195 420H197Q286 530 436 530V424Q325 424 264 371T202 227V0H69V520Z" />
<glyph unicode="s" glyph-name="s" horiz-adv-x="525" d="M434 394Q351 432 271 432Q179 432 179 378Q179 352 199 338T269 317Q380 301 428 260T476 145Q476 73 421 32T264 -10Q143 -10 49 40L74 138Q159 89 257 89Q344 89 344 147Q344 174 326 187T256 210Q146
228 99 269T51 380Q51 449 105 489T264 530T459 492L434 394Z" />
<glyph unicode="t" glyph-name="t" horiz-adv-x="533" d="M285 500H464V403H285V190Q285 131 300 111T354 90Q402 90 444 107L461 10Q399 -10 327 -10Q235 -10 194 31T152 167V403H44V500H152V690H285V500Z" />
<glyph unicode="u" glyph-name="u" horiz-adv-x="590" d="M192 520V210Q192 143 210 119T274 94Q318 94 354 138T391 243V520H521V0H399L396 73H394Q364 34 320 12T229 -10Q144 -10 104 38T64 197V520H192Z" />
<glyph unicode="v" glyph-name="v" horiz-adv-x="581" d="M171 520L292 77H294L414 520H552L381 0H201L29 520H171Z" />
<glyph unicode="w" glyph-name="w" horiz-adv-x="831" d="M176 520L255 110H257L336 520H499L578 110H580L659 520H792L659 0H496L417 400H415L336 0H172L39 520H176Z" />
<glyph unicode="x" glyph-name="x" horiz-adv-x="585" d="M291 191H289L185 0H44L211 265L49 520H194L293 338H295L394 520H536L374 265L541 0H395L291 191Z" />
<glyph unicode="y" glyph-name="y" horiz-adv-x="585" d="M286 137H288L418 520H556L266 -220H128L222 0L29 520H172L286 137Z" />
<glyph unicode="z" glyph-name="z" horiz-adv-x="568" d="M232 97H499V0H69V97L336 421V423H69V520H499V423L232 99V97Z" />
<glyph unicode="{" glyph-name="braceleft" horiz-adv-x="535" d="M451 770V673H397Q338 673 321 656T304 573V463Q304 397 280 361T201 301V299Q256 276 280 240T304 137V27Q304 -39 321 -56T397 -73H451V-170H334Q253 -170 217 -133T181 -10V132Q181 194 160
221T94 248H54V352H94Q139 352 160 379T181 468V610Q181 696 217 733T334 770H451Z" />
<glyph unicode="|" glyph-name="bar" horiz-adv-x="381" d="M129 -220V810H252V-220H129Z" />
<glyph unicode="}" glyph-name="braceright" horiz-adv-x="535" d="M84 770H201Q282 770 318 733T354 610V468Q354 406 375 379T441 352H481V248H441Q396 248 375 221T354 132V-10Q354 -96 318 -133T201 -170H84V-73H137Q196 -73 213 -56T231 27V137Q231 203 255
239T334 299V301Q279 324 255 360T231 463V573Q231 639 214 656T137 673H84V770Z" />
<glyph unicode="~" glyph-name="asciitilde" horiz-adv-x="705" d="M318 260Q241 295 211 295Q185 295 174 276T162 205H49Q49 408 191 408Q269 408 387 353Q464 318 494 318Q519 318 530 335T542 398H656Q656 205 514 205Q436 205 318 260Z" />
<glyph unicode="&#xa0;" glyph-name="uni00A0" horiz-adv-x="304" />
<glyph unicode="&#xa1;" glyph-name="exclamdown" horiz-adv-x="385" d="M109 -220L129 300H256L276 -220H109ZM119 380V520H266V380H119Z" />
<glyph unicode="&#xa2;" glyph-name="cent" horiz-adv-x="568" d="M276 -7Q165 7 100 77T34 260Q34 375 97 444T276 527V690H376V527Q438 520 500 493L479 394Q427 420 376 427V91Q429 98 479 124L509 27Q444 0 376 -7V-180H276V-7ZM276 97V423Q167 393 167 260Q167
198 196 155T276 97Z" />
<glyph unicode="&#xa3;" glyph-name="sterling" horiz-adv-x="651" d="M235 115V113H582V0H69V113Q111 116 138 157T166 267V323H86V420H166V530Q166 630 228 685T407 740Q482 740 557 715L538 602Q482 627 424 627Q360 627 332 601T304 517V420H519V323H304V267Q304
212 285 171T235 115Z" />
<glyph unicode="&#xa4;" glyph-name="currency" horiz-adv-x="685" d="M631 145L563 76L475 165Q414 125 343 125T211 165L122 76L54 145L142 233Q103 292 103 365T142 497L54 585L122 654L211 565Q272 605 343 605T475 565L563 654L631 585L543 497Q583 436 583
365T543 233L631 145ZM289 235T343 235T435 273T473 365T435 457T343 495T251 457T213 365T251 273Z" />
<glyph unicode="&#xa5;" glyph-name="yen" horiz-adv-x="708" d="M81 130V213H282V287H81V370H236L29 730H191L355 403H357L521 730H679L472 370H627V287H426V213H627V130H426V0H282V130H81Z" />
<glyph unicode="&#xa6;" glyph-name="brokenbar" horiz-adv-x="381" d="M129 -140V220H252V-140H129ZM129 370V730H252V370H129Z" />
<glyph unicode="&#xa7;" glyph-name="section" horiz-adv-x="548" d="M494 28Q494 -49 434 -99T274 -150Q166 -150 65 -108L91 0Q180 -41 260 -41Q312 -41 339 -22T366 28Q366 58 344 76T270 105Q155 126 105 171T54 291Q54 379 122 426Q54 470 54 562Q54 639
114 689T274 740Q382 740 483 698L457 590Q368 631 288 631Q236 631 209 612T182 562Q182 532 204 514T278 485Q393 464 443 419T494 299Q494 211 426 164Q494 120 494 28ZM213 387Q165 363 165 311Q165 272 190 251T284 215Q320 207 335 203Q383 227 383 279Q383
318 358 339T264 375Q228 383 213 387Z" />
<glyph unicode="&#xa8;" glyph-name="dieresis" horiz-adv-x="491" d="M289 607V747H412V607H289ZM79 607V747H202V607H79Z" />
<glyph unicode="&#xa9;" glyph-name="copyright" horiz-adv-x="811" d="M428 148Q320 148 256 206T191 365Q191 467 254 524T428 582Q514 582 575 543L545 471Q492 503 439 503Q374 503 337 467T299 365Q299 301 338 264T439 227Q492 227 545 259L575 187Q514
148 428 148ZM560 -7T406 -7T143 102T34 365T143 628T406 737T668 628T777 365T669 102ZM283 68T406 68T615 155T702 365T616 575T406 662T196 575T109 365T196 155Z" />
<glyph unicode="&#xaa;" glyph-name="ordfeminine" horiz-adv-x="659" d="M84 180V257H575V180H84ZM389 512H357Q298 512 267 493T235 442Q235 418 249 405T288 391Q331 391 360 418T389 488V512ZM129 432Q129 501 187 543T357 585H389V587Q389 626 374 641T318
657Q237 657 167 621L151 704Q228 740 322 740Q419 740 461 703T504 580V428Q504 370 516 316H407Q404 337 400 376H398Q376 344 339 326T259 308Q200 308 165 341T129 432Z" />
<glyph unicode="&#xab;" glyph-name="guillemotleft" horiz-adv-x="728" d="M639 413L457 291V289L639 167V50L366 243V337L639 530V413ZM332 413L151 291V289L332 167V50L59 243V337L332 530V413Z" />
<glyph unicode="&#xac;" glyph-name="logicalnot" horiz-adv-x="671" d="M54 358V465H587V138H467V358H54Z" />
<glyph unicode="&#xad;" glyph-name="uni00AD" horiz-adv-x="481" d="M74 233V347H407V233H74Z" />
<glyph unicode="&#xae;" glyph-name="registered" horiz-adv-x="811" d="M351 310V153H248V574Q308 582 397 582Q581 582 581 457Q581 418 557 387T493 342V341Q526 323 546 272L593 153H485L442 268Q433 292 421 301T382 310H351ZM351 383H387Q476 383 476 447Q476
507 391 507Q367 507 351 504V383ZM283 68T406 68T615 155T702 365T616 575T406 662T196 575T109 365T196 155ZM560 -7T406 -7T143 102T34 365T143 628T406 737T668 628T777 365T669 102Z" />
<glyph unicode="&#xaf;" glyph-name="overscore" horiz-adv-x="481" d="M54 620V717H427V620H54Z" />
<glyph unicode="&#xb0;" glyph-name="degree" horiz-adv-x="405" d="M39 577Q39 644 86 692T202 740T318 692T366 577T318 462T202 413Q135 413 87 461T39 577ZM131 607T131 577T151 526T202 505T253 526T274 577T253 627T202 648T152 628Z" />
<glyph unicode="&#xb1;" glyph-name="plusminus" horiz-adv-x="755" d="M84 -40V67H671V-40H84ZM434 650V440H671V333H434V123H321V333H84V440H321V650H434Z" />
<glyph unicode="&#xb2;" glyph-name="uni00B2" horiz-adv-x="390" d="M246 598Q246 657 182 657Q132 657 64 612L38 688Q68 708 112 722T196 736Q267 736 305 702T343 607Q343 555 309 506T173 370V369H347V292H49V369Q171 467 208 512T246 598Z" />
<glyph unicode="&#xb3;" glyph-name="uni00B3" horiz-adv-x="390" d="M225 549Q280 549 312 517T345 429Q345 359 304 323T182 286Q106 286 42 321L67 393Q125 362 173 362Q252 362 252 426Q252 456 229 470T139 485H109V550L226 652V653H50V730H339V653L214 550V549H225Z"
/>
<glyph unicode="&#xb4;" glyph-name="acute" horiz-adv-x="316" d="M141 763H307L154 590H34L141 763Z" />
<glyph unicode="&#xb5;" glyph-name="mu" horiz-adv-x="595" d="M396 520H526V0H404L401 73H399Q373 34 335 12T256 -10Q222 -10 197 4V-220H69V520H197V210Q197 143 215 119T279 94Q323 94 359 138T396 243V520Z" />
<glyph unicode="&#xb6;" glyph-name="paragraph" horiz-adv-x="678" d="M259 270Q164 270 97 337T29 500T96 662T259 730H599V-140H482V627H376V-140H259V270Z" />
<glyph unicode="&#xb7;" glyph-name="middot" horiz-adv-x="338" d="M89 205V375H249V205H89Z" />
<glyph unicode="&#xb8;" glyph-name="cedilla" horiz-adv-x="416" d="M198 0H306Q347 -48 347 -98Q347 -155 300 -187T162 -220Q96 -220 39 -198L52 -104Q102 -128 153 -128Q233 -128 233 -67Q233 -27 198 0Z" />
<glyph unicode="&#xb9;" glyph-name="uni00B9" horiz-adv-x="390" d="M178 620L80 527L50 607L179 730H278V292H179V620H178Z" />
<glyph unicode="&#xba;" glyph-name="ordmasculine" horiz-adv-x="659" d="M84 180V257H575V180H84ZM232 740T329 740T482 682T539 524T483 366T329 308T176 366T120 524T176 682ZM329 394Q425 394 425 524T329 654Q234 654 234 524T329 394Z" />
<glyph unicode="&#xbb;" glyph-name="guillemotright" horiz-adv-x="728" d="M89 413V530L362 337V243L89 50V167L271 289V291L89 413ZM396 413V530L669 337V243L396 50V167L577 289V291L396 413Z" />
<glyph unicode="&#xbc;" glyph-name="onequarter" horiz-adv-x="840" d="M149 620L51 527L21 607L150 730H249V292H150V620H149ZM733 730L246 0H139L626 730H733ZM739 87V0H649V87H448V162L649 438H739V162H803V87H739ZM649 162V320H648L535 163V162H649Z" />
<glyph unicode="&#xbd;" glyph-name="onehalf" horiz-adv-x="840" d="M699 306Q699 365 634 365Q584 365 516 320L490 396Q520 416 564 430T648 444Q719 444 757 410T796 315Q796 263 761 215T625 78V77H799V0H501V77Q624 175 661 220T699 306ZM149 620L51 527L21
607L150 730H249V292H150V620H149ZM689 730L203 0H96L583 730H689Z" />
<glyph unicode="&#xbe;" glyph-name="threequarters" horiz-adv-x="840" d="M235 548Q290 548 322 516T355 428Q355 358 314 322T192 286Q116 286 52 321L77 393Q135 362 182 362Q262 362 262 426Q262 456 239 470T149 485H119V550L236 652V653H60V730H349V653L224
550V548H235ZM744 730L258 0H151L638 730H744ZM740 87V0H649V87H448V162L649 438H740V162H803V87H740ZM649 162V320H648L535 163V162H649Z" />
<glyph unicode="&#xbf;" glyph-name="questiondown" horiz-adv-x="628" d="M286 380V520H432V380H286ZM426 297Q426 252 415 217T381 153T341 111T292 73Q261 51 247 39T220 6T206 -40Q206 -117 332 -117Q429 -117 544 -80L569 -193Q439 -230 312 -230Q191 -230
125 -183T59 -57Q59 -21 68 7T98 59T135 95T181 128Q209 147 223 158T255 191T282 238T292 297H426Z" />
<glyph unicode="&#xc0;" glyph-name="Agrave" horiz-adv-x="715" d="M331 790L177 963H344L451 790H331ZM29 0L282 730H432L686 0H536L484 176H227L174 0H29ZM258 283H452L356 607H354L258 283Z" />
<glyph unicode="&#xc1;" glyph-name="Aacute" horiz-adv-x="715" d="M371 963H537L384 790H264L371 963ZM29 0L282 730H432L686 0H536L484 176H227L174 0H29ZM258 283H452L356 607H354L258 283Z" />
<glyph unicode="&#xc2;" glyph-name="Acircumflex" horiz-adv-x="715" d="M356 912L282 790H141L267 963H447L574 790H432L358 912H356ZM29 0L282 730H432L686 0H536L484 176H227L174 0H29ZM258 283H452L356 607H354L258 283Z" />
<glyph unicode="&#xc3;" glyph-name="Atilde" horiz-adv-x="715" d="M372 915Q415 887 436 887Q449 887 455 900T461 950H561Q561 790 464 790Q412 790 342 835Q299 863 279 863Q265 863 260 848T254 790H154Q154 960 251 960Q300 960 372 915ZM29 0L282 730H432L686
0H536L484 176H227L174 0H29ZM258 283H452L356 607H354L258 283Z" />
<glyph unicode="&#xc4;" glyph-name="Adieresis" horiz-adv-x="715" d="M401 807V947H524V807H401ZM191 807V947H314V807H191ZM29 0L282 730H432L686 0H536L484 176H227L174 0H29ZM258 283H452L356 607H354L258 283Z" />
<glyph unicode="&#xc5;" glyph-name="Aring" horiz-adv-x="715" d="M386 970T357 970T308 950T287 900T307 851T357 830T406 850T427 900T407 949ZM29 0L282 730H432L686 0H536L484 176H227L174 0H29ZM494 956T494 900T454 804T357 763T261 803T221 900T261 996T357
1037T453 997ZM258 283H452L356 607H354L258 283Z" />
<glyph unicode="&#xc6;" glyph-name="AE" horiz-adv-x="885" d="M282 730H816V617H532V438H796V331H532V113H816V0H399V176H221L168 0H29L282 730ZM253 283H399V617H354L253 283Z" />
<glyph unicode="&#xc7;" glyph-name="Ccedilla" horiz-adv-x="703" d="M450 -8Q484 -50 484 -98Q484 -155 437 -187T299 -220Q233 -220 176 -198L189 -104Q239 -128 290 -128Q370 -128 370 -67Q370 -31 341 -5Q199 15 117 113T34 365Q34 538 135 639T411 740Q543
740 644 675L602 572Q515 627 424 627Q311 627 244 557T177 365Q177 245 246 174T424 103Q515 103 602 158L644 55Q562 1 450 -8Z" />
<glyph unicode="&#xc8;" glyph-name="Egrave" horiz-adv-x="601" d="M309 790L156 963H322L429 790H309ZM219 617V438H512V331H219V113H532V0H79V730H532V617H219Z" />
<glyph unicode="&#xc9;" glyph-name="Eacute" horiz-adv-x="601" d="M289 963H456L302 790H182L289 963ZM219 617V438H512V331H219V113H532V0H79V730H532V617H219Z" />
<glyph unicode="&#xca;" glyph-name="Ecircumflex" horiz-adv-x="601" d="M305 912L231 790H89L216 963H396L522 790H381L307 912H305ZM219 617V438H512V331H219V113H532V0H79V730H532V617H219Z" />
<glyph unicode="&#xcb;" glyph-name="Edieresis" horiz-adv-x="601" d="M349 807V947H472V807H349ZM139 807V947H262V807H139ZM219 617V438H512V331H219V113H532V0H79V730H532V617H219Z" />
<glyph unicode="&#xcc;" glyph-name="Igrave" horiz-adv-x="351" d="M132 790L-21 963H146L252 790H132ZM99 0V730H252V0H99Z" />
<glyph unicode="&#xcd;" glyph-name="Iacute" horiz-adv-x="351" d="M206 963H372L219 790H99L206 963ZM99 0V730H252V0H99Z" />
<glyph unicode="&#xce;" glyph-name="Icircumflex" horiz-adv-x="351" d="M175 912L101 790H-41L86 963H266L392 790H251L177 912H175ZM99 0V730H252V0H99Z" />
<glyph unicode="&#xcf;" glyph-name="Idieresis" horiz-adv-x="351" d="M219 807V947H342V807H219ZM9 807V947H132V807H9ZM99 0V730H252V0H99Z" />
<glyph unicode="&#xd0;" glyph-name="Eth" horiz-adv-x="755" d="M29 322V430H137V725Q230 740 337 740Q520 740 620 645T721 375Q721 188 621 89T337 -10Q230 -10 137 5V322H29ZM276 430H429V322H276V108Q307 102 344 102Q466 102 526 169T587 375Q587 628 344
628Q308 628 276 622V430Z" />
<glyph unicode="&#xd1;" glyph-name="Ntilde" horiz-adv-x="735" d="M382 915Q425 887 446 887Q459 887 465 900T471 950H571Q571 790 474 790Q422 790 352 835Q309 863 289 863Q275 863 270 848T264 790H164Q164 960 261 960Q310 960 382 915ZM79 0V730H216L517
233H519V730H656V0H519L218 497H216V0H79Z" />
<glyph unicode="&#xd2;" glyph-name="Ograve" horiz-adv-x="798" d="M372 790L219 963H386L492 790H372ZM233 740T399 740T664 639T764 365T665 92T399 -10T134 91T34 365T133 638ZM297 105T399 105T561 173T621 365T561 556T399 625T237 557T177 365T237 174Z" />
<glyph unicode="&#xd3;" glyph-name="Oacute" horiz-adv-x="798" d="M412 963H579L426 790H306L412 963ZM233 740T399 740T664 639T764 365T665 92T399 -10T134 91T34 365T133 638ZM297 105T399 105T561 173T621 365T561 556T399 625T237 557T177 365T237 174Z" />
<glyph unicode="&#xd4;" glyph-name="Ocircumflex" horiz-adv-x="798" d="M398 912L324 790H182L309 963H489L616 790H474L400 912H398ZM233 740T399 740T664 639T764 365T665 92T399 -10T134 91T34 365T133 638ZM297 105T399 105T561 173T621 365T561 556T399
625T237 557T177 365T237 174Z" />
<glyph unicode="&#xd5;" glyph-name="Otilde" horiz-adv-x="798" d="M414 915Q457 887 477 887Q490 887 496 900T502 950H602Q602 790 506 790Q454 790 384 835Q341 863 321 863Q307 863 302 848T296 790H196Q196 960 292 960Q342 960 414 915ZM233 740T399 740T664
639T764 365T665 92T399 -10T134 91T34 365T133 638ZM297 105T399 105T561 173T621 365T561 556T399 625T237 557T177 365T237 174Z" />
<glyph unicode="&#xd6;" glyph-name="Odieresis" horiz-adv-x="798" d="M442 807V947H566V807H442ZM232 807V947H356V807H232ZM233 740T399 740T664 639T764 365T665 92T399 -10T134 91T34 365T133 638ZM297 105T399 105T561 173T621 365T561 556T399 625T237
557T177 365T237 174Z" />
<glyph unicode="&#xd7;" glyph-name="multiply" horiz-adv-x="630" d="M591 99L506 14L315 205L124 14L39 99L230 290L39 481L124 566L315 375L506 566L591 481L400 290L591 99Z" />
<glyph unicode="&#xd8;" glyph-name="Oslash" horiz-adv-x="808" d="M227 28L172 -46L76 26L131 99Q39 200 39 365Q39 537 138 638T404 740Q503 740 581 702L636 776L732 704L677 631Q769 530 769 365Q769 193 670 92T404 -10Q305 -10 227 28ZM301 127Q345 105
404 105Q506 105 566 173T626 365Q626 455 593 518L301 127ZM215 212L507 603Q463 625 404 625Q302 625 242 557T182 365Q182 275 215 212Z" />
<glyph unicode="&#xd9;" glyph-name="Ugrave" horiz-adv-x="705" d="M356 790L202 963H369L476 790H356ZM211 730V288Q211 105 354 105Q498 105 498 288V730H636V297Q636 145 563 68T352 -10T142 67T69 297V730H211Z" />
<glyph unicode="&#xda;" glyph-name="Uacute" horiz-adv-x="705" d="M336 963H502L349 790H229L336 963ZM211 730V288Q211 105 354 105Q498 105 498 288V730H636V297Q636 145 563 68T352 -10T142 67T69 297V730H211Z" />
<glyph unicode="&#xdb;" glyph-name="Ucircumflex" horiz-adv-x="705" d="M351 912L277 790H136L262 963H442L569 790H427L353 912H351ZM211 730V288Q211 105 354 105Q498 105 498 288V730H636V297Q636 145 563 68T352 -10T142 67T69 297V730H211Z" />
<glyph unicode="&#xdc;" glyph-name="Udieresis" horiz-adv-x="705" d="M396 807V947H519V807H396ZM186 807V947H309V807H186ZM211 730V288Q211 105 354 105Q498 105 498 288V730H636V297Q636 145 563 68T352 -10T142 67T69 297V730H211Z" />
<glyph unicode="&#xdd;" glyph-name="Yacute" horiz-adv-x="698" d="M332 963H499L346 790H226L332 963ZM186 730L350 403H352L516 730H674L422 290V0H276V290L24 730H186Z" />
<glyph unicode="&#xde;" glyph-name="Thorn" horiz-adv-x="638" d="M465 388Q465 521 299 521Q254 521 217 515V257Q255 251 299 251Q380 251 422 286T465 388ZM217 149V0H79V730H217V627Q257 630 299 630Q449 630 524 571T599 398Q599 273 527 209T312 145Q254
145 217 149Z" />
<glyph unicode="&#xdf;" glyph-name="germandbls" horiz-adv-x="615" d="M448 390Q448 377 481 340T547 250T581 150Q581 -10 386 -10Q332 -10 261 5L270 117Q328 102 369 102Q444 102 444 173Q444 196 424 227T378 284T333 339T312 390Q312 416 367 489T422 593Q422
652 321 652Q258 652 235 628T212 535V0H74V532Q74 651 130 705T314 760Q428 760 489 719T551 607Q551 577 535 541T500 478T464 426T448 390Z" />
<glyph unicode="&#xe0;" glyph-name="agrave" horiz-adv-x="576" d="M262 590L109 763H276L382 590H262ZM279 530Q398 530 450 484T502 333V140Q502 69 517 0H394Q388 33 385 77H383Q355 36 308 13T204 -10Q131 -10 88 30T44 143Q44 230 117 282T329 335H372V338Q372
391 351 412T276 433Q178 433 91 388L72 485Q167 530 279 530ZM166 153Q166 121 185 103T237 85Q294 85 333 122T372 215V249H329Q250 249 208 223T166 153Z" />
<glyph unicode="&#xe1;" glyph-name="aacute" horiz-adv-x="576" d="M302 763H469L316 590H196L302 763ZM279 530Q398 530 450 484T502 333V140Q502 69 517 0H394Q388 33 385 77H383Q355 36 308 13T204 -10Q131 -10 88 30T44 143Q44 230 117 282T329 335H372V338Q372
391 351 412T276 433Q178 433 91 388L72 485Q167 530 279 530ZM166 153Q166 121 185 103T237 85Q294 85 333 122T372 215V249H329Q250 249 208 223T166 153Z" />
<glyph unicode="&#xe2;" glyph-name="acircumflex" horiz-adv-x="576" d="M288 712L214 590H72L199 763H379L506 590H364L290 712H288ZM279 530Q398 530 450 484T502 333V140Q502 69 517 0H394Q388 33 385 77H383Q355 36 308 13T204 -10Q131 -10 88 30T44 143Q44
230 117 282T329 335H372V338Q372 391 351 412T276 433Q178 433 91 388L72 485Q167 530 279 530ZM166 153Q166 121 185 103T237 85Q294 85 333 122T372 215V249H329Q250 249 208 223T166 153Z" />
<glyph unicode="&#xe3;" glyph-name="atilde" horiz-adv-x="576" d="M304 705Q347 677 367 677Q380 677 386 690T392 740H492Q492 580 396 580Q344 580 274 625Q231 653 211 653Q197 653 192 638T186 580H86Q86 750 182 750Q232 750 304 705ZM279 530Q398 530
450 484T502 333V140Q502 69 517 0H394Q388 33 385 77H383Q355 36 308 13T204 -10Q131 -10 88 30T44 143Q44 230 117 282T329 335H372V338Q372 391 351 412T276 433Q178 433 91 388L72 485Q167 530 279 530ZM166 153Q166 121 185 103T237 85Q294 85 333 122T372
215V249H329Q250 249 208 223T166 153Z" />
<glyph unicode="&#xe4;" glyph-name="adieresis" horiz-adv-x="576" d="M332 607V747H456V607H332ZM122 607V747H246V607H122ZM279 530Q398 530 450 484T502 333V140Q502 69 517 0H394Q388 33 385 77H383Q355 36 308 13T204 -10Q131 -10 88 30T44 143Q44 230 117
282T329 335H372V338Q372 391 351 412T276 433Q178 433 91 388L72 485Q167 530 279 530ZM166 153Q166 121 185 103T237 85Q294 85 333 122T372 215V249H329Q250 249 208 223T166 153Z" />
<glyph unicode="&#xe5;" glyph-name="aring" horiz-adv-x="576" d="M318 760T289 760T240 740T219 690T239 641T289 620T338 640T359 690T339 739ZM279 530Q398 530 450 484T502 333V140Q502 69 517 0H394Q388 33 385 77H383Q355 36 308 13T204 -10Q131 -10 88
30T44 143Q44 230 117 282T329 335H372V338Q372 391 351 412T276 433Q178 433 91 388L72 485Q167 530 279 530ZM426 746T426 690T386 594T289 553T193 593T152 690T192 786T289 827T385 787ZM166 153Q166 121 185 103T237 85Q294 85 333 122T372 215V249H329Q250
249 208 223T166 153Z" />
<glyph unicode="&#xe6;" glyph-name="ae" horiz-adv-x="900" d="M502 302H738Q737 367 706 401T617 436Q568 436 537 401T502 302ZM503 213Q508 154 546 120T641 85Q716 85 789 122L819 30Q729 -10 629 -10Q504 -10 434 82Q360 -10 204 -10Q131 -10 88 30T44 143Q44
230 117 282T329 335H377V338Q377 392 355 412T276 433Q178 433 91 388L72 485Q167 530 279 530Q410 530 461 473Q524 530 616 530Q732 530 796 461T861 263Q861 238 858 213H503ZM166 153Q166 121 185 103T237 85Q296 85 336 122T377 215V249H329Q250 249 208
223T166 153Z" />
<glyph unicode="&#xe7;" glyph-name="ccedilla" horiz-adv-x="540" d="M451 124L481 27Q427 3 368 -6Q404 -52 404 -98Q404 -155 357 -187T219 -220Q153 -220 96 -198L109 -104Q159 -128 210 -128Q290 -128 290 -67Q290 -34 263 -7Q158 7 96 78T34 260Q34 387
107 458T311 530Q399 530 481 493L451 394Q388 430 317 430T207 386T167 260Q167 180 208 134T317 88Q389 88 451 124Z" />
<glyph unicode="&#xe8;" glyph-name="egrave" horiz-adv-x="570" d="M297 590L144 763H311L417 590H297ZM164 302H408Q407 367 376 401T287 436Q232 436 200 401T164 302ZM164 213Q169 154 209 120T312 85Q386 85 459 122L489 30Q399 -10 299 -10Q181 -10 108
63T34 260Q34 386 102 458T286 530T466 461T531 263Q531 238 528 213H164Z" />
<glyph unicode="&#xe9;" glyph-name="eacute" horiz-adv-x="570" d="M277 763H444L291 590H171L277 763ZM164 302H408Q407 367 376 401T287 436Q232 436 200 401T164 302ZM164 213Q169 154 209 120T312 85Q386 85 459 122L489 30Q399 -10 299 -10Q181 -10 108
63T34 260Q34 386 102 458T286 530T466 461T531 263Q531 238 528 213H164Z" />
<glyph unicode="&#xea;" glyph-name="ecircumflex" horiz-adv-x="570" d="M293 712L219 590H77L204 763H384L511 590H369L295 712H293ZM164 302H408Q407 367 376 401T287 436Q232 436 200 401T164 302ZM164 213Q169 154 209 120T312 85Q386 85 459 122L489 30Q399
-10 299 -10Q181 -10 108 63T34 260Q34 386 102 458T286 530T466 461T531 263Q531 238 528 213H164Z" />
<glyph unicode="&#xeb;" glyph-name="edieresis" horiz-adv-x="570" d="M337 607V747H461V607H337ZM127 607V747H251V607H127ZM164 302H408Q407 367 376 401T287 436Q232 436 200 401T164 302ZM164 213Q169 154 209 120T312 85Q386 85 459 122L489 30Q399 -10
299 -10Q181 -10 108 63T34 260Q34 386 102 458T286 530T466 461T531 263Q531 238 528 213H164Z" />
<glyph unicode="&#xec;" glyph-name="igrave" horiz-adv-x="344" d="M125 590L-28 763H139L245 590H125ZM108 0V520H245V0H108Z" />
<glyph unicode="&#xed;" glyph-name="iacute" horiz-adv-x="344" d="M206 763H372L219 590H99L206 763ZM99 0V520H236V0H99Z" />
<glyph unicode="&#xee;" glyph-name="icircumflex" horiz-adv-x="335" d="M167 712L93 590H-49L78 763H258L384 590H243L169 712H167ZM99 0V520H236V0H99Z" />
<glyph unicode="&#xef;" glyph-name="idieresis" horiz-adv-x="335" d="M211 607V747H334V607H211ZM1 607V747H124V607H1ZM99 0V520H236V0H99Z" />
<glyph unicode="&#xf0;" glyph-name="eth" horiz-adv-x="585" d="M236 89T292 89T382 133T416 261Q416 344 384 386T292 429T201 387T169 261Q169 177 202 133ZM343 678L497 741L527 667L416 621Q546 494 546 261Q546 137 477 64T292 -9T108 63T39 261Q39 376
107 446T292 517Q333 517 367 497L369 498Q346 542 303 575L124 500L94 575L212 623Q165 640 108 647L148 741Q260 728 343 678Z" />
<glyph unicode="&#xf1;" glyph-name="ntilde" horiz-adv-x="600" d="M317 705Q360 677 381 677Q394 677 400 690T406 740H506Q506 580 409 580Q357 580 287 625Q244 653 224 653Q210 653 205 638T199 580H99Q99 750 196 750Q245 750 317 705ZM69 520H191L193 447H195Q225
486 269 508T361 530Q451 530 493 475T536 293V0H408V280Q408 366 388 396T316 427Q272 427 236 382T199 277V0H69V520Z" />
<glyph unicode="&#xf2;" glyph-name="ograve" horiz-adv-x="585" d="M266 590L112 763H279L386 590H266ZM173 530T292 530T481 457T551 260T481 63T292 -10T104 63T34 260T103 457ZM292 89Q353 89 387 132T421 260T387 387T292 431Q232 431 198 388T164 260T198
133T292 89Z" />
<glyph unicode="&#xf3;" glyph-name="oacute" horiz-adv-x="585" d="M306 763H472L319 590H199L306 763ZM173 530T292 530T481 457T551 260T481 63T292 -10T104 63T34 260T103 457ZM292 89Q353 89 387 132T421 260T387 387T292 431Q232 431 198 388T164 260T198
133T292 89Z" />
<glyph unicode="&#xf4;" glyph-name="ocircumflex" horiz-adv-x="585" d="M291 712L217 590H76L202 763H382L509 590H367L293 712H291ZM173 530T292 530T481 457T551 260T481 63T292 -10T104 63T34 260T103 457ZM292 89Q353 89 387 132T421 260T387 387T292 431Q232
431 198 388T164 260T198 133T292 89Z" />
<glyph unicode="&#xf5;" glyph-name="otilde" horiz-adv-x="585" d="M307 705Q350 677 371 677Q384 677 390 690T396 740H496Q496 580 399 580Q347 580 277 625Q234 653 214 653Q200 653 195 638T189 580H89Q89 750 186 750Q235 750 307 705ZM173 530T292 530T481
457T551 260T481 63T292 -10T104 63T34 260T103 457ZM292 89Q353 89 387 132T421 260T387 387T292 431Q232 431 198 388T164 260T198 133T292 89Z" />
<glyph unicode="&#xf6;" glyph-name="odieresis" horiz-adv-x="585" d="M336 607V747H459V607H336ZM126 607V747H249V607H126ZM173 530T292 530T481 457T551 260T481 63T292 -10T104 63T34 260T103 457ZM292 89Q353 89 387 132T421 260T387 387T292 431Q232 431
198 388T164 260T198 133T292 89Z" />
<glyph unicode="&#xf7;" glyph-name="divide" horiz-adv-x="735" d="M294 0V157H441V0H294ZM294 423V580H441V423H294ZM74 237V343H661V237H74Z" />
<glyph unicode="&#xf8;" glyph-name="oslash" horiz-adv-x="595" d="M168 19L129 -34L65 14L105 67Q39 141 39 260Q39 384 108 457T297 530Q370 530 426 501L465 554L529 506L490 453Q556 379 556 260Q556 136 486 63T297 -10Q224 -10 168 19ZM233 105Q259 89
297 89Q358 89 392 132T426 260Q426 313 413 348L233 105ZM182 172L362 415Q336 431 297 431Q237 431 203 388T169 260Q169 207 182 172Z" />
<glyph unicode="&#xf9;" glyph-name="ugrave" horiz-adv-x="590" d="M301 590L147 763H314L421 590H301ZM192 520V210Q192 143 210 119T274 94Q318 94 354 138T391 243V520H521V0H399L396 73H394Q364 34 320 12T229 -10Q144 -10 104 38T64 197V520H192Z" />
<glyph unicode="&#xfa;" glyph-name="uacute" horiz-adv-x="590" d="M281 763H447L294 590H174L281 763ZM192 520V210Q192 143 210 119T274 94Q318 94 354 138T391 243V520H521V0H399L396 73H394Q364 34 320 12T229 -10Q144 -10 104 38T64 197V520H192Z" />
<glyph unicode="&#xfb;" glyph-name="ucircumflex" horiz-adv-x="590" d="M296 712L222 590H81L207 763H387L514 590H372L298 712H296ZM192 520V210Q192 143 210 119T274 94Q318 94 354 138T391 243V520H521V0H399L396 73H394Q364 34 320 12T229 -10Q144 -10 104
38T64 197V520H192Z" />
<glyph unicode="&#xfc;" glyph-name="udieresis" horiz-adv-x="590" d="M341 607V747H464V607H341ZM131 607V747H254V607H131ZM192 520V210Q192 143 210 119T274 94Q318 94 354 138T391 243V520H521V0H399L396 73H394Q364 34 320 12T229 -10Q144 -10 104 38T64
197V520H192Z" />
<glyph unicode="&#xfd;" glyph-name="yacute" horiz-adv-x="585" d="M276 763H442L289 590H169L276 763ZM286 137H288L418 520H556L266 -220H128L222 0L29 520H172L286 137Z" />
<glyph unicode="&#xfe;" glyph-name="thorn" horiz-adv-x="601" d="M437 260Q437 344 406 386T317 428Q264 428 232 385T199 265V255Q199 177 231 135T317 92T403 135T437 260ZM562 260Q562 131 505 61T354 -10Q258 -10 201 63H199V-220H69V750H199V447H201Q262
530 354 530Q451 530 506 461T562 260Z" />
<glyph unicode="&#xff;" glyph-name="ydieresis" horiz-adv-x="585" d="M336 607V747H459V607H336ZM126 607V747H249V607H126ZM286 137H288L418 520H556L266 -220H128L222 0L29 520H172L286 137Z" />
<glyph unicode="&#x2013;" glyph-name="endash" horiz-adv-x="471" d="M-2 247V333H473V247H-2Z" />
<glyph unicode="&#x2014;" glyph-name="emdash" horiz-adv-x="946" d="M-2 247V333H948V247H-2Z" />
<glyph unicode="&#x2018;" glyph-name="quoteleft" horiz-adv-x="336" d="M206 490H39L152 770H272L206 490Z" />
<glyph unicode="&#x2019;" glyph-name="quoteright" horiz-adv-x="336" d="M297 770L184 490H64L131 770H297Z" />
<glyph unicode="&#x201a;" glyph-name="quotesinglbase" horiz-adv-x="351" d="M121 170H287L174 -110H54L121 170Z" />
<glyph unicode="&#x201c;" glyph-name="quotedblleft" horiz-adv-x="530" d="M404 490H251L364 770H471L404 490ZM187 490H34L147 770H254L187 490Z" />
<glyph unicode="&#x201d;" glyph-name="quotedblright" horiz-adv-x="530" d="M342 770H496L382 490H276L342 770ZM126 770H279L166 490H59L126 770Z" />
<glyph unicode="&#x201e;" glyph-name="quotedblbase" horiz-adv-x="545" d="M332 170H486L372 -110H266L332 170ZM116 170H269L156 -110H49L116 170Z" />
<glyph unicode="&#x2022;" glyph-name="bullet" horiz-adv-x="505" d="M308 232T252 232T158 271T119 365T157 459T252 498T347 459T386 365T347 271Z" />
<glyph unicode="&#x2039;" glyph-name="guilsinglleft" horiz-adv-x="430" d="M351 517L187 290L351 63H219L59 290L219 517H351Z" />
<glyph unicode="&#x203a;" glyph-name="guilsinglright" horiz-adv-x="430" d="M79 517H211L371 290L211 63H79L242 290L79 517Z" />
</font>
</defs>
</svg>
