<?xml version="1.0" standalone="no"?>
<!DOCTYPE svg PUBLIC "-//W3C//DTD SVG 1.1//EN" "http://www.w3.org/Graphics/SVG/1.1/DTD/svg11.dtd">
<svg xmlns="http://www.w3.org/2000/svg">
<defs >
<font id="MPLUS1p" horiz-adv-x="916" ><font-face
    font-family="Mplus 1p ExtraBold"
    units-per-em="1000"
    panose-1="2 11 8 2 2 2 3 2 2 7"
    ascent="1075"
    descent="-320"
    alphabetic="0" />
<glyph unicode=" " glyph-name="space" horiz-adv-x="311" />
<glyph unicode="!" glyph-name="exclam" horiz-adv-x="455" d="M126 730H329L304 230H151L126 730ZM141 0V150H314V0H141Z" />
<glyph unicode="&quot;" glyph-name="quotedbl" horiz-adv-x="522" d="M61 770H231L206 470H86L61 770ZM291 770H461L436 470H316L291 770Z" />
<glyph unicode="#" glyph-name="numbersign" horiz-adv-x="701" d="M41 163V292H143L172 458H93V587H195L220 730H374L348 587H428L454 730H607L582 587H660V458H559L530 292H608V163H507L478 0H324L353 163H274L245 0H91L120 163H41ZM405 458H326L296 292H376L405 458Z" />
<glyph unicode="$" glyph-name="dollar" horiz-adv-x="635" d="M438 577V403Q517 370 548 327T579 218Q579 24 316 15V-85H194V23Q121 35 46 77L84 203Q142 168 194 154V338Q116 372 83 417T49 523Q49 612 116 663T316 715V815H438V706Q504 696 563 672L532 546Q486
566 438 577ZM316 589Q209 586 209 523Q209 495 230 478T308 445Q309 444 312 444T316 443V589ZM316 141Q418 147 418 215Q418 245 397 263T316 298V141Z" />
<glyph unicode="%" glyph-name="percent" horiz-adv-x="939" d="M596 730H733L343 0H206L596 730ZM625 393T716 393T857 341T908 192T858 43T716 -10T575 43T524 192T574 340ZM132 740T223 740T364 687T414 538T364 390T223 337T82 389T31 538T81 687ZM659 94T716
94T773 192Q773 289 716 289T659 192Q659 94 716 94ZM223 441Q251 441 265 463T279 538Q279 636 223 636Q166 636 166 538Q166 441 223 441Z" />
<glyph unicode="&amp;" glyph-name="ampersand" horiz-adv-x="777" d="M290 288Q214 236 214 192Q214 119 319 119Q380 119 439 148L290 288ZM410 359L513 259V391H667V110L781 0H598L550 44Q422 -10 311 -10Q41 -10 41 177Q41 227 76 274T194 377Q131 436 108
477T84 567Q84 643 149 691T328 740Q449 740 511 694T573 565Q573 512 536 463T410 359ZM315 451Q376 488 394 508T412 553Q412 586 391 604T331 622T270 605T247 560Q247 536 259 516T315 451Z" />
<glyph unicode="&apos;" glyph-name="quotesingle" horiz-adv-x="319" d="M66 770H253L228 470H91L66 770Z" />
<glyph unicode="(" glyph-name="parenleft" horiz-adv-x="444" d="M216 292Q216 19 408 -185H268Q169 -94 115 30T61 292T115 554T268 770H408Q216 566 216 292Z" />
<glyph unicode=")" glyph-name="parenright" horiz-adv-x="444" d="M228 292Q228 566 36 770H176Q274 679 328 554T383 292T329 31T176 -185H36Q228 19 228 292Z" />
<glyph unicode="*" glyph-name="asterisk" horiz-adv-x="541" d="M500 536L367 499L452 390L347 314L270 428L194 314L88 390L174 499L41 536L81 660L211 612L205 750H335L330 612L459 660L500 536Z" />
<glyph unicode="+" glyph-name="plus" horiz-adv-x="735" d="M436 580V354H664V226H436V0H299V226H71V354H299V580H436Z" />
<glyph unicode="," glyph-name="comma" horiz-adv-x="369" d="M114 190H308L191 -110H51L114 190Z" />
<glyph unicode="-" glyph-name="hyphen" horiz-adv-x="479" d="M71 226V354H408V226H71Z" />
<glyph unicode="." glyph-name="period" horiz-adv-x="362" d="M86 0V190H276V0H86Z" />
<glyph unicode="/" glyph-name="slash" horiz-adv-x="564" d="M523 730L174 -40H26L374 730H523Z" />
<glyph unicode="0" glyph-name="zero" horiz-adv-x="650" d="M178 740T325 740T543 652T615 365T544 78T325 -10T107 78T35 365T106 652ZM265 119T325 119T413 174T442 365T414 556T325 611T237 556T208 365T236 174Z" />
<glyph unicode="1" glyph-name="one" horiz-adv-x="650" d="M282 0V533H280L118 383L65 527L282 730H458V0H282Z" />
<glyph unicode="2" glyph-name="two" horiz-adv-x="650" d="M78 137Q275 288 337 362T400 507Q400 599 298 599Q216 599 104 527L61 663Q112 697 184 718T323 740Q444 740 509 683T574 523Q574 435 519 355T301 139V137H578V0H78V137Z" />
<glyph unicode="3" glyph-name="three" horiz-adv-x="650" d="M75 730H562V593L367 432V430H380Q467 430 519 376T572 230Q572 114 501 52T297 -10Q170 -10 65 47L107 177Q208 125 283 125Q341 125 373 152T405 227Q405 276 367 296T223 317H173V431L358 591V593H75V730Z" />
<glyph unicode="4" glyph-name="four" horiz-adv-x="650" d="M336 273V524H334L161 275V273H336ZM499 273H604V140H499V0H336V140H11V273L336 730H499V273Z" />
<glyph unicode="5" glyph-name="five" horiz-adv-x="650" d="M551 593H260L253 457H255Q301 477 351 477Q463 477 524 417T585 248Q585 -10 278 -10Q166 -10 68 32L103 167Q202 125 271 125Q418 125 418 248Q418 348 318 348Q274 348 231 310H86L106 730H551V593Z" />
<glyph unicode="6" glyph-name="six" horiz-adv-x="650" d="M459 740L489 603Q384 600 321 564T226 454L227 453Q291 492 368 492Q484 492 546 431T608 250Q608 132 531 61T327 -10Q196 -10 121 65T45 282Q45 491 156 613T459 740ZM327 113Q383 113 414 148T445
250Q445 310 414 343T327 377Q273 377 241 343T209 250Q209 184 240 149T327 113Z" />
<glyph unicode="7" glyph-name="seven" horiz-adv-x="650" d="M70 730H583V593Q499 453 438 317T317 0H135Q254 324 422 589V593H70V730Z" />
<glyph unicode="8" glyph-name="eight" horiz-adv-x="650" d="M199 740T325 740T522 688T593 553Q593 458 469 395V393Q615 333 615 200Q615 104 539 47T325 -10T112 47T35 200Q35 310 174 374V376Q57 441 57 553Q57 635 128 687ZM332 438Q387 458 410 482T433
537Q433 574 404 597T325 621Q276 621 248 598T219 537Q219 505 244 481T332 438ZM308 322Q248 298 224 271T200 208Q200 165 235 137T325 109T414 137T449 208Q449 248 421 272T308 322Z" />
<glyph unicode="9" glyph-name="nine" horiz-adv-x="650" d="M150 127Q261 131 326 166T423 276L422 277Q358 238 281 238Q165 238 103 300T41 485Q41 598 119 669T323 740Q455 740 529 665T604 453Q604 238 490 116T180 -10L150 127ZM323 617Q267 617 236 583T204
485T236 388T323 353Q377 353 408 387T440 485T409 582T323 617Z" />
<glyph unicode=":" glyph-name="colon" horiz-adv-x="442" d="M126 377V567H316V377H126ZM126 0V190H316V0H126Z" />
<glyph unicode=";" glyph-name="semicolon" horiz-adv-x="449" d="M71 -110L134 190H328L211 -110H71ZM134 377V567H324V377H134Z" />
<glyph unicode="&lt;" glyph-name="less" horiz-adv-x="689" d="M603 445L151 291V289L603 135V-3L56 198V382L603 583V445Z" />
<glyph unicode="=" glyph-name="equal" horiz-adv-x="755" d="M81 352V480H674V352H81ZM81 100V228H674V100H81Z" />
<glyph unicode="&gt;" glyph-name="greater" horiz-adv-x="689" d="M86 445V583L633 382V198L86 -3V135L538 289V291L86 445Z" />
<glyph unicode="?" glyph-name="question" horiz-adv-x="642" d="M198 232Q198 271 209 303T243 362T282 403T330 441Q357 461 370 473T396 503T408 540Q408 606 299 606Q206 606 86 568L56 702Q184 740 324 740Q448 740 517 691T586 563Q586 526 577 497T545
444T508 408T461 374Q427 351 409 336T374 293T354 232H198ZM189 0V150H363V0H189Z" />
<glyph unicode="@" glyph-name="at" horiz-adv-x="812" d="M469 118H468Q422 57 351 57Q283 57 240 111T196 260Q196 358 238 410T351 463Q420 463 467 403H469V456H594V158H671Q688 206 688 260Q688 386 610 464T406 542Q282 542 203 463T124 260T203 57T406
-22Q505 -22 575 30L631 -45Q537 -115 406 -115Q247 -115 139 -10T31 260Q31 424 137 529T406 635Q570 635 675 531T781 260Q781 150 731 64H472L469 118ZM321 260Q321 211 341 184T392 157Q424 157 443 182T462 256V264Q462 311 443 337T392 363Q321 363 321 260Z"
/>
<glyph unicode="A" glyph-name="A" horiz-adv-x="725" d="M26 0L273 730H453L699 0H519L476 158H245L203 0H26ZM280 287H442L362 583H360L280 287Z" />
<glyph unicode="B" glyph-name="B" horiz-adv-x="630" d="M243 441H276Q422 441 422 528Q422 611 299 611Q268 611 243 605V441ZM243 319V125Q272 119 303 119Q374 119 407 145T440 227Q440 319 289 319H243ZM599 210Q599 98 526 44T296 -10Q180 -10 76 5V725Q175
740 286 740Q576 740 576 553Q576 490 535 445T426 389V387Q506 377 552 328T599 210Z" />
<glyph unicode="C" glyph-name="C" horiz-adv-x="707" d="M431 603Q326 603 266 540T205 365Q205 255 268 191T431 127Q518 127 603 182L651 58Q551 -10 414 -10Q240 -10 136 91T31 365Q31 540 132 640T414 740Q551 740 651 672L603 548Q518 603 431 603Z" />
<glyph unicode="D" glyph-name="D" horiz-adv-x="704" d="M673 375Q673 191 572 91T286 -10Q175 -10 76 5V725Q175 740 286 740Q470 740 571 644T673 375ZM511 375Q511 607 299 607Q270 607 243 601V129Q270 123 299 123Q511 123 511 375Z" />
<glyph unicode="E" glyph-name="E" horiz-adv-x="609" d="M246 593V444H523V315H246V137H543V0H76V730H543V593H246Z" />
<glyph unicode="F" glyph-name="F" horiz-adv-x="594" d="M76 730H533V593H246V427H513V299H246V0H76V730Z" />
<glyph unicode="G" glyph-name="G" horiz-adv-x="764" d="M443 605Q330 605 267 542T204 365Q204 253 269 189T446 125Q495 125 536 140V315H359V444H698V42Q576 -10 429 -10Q247 -10 139 91T31 365Q31 539 136 639T426 740Q566 740 668 673L620 551Q530 605 443 605Z" />
<glyph unicode="H" glyph-name="H" horiz-adv-x="745" d="M499 315H246V0H76V730H246V444H499V730H669V0H499V315Z" />
<glyph unicode="I" glyph-name="I" horiz-adv-x="369" d="M91 0V730H278V0H91Z" />
<glyph unicode="J" glyph-name="J" horiz-adv-x="582" d="M516 730V300Q516 129 447 60T216 -10Q108 -10 16 40L48 177Q138 127 209 127Q282 127 311 167T341 320V730H516Z" />
<glyph unicode="K" glyph-name="K" horiz-adv-x="702" d="M246 730V417H248L469 730H666L406 380L676 0H479L248 343H246V0H76V730H246Z" />
<glyph unicode="L" glyph-name="L" horiz-adv-x="610" d="M251 730V141H559V0H76V730H251Z" />
<glyph unicode="M" glyph-name="M" horiz-adv-x="892" d="M651 447H649L521 167H367L239 447H237V0H76V730H250L443 300H445L638 730H816V0H651V447Z" />
<glyph unicode="N" glyph-name="N" horiz-adv-x="745" d="M76 0V730H242L501 282H503V730H669V0H503L244 448H242V0H76Z" />
<glyph unicode="O" glyph-name="O" horiz-adv-x="802" d="M232 740T401 740T670 639T771 365T671 91T401 -10T132 91T31 365T131 639ZM308 130T401 130T545 190T597 365T546 540T401 600T257 540T205 365T256 190Z" />
<glyph unicode="P" glyph-name="P" horiz-adv-x="642" d="M76 725Q180 740 296 740Q616 740 616 502Q616 373 542 307T323 240Q287 240 243 244V0H76V725ZM243 370Q275 365 306 365Q378 365 417 398T457 492Q457 611 306 611Q273 611 243 605V370Z" />
<glyph unicode="Q" glyph-name="Q" horiz-adv-x="807" d="M608 54V52Q675 18 731 -35T821 -150H638Q585 -58 545 -34T401 -10Q232 -10 132 91T31 365T131 639T401 740T670 639T771 365Q771 265 729 185T608 54ZM308 130T401 130T545 190T597 365T546 540T401 600T257
540T205 365T256 190Z" />
<glyph unicode="R" glyph-name="R" horiz-adv-x="669" d="M243 270V0H76V725Q186 740 316 740Q466 740 539 684T613 523Q613 456 574 403T471 326V324Q523 295 556 205L633 0H458L389 198Q375 240 355 255T293 270H243ZM243 395H299Q369 395 406 424T443 507Q443
611 306 611Q270 611 243 605V395Z" />
<glyph unicode="S" glyph-name="S" horiz-adv-x="632" d="M533 560Q438 607 333 607Q281 607 254 587T227 533Q227 477 311 453Q460 412 520 355T581 208Q581 102 509 46T296 -10Q233 -10 165 9T51 60L91 193Q193 123 303 123Q355 123 381 144T408 205Q408 237
387 257T311 293Q174 333 114 390T54 533Q54 628 125 684T326 740Q463 740 564 692L533 560Z" />
<glyph unicode="T" glyph-name="T" horiz-adv-x="682" d="M631 730V589H428V0H254V589H51V730H631Z" />
<glyph unicode="U" glyph-name="U" horiz-adv-x="715" d="M238 730V287Q238 127 360 127Q481 127 481 287V730H649V298Q649 146 574 68T358 -10T142 68T66 298V730H238Z" />
<glyph unicode="V" glyph-name="V" horiz-adv-x="725" d="M207 730L361 163H363L523 730H699L453 0H273L26 730H207Z" />
<glyph unicode="W" glyph-name="W" horiz-adv-x="979" d="M490 557H488L396 0H198L36 730H208L300 173H302L388 730H595L680 173H682L775 730H943L781 0H583L490 557Z" />
<glyph unicode="X" glyph-name="X" horiz-adv-x="692" d="M345 272H343L223 0H36L233 370L41 730H228L347 468H349L468 730H651L459 370L656 0H465L345 272Z" />
<glyph unicode="Y" glyph-name="Y" horiz-adv-x="712" d="M215 730L357 417H359L501 730H691L443 280V0H268V280L21 730H215Z" />
<glyph unicode="Z" glyph-name="Z" horiz-adv-x="659" d="M66 730H593V593L265 139V137H593V0H66V137L393 591V593H66V730Z" />
<glyph unicode="[" glyph-name="bracketleft" horiz-adv-x="519" d="M253 657V-72H443V-185H106V770H443V657H253Z" />
<glyph unicode="\" glyph-name="backslash" horiz-adv-x="564" d="M41 730H189L538 -40H389L41 730Z" />
<glyph unicode="]" glyph-name="bracketright" horiz-adv-x="519" d="M266 -72V657H76V770H413V-185H76V-72H266Z" />
<glyph unicode="^" glyph-name="asciicircum" horiz-adv-x="715" d="M358 640H357L188 280H31L256 730H459L684 280H527L358 640Z" />
<glyph unicode="_" glyph-name="underscore" horiz-adv-x="623" d="M-2 -185V-72H625V-185H-2Z" />
<glyph unicode="`" glyph-name="grave" horiz-adv-x="364" d="M216 810L333 510H196L6 810H216Z" />
<glyph unicode="a" glyph-name="a" horiz-adv-x="594" d="M291 530Q416 530 469 483T523 327V140Q523 68 538 0H386Q378 45 376 73H374Q347 35 302 13T206 -10Q131 -10 86 32T41 147Q41 233 114 285T326 337H363V339Q363 383 346 400T284 417Q182 417 89 372L68
485Q169 530 291 530ZM187 162Q187 135 203 120T248 105Q298 105 330 136T363 215V239H326Q258 239 223 218T187 162Z" />
<glyph unicode="b" glyph-name="b" horiz-adv-x="624" d="M71 750H231V457H233Q291 530 381 530Q476 530 532 460T588 260Q588 133 530 62T381 -10Q286 -10 225 72H223L219 0H71V750ZM435 260Q435 333 408 370T333 407Q287 407 259 370T231 265V255Q231 187 259
150T333 113Q378 113 406 151T435 260Z" />
<glyph unicode="c" glyph-name="c" horiz-adv-x="550" d="M459 144L494 28Q412 -10 319 -10Q187 -10 109 62T31 260Q31 386 107 458T319 530Q412 530 494 492L459 374Q396 411 328 411Q264 411 229 373T193 260Q193 189 230 148T328 107Q396 107 459 144Z" />
<glyph unicode="d" glyph-name="d" horiz-adv-x="624" d="M553 750V0H404L401 72H399Q338 -10 243 -10Q152 -10 94 61T36 260Q36 390 92 460T243 530Q333 530 391 457H393V750H553ZM189 260Q189 190 217 152T291 113Q337 113 365 150T393 255V265Q393 332 365
369T291 407Q243 407 216 370T189 260Z" />
<glyph unicode="e" glyph-name="e" horiz-adv-x="580" d="M189 306H395Q394 421 293 421Q247 421 220 392T189 306ZM190 207Q197 158 231 131T321 103Q395 103 466 139L501 30Q412 -10 306 -10Q182 -10 107 63T31 260Q31 385 101 457T289 530Q410 530 477 461T544
262Q544 231 540 207H190Z" />
<glyph unicode="f" glyph-name="f" horiz-adv-x="557" d="M46 387V500H166V532Q166 634 219 687T373 740Q437 740 496 725L473 605Q437 620 399 620Q360 620 345 601T329 532V500H486V387H329V0H166V387H46Z" />
<glyph unicode="g" glyph-name="g" horiz-adv-x="619" d="M241 530Q336 530 399 448H401L404 520H553V57Q553 -86 479 -158T261 -230Q169 -230 86 -200L113 -84Q183 -113 254 -113Q330 -113 363 -76T396 55V83H395Q338 10 241 10Q153 10 95 80T36 270Q36 394 91
462T241 530ZM189 270Q189 204 216 167T289 130Q336 130 364 165T393 265V275Q393 339 365 374T289 410T216 375T189 270Z" />
<glyph unicode="h" glyph-name="h" horiz-adv-x="625" d="M71 750H231V457H233Q293 530 384 530Q478 530 521 475T564 287V0H406V270Q406 351 389 378T329 406Q290 406 261 366T231 273V0H71V750Z" />
<glyph unicode="i" glyph-name="i" horiz-adv-x="351" d="M91 620V750H260V620H91ZM91 0V520H260V0H91Z" />
<glyph unicode="j" glyph-name="j" horiz-adv-x="397" d="M137 21V520H306V33Q306 -120 237 -175T-26 -230L-34 -107Q77 -107 107 -84T137 21ZM137 620V750H306V620H137Z" />
<glyph unicode="k" glyph-name="k" horiz-adv-x="627" d="M233 220H231V0H71V750H231V323H233L401 520H586L363 272L591 0H406L233 220Z" />
<glyph unicode="l" glyph-name="l" horiz-adv-x="351" d="M91 0V750H260V0H91Z" />
<glyph unicode="m" glyph-name="m" horiz-adv-x="867" d="M66 520H211L214 450H216Q274 530 353 530Q401 530 431 512T485 450H487Q557 530 644 530Q729 530 767 483T806 323V0H652V293Q652 363 639 386T589 409Q558 409 536 377T514 293V0H360V293Q360 363 347
386T298 409Q267 409 245 377T223 293V0H66V520Z" />
<glyph unicode="n" glyph-name="n" horiz-adv-x="620" d="M66 520H214L218 448H220Q249 486 291 508T379 530Q473 530 516 475T559 287V0H401V270Q401 351 384 378T324 406Q287 406 257 366T226 273V0H66V520Z" />
<glyph unicode="o" glyph-name="o" horiz-adv-x="595" d="M173 530T298 530T493 458T564 260T494 63T298 -10T102 62T31 260T102 457ZM298 107Q406 107 406 260T298 413Q189 413 189 260T298 107Z" />
<glyph unicode="p" glyph-name="p" horiz-adv-x="619" d="M430 260Q430 333 403 370T328 407Q282 407 254 370T226 265V255Q226 187 254 150T328 113Q373 113 401 151T430 260ZM583 260Q583 133 525 62T376 -10T228 62H226V-220H66V520H214L218 448H220Q283 530
376 530Q471 530 527 460T583 260Z" />
<glyph unicode="q" glyph-name="q" horiz-adv-x="619" d="M243 530Q336 530 399 448H401L404 520H553V-220H393V62H391Q334 -10 243 -10T94 61T36 260Q36 390 92 460T243 530ZM189 260Q189 190 217 152T291 113Q337 113 365 150T393 255V265Q393 332 365 369T291
407Q243 407 216 370T189 260Z" />
<glyph unicode="r" glyph-name="r" horiz-adv-x="505" d="M66 520H218L219 420H221Q308 530 459 530V402Q347 402 288 354T229 223V0H66V520Z" />
<glyph unicode="s" glyph-name="s" horiz-adv-x="545" d="M456 379Q371 414 289 414Q243 414 225 404T206 372Q206 352 222 341T281 323Q398 308 448 266T499 150T442 33T276 -10Q149 -10 46 40L76 156Q162 107 263 107Q339 107 339 153Q339 173 325 183T264 200Q149
218 99 260T49 375Q49 446 106 488T276 530Q385 530 486 493L456 379Z" />
<glyph unicode="t" glyph-name="t" horiz-adv-x="547" d="M311 500H481V387H311V200Q311 146 324 128T371 110Q414 110 461 126L479 10Q408 -10 333 -10Q237 -10 193 33T148 173V387H41V500H148V690H311V500Z" />
<glyph unicode="u" glyph-name="u" horiz-adv-x="610" d="M219 520V220Q219 158 234 137T286 115Q324 115 354 154T384 247V520H544V0H396L393 72H391Q362 34 319 12T231 -10Q142 -10 102 38T61 203V520H219Z" />
<glyph unicode="v" glyph-name="v" horiz-adv-x="599" d="M198 520L300 93H302L405 520H573L409 0H189L26 520H198Z" />
<glyph unicode="w" glyph-name="w" horiz-adv-x="849" d="M198 520L262 130H264L333 520H520L589 130H591L655 520H813L686 0H494L425 380H423L354 0H163L36 520H198Z" />
<glyph unicode="x" glyph-name="x" horiz-adv-x="605" d="M302 182H300L211 0H41L199 265L46 520H220L304 346H306L390 520H559L406 265L564 0H391L302 182Z" />
<glyph unicode="y" glyph-name="y" horiz-adv-x="605" d="M297 153H299L411 520H579L299 -220H131L223 0L26 520H203L297 153Z" />
<glyph unicode="z" glyph-name="z" horiz-adv-x="582" d="M268 113H516V0H66V113L314 405V407H66V520H516V407L268 115V113Z" />
<glyph unicode="{" glyph-name="braceleft" horiz-adv-x="545" d="M464 770V657H418Q357 657 342 642T326 562V462Q326 393 300 356T214 294V292Q274 268 300 230T326 123V23Q326 -41 341 -56T418 -72H464V-185H341Q255 -185 217 -147T179 -20V118Q179 181 159
206T91 232H51V353H91Q139 353 159 378T179 467V605Q179 694 217 732T341 770H464Z" />
<glyph unicode="|" glyph-name="bar" horiz-adv-x="399" d="M126 -220V810H273V-220H126Z" />
<glyph unicode="}" glyph-name="braceright" horiz-adv-x="545" d="M81 770H204Q290 770 328 732T366 605V467Q366 404 386 379T454 353H494V232H454Q406 232 386 207T366 118V-20Q366 -109 328 -147T204 -185H81V-72H128Q189 -72 204 -57T219 23V123Q219 192
245 230T331 292V294Q271 318 245 355T219 462V562Q219 626 204 641T128 657H81V770Z" />
<glyph unicode="~" glyph-name="asciitilde" horiz-adv-x="715" d="M315 253Q252 282 222 282Q201 282 192 265T183 198H46Q46 314 84 366T197 419Q282 419 400 364Q465 334 494 334Q515 334 524 350T533 409H669Q669 198 518 198Q433 198 315 253Z" />
<glyph unicode="&#xa0;" glyph-name="uni00A0" horiz-adv-x="311" />
<glyph unicode="&#xa1;" glyph-name="exclamdown" horiz-adv-x="415" d="M106 -220L131 290H284L309 -220H106ZM121 370V520H294V370H121Z" />
<glyph unicode="&#xa2;" glyph-name="cent" horiz-adv-x="580" d="M279 -7Q164 7 98 78T31 260Q31 373 96 443T279 527V690H399V525Q469 515 519 492L488 374Q445 397 399 406V112Q447 121 488 144L524 28Q470 5 399 -5V-180H279V-7ZM279 118V402Q193 371 193
260Q193 208 216 171T279 118Z" />
<glyph unicode="&#xa3;" glyph-name="sterling" horiz-adv-x="659" d="M259 139V137H593V0H66V137Q108 140 133 177T159 283V317H82V430H159V525Q159 627 224 683T413 740Q491 740 570 715L548 581Q494 606 434 606T350 585T326 511V430H529V317H326V283Q326 228
308 191T259 139Z" />
<glyph unicode="&#xa4;" glyph-name="currency" horiz-adv-x="691" d="M640 151L560 70L474 156Q416 120 346 120Q275 120 217 156L131 70L51 151L137 237Q101 295 101 365T137 493L51 579L131 660L217 574Q275 610 346 610Q416 610 474 574L560 660L640 579L554
493Q591 433 591 365T554 237L640 151ZM299 250T346 250T427 284T461 365T427 446T346 480T265 446T231 365T265 284Z" />
<glyph unicode="&#xa5;" glyph-name="yen" horiz-adv-x="722" d="M79 120V217H274V280L272 283H79V380H218L26 730H220L362 417H364L506 730H696L504 380H643V283H450L448 280V217H643V120H448V0H274V120H79Z" />
<glyph unicode="&#xa6;" glyph-name="brokenbar" horiz-adv-x="399" d="M126 -140V220H273V-140H126ZM126 370V730H273V370H126Z" />
<glyph unicode="&#xa7;" glyph-name="section" horiz-adv-x="572" d="M521 34Q521 -48 459 -99T286 -150Q170 -150 64 -109L95 20Q187 -21 269 -21Q316 -21 340 -6T364 34Q364 81 281 95Q160 115 107 161T54 285Q54 373 119 421Q51 465 51 556Q51 638 113 689T286
740Q402 740 508 699L477 570Q385 611 303 611Q256 611 232 596T208 556Q208 509 291 495Q412 475 465 429T518 305Q518 217 453 169Q521 125 521 34ZM229 377Q189 355 189 308Q189 272 212 254T299 222Q315 219 343 213Q383 235 383 282Q383 318 360 336T273 368Q257
371 229 377Z" />
<glyph unicode="&#xa8;" glyph-name="dieresis" horiz-adv-x="519" d="M296 603V753H443V603H296ZM76 603V753H223V603H76Z" />
<glyph unicode="&#xa9;" glyph-name="copyright" horiz-adv-x="809" d="M428 148Q319 148 254 206T188 365Q188 467 251 524T428 582Q514 582 576 543L544 465Q493 496 439 496Q376 496 341 462T306 365Q306 304 342 269T439 234Q493 234 544 265L576 187Q514
148 428 148ZM404 -8Q250 -8 141 101T31 365T140 629T404 738Q559 738 668 629T778 365T669 102T404 -8ZM282 72T404 72T612 158T698 365T612 572T404 658T197 572T111 365T196 158Z" />
<glyph unicode="&#xaa;" glyph-name="ordfeminine" horiz-adv-x="663" d="M81 168V259H582V168H81ZM380 506H352Q299 506 272 490T245 447Q245 404 292 404Q331 404 355 427T380 488V506ZM124 434Q124 503 183 544T352 586H380V587Q380 620 368 633T321 646Q237
646 163 610L145 704Q228 740 327 740Q428 740 471 702T514 576V428Q514 370 526 316H399Q396 337 392 374H390Q368 344 332 326T257 308Q197 308 161 341T124 434Z" />
<glyph unicode="&#xab;" glyph-name="guillemotleft" horiz-adv-x="732" d="M646 392L488 291V289L646 188V50L369 237V343L646 530V392ZM333 392L174 291V289L333 188V50L56 237V343L333 530V392Z" />
<glyph unicode="&#xac;" glyph-name="logicalnot" horiz-adv-x="679" d="M51 352V480H598V127H453V352H51Z" />
<glyph unicode="&#xad;" glyph-name="uni00AD" horiz-adv-x="489" d="M71 222V358H418V222H71Z" />
<glyph unicode="&#xae;" glyph-name="registered" horiz-adv-x="809" d="M355 306V153H243V574Q306 582 398 582Q583 582 583 454Q583 416 559 385T496 341V340Q530 322 550 271L596 153H478L437 266Q429 288 418 297T385 306H355ZM355 384H390Q427 384 448 400T469
444Q469 501 392 501Q370 501 355 498V384ZM282 72T404 72T612 158T698 365T612 572T404 658T197 572T111 365T196 158ZM404 -8Q250 -8 141 101T31 365T140 629T404 738Q559 738 668 629T778 365T669 102T404 -8Z" />
<glyph unicode="&#xaf;" glyph-name="overscore" horiz-adv-x="489" d="M51 610V723H438V610H51Z" />
<glyph unicode="&#xb0;" glyph-name="degree" horiz-adv-x="405" d="M36 504T36 573T85 691T203 740T320 691T369 573T321 456T203 407T85 455ZM139 599T139 573T158 529T203 510T247 528T266 573T248 618T203 637T158 618Z" />
<glyph unicode="&#xb1;" glyph-name="plusminus" horiz-adv-x="755" d="M81 -40V88H674V-40H81ZM446 650V458H674V329H446V137H309V329H81V458H309V650H446Z" />
<glyph unicode="&#xb2;" glyph-name="uni00B2" horiz-adv-x="395" d="M239 595Q239 647 182 647Q135 647 64 602L36 688Q66 708 112 722T197 736Q270 736 309 701T349 605Q349 555 316 509T187 380V378H352V292H47V378Q166 471 202 513T239 595Z" />
<glyph unicode="&#xb3;" glyph-name="uni00B3" horiz-adv-x="395" d="M234 549Q286 549 318 517T350 429Q350 359 308 323T184 286Q105 286 39 322L66 402Q125 371 173 371Q245 371 245 427Q245 455 223 466T134 478H107V550L217 642V644H47V730H344V644L226 550V549H234Z"
/>
<glyph unicode="&#xb4;" glyph-name="acute" horiz-adv-x="334" d="M134 767H328L171 590H31L134 767Z" />
<glyph unicode="&#xb5;" glyph-name="mu" horiz-adv-x="615" d="M389 520H549V0H401L398 72H396Q372 34 336 12T262 -10Q239 -10 224 -3V-220H66V520H224V220Q224 158 239 137T291 115Q329 115 359 154T389 247V520Z" />
<glyph unicode="&#xb6;" glyph-name="paragraph" horiz-adv-x="702" d="M256 270Q161 270 94 337T26 500T93 662T256 730H626V-140H488V608H394V-140H256V270Z" />
<glyph unicode="&#xb7;" glyph-name="middot" horiz-adv-x="362" d="M86 195V385H276V195H86Z" />
<glyph unicode="&#xb8;" glyph-name="cedilla" horiz-adv-x="416" d="M188 0H309Q350 -48 350 -97Q350 -155 302 -187T160 -220Q92 -220 36 -199L50 -92Q100 -117 153 -117Q220 -117 220 -61Q220 -24 188 0Z" />
<glyph unicode="&#xb9;" glyph-name="uni00B9" horiz-adv-x="395" d="M174 606L80 517L47 608L175 730H287V292H175V606H174Z" />
<glyph unicode="&#xba;" glyph-name="ordmasculine" horiz-adv-x="663" d="M81 168V259H582V168H81ZM231 740T332 740T489 682T546 524T490 366T332 308T174 366T117 524T174 682ZM332 405Q415 405 415 524T332 643Q248 643 248 524T332 405Z" />
<glyph unicode="&#xbb;" glyph-name="guillemotright" horiz-adv-x="732" d="M86 392V530L363 343V237L86 50V188L244 289V291L86 392ZM399 392V530L676 343V237L399 50V188L558 289V291L399 392Z" />
<glyph unicode="&#xbc;" glyph-name="onequarter" horiz-adv-x="850" d="M149 606L55 517L22 608L150 730H262V292H150V606H149ZM751 730L253 0H135L633 730H751ZM752 82V0H650V82H454V166L650 438H752V166H814V82H752ZM650 166V310H649L548 168V166H650Z" />
<glyph unicode="&#xbd;" glyph-name="onehalf" horiz-adv-x="850" d="M696 303Q696 355 639 355Q592 355 521 310L493 396Q523 416 569 430T654 444Q727 444 766 410T806 314Q806 264 773 217T645 88V87H810V0H504V87Q624 180 660 222T696 303ZM149 606L55 517L22
608L150 730H262V292H150V606H149ZM705 730L206 0H88L586 730H705Z" />
<glyph unicode="&#xbe;" glyph-name="threequarters" horiz-adv-x="850" d="M249 549Q301 549 333 517T365 429Q365 359 323 323T199 286Q120 286 54 322L81 402Q140 371 188 371Q260 371 260 427Q260 455 238 466T149 478H122V550L232 642V644H62V730H359V644L241
550V549H249ZM765 730L266 0H148L646 730H765ZM752 82V0H650V82H454V166L650 438H752V166H814V82H752ZM650 166V310H649L548 168V166H650Z" />
<glyph unicode="&#xbf;" glyph-name="questiondown" horiz-adv-x="642" d="M279 370V520H453V370H279ZM444 288Q444 245 433 211T399 149T360 107T312 69Q285 49 272 37T246 7T234 -30Q234 -96 343 -96Q436 -96 556 -58L586 -192Q458 -230 318 -230Q194 -230 125
-181T56 -53Q56 -16 65 13T97 66T134 102T181 136Q215 159 233 174T268 219T288 288H444Z" />
<glyph unicode="&#xc0;" glyph-name="Agrave" horiz-adv-x="725" d="M329 790L173 967H366L469 790H329ZM26 0L273 730H453L699 0H519L476 158H245L203 0H26ZM280 287H442L362 583H360L280 287Z" />
<glyph unicode="&#xc1;" glyph-name="Aacute" horiz-adv-x="725" d="M359 967H553L396 790H256L359 967ZM26 0L273 730H453L699 0H519L476 158H245L203 0H26ZM280 287H442L362 583H360L280 287Z" />
<glyph unicode="&#xc2;" glyph-name="Acircumflex" horiz-adv-x="725" d="M362 908L295 790H134L258 967H468L591 790H430L364 908H362ZM26 0L273 730H453L699 0H519L476 158H245L203 0H26ZM280 287H442L362 583H360L280 287Z" />
<glyph unicode="&#xc3;" glyph-name="Atilde" horiz-adv-x="725" d="M380 925Q419 901 437 901Q449 901 454 913T459 960H574Q574 785 471 785Q417 785 345 830Q306 854 288 854Q275 854 271 841T266 785H151Q151 883 177 926T254 970Q309 970 380 925ZM26 0L273
730H453L699 0H519L476 158H245L203 0H26ZM280 287H442L362 583H360L280 287Z" />
<glyph unicode="&#xc4;" glyph-name="Adieresis" horiz-adv-x="725" d="M399 803V953H546V803H399ZM179 803V953H326V803H179ZM26 0L273 730H453L699 0H519L476 158H245L203 0H26ZM280 287H442L362 583H360L280 287Z" />
<glyph unicode="&#xc5;" glyph-name="Aring" horiz-adv-x="725" d="M392 975T363 975T314 955T293 905T313 856T363 835T412 855T433 905T413 954ZM26 0L273 730H453L699 0H519L476 158H245L203 0H26ZM506 964T506 905T464 804T363 762T262 804T219 905T261 1006T363
1048T464 1006ZM280 287H442L362 583H360L280 287Z" />
<glyph unicode="&#xc6;" glyph-name="AE" horiz-adv-x="900" d="M273 730H834V593H563V444H814V315H563V137H834V0H401V158H238L194 0H26L273 730ZM274 287H401V593H360L274 287Z" />
<glyph unicode="&#xc7;" glyph-name="Ccedilla" horiz-adv-x="707" d="M454 -8Q488 -50 488 -97Q488 -155 440 -187T298 -220Q230 -220 174 -199L188 -92Q238 -117 291 -117Q359 -117 359 -61Q359 -26 331 -3Q192 21 112 117T31 365Q31 540 132 640T414 740Q551
740 651 672L603 548Q518 603 431 603Q326 603 266 540T205 365Q205 255 268 191T431 127Q518 127 603 182L651 58Q565 1 454 -8Z" />
<glyph unicode="&#xc8;" glyph-name="Egrave" horiz-adv-x="609" d="M306 790L149 967H343L446 790H306ZM246 593V444H523V315H246V137H543V0H76V730H543V593H246Z" />
<glyph unicode="&#xc9;" glyph-name="Eacute" horiz-adv-x="609" d="M276 967H469L313 790H173L276 967ZM246 593V444H523V315H246V137H543V0H76V730H543V593H246Z" />
<glyph unicode="&#xca;" glyph-name="Ecircumflex" horiz-adv-x="609" d="M308 908L242 790H81L204 967H414L538 790H377L310 908H308ZM246 593V444H523V315H246V137H543V0H76V730H543V593H246Z" />
<glyph unicode="&#xcb;" glyph-name="Edieresis" horiz-adv-x="609" d="M346 803V953H493V803H346ZM126 803V953H273V803H126ZM246 593V444H523V315H246V137H543V0H76V730H543V593H246Z" />
<glyph unicode="&#xcc;" glyph-name="Igrave" horiz-adv-x="369" d="M138 790L-19 967H174L278 790H138ZM91 0V730H278V0H91Z" />
<glyph unicode="&#xcd;" glyph-name="Iacute" horiz-adv-x="369" d="M194 967H388L231 790H91L194 967ZM91 0V730H278V0H91Z" />
<glyph unicode="&#xce;" glyph-name="Icircumflex" horiz-adv-x="369" d="M183 908L117 790H-44L79 967H289L413 790H252L185 908H183ZM91 0V730H278V0H91Z" />
<glyph unicode="&#xcf;" glyph-name="Idieresis" horiz-adv-x="369" d="M221 803V953H368V803H221ZM1 803V953H148V803H1ZM91 0V730H278V0H91Z" />
<glyph unicode="&#xd0;" glyph-name="Eth" horiz-adv-x="758" d="M26 309V437H130V725Q229 740 340 740Q524 740 625 644T727 375Q727 191 626 91T340 -10Q229 -10 130 5V309H26ZM297 437H436V309H297V129Q324 123 354 123Q460 123 512 184T565 375Q565 607 354
607Q324 607 297 601V437Z" />
<glyph unicode="&#xd1;" glyph-name="Ntilde" horiz-adv-x="745" d="M390 925Q429 901 447 901Q459 901 464 913T469 960H584Q584 785 481 785Q427 785 355 830Q316 854 298 854Q285 854 281 841T276 785H161Q161 883 187 926T264 970Q319 970 390 925ZM76 0V730H242L501
282H503V730H669V0H503L244 448H242V0H76Z" />
<glyph unicode="&#xd2;" glyph-name="Ograve" horiz-adv-x="802" d="M368 790L211 967H404L508 790H368ZM232 740T401 740T670 639T771 365T671 91T401 -10T132 91T31 365T131 639ZM308 130T401 130T545 190T597 365T546 540T401 600T257 540T205 365T256 190Z" />
<glyph unicode="&#xd3;" glyph-name="Oacute" horiz-adv-x="802" d="M398 967H591L434 790H294L398 967ZM232 740T401 740T670 639T771 365T671 91T401 -10T132 91T31 365T131 639ZM308 130T401 130T545 190T597 365T546 540T401 600T257 540T205 365T256 190Z" />
<glyph unicode="&#xd4;" glyph-name="Ocircumflex" horiz-adv-x="802" d="M400 908L334 790H173L296 967H506L629 790H468L402 908H400ZM232 740T401 740T670 639T771 365T671 91T401 -10T132 91T31 365T131 639ZM308 130T401 130T545 190T597 365T546 540T401
600T257 540T205 365T256 190Z" />
<glyph unicode="&#xd5;" glyph-name="Otilde" horiz-adv-x="802" d="M418 925Q457 901 475 901Q487 901 492 913T498 960H613Q613 785 509 785Q456 785 384 830Q345 854 327 854Q314 854 309 841T304 785H189Q189 970 293 970Q347 970 418 925ZM232 740T401 740T670
639T771 365T671 91T401 -10T132 91T31 365T131 639ZM308 130T401 130T545 190T597 365T546 540T401 600T257 540T205 365T256 190Z" />
<glyph unicode="&#xd6;" glyph-name="Odieresis" horiz-adv-x="802" d="M438 803V953H584V803H438ZM218 803V953H364V803H218ZM232 740T401 740T670 639T771 365T671 91T401 -10T132 91T31 365T131 639ZM308 130T401 130T545 190T597 365T546 540T401 600T257
540T205 365T256 190Z" />
<glyph unicode="&#xd7;" glyph-name="multiply" horiz-adv-x="641" d="M605 108L503 5L321 187L139 5L36 108L218 290L36 472L139 575L321 393L503 575L605 472L423 290L605 108Z" />
<glyph unicode="&#xd8;" glyph-name="Oslash" horiz-adv-x="812" d="M240 21L184 -53L68 33L122 106Q36 206 36 365Q36 538 136 639T406 740Q501 740 572 709L628 783L744 697L690 624Q776 524 776 365Q776 192 676 91T406 -10Q311 -10 240 21ZM330 142Q365 130
406 130Q499 130 550 190T602 365Q602 434 584 482L330 142ZM228 248L482 588Q448 600 406 600Q313 600 262 540T210 365Q210 296 228 248Z" />
<glyph unicode="&#xd9;" glyph-name="Ugrave" horiz-adv-x="715" d="M354 790L198 967H391L494 790H354ZM238 730V287Q238 127 360 127Q481 127 481 287V730H649V298Q649 146 574 68T358 -10T142 68T66 298V730H238Z" />
<glyph unicode="&#xda;" glyph-name="Uacute" horiz-adv-x="715" d="M324 967H518L361 790H221L324 967ZM238 730V287Q238 127 360 127Q481 127 481 287V730H649V298Q649 146 574 68T358 -10T142 68T66 298V730H238Z" />
<glyph unicode="&#xdb;" glyph-name="Ucircumflex" horiz-adv-x="715" d="M357 908L290 790H129L253 967H463L586 790H425L359 908H357ZM238 730V287Q238 127 360 127Q481 127 481 287V730H649V298Q649 146 574 68T358 -10T142 68T66 298V730H238Z" />
<glyph unicode="&#xdc;" glyph-name="Udieresis" horiz-adv-x="715" d="M394 803V953H541V803H394ZM174 803V953H321V803H174ZM238 730V287Q238 127 360 127Q481 127 481 287V730H649V298Q649 146 574 68T358 -10T142 68T66 298V730H238Z" />
<glyph unicode="&#xdd;" glyph-name="Yacute" horiz-adv-x="712" d="M323 967H516L359 790H219L323 967ZM215 730L357 417H359L501 730H691L444 280V0H268V280L21 730H215Z" />
<glyph unicode="&#xde;" glyph-name="Thorn" horiz-adv-x="652" d="M457 387Q457 506 306 506Q273 506 243 500V265Q275 260 306 260Q378 260 417 293T457 387ZM243 139V0H76V730H243V634Q261 635 296 635Q616 635 616 397Q616 268 542 202T323 135Q287 135 243 139Z" />
<glyph unicode="&#xdf;" glyph-name="germandbls" horiz-adv-x="625" d="M468 382Q468 368 499 330T562 242T594 148Q594 -10 397 -10Q346 -10 282 3L291 133Q338 121 376 121Q430 121 430 177Q430 208 370 279T310 382Q310 410 362 483T415 582Q415 631 329 631Q276
631 257 610T238 530V0H71V526Q71 647 130 703T321 760Q439 760 504 716T569 598Q569 561 544 515T493 431T468 382Z" />
<glyph unicode="&#xe0;" glyph-name="agrave" horiz-adv-x="594" d="M263 590L106 767H299L403 590H263ZM291 530Q416 530 469 483T523 327V140Q523 68 538 0H386Q378 45 376 73H374Q347 35 302 13T206 -10Q131 -10 86 32T41 147Q41 233 114 285T326 337H363V339Q363
383 346 400T284 417Q182 417 89 372L68 485Q169 530 291 530ZM187 162Q187 135 203 120T248 105Q298 105 330 136T363 215V239H326Q258 239 223 218T187 162Z" />
<glyph unicode="&#xe1;" glyph-name="aacute" horiz-adv-x="594" d="M293 767H486L329 590H189L293 767ZM291 530Q416 530 469 483T523 327V140Q523 68 538 0H386Q378 45 376 73H374Q347 35 302 13T206 -10Q131 -10 86 32T41 147Q41 233 114 285T326 337H363V339Q363
383 346 400T284 417Q182 417 89 372L68 485Q169 530 291 530ZM187 162Q187 135 203 120T248 105Q298 105 330 136T363 215V239H326Q258 239 223 218T187 162Z" />
<glyph unicode="&#xe2;" glyph-name="acircumflex" horiz-adv-x="594" d="M295 708L228 590H68L191 767H401L524 590H363L297 708H295ZM291 530Q416 530 469 483T523 327V140Q523 68 538 0H386Q378 45 376 73H374Q347 35 302 13T206 -10Q131 -10 86 32T41 147Q41
233 114 285T326 337H363V339Q363 383 346 400T284 417Q182 417 89 372L68 485Q169 530 291 530ZM187 162Q187 135 203 120T248 105Q298 105 330 136T363 215V239H326Q258 239 223 218T187 162Z" />
<glyph unicode="&#xe3;" glyph-name="atilde" horiz-adv-x="594" d="M314 715Q353 691 370 691Q382 691 387 703T393 750H508Q508 575 404 575Q351 575 279 620Q240 644 222 644Q209 644 204 631T199 575H84Q84 760 188 760Q243 760 314 715ZM291 530Q416 530
469 483T523 327V140Q523 68 538 0H386Q378 45 376 73H374Q347 35 302 13T206 -10Q131 -10 86 32T41 147Q41 233 114 285T326 337H363V339Q363 383 346 400T284 417Q182 417 89 372L68 485Q169 530 291 530ZM187 162Q187 135 203 120T248 105Q298 105 330 136T363
215V239H326Q258 239 223 218T187 162Z" />
<glyph unicode="&#xe4;" glyph-name="adieresis" horiz-adv-x="594" d="M333 603V753H479V603H333ZM113 603V753H259V603H113ZM291 530Q416 530 469 483T523 327V140Q523 68 538 0H386Q378 45 376 73H374Q347 35 302 13T206 -10Q131 -10 86 32T41 147Q41 233 114
285T326 337H363V339Q363 383 346 400T284 417Q182 417 89 372L68 485Q169 530 291 530ZM187 162Q187 135 203 120T248 105Q298 105 330 136T363 215V239H326Q258 239 223 218T187 162Z" />
<glyph unicode="&#xe5;" glyph-name="aring" horiz-adv-x="594" d="M325 765T296 765T247 745T226 695T246 646T296 625T345 645T366 695T346 744ZM291 530Q416 530 469 483T523 327V140Q523 68 538 0H386Q378 45 376 73H374Q347 35 302 13T206 -10Q131 -10 86
32T41 147Q41 233 114 285T326 337H363V339Q363 383 346 400T284 417Q182 417 89 372L68 485Q169 530 291 530ZM439 754T439 695T397 594T296 552T195 594T153 695T195 796T296 838T397 796ZM187 162Q187 135 203 120T248 105Q298 105 330 136T363 215V239H326Q258
239 223 218T187 162Z" />
<glyph unicode="&#xe6;" glyph-name="ae" horiz-adv-x="905" d="M518 306H720Q719 421 618 421Q575 421 549 392T518 306ZM519 207Q526 158 559 131T646 103Q720 103 791 139L826 30Q737 -10 631 -10Q508 -10 434 72Q355 -10 206 -10Q131 -10 86 32T41 147Q41
233 114 285T326 337H365V339Q365 383 348 400T284 417Q182 417 89 372L68 485Q169 530 291 530Q414 530 465 483Q526 530 614 530Q735 530 802 461T869 262Q869 231 865 207H519ZM187 162Q187 135 203 120T248 105Q299 105 332 135T365 215V239H326Q258 239 223
218T187 162Z" />
<glyph unicode="&#xe7;" glyph-name="ccedilla" horiz-adv-x="550" d="M459 144L494 28Q440 3 377 -6Q414 -51 414 -97Q414 -155 366 -187T224 -220Q154 -220 99 -199L113 -92Q163 -117 216 -117Q284 -117 284 -61Q284 -29 259 -6Q153 11 92 81T31 260Q31 386
107 458T319 530Q412 530 494 492L459 374Q396 411 328 411Q264 411 229 373T193 260Q193 189 230 148T328 107Q396 107 459 144Z" />
<glyph unicode="&#xe8;" glyph-name="egrave" horiz-adv-x="580" d="M298 590L141 767H334L438 590H298ZM189 306H395Q394 421 293 421Q247 421 220 392T189 306ZM190 207Q197 158 231 131T321 103Q395 103 466 139L501 30Q412 -10 306 -10Q182 -10 107 63T31
260Q31 385 101 457T289 530Q410 530 477 461T544 262Q544 231 540 207H190Z" />
<glyph unicode="&#xe9;" glyph-name="eacute" horiz-adv-x="580" d="M268 767H461L304 590H164L268 767ZM189 306H395Q394 421 293 421Q247 421 220 392T189 306ZM190 207Q197 158 231 131T321 103Q395 103 466 139L501 30Q412 -10 306 -10Q182 -10 107 63T31
260Q31 385 101 457T289 530Q410 530 477 461T544 262Q544 231 540 207H190Z" />
<glyph unicode="&#xea;" glyph-name="ecircumflex" horiz-adv-x="580" d="M300 708L234 590H73L196 767H406L529 590H368L302 708H300ZM189 306H395Q394 421 293 421Q247 421 220 392T189 306ZM190 207Q197 158 231 131T321 103Q395 103 466 139L501 30Q412 -10
306 -10Q182 -10 107 63T31 260Q31 385 101 457T289 530Q410 530 477 461T544 262Q544 231 540 207H190Z" />
<glyph unicode="&#xeb;" glyph-name="edieresis" horiz-adv-x="580" d="M338 603V753H484V603H338ZM118 603V753H264V603H118ZM189 306H395Q394 421 293 421Q247 421 220 392T189 306ZM190 207Q197 158 231 131T321 103Q395 103 466 139L501 30Q412 -10 306 -10Q182
-10 107 63T31 260Q31 385 101 457T289 530Q410 530 477 461T544 262Q544 231 540 207H190Z" />
<glyph unicode="&#xec;" glyph-name="igrave" horiz-adv-x="353" d="M122 590L-35 767H158L262 590H122ZM93 0V520H262V0H93Z" />
<glyph unicode="&#xed;" glyph-name="iacute" horiz-adv-x="353" d="M194 767H388L231 590H91L194 767ZM91 0V520H260V0H91Z" />
<glyph unicode="&#xee;" glyph-name="icircumflex" horiz-adv-x="351" d="M174 708L108 590H-53L70 767H280L404 590H243L176 708H174ZM91 0V520H260V0H91Z" />
<glyph unicode="&#xef;" glyph-name="idieresis" horiz-adv-x="351" d="M212 603V753H359V603H212ZM-8 603V753H139V603H-8ZM91 0V520H260V0H91Z" />
<glyph unicode="&#xf0;" glyph-name="eth" horiz-adv-x="600" d="M194 107T300 107T406 260Q406 411 300 411T194 260Q194 107 300 107ZM351 680L508 744L542 660L435 617Q564 491 564 260Q564 135 494 63T300 -10T107 62T36 260Q36 374 106 443T300 513Q329 513
355 500L357 502Q337 535 301 563L120 489L87 573L192 615Q152 627 100 633L150 740Q264 728 351 680Z" />
<glyph unicode="&#xf1;" glyph-name="ntilde" horiz-adv-x="620" d="M330 715Q369 691 387 691Q399 691 404 703T409 750H524Q524 575 421 575Q367 575 295 620Q256 644 238 644Q225 644 221 631T216 575H101Q101 673 127 716T204 760Q259 760 330 715ZM66 520H214L218
448H220Q249 486 291 508T379 530Q473 530 516 475T559 287V0H401V270Q401 351 384 378T324 406Q287 406 257 366T226 273V0H66V520Z" />
<glyph unicode="&#xf2;" glyph-name="ograve" horiz-adv-x="595" d="M264 590L108 767H301L404 590H264ZM173 530T298 530T493 458T564 260T494 63T298 -10T102 62T31 260T102 457ZM298 107Q406 107 406 260T298 413Q189 413 189 260T298 107Z" />
<glyph unicode="&#xf3;" glyph-name="oacute" horiz-adv-x="595" d="M294 767H488L331 590H191L294 767ZM173 530T298 530T493 458T564 260T494 63T298 -10T102 62T31 260T102 457ZM298 107Q406 107 406 260T298 413Q189 413 189 260T298 107Z" />
<glyph unicode="&#xf4;" glyph-name="ocircumflex" horiz-adv-x="595" d="M297 708L230 590H69L193 767H403L526 590H365L299 708H297ZM173 530T298 530T493 458T564 260T494 63T298 -10T102 62T31 260T102 457ZM298 107Q406 107 406 260T298 413Q189 413 189
260T298 107Z" />
<glyph unicode="&#xf5;" glyph-name="otilde" horiz-adv-x="595" d="M315 715Q354 691 372 691Q384 691 389 703T394 750H509Q509 575 406 575Q352 575 280 620Q241 644 224 644Q211 644 206 631T201 575H86Q86 673 112 716T189 760Q244 760 315 715ZM173 530T298
530T493 458T564 260T494 63T298 -10T102 62T31 260T102 457ZM298 107Q406 107 406 260T298 413Q189 413 189 260T298 107Z" />
<glyph unicode="&#xf6;" glyph-name="odieresis" horiz-adv-x="595" d="M334 603V753H481V603H334ZM114 603V753H261V603H114ZM173 530T298 530T493 458T564 260T494 63T298 -10T102 62T31 260T102 457ZM298 107Q406 107 406 260T298 413Q189 413 189 260T298 107Z" />
<glyph unicode="&#xf7;" glyph-name="divide" horiz-adv-x="735" d="M281 0V163H454V0H281ZM281 417V580H454V417H281ZM71 226V354H664V226H71Z" />
<glyph unicode="&#xf8;" glyph-name="oslash" horiz-adv-x="605" d="M177 15L139 -37L66 17L103 66Q36 138 36 260Q36 385 107 457T303 530Q373 530 429 505L467 557L539 503L502 454Q569 382 569 260Q569 135 499 63T303 -10Q233 -10 177 15ZM253 118Q275 107
303 107Q411 107 411 260Q411 296 405 323L253 118ZM200 197L352 402Q330 413 303 413Q194 413 194 260Q194 224 200 197Z" />
<glyph unicode="&#xf9;" glyph-name="ugrave" horiz-adv-x="610" d="M304 590L148 767H341L444 590H304ZM219 520V220Q219 158 234 137T286 115Q324 115 354 154T384 247V520H544V0H396L393 72H391Q362 34 319 12T231 -10Q142 -10 102 38T61 203V520H219Z" />
<glyph unicode="&#xfa;" glyph-name="uacute" horiz-adv-x="610" d="M274 767H468L311 590H171L274 767ZM219 520V220Q219 158 234 137T286 115Q324 115 354 154T384 247V520H544V0H396L393 72H391Q362 34 319 12T231 -10Q142 -10 102 38T61 203V520H219Z" />
<glyph unicode="&#xfb;" glyph-name="ucircumflex" horiz-adv-x="610" d="M307 708L240 590H79L203 767H413L536 590H375L309 708H307ZM219 520V220Q219 158 234 137T286 115Q324 115 354 154T384 247V520H544V0H396L393 72H391Q362 34 319 12T231 -10Q142 -10
102 38T61 203V520H219Z" />
<glyph unicode="&#xfc;" glyph-name="udieresis" horiz-adv-x="610" d="M344 603V753H491V603H344ZM124 603V753H271V603H124ZM219 520V220Q219 158 234 137T286 115Q324 115 354 154T384 247V520H544V0H396L393 72H391Q362 34 319 12T231 -10Q142 -10 102 38T61
203V520H219Z" />
<glyph unicode="&#xfd;" glyph-name="yacute" horiz-adv-x="605" d="M269 767H463L306 590H166L269 767ZM297 153H299L411 520H579L299 -220H131L223 0L26 520H203L297 153Z" />
<glyph unicode="&#xfe;" glyph-name="thorn" horiz-adv-x="619" d="M430 260Q430 333 403 370T328 407Q282 407 254 370T226 265V255Q226 187 254 150T328 113Q373 113 401 151T430 260ZM583 260Q583 133 525 62T376 -10T228 62H226V-220H66V750H226V448H228Q291
530 376 530Q471 530 527 460T583 260Z" />
<glyph unicode="&#xff;" glyph-name="ydieresis" horiz-adv-x="605" d="M339 603V753H486V603H339ZM119 603V753H266V603H119ZM297 153H299L411 520H579L299 -220H131L223 0L26 520H203L297 153Z" />
<glyph unicode="&#x2013;" glyph-name="endash" horiz-adv-x="471" d="M-2 238V342H473V238H-2Z" />
<glyph unicode="&#x2014;" glyph-name="emdash" horiz-adv-x="946" d="M-2 238V342H948V238H-2Z" />
<glyph unicode="&#x2018;" glyph-name="quoteleft" horiz-adv-x="354" d="M229 470H36L153 770H293L229 470Z" />
<glyph unicode="&#x2019;" glyph-name="quoteright" horiz-adv-x="354" d="M318 770L201 470H61L124 770H318Z" />
<glyph unicode="&#x201a;" glyph-name="quotesinglbase" horiz-adv-x="369" d="M114 190H308L191 -110H51L114 190Z" />
<glyph unicode="&#x201c;" glyph-name="quotedblleft" horiz-adv-x="560" d="M441 470H264L381 770H504L441 470ZM208 470H31L148 770H271L208 470Z" />
<glyph unicode="&#x201d;" glyph-name="quotedblright" horiz-adv-x="560" d="M353 770H529L413 470H289L353 770ZM119 770H296L179 470H56L119 770Z" />
<glyph unicode="&#x201e;" glyph-name="quotedblbase" horiz-adv-x="575" d="M343 190H519L403 -110H279L343 190ZM109 190H286L169 -110H46L109 190Z" />
<glyph unicode="&#x2022;" glyph-name="bullet" horiz-adv-x="525" d="M324 218T263 218T159 261T116 365T159 469T263 512T366 469T409 365T367 261Z" />
<glyph unicode="&#x2039;" glyph-name="guilsinglleft" horiz-adv-x="448" d="M372 523L208 290L372 57H216L56 290L216 523H372Z" />
<glyph unicode="&#x203a;" glyph-name="guilsinglright" horiz-adv-x="448" d="M76 523H232L392 290L232 57H76L240 290L76 523Z" />
</font>
</defs>
</svg>
