<svg xmlns="http://www.w3.org/2000/svg" xml:space="preserve" baseProfile="tiny" overflow="visible" version="1.2" viewBox="0 0 1605 758"><path fill="#303034" d="m175.3 332.8 17.9 12.4 138.9-188.3-17.9-12.5-10.4-61.7-17.6-12.3-192 260.3 17.5 12.2zm124.9 87c62.7-51.3 139.7-15.4 200.5 27.9l30-40.6c-61.9-42.6-121.8-101.5-91.3-174.6 1.2-1.7-78.7-54.8-78.9-55.8L221.5 365l78.7 54.8zM61.6 299.4l152-206-129.6 46L54.1 306c2.9-1.7 5.5-3.9 7.5-6.6z"/><path fill="#303034" d="m323.1 54.4 12.7 8.9 10.5 61.8L459.5 204c51.4 48-64.1 69.2 97.7 180 8.2 5.7 12.4 15.6 10.9 25.5l45.9 32-16.1 97.8-82.9-57.9c-8.9 4.5-20.1 3.9-28.3-1.9-160.2-113.4-143-.5-206.8-32.2l-113.1-78.9-63.6 10.2-51.9-36.2c-1.2.2-2.5.4-3.7.5L22.4 482.7l275.2 223.6 336.8-119.7L696 243.3 420.9 19.7l-97.8 34.7z"/><path fill="#303034" d="M1577.9 427c-8.7-6.6-50.2-7-62.9-10-6.8-1.1-12.7-1.4-19.5-.8-25.7-.8-51.3-2.9-77-.9-29.1-.8-58.4.4-87.4-2.7-6.6-.5-13.1-1.2-19.7-1.4-5.9 1-11.8 1.8-17.8.4-34.5 1.9-69.3-3.8-104.1-2.7-80.8.3-161.9 1.7-242.9-.3-15.5-.8-30.9-1.4-46.3.8-16.2-2.1-32.4-.3-48.7-1.5-15.3.5-30.5 2.9-45.7 0-31-.3-62 1.9-93.1 1.7-24.9-2.2-49.9-2.1-74.9-2.6l-12.3 179c126.4-5.3 815.8 12.4 922.4-11 13.1-9.8 12-21.6 24.7-83.1 8.7-42.1 13.7-58.5 5.2-64.9zM773.6 551.5H765l7.2-43.4h-53.6l-7.2 43.4h-8.6l15.7-94.5h8.6l-7.2 43.3h53.6l7.2-43.3h8.6l-15.7 94.5zm31.5 0h-8.6l15.7-94.5h8.6l-15.7 94.5zm35.4-25.4c9.8 33.4 57.9 17.6 60.4-12.6h-27.5l1.4-7.8h35.9c-1.8 17.5-9.3 34.6-25.4 42.3-18.9 10-46.9 4.7-52.7-18.1-6.8-25 5.2-60.5 30.8-70.9 21-10 50.5 2 49.7 27.4h-8.9c-.6-21.2-25.2-28.4-41.6-18-18.4 9.9-27.1 38.3-22.1 57.7zm152.8 25.4h-8.6l7.2-43.4h-53.6l-7.2 43.4h-8.6L938 457h8.6l-7.2 43.3H993l7.2-43.3h8.6l-15.5 94.5zm76.6 0h-53.7l15.7-94.5h8.6l-14.4 86.8h45.1l-1.3 7.7zm24 0h-8.6L1101 457h8.6l-15.7 94.5zm35.3-25.4c9.8 33.4 57.9 17.6 60.4-12.6H1162l1.4-7.8h35.9c-1.8 17.5-9.3 34.6-25.4 42.3-18.9 10-46.9 4.7-52.7-18.1-6.8-25 5.2-60.5 30.8-70.9 21-10 50.5 2 49.7 27.4h-8.9c-.6-21.2-25.2-28.4-41.6-18-18.3 9.9-27 38.3-22 57.7zm152.8 25.4h-8.6l7.2-43.4H1227l-7.2 43.4h-8.6l15.7-94.5h8.6l-7.2 43.3h53.6l7.2-43.3h8.6l-15.7 94.5zm68.2-86.7-14.4 86.8h-8.6l14.4-86.8h-30l1.3-7.8h68.6l-1.3 7.8h-30zm100.1 0h-46.2l-5.9 35.6h43.3l-1.3 7.8h-43.3l-5.9 35.7h47.1l-1.3 7.8H1381l15.7-94.5h54.8l-1.2 7.6zm74.9 20.5c-1.9 12.4-10.2 22.6-22.3 26.2l15.2 40h-9.9l-14.3-38.4c-2 .3-23.2.1-25.7.1l-6.3 38.2h-8.6l15.7-94.5c22.1.7 62-6.8 56.2 28.4z"/><path fill="#303034" d="M1509.9 467.3c-6.2-4.2-26-2.1-33.6-2.5l-6.8 40.7c8.3-.5 27.3 1.5 34.5-2.4 12.8-5.4 19.1-28 5.9-35.8zm-787.6-49.8 29-174.5c31.8 3.5 108.2-12.2 126.4 20.5 13.4 25.7-9.8 57.4-37.1 61.3l-.3 1.7c37.1.3 43.4 43 22.1 67.1-13.9 16.5-35.2 24-57.9 23.9h-82.2zm53.9-37.8c10.7-.4 32.5 2 40.7-4.5 9.9-6.1 12.4-25.1.1-30.1-6.8-3.7-27.1-1.8-35-2.2l-5.8 36.8zm10.9-66.2c14.8-.1 40.2 3.2 43.3-16.7 3.4-21.1-25-16.2-37.8-16.7l-5.5 33.4zm91.4 104 29-174.5h47.4l-22.5 136.4h70.6l-6.5 38.2h-118zm260.8 0h51.1L1161.8 243H1097l-86.6 174.5h51.1l15.7-33.4h57.6l4.5 33.4zm-45.4-68.9 27-57.6h1.4l7.8 57.6h-36.2zm281.2-40.2h-47.4c3.9-27.8-27.2-32.5-45.8-20.4-15 9.7-22.2 26.4-25.5 45-2.2 16.3-2.7 31 8.8 40.7 17.8 11.9 48.5 2.3 54.6-19.2h47.7c-12.8 54.1-82.1 83-129.9 54.7-42.8-24.7-35.7-93.9-10.1-129.6 18.1-25.3 46.4-39 77-38.9 40.9-1.6 75.7 24.5 70.6 67.7zm-1.7 109.1 29-174.5h47.4l-11.6 70.6h2.4l64.1-70.6h55.2l-71.6 77.7 48.5 106.7h-56.9l-32.2-75.4-19.4 20.8-7.5 44.7h-47.4z"/></svg>