<?xml version="1.0" encoding="utf-8"?><svg xmlns="http://www.w3.org/2000/svg" data-name="Layer 1" viewBox="0 0 1605 758"><path fill="#303034" d="M788.82 415.35h-89.48l30.15-170.76h87.06c34 0 53.3 14.71 48.24 44.38-3.62 20.5-18.09 34.49-35.7 38.83 20.26 5.06 28.95 21.71 25.33 40.76-5.07 29.9-28.42 46.79-65.6 46.79zm.24-67.05H764.7l-4.1 24.12H785c9.64 0 14.71-3.38 16.16-11.82 1.4-8.2-2.46-12.3-12.1-12.3zm7.23-61.3h-20.74l-4.34 24.12H792c9.65 0 15-3.62 16.4-11.82 1.4-8.4-2.46-12.3-12.11-12.3zm154.55-42.41l-22.91 130.24h51.61l-7.23 40.52H867.15l30.15-170.76zM1106 389.54h-57l-13 25.81h-56.2l92.62-170.76h61.74l32.07 170.76h-56.43zm-12.78-87.79l-23.88 47.51h30.87zm185.44-58.85c45.1 0 71.15 29 70.91 72.12h-56.44c-3.13-12.15-12.06-19.13-24.11-19.13-18.09 0-31.84 15.77-35.7 40.06-4.1 24.3 4.58 40.06 22.67 40.06 12.06 0 23.16-7 30.39-19.12h56.44C1328.59 400.05 1293.13 429 1248 429c-52.33 0-77.9-38.51-69-93.05s47.33-93.05 99.66-93.05zm138.66 98.16l-13 74.29h-53.55l30.15-170.76h53.54l-12.78 71.87 61.74-71.87h60.54l-73.56 81.76 48.27 93H1455z"/><path fill="#303034" d="M1572.67 491.86c8.71-42.1 13.75-58.44 5.27-64.86-8.65-6.56-50.16-7.05-62.94-10a94.41 94.41 0 0 0-10-1c-3.84-1-5.6.55-9.45.18-5.24-.51-10.5 0-15.74-.28-9-.46-17.89-1.26-26.83-1.78-3-.18-6 0-9 .12-8.47.35-17 1-25.43 1.06-7.55.09-15.1-.48-22.64-.53-10.86-.07-21.71.39-32.56 0s-21.44-1.4-32.16-2.17c-6.56-.48-13.11-1.2-19.67-1.4-2.77-.08-5.55 1.25-8.32 1.31a71.92 71.92 0 0 1-9.45-.9c-.39 0-.77-.44-1.15-.41-5.07.36-10.14.94-15.21 1.11-3.37.11-6.73-.4-10.1-.54-10.89-.45-21.78-.74-32.67-1.32-4.27-.22-8.54-1.05-12.81-1.59a12.52 12.52 0 0 0-1.62 0c-10.17 0-20.34-.1-30.51 0-5.71.06-11.42.58-17.14.63-3.69 0-7.38-.59-11.08-.56-5.25 0-10.5.7-15.75.57-5.54-.13-11.08-1.31-16.62-1.27-9.44.06-18.88.95-28.31 1.08-26.62.36-53.24.69-79.86.68-13.08 0-26.15-.9-39.23-1.18-11.64-.24-23.28-.07-34.91-.29-9.64-.19-19.29-1-28.93-.91-5.78 0-11.55 1.66-17.33 1.66s-11.64-1.35-17.47-1.62c-3.4-.16-6.8 1-10.2.95-7-.09-14-.79-21-.86-4.95-.05-9.9.5-14.85.8-5.46.33-10.91 1-16.36.89-4.84-.11-9.67-1.6-14.5-1.64-12.2-.1-24.39.25-36.59.49-5.25.1-10.49.43-15.73.55-13.58.29-27.16.85-40.73.66-9.33-.13-18.65-1.55-28-2-6.79-.34-13.58.06-20.38-.05-8.83-.14-17.67-.37-26.5-.59L625.57 586h750.66c3-.33 5.93-.79 8.9-.92 1.22-.06 2.44.59 3.65.92 37.48-1.47 67.37-2.44 87.16-3 34.5-1 62.81-1.1 72-8 13.12-9.84 11.99-21.56 24.73-83.14zm-862 52.91L718 505h-27.63L683 544.77h-18.07l17.83-96.66H701l-7.35 39.5h27.62l7.35-39.5h18.23l-18 96.66zm98.33-17.4l.47 17.4h-63l-.47-17.4h22.37l11.45-61.86h-22.37l-.47-17.4h63l.47 17.4H798l-11.4 61.86zm91.44-50.05a39.09 39.09 0 0 1-.59 3.93l-.37 1.66h-18.25l.37-1.66a20.47 20.47 0 0 0 .54-5.38 11.89 11.89 0 0 0-3.83-9.05c-2.46-2.16-6-3.24-10.59-3.24a21.13 21.13 0 0 0-7.28 1.24 18.48 18.48 0 0 0-6.31 3.94 22.9 22.9 0 0 0-5 7 43.25 43.25 0 0 0-3.3 10.7L842 506.94a31.84 31.84 0 0 0-.58 4.14c-.06 1.11-.08 2.21 0 3.31.14 5 1.53 8.7 4.17 11.19s6.18 3.73 10.6 3.73q8.14 0 13.21-4.35a19.43 19.43 0 0 0 6.38-11.67h-21.35l-.47-17.4h42.67v1.66L888 544.77h-16.56L873.5 534H871a23.07 23.07 0 0 1-8 9q-5.43 3.65-14.81 3.66a28.22 28.22 0 0 1-10-1.73 21.93 21.93 0 0 1-8-5.18 24.88 24.88 0 0 1-5.41-8.49 33.88 33.88 0 0 1-2.18-11.67 56.27 56.27 0 0 1 1.06-11.87l4.22-22.65q3.74-20 14.46-29.48t28.26-9.46a34.18 34.18 0 0 1 12.4 2.19 27.47 27.47 0 0 1 9.35 5.87 26.85 26.85 0 0 1 6 8.63 27.8 27.8 0 0 1 2.28 10.43 31.73 31.73 0 0 1-.22 4.07zm66.94 67.45h-18.25l7.34-39.77h-27.61l-7.35 39.77h-18.09l17.82-96.66h18.23l-7.36 39.5h27.62l7.36-39.5h18.22zm19.68 0v-1.65l17.59-95h18.22l-14.7 79.26h42l.47 17.4zm138.12-17.4l.47 17.4h-63l-.47-17.4h22.37l11.45-61.86h-22.37l-.47-17.4h63l.47 17.4h-22.37l-11.45 61.86zm91.44-50.05a39.22 39.22 0 0 1-.58 3.93l-.37 1.66h-18.23l.37-1.66a21.48 21.48 0 0 0 .48-2.9c.06-.82.09-1.65.07-2.48a11.93 11.93 0 0 0-3.84-9.05q-3.67-3.24-10.58-3.24a21.14 21.14 0 0 0-7.29 1.24 18.57 18.57 0 0 0-6.31 3.94 23.24 23.24 0 0 0-5 7 44.11 44.11 0 0 0-3.3 10.7l-3.86 20.44a30.19 30.19 0 0 0-.58 4.14c-.07 1.11-.08 2.21 0 3.31.13 5 1.52 8.7 4.17 11.19s6.17 3.73 10.59 3.73q8.14 0 13.21-4.35a19.38 19.38 0 0 0 6.38-11.67h-21.26l-.47-17.4h42.67v1.66l-8.67 47.22h-16.57l2.06-10.77h-2.48a23 23 0 0 1-8 9q-5.42 3.65-14.81 3.66a28.26 28.26 0 0 1-10-1.73 21.93 21.93 0 0 1-8-5.18 25.18 25.18 0 0 1-5.41-8.49 34.11 34.11 0 0 1-2.18-11.67 57.63 57.63 0 0 1 1.06-11.87l4.22-22.65q3.73-20 14.46-29.48t28.26-9.46a34.24 34.24 0 0 1 12.42 2.14 27.42 27.42 0 0 1 9.34 5.87 27 27 0 0 1 6 8.63 27.8 27.8 0 0 1 2.28 10.43 31.8 31.8 0 0 1-.28 4.16zm67 67.45h-18.23l7.35-39.77H1245l-7.35 39.77h-18.05l17.83-96.66h18.23l-7.36 39.5h27.62l7.35-39.5h18.23zm70.29-79.26l-14.7 79.26h-18.31l14.71-79.26h-25.69l-.47-17.4h69.6l.47 17.4zm54.89 0l-4.1 22.1h37.43l.47 17.39h-41.15l-4.09 22.37H1438l.47 17.4h-62.27v-1.65l17.59-95h57.31l.47 17.4zm121 22.16q-4.47 6.29-13.9 9.46l.06 2.49a9.43 9.43 0 0 1 6.23 2.83 9.16 9.16 0 0 1 2.3 6.14 13.55 13.55 0 0 1-.2 2.77l-6.29 33.41h-18.5l5.43-29a12 12 0 0 0 .22-2.2 5.21 5.21 0 0 0-1.62-3.8 6.76 6.76 0 0 0-4.74-1.45h-20l-6.79 36.45h-18.09l17.83-96.66h34a35.49 35.49 0 0 1 12 1.87 27.51 27.51 0 0 1 8.83 5 20.08 20.08 0 0 1 5.45 7.39 24.18 24.18 0 0 1 2 9q.18 10.02-4.27 16.3z"/><path fill="#303034" d="M1503.12 465.51h-16.44l-4.68 25.41h16.57q7.31 0 11.91-3.87a12.53 12.53 0 0 0 4.41-10.49c-.1-3.5-1.12-6.21-3.05-8.15s-4.84-2.9-8.72-2.9zM175.26 332.75l17.9 12.47L332.13 156.9l-17.89-12.47-10.49-61.78-17.53-12.22L94.15 330.7l17.54 12.22 63.57-10.17zm124.93 87.06a.9.9 0 0 0 1-.15 120.52 120.52 0 0 1 34.38-19.43 103.78 103.78 0 0 1 36.1-6.13c44.33.22 88.93 26.46 129 53.61l30-40.59c-50.06-35.88-101-79-99.24-136.79a113.63 113.63 0 0 1 7.91-37.83.85.85 0 0 0-.19-1l-78.67-54.83L221.51 365zM61.56 299.35l152-206L84 139.36 54.09 306a24.21 24.21 0 0 0 7.47-6.65z"/><path fill="#303034" d="M323.07 54.41l12.74 8.88 10.48 61.79L459.47 204a34.18 34.18 0 0 1 12.47 40.59 80.47 80.47 0 0 0-5.65 26.81c-1.22 39.2 35.46 73.37 90.91 112.6a26.31 26.31 0 0 1 10.91 25.47l45.9 32-16.07 97.76L515 481.44a28.43 28.43 0 0 1-12.74 3 27.74 27.74 0 0 1-15.6-4.85c-56-38.45-101.06-61.24-138.9-47.56a85.6 85.6 0 0 0-24.37 13.82 36.57 36.57 0 0 1-43.55 1.54l-113.15-78.92-63.58 10.16-51.93-36.19c-1.23.2-2.47.35-3.72.47L22.36 482.7l275.18 223.64 336.84-119.7L696 243.31 420.85 19.67z"/></svg>