<?xml version="1.0" encoding="utf-8"?><svg xmlns="http://www.w3.org/2000/svg" xmlns:xlink="http://www.w3.org/1999/xlink" xml:space="preserve" id="SCP_Logo" x="0" y="0" baseProfile="tiny" overflow="visible" version="1.2" viewBox="0 0 2465 2280"><g id="Outline"><path id="Outer_Outline" fill="#FFFFFF" d="M1232.5 2280c-120.77 0-239.45-19.63-352.76-58.35-94.86-32.42-184.64-77.76-267.18-134.91l-211.11 44.16L1.94 1439.1l143.87-160.77c-2.36-29.4-3.56-59.02-3.56-88.32 0-218.4 64.4-429.15 186.24-609.47C387.18 493.68 457.98 415.78 538.92 349c69.51-57.35 145.72-105.82 226.83-144.29L833.01 0h798.98l67.25 204.7c81.11 38.46 157.32 86.93 226.83 144.29 80.94 66.79 151.74 144.69 210.43 231.54 121.84 180.31 186.24 391.06 186.24 609.47 0 29.31-1.19 58.92-3.56 88.32l143.87 160.77-399.51 691.8-211.11-44.16c-82.54 57.15-172.32 102.49-267.18 134.91-113.3 38.73-231.98 58.36-352.75 58.36zm-512.26-462.95c70.78 58.01 150.02 103.21 235.54 134.36 88.48 32.23 181.59 48.58 276.72 48.58 95.13 0 188.24-16.34 276.72-48.57 85.52-31.15 164.76-76.36 235.54-134.36l37.04-30.36 140.19 29.39 197.6-342.17-95.8-106.95 7.58-47.09c6.87-42.69 10.35-86.38 10.35-129.88 0-167.71-50.73-328.58-146.69-465.22a813.809 813.809 0 0 0-165.41-173.96c-64.04-49.98-134.84-89.86-210.43-118.53l-44.67-16.94-44.39-135.33h-395.24l-44.4 135.34-44.66 16.94c-75.59 28.67-146.39 68.55-210.43 118.53a813.376 813.376 0 0 0-165.42 173.96C474.01 861.43 423.29 1022.3 423.29 1190c0 43.49 3.48 87.19 10.35 129.87l7.57 47.08-95.8 106.96 197.6 342.17 140.19-29.39 37.04 30.36z"/><path id="Inner_Outline" fill="#FFFFFF" d="M1232.5 1920c-98.53 0-194.16-19.31-284.23-57.4-86.96-36.77-165.03-89.39-232.06-156.41a738.511 738.511 0 0 1-37.5-40.4l-117.15 67.64-135.02-233.86 116.92-67.5c-27.3-77.54-41.11-158.78-41.11-242.06 0-98.52 19.32-194.13 57.41-284.18 36.78-86.94 89.42-165 156.45-232.01 67.03-67.01 145.11-119.64 232.06-156.41a725.917 725.917 0 0 1 149.47-45.01V337h270.04v135.48a726.257 726.257 0 0 1 148.94 44.91c86.96 36.77 165.03 89.39 232.06 156.41s119.67 145.08 156.45 232.01c38.1 90.05 57.42 185.66 57.42 284.18 0 83.2-13.78 164.34-41.02 241.81l117.36 67.76-135.02 233.86-117.51-67.84a738.053 738.053 0 0 1-37.68 40.61c-67.03 67.01-145.11 119.64-232.06 156.41-90.06 38.08-185.69 57.4-284.22 57.4zm-201.92-327.68c8.75 4.39 17.66 8.51 26.73 12.34 55.44 23.45 114.39 35.33 175.19 35.33s119.75-11.89 175.19-35.33c9.2-3.89 18.25-8.08 27.13-12.54l-202.05-306.09-202.19 306.29zm-102.28-70.63a449.91 449.91 0 0 0 54.96 43.14l-32.42-56.16-22.54 13.02zm554.31 42.57a449.116 449.116 0 0 0 54.3-42.75l-22.21-12.83-32.09 55.58zm-699.36-345.85c1.46 23.53 4.73 46.75 9.79 69.56l22.78-13.15-32.57-56.41zm888.77 69.29c4.95-22.38 8.18-45.17 9.66-68.25l-31.97 55.37 22.31 12.88zM985.43 813.73c-25.51 16.78-49.32 36.18-71.22 58.08-41.36 41.35-73.83 89.49-96.5 143.06-20.08 47.47-31.69 97.5-34.6 149.07l366.49-21.96-164.17-328.25zm696.46 350.18c-2.92-51.56-14.52-101.58-34.6-149.04-22.67-53.58-55.13-101.71-96.49-143.06-21.79-21.79-45.46-41.1-70.82-57.82l-164.04 327.99 365.95 21.93zM1432.07 786.5c-7.99-3.95-16.12-7.68-24.37-11.17a444.56 444.56 0 0 0-39.91-14.68v25.85h64.28zm-334.32 0v-26.02c-13.69 4.29-27.2 9.25-40.44 14.85a443.92 443.92 0 0 0-24.37 11.17h64.81z"/></g><path fill="none" d="M1835.5 577.38a863.774 863.774 0 0 0-75.13-65.97c-68-53.07-143.18-95.42-223.46-125.87l-22.34-8.47-25.29-77.12-22.94-69.94H998.66l-44.4 135.33-3.85 11.73-22.33 8.47c-67.09 25.45-130.62 59.21-189.37 100.6a856.96 856.96 0 0 0-34.08 25.27 864.887 864.887 0 0 0-121.66 115.6 867.35 867.35 0 0 0-53.91 69.04 863.755 863.755 0 0 0-58.79 96.57A851.504 851.504 0 0 0 397.54 986c-16.05 66.17-24.26 134.53-24.26 204 0 6.87.09 13.74.26 20.62.93 39.31 4.52 78.63 10.73 117.19l3.79 23.54-60.95 68.06-43.11 48.13 130.18 225.41 103.66 179.49 152.2-31.91 18.52 15.18c75.14 61.59 159.29 109.59 250.12 142.67 93.98 34.24 192.84 51.6 293.83 51.6 30.5 0 60.81-1.59 90.85-4.75 69.41-7.29 137.39-22.95 202.98-46.85a856.973 856.973 0 0 0 94.92-41.24c55.03-27.98 106.97-61.9 155.2-101.43l18.52-15.18 61.62 12.92 90.59 18.99 89.46-154.92 114.58-198.42 29.78-51.57-104.06-116.18 3.79-23.54c7.29-45.31 10.98-91.68 10.98-137.82 0-5.74-.06-11.46-.17-17.19-2-102.24-21.79-201.88-58.27-295.4-24.83-63.66-57.39-124.49-97.34-181.37a864.498 864.498 0 0 0-100.44-118.65zm-61.08 1023.67a684.71 684.71 0 0 1-60.98 69.78 693.228 693.228 0 0 1-48.62 44.2c-50.63 41.78-106.77 75.81-167.56 101.52a677.09 677.09 0 0 1-74.52 26.51c-61.45 17.89-125.16 26.94-190.23 26.94-91.81 0-180.88-17.98-264.75-53.45-81-34.25-153.73-83.28-216.19-145.72a685.786 685.786 0 0 1-60.98-69.78l-110.99 64.08-85.02-147.26 15.57-8.99 95.31-55.03c-20.04-47.54-34.45-96.74-43.16-147.16-6.61-38.26-9.95-77.22-9.95-116.69 0-37.13 2.95-73.82 8.8-109.9 8.62-53.1 23.54-104.87 44.66-154.8a682.132 682.132 0 0 1 19.09-41.22c31.09-61.71 71.26-118.05 119.86-168.01 2.25-2.31 4.52-4.62 6.8-6.91 54.99-54.98 117.95-99.55 187.5-132.79 9.44-4.51 19-8.83 28.69-12.92 57.72-24.41 117.9-40.53 179.73-48.22V387h170.04v128.23c61.84 7.68 122.02 23.81 179.73 48.22 81 34.25 153.73 83.28 216.19 145.72 24.51 24.5 46.94 50.59 67.23 78.13 31.42 42.65 57.71 88.8 78.52 138 19.49 46.06 33.68 93.68 42.53 142.47 7.26 40.04 10.93 80.85 10.93 122.23 0 45.15-4.36 89.65-13.01 133.18-8.87 44.67-22.25 88.33-40.1 130.67l110.88 64.02-53.39 92.47-31.63 54.79-110.98-64.08z"/><path fill="none" d="m1232.59 1195.41-.09-.13-.11.16-.24.37-60.87 92.21-122.23 185.16-32.67 49.49-41.49-71.87-6.02-10.42-9.76 5.63-110.9 64.03a508.94 508.94 0 0 0 30.64 33.51c45.94 45.93 99.43 81.99 158.98 107.17 61.64 26.07 127.13 39.28 194.67 39.28s133.03-13.22 194.67-39.28a501.21 501.21 0 0 0 55.35-27.54c37.72-21.78 72.42-48.42 103.63-79.62a506.177 506.177 0 0 0 30.64-33.51l-120.66-69.66-47.51 82.29-126.02-190.91-89.75-135.96-.26-.4zm-5.28-8.01.62-.04-.02-.04-58.64-117.26-116.81-233.56h95.02V697.17c-37.59 6.42-74.25 17.15-109.64 32.11-37.47 15.84-72.54 36-104.84 60.21a503.756 503.756 0 0 0-54.14 46.96c-35.53 35.52-65.15 75.57-88.41 119.43a501.147 501.147 0 0 0-18.78 39.5c-21.37 50.51-34.1 103.62-38 158.31-.86 12.03-1.29 24.13-1.29 36.3 0 59.62 10.32 117.66 30.69 172.86l120.79-69.74-47.51-82.29 55.88-3.35 335.08-20.07zm9.83-.18-.07.14.62.04 390.97 23.43-47.51 82.29 120.79 69.74c14.63-39.64 24.07-80.74 28.23-122.84 1.63-16.53 2.45-33.21 2.45-50.01 0-67.51-13.22-132.99-39.29-194.61-.9-2.14-1.83-4.26-2.76-6.39-25.03-56.98-60.14-108.27-104.43-152.55-45.94-45.93-99.43-81.99-158.98-107.17-35.39-14.97-72.06-25.69-109.65-32.11V836.5h95.02l-34.96 69.89-96.33 192.6-44.1 88.23z"/><path fill="#FFFFFF" d="M480.2 1946.69c-57.04-22.69-113.71-46.68-169.38-72.71l115.83 200.57 197-41.21c83.5 60.37 174.98 107.76 272.26 141 94.37 32.25 192.66 50.61 292.79 54.76-92.51-46.9-188.53-87-285.27-124.24-140.56-54.12-283.27-102.49-423.23-158.17z"/><path fill="#FFAFC8" d="M1323.35 2045.24a870.938 870.938 0 0 1-90.85 4.75c-100.99 0-199.85-17.36-293.83-51.6-90.82-33.08-174.98-81.09-250.12-142.67l-18.52-15.18-152.2 31.91-103.66-179.49c-86.77-38.67-171.22-82.4-250.96-134.24a1404.412 1404.412 0 0 1-57.07-39.16l204.68 354.42c55.67 26.03 112.34 50.02 169.38 72.71 139.96 55.68 282.67 104.06 423.23 158.17 96.75 37.24 192.76 77.34 285.27 124.24 14.56.6 29.17.91 43.8.91 107.06 0 212.39-16.17 313.46-48.08-38.44-28.71-78.47-55.44-119.85-80.14-33.61-20.07-67.92-38.84-102.76-56.55z"/><path fill="#74D7EE" d="M414.17 1692.96 284 1467.54l43.11-48.13c-19.66-11.06-39.11-22.54-58.28-34.5-32.17-20.07-63.52-41.46-93.86-64.19L63.35 1445.45l42.79 74.1a1390.58 1390.58 0 0 0 57.07 39.16c79.74 51.85 164.19 95.57 250.96 134.25zm273.51-115.33c-59.75-21.2-119.17-43.8-177.54-68.75l-15.57 8.99 85.02 147.26 110.99-64.08a684.71 684.71 0 0 0 60.98 69.78c62.45 62.44 135.19 111.47 216.19 145.72 83.87 35.47 172.95 53.45 264.75 53.45 65.08 0 128.78-9.05 190.23-26.94-102.3-49.55-209.06-89.85-316.53-126.66-139.05-47.63-279.98-89.62-418.52-138.77zm838.65 420.77c-65.6 23.89-133.57 39.56-202.98 46.85 34.84 17.71 69.15 36.48 102.76 56.54 41.38 24.7 81.41 51.43 119.85 80.14 7.73-2.44 15.44-4.96 23.12-7.59a1034.581 1034.581 0 0 0 203.64-95.41c-47.18-44.4-97.91-84.99-151.48-121.77a856.249 856.249 0 0 1-94.91 41.24z"/><path fill="#613915" d="m1856.59 1853.46-61.62-12.92-18.52 15.18c-48.23 39.53-100.17 73.45-155.2 101.43 53.57 36.78 104.29 77.38 151.48 121.77 23.41-14.26 46.31-29.45 68.62-45.59l197.01 41.21 5.5-9.53c-8.24-12.12-16.7-24.1-25.4-35.9-47.67-64.63-102.12-123.14-161.87-175.65zm-807.54-380.28c-24.72-7.46-49.45-14.9-74.17-22.38l41.49 71.87 32.68-49.49zm-721.95-53.77 60.95-68.06-3.79-23.54c-6.2-38.56-9.79-77.89-10.73-117.19-62.09-37.14-121.25-79.22-175.95-126.57-3.55 35.03-5.34 70.39-5.34 105.95 0 35.09 1.78 70.47 5.31 105.47l-22.61 25.26c30.34 22.73 61.69 44.12 93.86 64.19 19.2 11.95 38.64 23.43 58.3 34.49z"/><path fill="#613915" d="M1482.51 1623.17a501.21 501.21 0 0 1-55.35 27.54c-61.64 26.07-127.13 39.28-194.67 39.28s-133.03-13.22-194.67-39.28c-59.55-25.18-113.04-61.24-158.98-107.17a506.177 506.177 0 0 1-30.64-33.51L959.1 1446c-56.64-17.21-113.18-34.74-169.35-53.46-76.82-25.61-153.15-53.53-227.47-85.87 8.71 50.42 23.13 99.63 43.16 147.16l-95.31 55.03c58.37 24.95 117.79 47.55 177.54 68.75 138.54 49.15 279.47 91.14 418.52 138.77 107.47 36.81 214.23 77.12 316.53 126.66a677.09 677.09 0 0 0 74.52-26.51c60.79-25.71 116.93-59.74 167.56-101.52-13.87-8.19-27.89-16.15-42.06-23.86-45.68-24.85-92.55-47.32-140.23-67.98z"/><path d="M1917.04 1610.34c-61.04-47.41-126.81-88.92-195.87-124.65-126.81-65.61-262.13-112.75-398.57-153.93l126.02 190.91 47.51-82.29 120.66 69.66a508.94 508.94 0 0 1-30.64 33.51c-31.21 31.21-65.92 57.85-103.63 79.62 47.67 20.66 94.54 43.13 140.24 68 14.17 7.71 28.19 15.67 42.06 23.86a683.936 683.936 0 0 0 48.62-44.2 685.786 685.786 0 0 0 60.98-69.78l110.99 64.08 31.63-54.79zm291.15 146.44c-3.4 7.83-6.79 15.66-10.19 23.49 3.39-7.83 6.79-15.66 10.19-23.49zm-171.55-39.25-89.46 154.92-90.59-18.99c59.75 52.51 114.21 111.02 161.87 175.66 8.7 11.8 17.16 23.78 25.4 35.9l113.69-196.86c-13.44-20.13-27.45-39.86-42.14-59.1-24.57-32.16-50.9-62.64-78.77-91.53zM959.11 1446.01l9.76-5.63 6.02 10.42c24.71 7.48 49.44 14.92 74.17 22.38l122.23-185.16c-92.51-25.98-185.2-51.35-276.97-79.88-.7-.22-1.39-.44-2.09-.65l-55.88 3.35 47.51 82.29-120.79 69.74c-20.37-55.2-30.69-113.23-30.69-172.86 0-12.17.44-24.27 1.29-36.3-58.63-21.88-116.37-46.07-172.52-73.6-5.86 36.08-8.8 72.76-8.8 109.9 0 39.47 3.33 78.43 9.95 116.69 74.32 32.34 150.65 60.26 227.47 85.87 56.16 18.71 112.7 36.24 169.34 53.44zM373.29 1190c0-69.47 8.2-137.83 24.26-204-40.93-27.64-80.18-57.73-117.22-90.44a1051.14 1051.14 0 0 1-35.51-32.85c-23.7 71.56-39.56 145.7-47.22 221.34 54.7 47.35 113.86 89.43 175.95 126.57-.17-6.88-.26-13.75-.26-20.62z"/><path fill="#750787" d="M2255.49 1647.75c-14.09-20.43-28.8-40.43-44.25-59.86-19.01-23.92-39.06-46.83-60.03-68.77l-114.58 198.42c27.87 28.88 54.21 59.37 78.77 91.52 14.69 19.23 28.7 38.97 42.14 59.1l9.33-16.16c10.37-23.91 20.75-47.82 31.12-71.72 3.4-7.83 6.79-15.66 10.19-23.49 24.98-57.56 49.95-115.13 74.93-172.69 22.97-52.95 45.95-105.9 68.92-158.86l-96.54 222.51zm-525.32-407.74a494.738 494.738 0 0 1-28.23 122.84l-120.79-69.74 47.51-82.29-390.97-23.43-.62-.04.07-.14 44.12-88.22c-37.32-9.68-74.68-19.24-112-28.94l58.64 117.26.02.04-.62.04-335.09 20.08c.7.22 1.39.44 2.09.65 91.77 28.53 184.46 53.9 276.97 79.88l60.87-92.21.24-.37.11-.16.09.13.26.39 89.75 135.96c136.44 41.18 271.76 88.32 398.57 153.93 69.06 35.73 134.83 77.24 195.87 124.65l53.39-92.47-110.88-64.02c17.84-42.34 31.23-86 40.1-130.67a1310.34 1310.34 0 0 0-80.83-43.13c-29.15-14.25-58.72-27.54-88.64-40.02zM397.54 986c16.28-67.1 40.65-131.94 72.72-193.38-28.07-19.52-55.28-40.29-81.42-62.37a1030.77 1030.77 0 0 1-60.31-55.23c-34.22 59.89-62.21 122.72-83.73 187.69a1051.14 1051.14 0 0 0 35.51 32.85c37.05 32.71 76.31 62.8 117.23 90.44zm374.12 9.39a501.32 501.32 0 0 1 18.78-39.5c-56.36-21.16-111.75-44.78-165.55-71.81a682.132 682.132 0 0 0-19.09 41.22c-21.12 49.93-36.04 101.7-44.66 154.8 56.15 27.53 113.89 51.72 172.52 73.6 3.9-54.69 16.63-107.8 38-158.31z"/><path fill="#004DFF" d="m2080.73 1327.82-3.79 23.54L2181 1467.54l-29.78 51.57c20.96 21.94 41.01 44.85 60.03 68.77 15.44 19.43 30.16 39.42 44.25 59.86l96.54-222.51c-13.99-19.53-28.58-38.62-43.88-57.15-62.59-75.81-135.98-140.64-216.61-195.28.11 5.72.17 11.45.17 17.19-.01 46.16-3.7 92.53-10.99 137.83zM470.27 792.62a862.849 862.849 0 0 1 58.79-96.57 862.748 862.748 0 0 1 53.91-69.04c-30.34-19.86-59.72-41.15-87.9-64.01-18.71-15.18-36.83-31.05-54.36-47.51a1044.002 1044.002 0 0 0-70.78 93.04 1043.84 1043.84 0 0 0-41.38 66.49c19.35 19.18 39.45 37.61 60.31 55.23 26.13 22.09 53.34 42.85 81.41 62.37zm408.58 43.83a503.756 503.756 0 0 1 54.14-46.96c-64.02-21.14-127.07-45.14-188.24-73.42-48.6 49.96-88.77 106.29-119.86 168.01 53.8 27.03 109.19 50.64 165.55 71.81 23.26-43.87 52.88-83.91 88.41-119.44zm290.42 233.61c37.32 9.69 74.67 19.26 112 28.94l96.33-192.6c-91.83-21.73-183.81-42.84-275.04-67.03-3.57-.95-7.14-1.9-10.71-2.86h-39.38l116.8 233.55zm524.07-74.67c26.07 61.62 39.29 127.1 39.29 194.61 0 16.81-.82 33.49-2.45 50.01 29.91 12.48 59.49 25.77 88.64 40.04a1307.46 1307.46 0 0 1 80.83 43.13c8.65-43.54 13.01-88.03 13.01-133.18 0-41.37-3.67-82.19-10.93-122.23-68.62-30.78-139.36-56.38-211.14-78.77.92 2.13 1.84 4.25 2.75 6.39z"/><path fill="#008026" d="m2362.33 1401.51-94.9-106.05c3.53-34.99 5.31-70.37 5.31-105.47 0-60.96-5.27-121.29-15.61-180.45-68.96-52.44-144.48-96.24-223.85-132.14 36.48 93.52 56.27 193.16 58.27 295.4 80.63 54.64 154.02 119.46 216.61 195.28 15.3 18.53 29.89 37.62 43.88 57.15 3.43-7.9 6.86-15.81 10.29-23.72zm-1324.5-672.23c35.39-14.97 72.06-25.69 109.64-32.11V836.5h-55.64c3.57.96 7.14 1.91 10.71 2.86 91.22 24.19 183.21 45.3 275.04 67.03l34.96-69.89h-95.02V697.17c37.59 6.42 74.25 17.15 109.65 32.11 59.55 25.18 113.04 61.24 158.98 107.17 44.29 44.28 79.4 95.58 104.43 152.55 71.78 22.39 142.52 47.99 211.14 78.77-8.85-48.79-23.05-96.41-42.53-142.47-20.82-49.2-47.1-95.35-78.52-138-55.97-15.86-112.49-29.84-169.08-42.9-134.89-31.13-270.96-57.01-405.52-89.59-90.08-21.81-179.85-46.65-267-78.44-69.55 33.25-132.51 77.82-187.5 132.79-2.29 2.29-4.55 4.59-6.8 6.91 61.17 28.27 124.21 52.27 188.24 73.42 32.29-24.21 67.35-44.36 104.82-60.21zM582.97 627.01a863.77 863.77 0 0 1 121.66-115.6 856.96 856.96 0 0 1 34.08-25.27c-47.11-26.16-92.42-55.54-135.08-88.49-7.72-5.96-15.32-12.06-22.84-18.24-3.35 2.7-6.7 5.41-10.02 8.16A1045.139 1045.139 0 0 0 440.73 515.5c17.53 16.47 35.64 32.33 54.36 47.51 28.15 22.85 57.54 44.14 87.88 64z"/><path fill="#FFED00" d="M738.71 486.14c58.75-41.38 122.28-75.15 189.37-100.6l22.33-8.47 3.85-11.73c-15.38-6.29-30.66-12.85-45.81-19.71-51.91-23.5-102.27-50.51-150.06-81.54-62.85 32.22-122.33 70.83-177.61 115.31 7.52 6.19 15.13 12.28 22.84 18.24 42.67 32.96 87.98 62.33 135.09 88.5zm872.88 258.26c56.59 13.06 113.11 27.04 169.08 42.9-20.29-27.54-42.72-53.63-67.23-78.13-62.46-62.44-135.19-111.47-216.19-145.72-57.72-24.41-117.9-40.53-179.73-48.22v-43.25l-7.68-1.65c-54.36-11.88-108.65-24.86-162.36-39.81v84.71c-61.84 7.68-122.02 23.81-179.73 48.22-9.68 4.09-19.24 8.41-28.69 12.92 87.16 31.79 176.93 56.63 267 78.44 134.57 32.57 270.64 58.45 405.53 89.59zm223.91-167.02a863.894 863.894 0 0 1 100.43 118.67c39.95 56.88 72.51 117.7 97.34 181.37 79.37 35.9 154.9 79.7 223.85 132.14-20.68-118.21-61.67-231.75-121.68-336.27-6.9-2.95-13.81-5.86-20.76-8.69-90.44-36.86-184.26-64.34-279.18-87.22z"/><path fill="#FF8C00" d="m1489.28 299.95 25.29 77.12 22.34 8.47c80.28 30.45 155.46 72.8 223.46 125.87a867.143 867.143 0 0 1 75.13 65.97c94.91 22.89 188.73 50.37 279.19 87.21 6.95 2.83 13.87 5.74 20.76 8.69a1050.83 1050.83 0 0 0-40.38-64.75c-56.01-82.89-123.58-157.23-200.83-220.97-9.01-7.44-18.14-14.71-27.38-21.83-18.25-3.57-36.51-7.02-54.77-10.37-107.38-19.72-215.34-36.18-322.81-55.41zm-535.02 65.39 44.4-135.33h179.38c-55.59-16.34-110.36-35.29-163.77-57.92-54.75-23.2-107.89-50.34-158.2-82.06l-49.59 150.94c-16.23 7.29-32.26 15-48.08 23.11 47.78 31.03 98.15 58.05 150.06 81.54 15.14 6.87 30.42 13.42 45.8 19.72zm363.26 106.65V387h-170.04v43.52c53.71 14.95 108 27.92 162.36 39.81 2.56.56 5.12 1.1 7.68 1.66z"/><path fill="#E40303" d="M1178.03 230.01h288.31l22.94 69.94c107.47 19.23 215.43 35.69 322.81 55.41 18.26 3.35 36.53 6.8 54.77 10.37-64.45-49.65-134.32-91.49-208.34-124.75L1595.79 50H869.21l-13.15 40.03c50.3 31.71 103.45 58.86 158.2 82.06 53.41 22.63 108.19 41.58 163.77 57.92z"/></svg>