<?xml version="1.0" encoding="utf-8"?><svg xmlns="http://www.w3.org/2000/svg" baseProfile="tiny" version="1.2" viewBox="0 0 2225.2 2081"><path fill="#FFF" d="M1073.4 397.4v51.5l-4.2.5c-2.4.2-13.7 1.4-25.2 2.6-101.4 10.1-204.3 47.4-291.7 105.6C682.4 604.1 619.5 667 573 736.9c-31.4 47.1-59.1 103.8-76.5 156.7-48.4 146.6-43.5 304 13.9 447 4 9.9 11 25.7 15.6 35.3 4.6 9.6 8.4 17.7 8.4 18.1s-22 13.4-49 29c-26.9 15.5-49.6 28.7-50.5 29.4-1.3.9 1.2 5.8 18.2 35.3 10.9 18.9 20.1 34.3 20.4 34.3.4 0 23.3-13 50.9-29 27.6-16 50.5-29 51-29 .4 0 4.9 5.8 9.9 12.9 44 61.8 103 118.9 167 161.5 47.1 31.4 103.8 59.1 156.7 76.5 133.5 44.1 275.3 44.1 408.8 0 52.9-17.4 109.6-45.1 156.7-76.5 64.8-43.1 122.6-99.2 168.3-163.4 5.9-8.3 10.9-15 11.2-15 .2 0 22.6 12.8 49.7 28.4 27 15.7 49.9 28.8 50.8 29.1 1.2.5 5.9-6.9 21.3-33.6 17.8-30.7 19.6-34.4 18.1-35.5-.9-.7-23.7-13.9-50.6-29.4-26.9-15.6-48.9-28.6-48.9-29s3.3-7.6 7.4-16.1c55.4-115.6 74.5-254.8 52.5-383.9-15.3-90.1-49.8-177.1-100.5-253.1-40.1-60.3-91.7-114.7-150.4-158.8-32.6-24.4-61.8-42.4-100-61.5-70.7-35.3-145.1-57.1-220.6-64.6-11.5-1.2-22.8-2.4-25.1-2.6l-4.3-.5V346h-80v51.4zm0 287.6v116h-45.6c-26.5 0-45.4.4-45.2.9 1 2.9 132.4 257.1 132.8 257.1s131.7-254.2 132.8-257.1c.2-.5-19.7-.9-47.2-.9h-47.6V569h4.5c14.1 0 56.2 7 84.6 14.1 38.2 9.5 68.4 20.7 105.4 38.9 40.4 19.9 72.9 41 108 70.1 15.3 12.6 54.6 52.6 67.8 68.8 19.5 24.1 37.6 50.5 52.5 76.7 8 14.1 24.4 48.3 30.6 64.1 46 116.2 49.8 245.3 10.6 363.1-8.9 26.8-24.9 65.2-27.2 65.2-1.2 0-184.8-105.8-186.7-107.6-1.2-1 2.1-7.4 20.7-39.6 12.2-21.1 22.2-38.7 22.2-39.3 0-1 .7-1-23-2-9.6-.4-18.2-.8-19-1-.8-.1-9.8-.6-20-.9-10.2-.4-20.7-.9-23.5-1.1-2.7-.2-11.7-.7-20-1-8.2-.3-17-.8-19.5-1s-12.4-.7-22-1.1c-9.6-.3-19-.7-20.8-.9-1.8-.1-11-.6-20.5-1-9.4-.4-18.8-.8-20.7-1-1.9-.2-12-.6-22.5-1-10.4-.4-19.7-.8-20.5-1-3.8-.7-37-1.7-37-1.1 0 .4 28.4 44.9 63.2 98.9 34.7 54 69.9 108.7 78.2 121.5 13.5 21 15.1 23.2 16.3 21.6.7-1 11.5-19.5 24-41.1l22.7-39.3 3 1.8c1.7 1 43.9 25.4 93.9 54.2 49.9 28.8 90.7 52.8 90.7 53.3 0 1.5-14.8 21.4-26.9 36.2-12.3 15.1-52.1 55.4-66.6 67.4-22 18.3-46.3 35.5-70.5 50.1-16.9 10.3-57 30-75.7 37.4-126.6 50-266 50-392.6 0-18.7-7.4-58.8-27.1-75.7-37.4-24.2-14.6-48.7-31.9-70.5-50.1-14.2-11.8-52.3-50.1-64.5-64.9-11.4-13.7-27.4-34.9-26.9-35.5.2-.2 41.1-23.8 90.9-52.5 49.8-28.7 91.9-53.1 93.7-54.1l3.1-1.9 21.8 37.7c12 20.8 22.3 38.6 23 39.6 1 1.6 1.9.6 7.3-8 3.4-5.4 12.3-19.3 19.8-30.8 7.4-11.6 18.6-28.9 24.8-38.5 10.6-16.6 45-70.1 54-84 2.3-3.6 12.4-19.3 22.5-35s20.7-32.2 23.6-36.7c3-4.6 5.4-8.8 5.4-9.4 0-.7-2.4-.9-7.7-.5-4.3.3-13.9.8-21.3 1.1-7.4.3-16.9.7-21 1-8.1.5-22.1 1.2-42 2-6.9.3-15.9.7-20 1s-13.1.7-20 1c-12.7.5-24.2 1.1-41.7 2-5.4.3-19.7 1-31.8 1.5s-26.4 1.2-31.7 1.5c-5.4.3-14.2.7-19.5 1-24.3 1.2-32.3 1.8-32.3 2.4 0 .3 10.5 18.9 23.4 41.1l23.4 40.5-2.7 1.6c-8.7 5.5-185.1 106.9-185.9 106.9-1.2 0-10.5-19.8-17.7-37.6-29.1-71.8-42.4-153.9-37.5-230.9 5.7-88.8 32.8-173.2 79.8-249 10.3-16.6 26-38.4 39.9-55.6 13.2-16.2 52.5-56.2 67.8-68.8 35.1-29.1 67.6-50.2 108-70.1 37-18.2 67.2-29.4 105.4-38.9 28.8-7.2 67.9-13.8 83.4-14l5.7-.1v116z"/><path fill="#FFF" d="M2125.4 1285.2c-20.1-16.8-37.3-31.3-38.4-32.2-1.8-1.8-1.8-2.1.2-16.7 11.1-78.2 12.4-155.6 4.1-237.3-19.2-188.9-91.6-366.1-210.5-515.2-76.2-95.6-172.5-178-279.4-239.1-33.5-19.1-80.1-42-113.7-55.7-4.6-1.8-8.5-4.1-8.7-4.9-.3-.9-9.6-41.9-20.6-91.1-11.1-49.2-20.4-90.3-20.6-91.3C1437.3.1 1421 0 1114.4 0H791.6l-.6 2.7c-.3 1.6-7.3 41.7-15.6 89.3-8.2 47.6-15.3 87.1-15.7 87.8-.5.7-7.3 3.9-15.3 7.1C589.5 249.4 450 353.4 345.8 484c-108 135.4-178.7 296.8-203.9 465-1.4 9.6-3.1 18.6-3.6 19.9-2 4.9-6 43.3-7.9 76.5-1.3 23-1.3 80.8 0 105.1 1.2 21.8 3.1 42.2 6.2 68.3l2.2 18.4-4 3.7c-8.3 7.8-19.4 18-30.4 28.1-6.3 5.8-14.6 13.4-18.5 17-8.4 7.9-9.9 9.2-52.2 48.4-18.3 16.8-33.4 31-33.7 31.5-.3.4 12.2 22.8 27.7 49.7s88.1 152.5 161.2 279.1c73.1 126.7 133.4 230.3 134 230.3.6 0 8.5-2.7 17.6-6.1 9-3.3 28.6-10.5 43.4-15.9 88-32.2 109.6-40 110.4-40 .6 0 3.6 2.2 6.9 4.9 18.3 15.3 63.2 46.9 92.7 65.3 50 31.2 115.1 63 176 85.8 145.4 54.5 306.3 73.7 460.5 55 82.3-10 165.4-30.8 239.5-60 9.9-3.9 18.9-7.2 20-7.4 5.4-.9 37.4-15.5 69-31.4 51.3-26 96.2-53.8 143.3-88.9l19.3-14.3 5.2 1.6c2.9.9 6.6 2 8.2 2.6 4.7 1.5 50.3 15.7 57 17.7 11.6 3.5 65 20.2 67.5 21.1 1.4.5 7.2 2.3 13 4 5.8 1.8 14.7 4.5 19.8 6.2 5.1 1.6 9.7 2.8 10.2 2.6 1.2-.4 323.2-557.9 322.8-558.8-.3-.7-19.5-16.9-99.8-83.8zm28.3 104.7c-.5.9-61.2 105.9-134.7 233.3-80.4 139.3-134.4 231.8-135.2 231.8-.8 0-8.8-2.2-17.7-4.9-8.9-2.7-17.8-5.4-19.7-5.9-4.2-1.1-44.9-13.4-53.5-16.1-3.3-1.1-10-3.1-15-4.6-4.9-1.5-9.9-3.1-11-3.5-1.1-.5-4-1.4-6.5-2s-5.4-1.5-6.5-2-5.1-1.8-9-2.8c-3.8-1.1-12.5-3.7-19.2-5.7-12.1-3.7-12.2-3.7-14.7-1.9-1.3 1.1-8.9 7.1-16.8 13.5-24.2 19.6-68.9 51.9-71.7 51.9-.5 0-5 2.6-9.8 5.7-46.7 30.1-104.9 59.9-158.2 81-90.2 35.7-179.7 55.9-281.6 63.5-22.3 1.6-96.7 1.6-119 0-130.3-9.7-244.9-41-356.5-97.3-57.8-29.1-118.2-67.9-163.5-104.9-3.8-3.2-7.5-5.9-8.2-6.1-.6-.2-5.5-4.2-10.8-8.8l-9.7-8.3-4.7 1c-4.5 1-11 3.2-43.1 15.2-9.1 3.4-31.1 11.5-49 18s-39.9 14.6-49 17.9c-9 3.4-16.9 6.1-17.5 6.1s-61.7-105.1-135.9-233.6L71.1 1386.8l3.4-3c1.9-1.7 10.8-10.1 19.9-18.7 9.1-8.5 19.4-18.3 23-21.6 3.6-3.4 10.8-10.2 16-15.2s11.9-11.2 14.9-13.9 7.1-6.5 9.2-8.4c6.8-6.4 26.1-24.5 28.8-26.9 1.4-1.3 5.6-5.2 9.2-8.7l6.7-6.4-1.4-7.2c-5-26-10.5-73.4-10.9-92.8-.1-8-.6-29.6-1-48-1.2-53.3 2-103.9 10-156.5 39-257.1 184.1-485.7 400-630 63.1-42.3 133.9-78 202-102 11.5-4.1 12-4.4 12.8-7.6 1-4 7.5-40.5 19.8-111.4 5-28.6 9.3-53 9.6-54.3l.5-2.2h269.8c256.2 0 269.9.1 270.4 1.7.8 2.7 23.5 99.9 31.6 135.3 3.9 17.3 7.5 32.8 7.9 34.5.7 2.8 1.8 3.4 19.7 10.3 39.4 15.2 86.4 37 118.9 55.2 106 59.2 197.3 136.2 272 229 116.4 144.7 186.3 320.2 201.4 505.5 3.3 40.1 3.9 111.2 1.1 144.5-2.6 32-7.5 69.5-13.2 101.3l-1.2 6.7 4.4 4.3c2.5 2.3 8.6 7.6 13.5 11.7 5 4.1 9.5 8 10.2 8.6.6.6 5.7 4.9 11.4 9.5 5.6 4.6 14.5 12 19.8 16.4 5.3 4.5 22.4 18.8 38.1 31.9 38.2 32 35.5 29.5 34.3 31.5z"/><path fill="#FFF" d="M1073.4 397.4v51.5l-4.2.5c-2.4.2-13.7 1.4-25.2 2.6-101.4 10.1-204.3 47.4-291.7 105.6C682.4 604.1 619.5 667 573 736.9c-31.4 47.1-59.1 103.8-76.5 156.7-48.4 146.6-43.5 304 13.9 447 4 9.9 11 25.7 15.6 35.3s8.4 17.7 8.4 18.1-22 13.4-49 29c-26.9 15.5-49.6 28.7-50.5 29.4-1.3.9 1.2 5.8 18.2 35.3 10.9 18.9 20.1 34.3 20.4 34.3.4 0 23.3-13 50.9-29 27.6-16 50.5-29 51-29 .4 0 4.9 5.8 9.9 12.9 44 61.8 103 118.9 167 161.5 47.1 31.4 103.8 59.1 156.7 76.5 133.5 44.1 275.3 44.1 408.8 0 52.9-17.4 109.6-45.1 156.7-76.5 64.8-43.1 122.6-99.2 168.3-163.4 5.9-8.3 10.9-15 11.2-15 .2 0 22.6 12.8 49.7 28.4 27 15.7 49.9 28.8 50.8 29.1 1.2.5 5.9-6.9 21.3-33.6 17.8-30.7 19.6-34.4 18.1-35.5-.9-.7-23.7-13.9-50.6-29.4-26.9-15.6-48.9-28.6-48.9-29s3.3-7.6 7.4-16.1c55.4-115.6 74.5-254.8 52.5-383.9-15.3-90.1-49.8-177.1-100.5-253.1-40.1-60.3-91.7-114.7-150.4-158.8-32.6-24.4-61.8-42.4-100-61.5-70.7-35.3-145.1-57.1-220.6-64.6-11.5-1.2-22.8-2.4-25.1-2.6l-4.3-.5V346h-80v51.4zm0 287.6v116h-45.6c-26.5 0-45.4.4-45.2.9 1 2.9 132.4 257.1 132.8 257.1s131.7-254.2 132.8-257.1c.2-.5-19.7-.9-47.2-.9h-47.6V569h4.5c14.1 0 56.2 7 84.6 14.1 38.2 9.5 68.4 20.7 105.4 38.9 40.4 19.9 72.9 41 108 70.1 15.3 12.6 54.6 52.6 67.8 68.8 19.5 24.1 37.6 50.5 52.5 76.7 8 14.1 24.4 48.3 30.6 64.1 46 116.2 49.8 245.3 10.6 363.1-8.9 26.8-24.9 65.2-27.2 65.2-1.2 0-184.8-105.8-186.7-107.6-1.2-1 2.1-7.4 20.7-39.6 12.2-21.1 22.2-38.7 22.2-39.3 0-1 .7-1-23-2-9.6-.4-18.2-.8-19-1-.8-.1-9.8-.6-20-.9-10.2-.4-20.7-.9-23.5-1.1-2.7-.2-11.7-.7-20-1-8.2-.3-17-.8-19.5-1s-12.4-.7-22-1.1c-9.6-.3-19-.7-20.8-.9-1.8-.1-11-.6-20.5-1-9.4-.4-18.8-.8-20.7-1s-12-.6-22.5-1c-10.4-.4-19.7-.8-20.5-1-3.8-.7-37-1.7-37-1.1 0 .4 28.4 44.9 63.2 98.9 34.7 54 69.9 108.7 78.2 121.5 13.5 21 15.1 23.2 16.3 21.6.7-1 11.5-19.5 24-41.1l22.7-39.3 3 1.8c1.7 1 43.9 25.4 93.9 54.2 49.9 28.8 90.7 52.8 90.7 53.3 0 1.5-14.8 21.4-26.9 36.2-12.3 15.1-52.1 55.4-66.6 67.4-22 18.3-46.3 35.5-70.5 50.1-16.9 10.3-57 30-75.7 37.4-126.6 50-266 50-392.6 0-18.7-7.4-58.8-27.1-75.7-37.4-24.2-14.6-48.7-31.9-70.5-50.1-14.2-11.8-52.3-50.1-64.5-64.9-11.4-13.7-27.4-34.9-26.9-35.5.2-.2 41.1-23.8 90.9-52.5s91.9-53.1 93.7-54.1l3.1-1.9 21.8 37.7c12 20.8 22.3 38.6 23 39.6 1 1.6 1.9.6 7.3-8 3.4-5.4 12.3-19.3 19.8-30.8 7.4-11.6 18.6-28.9 24.8-38.5 10.6-16.6 45-70.1 54-84 2.3-3.6 12.4-19.3 22.5-35s20.7-32.2 23.6-36.7c3-4.6 5.4-8.8 5.4-9.4 0-.7-2.4-.9-7.7-.5-4.3.3-13.9.8-21.3 1.1s-16.9.7-21 1c-8.1.5-22.1 1.2-42 2-6.9.3-15.9.7-20 1s-13.1.7-20 1c-12.7.5-24.2 1.1-41.7 2-5.4.3-19.7 1-31.8 1.5s-26.4 1.2-31.7 1.5c-5.4.3-14.2.7-19.5 1-24.3 1.2-32.3 1.8-32.3 2.4 0 .3 10.5 18.9 23.4 41.1l23.4 40.5-2.7 1.6c-8.7 5.5-185.1 106.9-185.9 106.9-1.2 0-10.5-19.8-17.7-37.6-29.1-71.8-42.4-153.9-37.5-230.9 5.7-88.8 32.8-173.2 79.8-249 10.3-16.6 26-38.4 39.9-55.6 13.2-16.2 52.5-56.2 67.8-68.8 35.1-29.1 67.6-50.2 108-70.1 37-18.2 67.2-29.4 105.4-38.9 28.8-7.2 67.9-13.8 83.4-14l5.7-.1v116z"/></svg>